$MeshFormat
2.2 0 8
$EndMeshFormat
$PhysicalNames
8
1 1 "cell_0"
1 2 "cell_1"
1 3 "cell_2"
1 4 "cell_3"
1 5 "cell_4"
1 6 "cell_5"
1 7 "cell_6"
1 8 "cell_7"
$EndPhysicalNames
$Nodes
27
1 0 0 0
2 0 0 0.5
3 0 0 1
4 0 0.5 0
5 0 0.5 0.5
6 0 0.5 1
7 0 1 0
8 0 1 0.5
9 0 1 1
10 0.5 0 0
11 0.5 0 0.5
12 0.5 0 1
13 0.5 0.5 0
14 0.5285685022 0.4226517653 0.530032888
15 0.5 0.5 1
16 0.5 1 0
17 0.5 1 0.5
18 0.5 1 1
19 1 0 0
20 1 0 0.5
21 1 0 1
22 1 0.5 0
23 1 0.5 0.5
24 1 0.5 1
25 1 1 0
26 1 1 0.5
27 1 1 1
$EndNodes
$Elements
224
1 1 2 1 1 1 10
2 1 2 1 1 1 13
3 1 2 1 1 1 4
4 1 2 1 1 1 2
5 1 2 1 1 1 11
6 1 2 1 1 1 14
7 1 2 1 1 1 5
8 1 2 1 1 10 13
9 1 2 1 1 10 4
10 1 2 1 1 10 2
11 1 2 1 1 10 11
12 1 2 1 1 10 14
13 1 2 1 1 10 5
14 1 2 1 1 13 4
15 1 2 1 1 13 2
16 1 2 1 1 13 11
17 1 2 1 1 13 14
18 1 2 1 1 13 5
19 1 2 1 1 4 2
20 1 2 1 1 4 11
21 1 2 1 1 4 14
22 1 2 1 1 4 5
23 1 2 1 1 2 11
24 1 2 1 1 2 14
25 1 2 1 1 2 5
26 1 2 1 1 11 14
27 1 2 1 1 11 5
28 1 2 1 1 14 5
29 1 2 2 2 2 11
30 1 2 2 2 2 14
31 1 2 2 2 2 5
32 1 2 2 2 2 3
33 1 2 2 2 2 12
34 1 2 2 2 2 15
35 1 2 2 2 2 6
36 1 2 2 2 11 14
37 1 2 2 2 11 5
38 1 2 2 2 11 3
39 1 2 2 2 11 12
40 1 2 2 2 11 15
41 1 2 2 2 11 6
42 1 2 2 2 14 5
43 1 2 2 2 14 3
44 1 2 2 2 14 12
45 1 2 2 2 14 15
46 1 2 2 2 14 6
47 1 2 2 2 5 3
48 1 2 2 2 5 12
49 1 2 2 2 5 15
50 1 2 2 2 5 6
51 1 2 2 2 3 12
52 1 2 2 2 3 15
53 1 2 2 2 3 6
54 1 2 2 2 12 15
55 1 2 2 2 12 6
56 1 2 2 2 15 6
57 1 2 3 3 4 13
58 1 2 3 3 4 16
59 1 2 3 3 4 7
60 1 2 3 3 4 5
61 1 2 3 3 4 14
62 1 2 3 3 4 17
63 1 2 3 3 4 8
64 1 2 3 3 13 16
65 1 2 3 3 13 7
66 1 2 3 3 13 5
67 1 2 3 3 13 14
68 1 2 3 3 13 17
69 1 2 3 3 13 8
70 1 2 3 3 16 7
71 1 2 3 3 16 5
72 1 2 3 3 16 14
73 1 2 3 3 16 17
74 1 2 3 3 16 8
75 1 2 3 3 7 5
76 1 2 3 3 7 14
77 1 2 3 3 7 17
78 1 2 3 3 7 8
79 1 2 3 3 5 14
80 1 2 3 3 5 17
81 1 2 3 3 5 8
82 1 2 3 3 14 17
83 1 2 3 3 14 8
84 1 2 3 3 17 8
85 1 2 4 4 5 14
86 1 2 4 4 5 17
87 1 2 4 4 5 8
88 1 2 4 4 5 6
89 1 2 4 4 5 15
90 1 2 4 4 5 18
91 1 2 4 4 5 9
92 1 2 4 4 14 17
93 1 2 4 4 14 8
94 1 2 4 4 14 6
95 1 2 4 4 14 15
96 1 2 4 4 14 18
97 1 2 4 4 14 9
98 1 2 4 4 17 8
99 1 2 4 4 17 6
100 1 2 4 4 17 15
101 1 2 4 4 17 18
102 1 2 4 4 17 9
103 1 2 4 4 8 6
104 1 2 4 4 8 15
105 1 2 4 4 8 18
106 1 2 4 4 8 9
107 1 2 4 4 6 15
108 1 2 4 4 6 18
109 1 2 4 4 6 9
110 1 2 4 4 15 18
111 1 2 4 4 15 9
112 1 2 4 4 18 9
113 1 2 5 5 10 19
114 1 2 5 5 10 22
115 1 2 5 5 10 13
116 1 2 5 5 10 11
117 1 2 5 5 10 20
118 1 2 5 5 10 23
119 1 2 5 5 10 14
120 1 2 5 5 19 22
121 1 2 5 5 19 13
122 1 2 5 5 19 11
123 1 2 5 5 19 20
124 1 2 5 5 19 23
125 1 2 5 5 19 14
126 1 2 5 5 22 13
127 1 2 5 5 22 11
128 1 2 5 5 22 20
129 1 2 5 5 22 23
130 1 2 5 5 22 14
131 1 2 5 5 13 11
132 1 2 5 5 13 20
133 1 2 5 5 13 23
134 1 2 5 5 13 14
135 1 2 5 5 11 20
136 1 2 5 5 11 23
137 1 2 5 5 11 14
138 1 2 5 5 20 23
139 1 2 5 5 20 14
140 1 2 5 5 23 14
141 1 2 6 6 11 20
142 1 2 6 6 11 23
143 1 2 6 6 11 14
144 1 2 6 6 11 12
145 1 2 6 6 11 21
146 1 2 6 6 11 24
147 1 2 6 6 11 15
148 1 2 6 6 20 23
149 1 2 6 6 20 14
150 1 2 6 6 20 12
151 1 2 6 6 20 21
152 1 2 6 6 20 24
153 1 2 6 6 20 15
154 1 2 6 6 23 14
155 1 2 6 6 23 12
156 1 2 6 6 23 21
157 1 2 6 6 23 24
158 1 2 6 6 23 15
159 1 2 6 6 14 12
160 1 2 6 6 14 21
161 1 2 6 6 14 24
162 1 2 6 6 14 15
163 1 2 6 6 12 21
164 1 2 6 6 12 24
165 1 2 6 6 12 15
166 1 2 6 6 21 24
167 1 2 6 6 21 15
168 1 2 6 6 24 15
169 1 2 7 7 13 22
170 1 2 7 7 13 25
171 1 2 7 7 13 16
172 1 2 7 7 13 14
173 1 2 7 7 13 23
174 1 2 7 7 13 26
175 1 2 7 7 13 17
176 1 2 7 7 22 25
177 1 2 7 7 22 16
178 1 2 7 7 22 14
179 1 2 7 7 22 23
180 1 2 7 7 22 26
181 1 2 7 7 22 17
182 1 2 7 7 25 16
183 1 2 7 7 25 14
184 1 2 7 7 25 23
185 1 2 7 7 25 26
186 1 2 7 7 25 17
187 1 2 7 7 16 14
188 1 2 7 7 16 23
189 1 2 7 7 16 26
190 1 2 7 7 16 17
191 1 2 7 7 14 23
192 1 2 7 7 14 26
193 1 2 7 7 14 17
194 1 2 7 7 23 26
195 1 2 7 7 23 17
196 1 2 7 7 26 17
197 1 2 8 8 14 23
198 1 2 8 8 14 26
199 1 2 8 8 14 17
200 1 2 8 8 14 15
201 1 2 8 8 14 24
202 1 2 8 8 14 27
203 1 2 8 8 14 18
204 1 2 8 8 23 26
205 1 2 8 8 23 17
206 1 2 8 8 23 15
207 1 2 8 8 23 24
208 1 2 8 8 23 27
209 1 2 8 8 23 18
210 1 2 8 8 26 17
211 1 2 8 8 26 15
212 1 2 8 8 26 24
213 1 2 8 8 26 27
214 1 2 8 8 26 18
215 1 2 8 8 17 15
216 1 2 8 8 17 24
217 1 2 8 8 17 27
218 1 2 8 8 17 18
219 1 2 8 8 15 24
220 1 2 8 8 15 27
221 1 2 8 8 15 18
222 1 2 8 8 24 27
223 1 2 8 8 24 18
224 1 2 8 8 27 18
$EndElements
