$MeshFormat
2.2 0 8
$EndMeshFormat
$PhysicalNames
0
$EndPhysicalNames
$Nodes
8
1 0 0 0
2 1.2 0 0
3 1.2 1 0
4 0 1 0
5 0 0 0.8
6 1.2 0 0.8
7 1.2 1 0.8
8 0 1 0.8
$EndNodes
$Elements
28
1 1 2 0 0 1 2
2 1 2 0 0 1 3
3 1 2 0 0 1 4
4 1 2 0 0 1 5
5 1 2 0 0 1 6
6 1 2 0 0 1 7
7 1 2 0 0 1 8
8 1 2 0 0 2 3
9 1 2 0 0 2 4
10 1 2 0 0 2 5
11 1 2 0 0 2 6
12 1 2 0 0 2 7
13 1 2 0 0 2 8
14 1 2 0 0 3 4
15 1 2 0 0 3 5
16 1 2 0 0 3 6
17 1 2 0 0 3 7
18 1 2 0 0 3 8
19 1 2 0 0 4 5
20 1 2 0 0 4 6
21 1 2 0 0 4 7
22 1 2 0 0 4 8
23 1 2 0 0 5 6
24 1 2 0 0 5 7
25 1 2 0 0 5 8
26 1 2 0 0 6 7
27 1 2 0 0 6 8
28 1 2 0 0 7 8
$EndElements
