$MeshFormat
2.2 0 8
$EndMeshFormat
$PhysicalNames
1
1 1 "cell_0"
$EndPhysicalNames
$Nodes
8
1 0 0 0
2 0 0 1
3 0 1 0
4 0 1 1
5 1 0 0
6 1 0 1
7 1 1 0
8 1 1 1
$EndNodes
$Elements
28
1 1 2 1 1 1 5
2 1 2 1 1 1 7
3 1 2 1 1 1 3
4 1 2 1 1 1 2
5 1 2 1 1 1 6
6 1 2 1 1 1 8
7 1 2 1 1 1 4
8 1 2 1 1 5 7
9 1 2 1 1 5 3
10 1 2 1 1 5 2
11 1 2 1 1 5 6
12 1 2 1 1 5 8
13 1 2 1 1 5 4
14 1 2 1 1 7 3
15 1 2 1 1 7 2
16 1 2 1 1 7 6
17 1 2 1 1 7 8
18 1 2 1 1 7 4
19 1 2 1 1 3 2
20 1 2 1 1 3 6
21 1 2 1 1 3 8
22 1 2 1 1 3 4
23 1 2 1 1 2 6
24 1 2 1 1 2 8
25 1 2 1 1 2 4
26 1 2 1 1 6 8
27 1 2 1 1 6 4
28 1 2 1 1 8 4
$EndElements
