$MeshFormat
2.2 0 8
$EndMeshFormat
$PhysicalNames
7
2 1 "z_min"
2 2 "z_max"
2 3 "y_min"
2 4 "x_max"
2 5 "y_max"
2 6 "x_min"
3 7 "solid"
$EndPhysicalNames
$Nodes
132
1 0 0 0
2 20 1.5 1.5
3 20 4.5 1.5
4 0 6 0
5 0 0 6
6 20 1.5 4.5
7 20 4.5 4.5
8 0 6 6
9 4.481160970039902 0.3360870727529927 0.3360870727529927
10 8.066089772922075 0.6049567329691556 0.6049567329691556
11 10.93403282082787 0.8200524615620903 0.8200524615620903
12 13.22838726362166 0.9921290447716244 0.9921290447716244
13 15.06387079494095 1.129790309620571 1.129790309620571
14 16.5322576135847 1.239919321018852 1.239919321018852
15 17.70696708323858 1.328022531242893 1.328022531242893
16 18.64673467207733 1.3985051004058 1.3985051004058
17 19.39854873907083 1.454891155430312 1.454891155430312
18 4.481160994710702 5.663912925396698 0.3360870746033027
19 8.06608981239534 5.39504326407035 0.6049567359296505
20 10.93403286819603 5.179947534885298 0.820052465114702
21 13.2283873141482 5.007870951438885 0.9921290485611152
22 15.0638708454678 4.870209686589915 1.129790313410085
23 16.53225766209068 4.760080675343199 1.239919324656801
24 17.70696712851096 4.671977465361678 1.328022534638322
25 18.64673471346931 4.601494896489801 1.398505103510199
26 19.39854877632368 4.545108841775725 1.454891158224276
27 4.481160994710702 0.3360870746033027 5.663912925396698
28 8.06608981239534 0.6049567359296505 5.39504326407035
29 10.93403286819603 0.820052465114702 5.179947534885298
30 13.2283873141482 0.9921290485611152 5.007870951438885
31 15.0638708454678 1.129790313410085 4.870209686589915
32 16.53225766209068 1.239919324656801 4.760080675343199
33 17.70696712851096 1.328022534638322 4.671977465361678
34 18.64673471346931 1.398505103510199 4.601494896489801
35 19.39854877632368 1.454891158224276 4.545108841775725
36 4.481160994709872 5.66391292539676 5.66391292539676
37 8.066089812393995 5.39504326407045 5.39504326407045
38 10.93403286819466 5.1799475348854 5.1799475348854
39 13.22838731414727 5.007870951438955 5.007870951438955
40 15.06387084546718 4.870209686589962 4.870209686589962
41 16.53225766209028 4.760080675343229 4.760080675343229
42 17.70696712851073 4.671977465361696 4.671977465361696
43 18.64673471346919 4.601494896489811 4.601494896489811
44 19.39854877632363 4.545108841775728 4.545108841775728
45 0 1.99999999999205 0
46 0 3.999999999992323 0
47 20 2.499999999997516 1.5
48 20 3.499999999998759 1.5
49 0 1.99999999999205 6
50 0 3.999999999992323 6
51 20 2.499999999997516 4.5
52 20 3.499999999998759 4.5
53 0 0 2.999999999988572
54 20 1.5 2.999999999998139
55 0 6 2.999999999988572
56 20 4.5 2.999999999998139
57 4.481160978263503 2.112029023627502 0.3360870733697625
58 4.481160986487101 3.887970974509229 0.3360870739865321
59 8.066089786079829 2.201652243330475 0.604956733955987
60 8.066089799237586 3.798347753698204 0.6049567349428185
61 10.93403283661726 2.273350819331531 0.8200524627462942
62 10.93403285240664 3.726649177106738 0.8200524639304978
63 13.22838728046384 2.330709680323043 0.992129046034788
64 13.22838729730602 3.669290315879712 0.9921290472979513
65 15.06387081178323 2.376596768606519 1.129790310883743
66 15.06387082862552 3.623403227597304 1.129790312146914
67 16.53225762975336 2.413306439123536 1.239919322231502
68 16.53225764592202 3.586693557232727 1.239919323444152
69 17.70696709832937 2.442674175946043 1.328022532374703
70 17.70696711342017 3.557325820653438 1.328022533506513
71 18.64673468587467 2.466168365764279 1.3985051014406
72 18.646734699672 3.533831631126791 1.3985051024754
73 19.39854875148845 2.484963717542801 1.454891156361634
74 19.39854876390607 3.515036279659153 1.454891157292955
75 4.481160994710427 2.112029024861063 5.663912925396719
76 4.48116099471015 3.887970975126041 5.663912925396741
77 8.066089812394893 2.201652245304171 5.395043264070384
78 8.066089812394445 3.798347754685103 5.395043264070419
79 10.93403286819558 2.273350821699973 5.179947534885333
80 10.93403286819512 3.726649178291009 5.179947534885367
81 13.22838731414789 2.330709682849394 5.007870951438909
82 13.22838731414759 3.669290317142922 5.007870951438933
83 15.0638708454676 2.376596771132878 4.870209686589931
84 15.06387084546739 3.623403228860507 4.870209686589947
85 16.53225766209055 2.413306441548845 4.760080675343209
86 16.53225766209042 3.586693558445397 4.76008067534322
87 17.70696712851088 2.44267417820967 4.671977465361684
88 17.70696712851081 3.55732582178526 4.671977465361691
89 18.64673471346928 2.466168367833883 4.601494896489804
90 18.64673471346924 3.533831632161597 4.601494896489808
91 19.39854877632366 2.484963719405444 4.545108841775725
92 19.39854877632365 3.515036280590476 4.545108841775726
93 4.481160982375304 0.3360870736781474 2.99999999906556
94 8.066089792658712 0.604956734449403 2.999999998512182
95 10.93403284451195 0.8200524633383959 2.999999998217496
96 13.22838728888493 0.9921290466663698 2.999999998100153
97 15.06387082020438 1.129790311515328 2.99999999810102
98 16.5322576378377 1.239919322837827 2.999999998177505
99 17.70696710587477 1.328022532940608 2.999999998299328
100 18.64673469277333 1.398505101958 2.999999998445291
101 19.39854875769725 1.454891156827294 2.999999998600869
102 4.481160994710288 5.663912925396732 2.999999999990746
103 8.066089812394672 5.395043264070402 2.99999999999248
104 10.93403286819535 5.179947534885351 2.999999999993852
105 13.22838731414774 5.007870951438922 2.999999999994934
106 15.06387084546749 4.87020968658994 2.9999999999958
107 16.53225766209048 4.760080675343215 2.999999999996494
108 17.70696712851085 4.671977465361688 2.999999999997051
109 18.64673471346926 4.601494896489807 2.999999999997496
110 19.39854877632366 4.545108841775727 2.999999999997852
111 0 1.99999999999205 2.999999999988572
112 0 3.999999999992323 2.999999999988572
113 20 2.499999999997516 2.999999999998139
114 20 3.499999999998759 2.999999999998139
115 4.481160986486967 2.112029024244284 2.999999999373959
116 4.481160990598625 3.887970974817637 2.999999999682354
117 8.066089799237364 2.201652244317324 2.999999999005616
118 8.066089805816022 3.798347754191656 2.999999999499048
119 10.93403285240642 2.273350820515752 2.999999998809616
120 10.93403286030089 3.726649177698875 2.999999999401734
121 13.22838729730587 2.330709681586221 2.999999998731746
122 13.22838730572681 3.66929031651132 2.999999999363341
123 15.06387082862542 2.376596769869699 2.999999998732614
124 15.06387083704646 3.623403228228908 2.999999999364207
125 16.53225764592196 2.413306440336192 2.999999998783836
126 16.53225765400623 3.586693557839063 2.999999999390165
127 17.70696711342013 2.442674177077857 2.999999998865236
128 17.7069671209655 3.557325821219349 2.999999999431143
129 18.64673469967198 2.466168366799082 2.999999998962693
130 18.64673470657063 3.533831631644194 2.999999999480094
131 19.39854876390605 2.484963718474124 2.99999999906653
132 19.39854877011486 3.515036280124816 2.999999999532192
$EndNodes
$Elements
172
1 3 2 1 1 1 9 57 45
2 3 2 1 1 45 57 58 46
3 3 2 1 1 46 58 18 4
4 3 2 1 1 9 10 59 57
5 3 2 1 1 57 59 60 58
6 3 2 1 1 58 60 19 18
7 3 2 1 1 10 11 61 59
8 3 2 1 1 59 61 62 60
9 3 2 1 1 60 62 20 19
10 3 2 1 1 11 12 63 61
11 3 2 1 1 61 63 64 62
12 3 2 1 1 62 64 21 20
13 3 2 1 1 12 13 65 63
14 3 2 1 1 63 65 66 64
15 3 2 1 1 64 66 22 21
16 3 2 1 1 13 14 67 65
17 3 2 1 1 65 67 68 66
18 3 2 1 1 66 68 23 22
19 3 2 1 1 14 15 69 67
20 3 2 1 1 67 69 70 68
21 3 2 1 1 68 70 24 23
22 3 2 1 1 15 16 71 69
23 3 2 1 1 69 71 72 70
24 3 2 1 1 70 72 25 24
25 3 2 1 1 16 17 73 71
26 3 2 1 1 71 73 74 72
27 3 2 1 1 72 74 26 25
28 3 2 1 1 17 2 47 73
29 3 2 1 1 73 47 48 74
30 3 2 1 1 74 48 3 26
31 3 2 2 2 5 27 75 49
32 3 2 2 2 49 75 76 50
33 3 2 2 2 50 76 36 8
34 3 2 2 2 27 28 77 75
35 3 2 2 2 75 77 78 76
36 3 2 2 2 76 78 37 36
37 3 2 2 2 28 29 79 77
38 3 2 2 2 77 79 80 78
39 3 2 2 2 78 80 38 37
40 3 2 2 2 29 30 81 79
41 3 2 2 2 79 81 82 80
42 3 2 2 2 80 82 39 38
43 3 2 2 2 30 31 83 81
44 3 2 2 2 81 83 84 82
45 3 2 2 2 82 84 40 39
46 3 2 2 2 31 32 85 83
47 3 2 2 2 83 85 86 84
48 3 2 2 2 84 86 41 40
49 3 2 2 2 32 33 87 85
50 3 2 2 2 85 87 88 86
51 3 2 2 2 86 88 42 41
52 3 2 2 2 33 34 89 87
53 3 2 2 2 87 89 90 88
54 3 2 2 2 88 90 43 42
55 3 2 2 2 34 35 91 89
56 3 2 2 2 89 91 92 90
57 3 2 2 2 90 92 44 43
58 3 2 2 2 35 6 51 91
59 3 2 2 2 91 51 52 92
60 3 2 2 2 92 52 7 44
61 3 2 3 3 1 9 93 53
62 3 2 3 3 53 93 27 5
63 3 2 3 3 9 10 94 93
64 3 2 3 3 93 94 28 27
65 3 2 3 3 10 11 95 94
66 3 2 3 3 94 95 29 28
67 3 2 3 3 11 12 96 95
68 3 2 3 3 95 96 30 29
69 3 2 3 3 12 13 97 96
70 3 2 3 3 96 97 31 30
71 3 2 3 3 13 14 98 97
72 3 2 3 3 97 98 32 31
73 3 2 3 3 14 15 99 98
74 3 2 3 3 98 99 33 32
75 3 2 3 3 15 16 100 99
76 3 2 3 3 99 100 34 33
77 3 2 3 3 16 17 101 100
78 3 2 3 3 100 101 35 34
79 3 2 3 3 17 2 54 101
80 3 2 3 3 101 54 6 35
81 3 2 5 4 4 18 102 55
82 3 2 5 4 55 102 36 8
83 3 2 5 4 18 19 103 102
84 3 2 5 4 102 103 37 36
85 3 2 5 4 19 20 104 103
86 3 2 5 4 103 104 38 37
87 3 2 5 4 20 21 105 104
88 3 2 5 4 104 105 39 38
89 3 2 5 4 21 22 106 105
90 3 2 5 4 105 106 40 39
91 3 2 5 4 22 23 107 106
92 3 2 5 4 106 107 41 40
93 3 2 5 4 23 24 108 107
94 3 2 5 4 107 108 42 41
95 3 2 5 4 24 25 109 108
96 3 2 5 4 108 109 43 42
97 3 2 5 4 25 26 110 109
98 3 2 5 4 109 110 44 43
99 3 2 5 4 26 3 56 110
100 3 2 5 4 110 56 7 44
101 3 2 6 5 1 45 111 53
102 3 2 6 5 53 111 49 5
103 3 2 6 5 45 46 112 111
104 3 2 6 5 111 112 50 49
105 3 2 6 5 46 4 55 112
106 3 2 6 5 112 55 8 50
107 3 2 4 6 2 47 113 54
108 3 2 4 6 54 113 51 6
109 3 2 4 6 47 48 114 113
110 3 2 4 6 113 114 52 51
111 3 2 4 6 48 3 56 114
112 3 2 4 6 114 56 7 52
113 5 2 7 1 1 9 57 45 53 93 115 111
114 5 2 7 1 53 93 115 111 5 27 75 49
115 5 2 7 1 45 57 58 46 111 115 116 112
116 5 2 7 1 111 115 116 112 49 75 76 50
117 5 2 7 1 46 58 18 4 112 116 102 55
118 5 2 7 1 112 116 102 55 50 76 36 8
119 5 2 7 1 9 10 59 57 93 94 117 115
120 5 2 7 1 93 94 117 115 27 28 77 75
121 5 2 7 1 57 59 60 58 115 117 118 116
122 5 2 7 1 115 117 118 116 75 77 78 76
123 5 2 7 1 58 60 19 18 116 118 103 102
124 5 2 7 1 116 118 103 102 76 78 37 36
125 5 2 7 1 10 11 61 59 94 95 119 117
126 5 2 7 1 94 95 119 117 28 29 79 77
127 5 2 7 1 59 61 62 60 117 119 120 118
128 5 2 7 1 117 119 120 118 77 79 80 78
129 5 2 7 1 60 62 20 19 118 120 104 103
130 5 2 7 1 118 120 104 103 78 80 38 37
131 5 2 7 1 11 12 63 61 95 96 121 119
132 5 2 7 1 95 96 121 119 29 30 81 79
133 5 2 7 1 61 63 64 62 119 121 122 120
134 5 2 7 1 119 121 122 120 79 81 82 80
135 5 2 7 1 62 64 21 20 120 122 105 104
136 5 2 7 1 120 122 105 104 80 82 39 38
137 5 2 7 1 12 13 65 63 96 97 123 121
138 5 2 7 1 96 97 123 121 30 31 83 81
139 5 2 7 1 63 65 66 64 121 123 124 122
140 5 2 7 1 121 123 124 122 81 83 84 82
141 5 2 7 1 64 66 22 21 122 124 106 105
142 5 2 7 1 122 124 106 105 82 84 40 39
143 5 2 7 1 13 14 67 65 97 98 125 123
144 5 2 7 1 97 98 125 123 31 32 85 83
145 5 2 7 1 65 67 68 66 123 125 126 124
146 5 2 7 1 123 125 126 124 83 85 86 84
147 5 2 7 1 66 68 23 22 124 126 107 106
148 5 2 7 1 124 126 107 106 84 86 41 40
149 5 2 7 1 14 15 69 67 98 99 127 125
150 5 2 7 1 98 99 127 125 32 33 87 85
151 5 2 7 1 67 69 70 68 125 127 128 126
152 5 2 7 1 125 127 128 126 85 87 88 86
153 5 2 7 1 68 70 24 23 126 128 108 107
154 5 2 7 1 126 128 108 107 86 88 42 41
155 5 2 7 1 15 16 71 69 99 100 129 127
156 5 2 7 1 99 100 129 127 33 34 89 87
157 5 2 7 1 69 71 72 70 127 129 130 128
158 5 2 7 1 127 129 130 128 87 89 90 88
159 5 2 7 1 70 72 25 24 128 130 109 108
160 5 2 7 1 128 130 109 108 88 90 43 42
161 5 2 7 1 16 17 73 71 100 101 131 129
162 5 2 7 1 100 101 131 129 34 35 91 89
163 5 2 7 1 71 73 74 72 129 131 132 130
164 5 2 7 1 129 131 132 130 89 91 92 90
165 5 2 7 1 72 74 26 25 130 132 110 109
166 5 2 7 1 130 132 110 109 90 92 44 43
167 5 2 7 1 17 2 47 73 101 54 113 131
168 5 2 7 1 101 54 113 131 35 6 51 91
169 5 2 7 1 73 47 48 74 131 113 114 132
170 5 2 7 1 131 113 114 132 91 51 52 92
171 5 2 7 1 74 48 3 26 132 114 56 110
172 5 2 7 1 132 114 56 110 92 52 7 44
$EndElements
