$MeshFormat
2.2 0 8
$EndMeshFormat
$PhysicalNames
120
1 1 "cell_0"
1 2 "cell_1"
1 3 "cell_2"
1 4 "cell_3"
1 5 "cell_4"
1 6 "cell_5"
1 7 "cell_6"
1 8 "cell_7"
1 9 "cell_8"
1 10 "cell_9"
1 11 "cell_10"
1 12 "cell_11"
1 13 "cell_12"
1 14 "cell_13"
1 15 "cell_14"
1 16 "cell_15"
1 17 "cell_16"
1 18 "cell_17"
1 19 "cell_18"
1 20 "cell_19"
1 21 "cell_20"
1 22 "cell_21"
1 23 "cell_22"
1 24 "cell_23"
1 25 "cell_24"
1 26 "cell_25"
1 27 "cell_26"
1 28 "cell_27"
1 29 "cell_28"
1 30 "cell_29"
1 31 "cell_30"
1 32 "cell_31"
1 33 "cell_32"
1 34 "cell_33"
1 35 "cell_34"
1 36 "cell_35"
1 37 "cell_36"
1 38 "cell_37"
1 39 "cell_38"
1 40 "cell_39"
1 41 "cell_40"
1 42 "cell_41"
1 43 "cell_42"
1 44 "cell_43"
1 45 "cell_44"
1 46 "cell_45"
1 47 "cell_46"
1 48 "cell_47"
1 49 "cell_48"
1 50 "cell_49"
1 51 "cell_50"
1 52 "cell_51"
1 53 "cell_52"
1 54 "cell_53"
1 55 "cell_54"
1 56 "cell_55"
1 57 "cell_56"
1 58 "cell_57"
1 59 "cell_58"
1 60 "cell_59"
1 61 "cell_60"
1 62 "cell_61"
1 63 "cell_62"
1 64 "cell_63"
1 65 "cell_64"
1 66 "cell_65"
1 67 "cell_66"
1 68 "cell_67"
1 69 "cell_68"
1 70 "cell_69"
1 71 "cell_70"
1 72 "cell_71"
1 73 "cell_72"
1 74 "cell_73"
1 75 "cell_74"
1 76 "cell_75"
1 77 "cell_76"
1 78 "cell_77"
1 79 "cell_78"
1 80 "cell_79"
1 81 "cell_80"
1 82 "cell_81"
1 83 "cell_82"
1 84 "cell_83"
1 85 "cell_84"
1 86 "cell_85"
1 87 "cell_86"
1 88 "cell_87"
1 89 "cell_88"
1 90 "cell_89"
1 91 "cell_90"
1 92 "cell_91"
1 93 "cell_92"
1 94 "cell_93"
1 95 "cell_94"
1 96 "cell_95"
1 97 "cell_96"
1 98 "cell_97"
1 99 "cell_98"
1 100 "cell_99"
1 101 "cell_100"
1 102 "cell_101"
1 103 "cell_102"
1 104 "cell_103"
1 105 "cell_104"
1 106 "cell_105"
1 107 "cell_106"
1 108 "cell_107"
1 109 "cell_108"
1 110 "cell_109"
1 111 "cell_110"
1 112 "cell_111"
1 113 "cell_112"
1 114 "cell_113"
1 115 "cell_114"
1 116 "cell_115"
1 117 "cell_116"
1 118 "cell_117"
1 119 "cell_118"
1 120 "cell_119"
$EndPhysicalNames
$Nodes
252
1 0 0 0
2 20 2.25 2.25
3 20 3.75 2.25
4 0 6 0
5 0 0 6
6 20 2.25 3.75
7 20 3.75 3.75
8 0 6 6
9 4.046654952 0.4552486821 0.4552486821
10 7.283978877 0.8194476237 0.8194476237
11 9.873837989 1.110806774 1.110806774
12 11.94572526 1.343894092 1.343894092
13 13.60323506 1.530363944 1.530363944
14 14.92924289 1.679539825 1.679539825
15 15.99004913 1.798880527 1.798880527
16 16.8386941 1.894353087 1.894353087
17 17.51761007 1.970731133 1.970731133
18 18.06074282 2.031833567 2.031833567
19 18.49524901 2.080715514 2.080715514
20 18.84285397 2.119821072 2.119821072
21 19.12093794 2.151105518 2.151105518
22 19.3434051 2.176133074 2.176133074
23 19.52137884 2.196155119 2.196155119
24 19.66375784 2.212172757 2.212172757
25 19.77766101 2.224986864 2.224986864
26 19.86878356 2.23523815 2.23523815
27 19.94168159 2.243439179 2.243439179
28 4.046654952 5.544751318 0.4552486821
29 7.283978877 5.180552376 0.8194476237
30 9.873837989 4.889193226 1.110806774
31 11.94572526 4.656105908 1.343894092
32 13.60323506 4.469636056 1.530363944
33 14.92924289 4.320460175 1.679539825
34 15.99004913 4.201119473 1.798880527
35 16.8386941 4.105646913 1.894353087
36 17.51761007 4.029268867 1.970731133
37 18.06074282 3.968166433 2.031833567
38 18.49524901 3.919284486 2.080715514
39 18.84285397 3.880178928 2.119821072
40 19.12093794 3.848894482 2.151105518
41 19.3434051 3.823866926 2.176133074
42 19.52137884 3.803844881 2.196155119
43 19.66375784 3.787827243 2.212172757
44 19.77766101 3.775013136 2.224986864
45 19.86878356 3.76476185 2.23523815
46 19.94168159 3.756560821 2.243439179
47 4.046654952 0.4552486821 5.544751318
48 7.283978877 0.8194476237 5.180552376
49 9.873837989 1.110806774 4.889193226
50 11.94572526 1.343894092 4.656105908
51 13.60323506 1.530363944 4.469636056
52 14.92924289 1.679539825 4.320460175
53 15.99004913 1.798880527 4.201119473
54 16.8386941 1.894353087 4.105646913
55 17.51761007 1.970731133 4.029268867
56 18.06074282 2.031833567 3.968166433
57 18.49524901 2.080715514 3.919284486
58 18.84285397 2.119821072 3.880178928
59 19.12093794 2.151105518 3.848894482
60 19.3434051 2.176133074 3.823866926
61 19.52137884 2.196155119 3.803844881
62 19.66375784 2.212172757 3.787827243
63 19.77766101 2.224986864 3.775013136
64 19.86878356 2.23523815 3.76476185
65 19.94168159 2.243439179 3.756560821
66 4.046654837 5.544751331 5.544751331
67 7.283978706 5.180552396 5.180552396
68 9.873837786 4.889193249 4.889193249
69 11.94572504 4.656105933 4.656105933
70 13.60323484 4.46963608 4.46963608
71 14.92924268 4.320460199 4.320460199
72 15.99004894 4.201119494 4.201119494
73 16.83869393 4.105646933 4.105646933
74 17.51760991 4.029268885 4.029268885
75 18.06074268 3.968166448 3.968166448
76 18.49524889 3.9192845 3.9192845
77 18.84285386 3.88017894 3.88017894
78 19.12093784 3.848894493 3.848894493
79 19.34340502 3.823866936 3.823866936
80 19.52137876 3.803844889 3.803844889
81 19.66375777 3.787827251 3.787827251
82 19.77766096 3.775013142 3.775013142
83 19.86878351 3.764761855 3.764761855
84 19.94168155 3.756560826 3.756560826
85 0 2 0
86 0 4 0
87 20 2.75 2.25
88 20 3.25 2.25
89 0 2 6
90 0 4 6
91 20 2.75 3.75
92 20 3.25 3.75
93 0 0 3
94 20 2.25 3
95 0 6 3
96 20 3.75 3
97 4.046654952 2.151749561 0.4552486821
98 4.046654952 3.848250439 0.4552486821
99 7.283978877 2.273149208 0.8194476237
100 7.283978877 3.726850792 0.8194476237
101 9.873837989 2.370268925 1.110806774
102 9.873837989 3.629731075 1.110806774
103 11.94572526 2.447964697 1.343894092
104 11.94572526 3.552035303 1.343894092
105 13.60323506 2.510121315 1.530363944
106 13.60323506 3.489878685 1.530363944
107 14.92924289 2.559846608 1.679539825
108 14.92924289 3.440153392 1.679539825
109 15.99004913 2.599626842 1.798880527
110 15.99004913 3.400373158 1.798880527
111 16.8386941 2.631451029 1.894353087
112 16.8386941 3.368548971 1.894353087
113 17.51761007 2.656910378 1.970731133
114 17.51761007 3.343089622 1.970731133
115 18.06074282 2.677277856 2.031833567
116 18.06074282 3.322722144 2.031833567
117 18.49524901 2.693571838 2.080715514
118 18.49524901 3.306428162 2.080715514
119 18.84285397 2.706607024 2.119821072
120 18.84285397 3.293392976 2.119821072
121 19.12093794 2.717035173 2.151105518
122 19.12093794 3.282964827 2.151105518
123 19.3434051 2.725377691 2.176133074
124 19.3434051 3.274622309 2.176133074
125 19.52137884 2.732051706 2.196155119
126 19.52137884 3.267948294 2.196155119
127 19.66375784 2.737390919 2.212172757
128 19.66375784 3.262609081 2.212172757
129 19.77766101 2.741662288 2.224986864
130 19.77766101 3.258337712 2.224986864
131 19.86878356 2.745079383 2.23523815
132 19.86878356 3.254920617 2.23523815
133 19.94168159 2.74781306 2.243439179
134 19.94168159 3.25218694 2.243439179
135 4.046654914 2.151749565 5.544751322
136 4.046654875 3.848250448 5.544751327
137 7.28397882 2.273149214 5.180552383
138 7.283978763 3.726850805 5.180552389
139 9.873837921 2.370268932 4.889193234
140 9.873837854 3.629731091 4.889193241
141 11.94572519 2.447964705 4.656105916
142 11.94572512 3.552035319 4.656105925
143 13.60323499 2.510121323 4.469636064
144 13.60323492 3.489878701 4.469636072
145 14.92924282 2.559846616 4.320460183
146 14.92924275 3.440153407 4.320460191
147 15.99004907 2.599626849 4.20111948
148 15.990049 3.400373172 4.201119487
149 16.83869405 2.631451035 4.10564692
150 16.83869399 3.368548984 4.105646926
151 17.51761002 2.656910383 4.029268873
152 17.51760997 3.343089634 4.029268879
153 18.06074277 2.677277861 3.968166438
154 18.06074273 3.322722155 3.968166443
155 18.49524897 2.693571843 3.919284491
156 18.49524893 3.306428171 3.919284495
157 18.84285394 2.706607028 3.880178932
158 18.8428539 3.293392984 3.880178936
159 19.1209379 2.717035176 3.848894486
160 19.12093787 3.282964835 3.848894489
161 19.34340507 2.725377694 3.823866929
162 19.34340505 3.274622315 3.823866932
163 19.52137881 2.732051709 3.803844884
164 19.52137879 3.267948299 3.803844886
165 19.66375781 2.737390921 3.787827246
166 19.66375779 3.262609086 3.787827248
167 19.777661 2.74166229 3.775013138
168 19.77766098 3.258337716 3.77501314
169 19.86878354 2.745079385 3.764761852
170 19.86878353 3.25492062 3.764761853
171 19.94168158 2.747813061 3.756560823
172 19.94168156 3.252186943 3.756560824
173 4.046654952 0.4552486821 3
174 7.283978877 0.8194476237 3
175 9.873837989 1.110806774 3
176 11.94572526 1.343894092 3
177 13.60323506 1.530363944 3
178 14.92924289 1.679539825 3
179 15.99004913 1.798880527 3
180 16.8386941 1.894353087 3
181 17.51761007 1.970731133 3
182 18.06074282 2.031833567 3
183 18.49524901 2.080715514 3
184 18.84285397 2.119821072 3
185 19.12093794 2.151105518 3
186 19.3434051 2.176133074 3
187 19.52137884 2.196155119 3
188 19.66375784 2.212172757 3
189 19.77766101 2.224986864 3
190 19.86878356 2.23523815 3
191 19.94168159 2.243439179 3
192 4.046654895 5.544751324 3.000000006
193 7.283978791 5.180552386 3.00000001
194 9.873837888 4.889193238 3.000000011
195 11.94572515 4.65610592 3.000000012
196 13.60323495 4.469636068 3.000000012
197 14.92924278 4.320460187 3.000000012
198 15.99004903 4.201119484 3.000000011
199 16.83869402 4.105646923 3.00000001
200 17.51760999 4.029268876 3.000000009
201 18.06074275 3.968166441 3.000000008
202 18.49524895 3.919284493 3.000000007
203 18.84285392 3.880178934 3.000000006
204 19.12093789 3.848894488 3.000000005
205 19.34340506 3.823866931 3.000000005
206 19.5213788 3.803844885 3.000000004
207 19.6637578 3.787827247 3.000000004
208 19.77766099 3.775013139 3.000000003
209 19.86878353 3.764761852 3.000000003
210 19.94168157 3.756560823 3.000000002
211 0 2 3
212 0 4 3
213 20 2.75 3
214 20 3.25 3
215 4.046654933 2.151749563 3.000000002
216 4.046654914 3.848250444 3.000000004
217 7.283978848 2.273149211 3.000000003
218 7.28397882 3.726850799 3.000000006
219 9.873837955 2.370268928 3.000000004
220 9.873837921 3.629731083 3.000000008
221 11.94572522 2.447964701 3.000000004
222 11.94572519 3.552035311 3.000000008
223 13.60323502 2.510121319 3.000000004
224 13.60323499 3.489878693 3.000000008
225 14.92924285 2.559846612 3.000000004
226 14.92924282 3.4401534 3.000000008
227 15.9900491 2.599626846 3.000000004
228 15.99004907 3.400373165 3.000000007
229 16.83869408 2.631451032 3.000000003
230 16.83869405 3.368548978 3.000000007
231 17.51761004 2.656910381 3.000000003
232 17.51761002 3.343089628 3.000000006
233 18.0607428 2.677277858 3.000000003
234 18.06074277 3.322722149 3.000000005
235 18.49524899 2.69357184 3.000000002
236 18.49524897 3.306428167 3.000000005
237 18.84285396 2.706607026 3.000000002
238 18.84285394 3.29339298 3.000000004
239 19.12093792 2.717035174 3.000000002
240 19.1209379 3.282964831 3.000000004
241 19.34340509 2.725377693 3.000000002
242 19.34340507 3.274622312 3.000000003
243 19.52137882 2.732051708 3.000000001
244 19.52137881 3.267948296 3.000000003
245 19.66375783 2.73739092 3.000000001
246 19.66375781 3.262609084 3.000000002
247 19.77766101 2.741662289 3.000000001
248 19.777661 3.258337714 3.000000002
249 19.86878355 2.745079384 3.000000001
250 19.86878354 3.254920618 3.000000002
251 19.94168158 2.74781306 3.000000001
252 19.94168158 3.252186942 3.000000001
$EndNodes
$Elements
3360
1 1 2 1 1 1 9
2 1 2 1 1 1 97
3 1 2 1 1 1 85
4 1 2 1 1 1 93
5 1 2 1 1 1 173
6 1 2 1 1 1 215
7 1 2 1 1 1 211
8 1 2 1 1 9 97
9 1 2 1 1 9 85
10 1 2 1 1 9 93
11 1 2 1 1 9 173
12 1 2 1 1 9 215
13 1 2 1 1 9 211
14 1 2 1 1 85 97
15 1 2 1 1 93 97
16 1 2 1 1 97 173
17 1 2 1 1 97 215
18 1 2 1 1 97 211
19 1 2 1 1 85 93
20 1 2 1 1 85 173
21 1 2 1 1 85 215
22 1 2 1 1 85 211
23 1 2 1 1 93 173
24 1 2 1 1 93 215
25 1 2 1 1 93 211
26 1 2 1 1 173 215
27 1 2 1 1 173 211
28 1 2 1 1 211 215
29 1 2 2 2 93 173
30 1 2 2 2 93 215
31 1 2 2 2 93 211
32 1 2 2 2 5 93
33 1 2 2 2 47 93
34 1 2 2 2 93 135
35 1 2 2 2 89 93
36 1 2 2 2 173 215
37 1 2 2 2 173 211
38 1 2 2 2 5 173
39 1 2 2 2 47 173
40 1 2 2 2 135 173
41 1 2 2 2 89 173
42 1 2 2 2 211 215
43 1 2 2 2 5 215
44 1 2 2 2 47 215
45 1 2 2 2 135 215
46 1 2 2 2 89 215
47 1 2 2 2 5 211
48 1 2 2 2 47 211
49 1 2 2 2 135 211
50 1 2 2 2 89 211
51 1 2 2 2 5 47
52 1 2 2 2 5 135
53 1 2 2 2 5 89
54 1 2 2 2 47 135
55 1 2 2 2 47 89
56 1 2 2 2 89 135
57 1 2 3 3 85 97
58 1 2 3 3 85 98
59 1 2 3 3 85 86
60 1 2 3 3 85 211
61 1 2 3 3 85 215
62 1 2 3 3 85 216
63 1 2 3 3 85 212
64 1 2 3 3 97 98
65 1 2 3 3 86 97
66 1 2 3 3 97 211
67 1 2 3 3 97 215
68 1 2 3 3 97 216
69 1 2 3 3 97 212
70 1 2 3 3 86 98
71 1 2 3 3 98 211
72 1 2 3 3 98 215
73 1 2 3 3 98 216
74 1 2 3 3 98 212
75 1 2 3 3 86 211
76 1 2 3 3 86 215
77 1 2 3 3 86 216
78 1 2 3 3 86 212
79 1 2 3 3 211 215
80 1 2 3 3 211 216
81 1 2 3 3 211 212
82 1 2 3 3 215 216
83 1 2 3 3 212 215
84 1 2 3 3 212 216
85 1 2 4 4 211 215
86 1 2 4 4 211 216
87 1 2 4 4 211 212
88 1 2 4 4 89 211
89 1 2 4 4 135 211
90 1 2 4 4 136 211
91 1 2 4 4 90 211
92 1 2 4 4 215 216
93 1 2 4 4 212 215
94 1 2 4 4 89 215
95 1 2 4 4 135 215
96 1 2 4 4 136 215
97 1 2 4 4 90 215
98 1 2 4 4 212 216
99 1 2 4 4 89 216
100 1 2 4 4 135 216
101 1 2 4 4 136 216
102 1 2 4 4 90 216
103 1 2 4 4 89 212
104 1 2 4 4 135 212
105 1 2 4 4 136 212
106 1 2 4 4 90 212
107 1 2 4 4 89 135
108 1 2 4 4 89 136
109 1 2 4 4 89 90
110 1 2 4 4 135 136
111 1 2 4 4 90 135
112 1 2 4 4 90 136
113 1 2 5 5 86 98
114 1 2 5 5 28 86
115 1 2 5 5 4 86
116 1 2 5 5 86 212
117 1 2 5 5 86 216
118 1 2 5 5 86 192
119 1 2 5 5 86 95
120 1 2 5 5 28 98
121 1 2 5 5 4 98
122 1 2 5 5 98 212
123 1 2 5 5 98 216
124 1 2 5 5 98 192
125 1 2 5 5 95 98
126 1 2 5 5 4 28
127 1 2 5 5 28 212
128 1 2 5 5 28 216
129 1 2 5 5 28 192
130 1 2 5 5 28 95
131 1 2 5 5 4 212
132 1 2 5 5 4 216
133 1 2 5 5 4 192
134 1 2 5 5 4 95
135 1 2 5 5 212 216
136 1 2 5 5 192 212
137 1 2 5 5 95 212
138 1 2 5 5 192 216
139 1 2 5 5 95 216
140 1 2 5 5 95 192
141 1 2 6 6 212 216
142 1 2 6 6 192 212
143 1 2 6 6 95 212
144 1 2 6 6 90 212
145 1 2 6 6 136 212
146 1 2 6 6 66 212
147 1 2 6 6 8 212
148 1 2 6 6 192 216
149 1 2 6 6 95 216
150 1 2 6 6 90 216
151 1 2 6 6 136 216
152 1 2 6 6 66 216
153 1 2 6 6 8 216
154 1 2 6 6 95 192
155 1 2 6 6 90 192
156 1 2 6 6 136 192
157 1 2 6 6 66 192
158 1 2 6 6 8 192
159 1 2 6 6 90 95
160 1 2 6 6 95 136
161 1 2 6 6 66 95
162 1 2 6 6 8 95
163 1 2 6 6 90 136
164 1 2 6 6 66 90
165 1 2 6 6 8 90
166 1 2 6 6 66 136
167 1 2 6 6 8 136
168 1 2 6 6 8 66
169 1 2 7 7 9 10
170 1 2 7 7 9 99
171 1 2 7 7 9 97
172 1 2 7 7 9 173
173 1 2 7 7 9 174
174 1 2 7 7 9 217
175 1 2 7 7 9 215
176 1 2 7 7 10 99
177 1 2 7 7 10 97
178 1 2 7 7 10 173
179 1 2 7 7 10 174
180 1 2 7 7 10 217
181 1 2 7 7 10 215
182 1 2 7 7 97 99
183 1 2 7 7 99 173
184 1 2 7 7 99 174
185 1 2 7 7 99 217
186 1 2 7 7 99 215
187 1 2 7 7 97 173
188 1 2 7 7 97 174
189 1 2 7 7 97 217
190 1 2 7 7 97 215
191 1 2 7 7 173 174
192 1 2 7 7 173 217
193 1 2 7 7 173 215
194 1 2 7 7 174 217
195 1 2 7 7 174 215
196 1 2 7 7 215 217
197 1 2 8 8 173 174
198 1 2 8 8 173 217
199 1 2 8 8 173 215
200 1 2 8 8 47 173
201 1 2 8 8 48 173
202 1 2 8 8 137 173
203 1 2 8 8 135 173
204 1 2 8 8 174 217
205 1 2 8 8 174 215
206 1 2 8 8 47 174
207 1 2 8 8 48 174
208 1 2 8 8 137 174
209 1 2 8 8 135 174
210 1 2 8 8 215 217
211 1 2 8 8 47 217
212 1 2 8 8 48 217
213 1 2 8 8 137 217
214 1 2 8 8 135 217
215 1 2 8 8 47 215
216 1 2 8 8 48 215
217 1 2 8 8 137 215
218 1 2 8 8 135 215
219 1 2 8 8 47 48
220 1 2 8 8 47 137
221 1 2 8 8 47 135
222 1 2 8 8 48 137
223 1 2 8 8 48 135
224 1 2 8 8 135 137
225 1 2 9 9 97 99
226 1 2 9 9 97 100
227 1 2 9 9 97 98
228 1 2 9 9 97 215
229 1 2 9 9 97 217
230 1 2 9 9 97 218
231 1 2 9 9 97 216
232 1 2 9 9 99 100
233 1 2 9 9 98 99
234 1 2 9 9 99 215
235 1 2 9 9 99 217
236 1 2 9 9 99 218
237 1 2 9 9 99 216
238 1 2 9 9 98 100
239 1 2 9 9 100 215
240 1 2 9 9 100 217
241 1 2 9 9 100 218
242 1 2 9 9 100 216
243 1 2 9 9 98 215
244 1 2 9 9 98 217
245 1 2 9 9 98 218
246 1 2 9 9 98 216
247 1 2 9 9 215 217
248 1 2 9 9 215 218
249 1 2 9 9 215 216
250 1 2 9 9 217 218
251 1 2 9 9 216 217
252 1 2 9 9 216 218
253 1 2 10 10 215 217
254 1 2 10 10 215 218
255 1 2 10 10 215 216
256 1 2 10 10 135 215
257 1 2 10 10 137 215
258 1 2 10 10 138 215
259 1 2 10 10 136 215
260 1 2 10 10 217 218
261 1 2 10 10 216 217
262 1 2 10 10 135 217
263 1 2 10 10 137 217
264 1 2 10 10 138 217
265 1 2 10 10 136 217
266 1 2 10 10 216 218
267 1 2 10 10 135 218
268 1 2 10 10 137 218
269 1 2 10 10 138 218
270 1 2 10 10 136 218
271 1 2 10 10 135 216
272 1 2 10 10 137 216
273 1 2 10 10 138 216
274 1 2 10 10 136 216
275 1 2 10 10 135 137
276 1 2 10 10 135 138
277 1 2 10 10 135 136
278 1 2 10 10 137 138
279 1 2 10 10 136 137
280 1 2 10 10 136 138
281 1 2 11 11 98 100
282 1 2 11 11 29 98
283 1 2 11 11 28 98
284 1 2 11 11 98 216
285 1 2 11 11 98 218
286 1 2 11 11 98 193
287 1 2 11 11 98 192
288 1 2 11 11 29 100
289 1 2 11 11 28 100
290 1 2 11 11 100 216
291 1 2 11 11 100 218
292 1 2 11 11 100 193
293 1 2 11 11 100 192
294 1 2 11 11 28 29
295 1 2 11 11 29 216
296 1 2 11 11 29 218
297 1 2 11 11 29 193
298 1 2 11 11 29 192
299 1 2 11 11 28 216
300 1 2 11 11 28 218
301 1 2 11 11 28 193
302 1 2 11 11 28 192
303 1 2 11 11 216 218
304 1 2 11 11 193 216
305 1 2 11 11 192 216
306 1 2 11 11 193 218
307 1 2 11 11 192 218
308 1 2 11 11 192 193
309 1 2 12 12 216 218
310 1 2 12 12 193 216
311 1 2 12 12 192 216
312 1 2 12 12 136 216
313 1 2 12 12 138 216
314 1 2 12 12 67 216
315 1 2 12 12 66 216
316 1 2 12 12 193 218
317 1 2 12 12 192 218
318 1 2 12 12 136 218
319 1 2 12 12 138 218
320 1 2 12 12 67 218
321 1 2 12 12 66 218
322 1 2 12 12 192 193
323 1 2 12 12 136 193
324 1 2 12 12 138 193
325 1 2 12 12 67 193
326 1 2 12 12 66 193
327 1 2 12 12 136 192
328 1 2 12 12 138 192
329 1 2 12 12 67 192
330 1 2 12 12 66 192
331 1 2 12 12 136 138
332 1 2 12 12 67 136
333 1 2 12 12 66 136
334 1 2 12 12 67 138
335 1 2 12 12 66 138
336 1 2 12 12 66 67
337 1 2 13 13 10 11
338 1 2 13 13 10 101
339 1 2 13 13 10 99
340 1 2 13 13 10 174
341 1 2 13 13 10 175
342 1 2 13 13 10 219
343 1 2 13 13 10 217
344 1 2 13 13 11 101
345 1 2 13 13 11 99
346 1 2 13 13 11 174
347 1 2 13 13 11 175
348 1 2 13 13 11 219
349 1 2 13 13 11 217
350 1 2 13 13 99 101
351 1 2 13 13 101 174
352 1 2 13 13 101 175
353 1 2 13 13 101 219
354 1 2 13 13 101 217
355 1 2 13 13 99 174
356 1 2 13 13 99 175
357 1 2 13 13 99 219
358 1 2 13 13 99 217
359 1 2 13 13 174 175
360 1 2 13 13 174 219
361 1 2 13 13 174 217
362 1 2 13 13 175 219
363 1 2 13 13 175 217
364 1 2 13 13 217 219
365 1 2 14 14 174 175
366 1 2 14 14 174 219
367 1 2 14 14 174 217
368 1 2 14 14 48 174
369 1 2 14 14 49 174
370 1 2 14 14 139 174
371 1 2 14 14 137 174
372 1 2 14 14 175 219
373 1 2 14 14 175 217
374 1 2 14 14 48 175
375 1 2 14 14 49 175
376 1 2 14 14 139 175
377 1 2 14 14 137 175
378 1 2 14 14 217 219
379 1 2 14 14 48 219
380 1 2 14 14 49 219
381 1 2 14 14 139 219
382 1 2 14 14 137 219
383 1 2 14 14 48 217
384 1 2 14 14 49 217
385 1 2 14 14 139 217
386 1 2 14 14 137 217
387 1 2 14 14 48 49
388 1 2 14 14 48 139
389 1 2 14 14 48 137
390 1 2 14 14 49 139
391 1 2 14 14 49 137
392 1 2 14 14 137 139
393 1 2 15 15 99 101
394 1 2 15 15 99 102
395 1 2 15 15 99 100
396 1 2 15 15 99 217
397 1 2 15 15 99 219
398 1 2 15 15 99 220
399 1 2 15 15 99 218
400 1 2 15 15 101 102
401 1 2 15 15 100 101
402 1 2 15 15 101 217
403 1 2 15 15 101 219
404 1 2 15 15 101 220
405 1 2 15 15 101 218
406 1 2 15 15 100 102
407 1 2 15 15 102 217
408 1 2 15 15 102 219
409 1 2 15 15 102 220
410 1 2 15 15 102 218
411 1 2 15 15 100 217
412 1 2 15 15 100 219
413 1 2 15 15 100 220
414 1 2 15 15 100 218
415 1 2 15 15 217 219
416 1 2 15 15 217 220
417 1 2 15 15 217 218
418 1 2 15 15 219 220
419 1 2 15 15 218 219
420 1 2 15 15 218 220
421 1 2 16 16 217 219
422 1 2 16 16 217 220
423 1 2 16 16 217 218
424 1 2 16 16 137 217
425 1 2 16 16 139 217
426 1 2 16 16 140 217
427 1 2 16 16 138 217
428 1 2 16 16 219 220
429 1 2 16 16 218 219
430 1 2 16 16 137 219
431 1 2 16 16 139 219
432 1 2 16 16 140 219
433 1 2 16 16 138 219
434 1 2 16 16 218 220
435 1 2 16 16 137 220
436 1 2 16 16 139 220
437 1 2 16 16 140 220
438 1 2 16 16 138 220
439 1 2 16 16 137 218
440 1 2 16 16 139 218
441 1 2 16 16 140 218
442 1 2 16 16 138 218
443 1 2 16 16 137 139
444 1 2 16 16 137 140
445 1 2 16 16 137 138
446 1 2 16 16 139 140
447 1 2 16 16 138 139
448 1 2 16 16 138 140
449 1 2 17 17 100 102
450 1 2 17 17 30 100
451 1 2 17 17 29 100
452 1 2 17 17 100 218
453 1 2 17 17 100 220
454 1 2 17 17 100 194
455 1 2 17 17 100 193
456 1 2 17 17 30 102
457 1 2 17 17 29 102
458 1 2 17 17 102 218
459 1 2 17 17 102 220
460 1 2 17 17 102 194
461 1 2 17 17 102 193
462 1 2 17 17 29 30
463 1 2 17 17 30 218
464 1 2 17 17 30 220
465 1 2 17 17 30 194
466 1 2 17 17 30 193
467 1 2 17 17 29 218
468 1 2 17 17 29 220
469 1 2 17 17 29 194
470 1 2 17 17 29 193
471 1 2 17 17 218 220
472 1 2 17 17 194 218
473 1 2 17 17 193 218
474 1 2 17 17 194 220
475 1 2 17 17 193 220
476 1 2 17 17 193 194
477 1 2 18 18 218 220
478 1 2 18 18 194 218
479 1 2 18 18 193 218
480 1 2 18 18 138 218
481 1 2 18 18 140 218
482 1 2 18 18 68 218
483 1 2 18 18 67 218
484 1 2 18 18 194 220
485 1 2 18 18 193 220
486 1 2 18 18 138 220
487 1 2 18 18 140 220
488 1 2 18 18 68 220
489 1 2 18 18 67 220
490 1 2 18 18 193 194
491 1 2 18 18 138 194
492 1 2 18 18 140 194
493 1 2 18 18 68 194
494 1 2 18 18 67 194
495 1 2 18 18 138 193
496 1 2 18 18 140 193
497 1 2 18 18 68 193
498 1 2 18 18 67 193
499 1 2 18 18 138 140
500 1 2 18 18 68 138
501 1 2 18 18 67 138
502 1 2 18 18 68 140
503 1 2 18 18 67 140
504 1 2 18 18 67 68
505 1 2 19 19 11 12
506 1 2 19 19 11 103
507 1 2 19 19 11 101
508 1 2 19 19 11 175
509 1 2 19 19 11 176
510 1 2 19 19 11 221
511 1 2 19 19 11 219
512 1 2 19 19 12 103
513 1 2 19 19 12 101
514 1 2 19 19 12 175
515 1 2 19 19 12 176
516 1 2 19 19 12 221
517 1 2 19 19 12 219
518 1 2 19 19 101 103
519 1 2 19 19 103 175
520 1 2 19 19 103 176
521 1 2 19 19 103 221
522 1 2 19 19 103 219
523 1 2 19 19 101 175
524 1 2 19 19 101 176
525 1 2 19 19 101 221
526 1 2 19 19 101 219
527 1 2 19 19 175 176
528 1 2 19 19 175 221
529 1 2 19 19 175 219
530 1 2 19 19 176 221
531 1 2 19 19 176 219
532 1 2 19 19 219 221
533 1 2 20 20 175 176
534 1 2 20 20 175 221
535 1 2 20 20 175 219
536 1 2 20 20 49 175
537 1 2 20 20 50 175
538 1 2 20 20 141 175
539 1 2 20 20 139 175
540 1 2 20 20 176 221
541 1 2 20 20 176 219
542 1 2 20 20 49 176
543 1 2 20 20 50 176
544 1 2 20 20 141 176
545 1 2 20 20 139 176
546 1 2 20 20 219 221
547 1 2 20 20 49 221
548 1 2 20 20 50 221
549 1 2 20 20 141 221
550 1 2 20 20 139 221
551 1 2 20 20 49 219
552 1 2 20 20 50 219
553 1 2 20 20 141 219
554 1 2 20 20 139 219
555 1 2 20 20 49 50
556 1 2 20 20 49 141
557 1 2 20 20 49 139
558 1 2 20 20 50 141
559 1 2 20 20 50 139
560 1 2 20 20 139 141
561 1 2 21 21 101 103
562 1 2 21 21 101 104
563 1 2 21 21 101 102
564 1 2 21 21 101 219
565 1 2 21 21 101 221
566 1 2 21 21 101 222
567 1 2 21 21 101 220
568 1 2 21 21 103 104
569 1 2 21 21 102 103
570 1 2 21 21 103 219
571 1 2 21 21 103 221
572 1 2 21 21 103 222
573 1 2 21 21 103 220
574 1 2 21 21 102 104
575 1 2 21 21 104 219
576 1 2 21 21 104 221
577 1 2 21 21 104 222
578 1 2 21 21 104 220
579 1 2 21 21 102 219
580 1 2 21 21 102 221
581 1 2 21 21 102 222
582 1 2 21 21 102 220
583 1 2 21 21 219 221
584 1 2 21 21 219 222
585 1 2 21 21 219 220
586 1 2 21 21 221 222
587 1 2 21 21 220 221
588 1 2 21 21 220 222
589 1 2 22 22 219 221
590 1 2 22 22 219 222
591 1 2 22 22 219 220
592 1 2 22 22 139 219
593 1 2 22 22 141 219
594 1 2 22 22 142 219
595 1 2 22 22 140 219
596 1 2 22 22 221 222
597 1 2 22 22 220 221
598 1 2 22 22 139 221
599 1 2 22 22 141 221
600 1 2 22 22 142 221
601 1 2 22 22 140 221
602 1 2 22 22 220 222
603 1 2 22 22 139 222
604 1 2 22 22 141 222
605 1 2 22 22 142 222
606 1 2 22 22 140 222
607 1 2 22 22 139 220
608 1 2 22 22 141 220
609 1 2 22 22 142 220
610 1 2 22 22 140 220
611 1 2 22 22 139 141
612 1 2 22 22 139 142
613 1 2 22 22 139 140
614 1 2 22 22 141 142
615 1 2 22 22 140 141
616 1 2 22 22 140 142
617 1 2 23 23 102 104
618 1 2 23 23 31 102
619 1 2 23 23 30 102
620 1 2 23 23 102 220
621 1 2 23 23 102 222
622 1 2 23 23 102 195
623 1 2 23 23 102 194
624 1 2 23 23 31 104
625 1 2 23 23 30 104
626 1 2 23 23 104 220
627 1 2 23 23 104 222
628 1 2 23 23 104 195
629 1 2 23 23 104 194
630 1 2 23 23 30 31
631 1 2 23 23 31 220
632 1 2 23 23 31 222
633 1 2 23 23 31 195
634 1 2 23 23 31 194
635 1 2 23 23 30 220
636 1 2 23 23 30 222
637 1 2 23 23 30 195
638 1 2 23 23 30 194
639 1 2 23 23 220 222
640 1 2 23 23 195 220
641 1 2 23 23 194 220
642 1 2 23 23 195 222
643 1 2 23 23 194 222
644 1 2 23 23 194 195
645 1 2 24 24 220 222
646 1 2 24 24 195 220
647 1 2 24 24 194 220
648 1 2 24 24 140 220
649 1 2 24 24 142 220
650 1 2 24 24 69 220
651 1 2 24 24 68 220
652 1 2 24 24 195 222
653 1 2 24 24 194 222
654 1 2 24 24 140 222
655 1 2 24 24 142 222
656 1 2 24 24 69 222
657 1 2 24 24 68 222
658 1 2 24 24 194 195
659 1 2 24 24 140 195
660 1 2 24 24 142 195
661 1 2 24 24 69 195
662 1 2 24 24 68 195
663 1 2 24 24 140 194
664 1 2 24 24 142 194
665 1 2 24 24 69 194
666 1 2 24 24 68 194
667 1 2 24 24 140 142
668 1 2 24 24 69 140
669 1 2 24 24 68 140
670 1 2 24 24 69 142
671 1 2 24 24 68 142
672 1 2 24 24 68 69
673 1 2 25 25 12 13
674 1 2 25 25 12 105
675 1 2 25 25 12 103
676 1 2 25 25 12 176
677 1 2 25 25 12 177
678 1 2 25 25 12 223
679 1 2 25 25 12 221
680 1 2 25 25 13 105
681 1 2 25 25 13 103
682 1 2 25 25 13 176
683 1 2 25 25 13 177
684 1 2 25 25 13 223
685 1 2 25 25 13 221
686 1 2 25 25 103 105
687 1 2 25 25 105 176
688 1 2 25 25 105 177
689 1 2 25 25 105 223
690 1 2 25 25 105 221
691 1 2 25 25 103 176
692 1 2 25 25 103 177
693 1 2 25 25 103 223
694 1 2 25 25 103 221
695 1 2 25 25 176 177
696 1 2 25 25 176 223
697 1 2 25 25 176 221
698 1 2 25 25 177 223
699 1 2 25 25 177 221
700 1 2 25 25 221 223
701 1 2 26 26 176 177
702 1 2 26 26 176 223
703 1 2 26 26 176 221
704 1 2 26 26 50 176
705 1 2 26 26 51 176
706 1 2 26 26 143 176
707 1 2 26 26 141 176
708 1 2 26 26 177 223
709 1 2 26 26 177 221
710 1 2 26 26 50 177
711 1 2 26 26 51 177
712 1 2 26 26 143 177
713 1 2 26 26 141 177
714 1 2 26 26 221 223
715 1 2 26 26 50 223
716 1 2 26 26 51 223
717 1 2 26 26 143 223
718 1 2 26 26 141 223
719 1 2 26 26 50 221
720 1 2 26 26 51 221
721 1 2 26 26 143 221
722 1 2 26 26 141 221
723 1 2 26 26 50 51
724 1 2 26 26 50 143
725 1 2 26 26 50 141
726 1 2 26 26 51 143
727 1 2 26 26 51 141
728 1 2 26 26 141 143
729 1 2 27 27 103 105
730 1 2 27 27 103 106
731 1 2 27 27 103 104
732 1 2 27 27 103 221
733 1 2 27 27 103 223
734 1 2 27 27 103 224
735 1 2 27 27 103 222
736 1 2 27 27 105 106
737 1 2 27 27 104 105
738 1 2 27 27 105 221
739 1 2 27 27 105 223
740 1 2 27 27 105 224
741 1 2 27 27 105 222
742 1 2 27 27 104 106
743 1 2 27 27 106 221
744 1 2 27 27 106 223
745 1 2 27 27 106 224
746 1 2 27 27 106 222
747 1 2 27 27 104 221
748 1 2 27 27 104 223
749 1 2 27 27 104 224
750 1 2 27 27 104 222
751 1 2 27 27 221 223
752 1 2 27 27 221 224
753 1 2 27 27 221 222
754 1 2 27 27 223 224
755 1 2 27 27 222 223
756 1 2 27 27 222 224
757 1 2 28 28 221 223
758 1 2 28 28 221 224
759 1 2 28 28 221 222
760 1 2 28 28 141 221
761 1 2 28 28 143 221
762 1 2 28 28 144 221
763 1 2 28 28 142 221
764 1 2 28 28 223 224
765 1 2 28 28 222 223
766 1 2 28 28 141 223
767 1 2 28 28 143 223
768 1 2 28 28 144 223
769 1 2 28 28 142 223
770 1 2 28 28 222 224
771 1 2 28 28 141 224
772 1 2 28 28 143 224
773 1 2 28 28 144 224
774 1 2 28 28 142 224
775 1 2 28 28 141 222
776 1 2 28 28 143 222
777 1 2 28 28 144 222
778 1 2 28 28 142 222
779 1 2 28 28 141 143
780 1 2 28 28 141 144
781 1 2 28 28 141 142
782 1 2 28 28 143 144
783 1 2 28 28 142 143
784 1 2 28 28 142 144
785 1 2 29 29 104 106
786 1 2 29 29 32 104
787 1 2 29 29 31 104
788 1 2 29 29 104 222
789 1 2 29 29 104 224
790 1 2 29 29 104 196
791 1 2 29 29 104 195
792 1 2 29 29 32 106
793 1 2 29 29 31 106
794 1 2 29 29 106 222
795 1 2 29 29 106 224
796 1 2 29 29 106 196
797 1 2 29 29 106 195
798 1 2 29 29 31 32
799 1 2 29 29 32 222
800 1 2 29 29 32 224
801 1 2 29 29 32 196
802 1 2 29 29 32 195
803 1 2 29 29 31 222
804 1 2 29 29 31 224
805 1 2 29 29 31 196
806 1 2 29 29 31 195
807 1 2 29 29 222 224
808 1 2 29 29 196 222
809 1 2 29 29 195 222
810 1 2 29 29 196 224
811 1 2 29 29 195 224
812 1 2 29 29 195 196
813 1 2 30 30 222 224
814 1 2 30 30 196 222
815 1 2 30 30 195 222
816 1 2 30 30 142 222
817 1 2 30 30 144 222
818 1 2 30 30 70 222
819 1 2 30 30 69 222
820 1 2 30 30 196 224
821 1 2 30 30 195 224
822 1 2 30 30 142 224
823 1 2 30 30 144 224
824 1 2 30 30 70 224
825 1 2 30 30 69 224
826 1 2 30 30 195 196
827 1 2 30 30 142 196
828 1 2 30 30 144 196
829 1 2 30 30 70 196
830 1 2 30 30 69 196
831 1 2 30 30 142 195
832 1 2 30 30 144 195
833 1 2 30 30 70 195
834 1 2 30 30 69 195
835 1 2 30 30 142 144
836 1 2 30 30 70 142
837 1 2 30 30 69 142
838 1 2 30 30 70 144
839 1 2 30 30 69 144
840 1 2 30 30 69 70
841 1 2 31 31 13 14
842 1 2 31 31 13 107
843 1 2 31 31 13 105
844 1 2 31 31 13 177
845 1 2 31 31 13 178
846 1 2 31 31 13 225
847 1 2 31 31 13 223
848 1 2 31 31 14 107
849 1 2 31 31 14 105
850 1 2 31 31 14 177
851 1 2 31 31 14 178
852 1 2 31 31 14 225
853 1 2 31 31 14 223
854 1 2 31 31 105 107
855 1 2 31 31 107 177
856 1 2 31 31 107 178
857 1 2 31 31 107 225
858 1 2 31 31 107 223
859 1 2 31 31 105 177
860 1 2 31 31 105 178
861 1 2 31 31 105 225
862 1 2 31 31 105 223
863 1 2 31 31 177 178
864 1 2 31 31 177 225
865 1 2 31 31 177 223
866 1 2 31 31 178 225
867 1 2 31 31 178 223
868 1 2 31 31 223 225
869 1 2 32 32 177 178
870 1 2 32 32 177 225
871 1 2 32 32 177 223
872 1 2 32 32 51 177
873 1 2 32 32 52 177
874 1 2 32 32 145 177
875 1 2 32 32 143 177
876 1 2 32 32 178 225
877 1 2 32 32 178 223
878 1 2 32 32 51 178
879 1 2 32 32 52 178
880 1 2 32 32 145 178
881 1 2 32 32 143 178
882 1 2 32 32 223 225
883 1 2 32 32 51 225
884 1 2 32 32 52 225
885 1 2 32 32 145 225
886 1 2 32 32 143 225
887 1 2 32 32 51 223
888 1 2 32 32 52 223
889 1 2 32 32 145 223
890 1 2 32 32 143 223
891 1 2 32 32 51 52
892 1 2 32 32 51 145
893 1 2 32 32 51 143
894 1 2 32 32 52 145
895 1 2 32 32 52 143
896 1 2 32 32 143 145
897 1 2 33 33 105 107
898 1 2 33 33 105 108
899 1 2 33 33 105 106
900 1 2 33 33 105 223
901 1 2 33 33 105 225
902 1 2 33 33 105 226
903 1 2 33 33 105 224
904 1 2 33 33 107 108
905 1 2 33 33 106 107
906 1 2 33 33 107 223
907 1 2 33 33 107 225
908 1 2 33 33 107 226
909 1 2 33 33 107 224
910 1 2 33 33 106 108
911 1 2 33 33 108 223
912 1 2 33 33 108 225
913 1 2 33 33 108 226
914 1 2 33 33 108 224
915 1 2 33 33 106 223
916 1 2 33 33 106 225
917 1 2 33 33 106 226
918 1 2 33 33 106 224
919 1 2 33 33 223 225
920 1 2 33 33 223 226
921 1 2 33 33 223 224
922 1 2 33 33 225 226
923 1 2 33 33 224 225
924 1 2 33 33 224 226
925 1 2 34 34 223 225
926 1 2 34 34 223 226
927 1 2 34 34 223 224
928 1 2 34 34 143 223
929 1 2 34 34 145 223
930 1 2 34 34 146 223
931 1 2 34 34 144 223
932 1 2 34 34 225 226
933 1 2 34 34 224 225
934 1 2 34 34 143 225
935 1 2 34 34 145 225
936 1 2 34 34 146 225
937 1 2 34 34 144 225
938 1 2 34 34 224 226
939 1 2 34 34 143 226
940 1 2 34 34 145 226
941 1 2 34 34 146 226
942 1 2 34 34 144 226
943 1 2 34 34 143 224
944 1 2 34 34 145 224
945 1 2 34 34 146 224
946 1 2 34 34 144 224
947 1 2 34 34 143 145
948 1 2 34 34 143 146
949 1 2 34 34 143 144
950 1 2 34 34 145 146
951 1 2 34 34 144 145
952 1 2 34 34 144 146
953 1 2 35 35 106 108
954 1 2 35 35 33 106
955 1 2 35 35 32 106
956 1 2 35 35 106 224
957 1 2 35 35 106 226
958 1 2 35 35 106 197
959 1 2 35 35 106 196
960 1 2 35 35 33 108
961 1 2 35 35 32 108
962 1 2 35 35 108 224
963 1 2 35 35 108 226
964 1 2 35 35 108 197
965 1 2 35 35 108 196
966 1 2 35 35 32 33
967 1 2 35 35 33 224
968 1 2 35 35 33 226
969 1 2 35 35 33 197
970 1 2 35 35 33 196
971 1 2 35 35 32 224
972 1 2 35 35 32 226
973 1 2 35 35 32 197
974 1 2 35 35 32 196
975 1 2 35 35 224 226
976 1 2 35 35 197 224
977 1 2 35 35 196 224
978 1 2 35 35 197 226
979 1 2 35 35 196 226
980 1 2 35 35 196 197
981 1 2 36 36 224 226
982 1 2 36 36 197 224
983 1 2 36 36 196 224
984 1 2 36 36 144 224
985 1 2 36 36 146 224
986 1 2 36 36 71 224
987 1 2 36 36 70 224
988 1 2 36 36 197 226
989 1 2 36 36 196 226
990 1 2 36 36 144 226
991 1 2 36 36 146 226
992 1 2 36 36 71 226
993 1 2 36 36 70 226
994 1 2 36 36 196 197
995 1 2 36 36 144 197
996 1 2 36 36 146 197
997 1 2 36 36 71 197
998 1 2 36 36 70 197
999 1 2 36 36 144 196
1000 1 2 36 36 146 196
1001 1 2 36 36 71 196
1002 1 2 36 36 70 196
1003 1 2 36 36 144 146
1004 1 2 36 36 71 144
1005 1 2 36 36 70 144
1006 1 2 36 36 71 146
1007 1 2 36 36 70 146
1008 1 2 36 36 70 71
1009 1 2 37 37 14 15
1010 1 2 37 37 14 109
1011 1 2 37 37 14 107
1012 1 2 37 37 14 178
1013 1 2 37 37 14 179
1014 1 2 37 37 14 227
1015 1 2 37 37 14 225
1016 1 2 37 37 15 109
1017 1 2 37 37 15 107
1018 1 2 37 37 15 178
1019 1 2 37 37 15 179
1020 1 2 37 37 15 227
1021 1 2 37 37 15 225
1022 1 2 37 37 107 109
1023 1 2 37 37 109 178
1024 1 2 37 37 109 179
1025 1 2 37 37 109 227
1026 1 2 37 37 109 225
1027 1 2 37 37 107 178
1028 1 2 37 37 107 179
1029 1 2 37 37 107 227
1030 1 2 37 37 107 225
1031 1 2 37 37 178 179
1032 1 2 37 37 178 227
1033 1 2 37 37 178 225
1034 1 2 37 37 179 227
1035 1 2 37 37 179 225
1036 1 2 37 37 225 227
1037 1 2 38 38 178 179
1038 1 2 38 38 178 227
1039 1 2 38 38 178 225
1040 1 2 38 38 52 178
1041 1 2 38 38 53 178
1042 1 2 38 38 147 178
1043 1 2 38 38 145 178
1044 1 2 38 38 179 227
1045 1 2 38 38 179 225
1046 1 2 38 38 52 179
1047 1 2 38 38 53 179
1048 1 2 38 38 147 179
1049 1 2 38 38 145 179
1050 1 2 38 38 225 227
1051 1 2 38 38 52 227
1052 1 2 38 38 53 227
1053 1 2 38 38 147 227
1054 1 2 38 38 145 227
1055 1 2 38 38 52 225
1056 1 2 38 38 53 225
1057 1 2 38 38 147 225
1058 1 2 38 38 145 225
1059 1 2 38 38 52 53
1060 1 2 38 38 52 147
1061 1 2 38 38 52 145
1062 1 2 38 38 53 147
1063 1 2 38 38 53 145
1064 1 2 38 38 145 147
1065 1 2 39 39 107 109
1066 1 2 39 39 107 110
1067 1 2 39 39 107 108
1068 1 2 39 39 107 225
1069 1 2 39 39 107 227
1070 1 2 39 39 107 228
1071 1 2 39 39 107 226
1072 1 2 39 39 109 110
1073 1 2 39 39 108 109
1074 1 2 39 39 109 225
1075 1 2 39 39 109 227
1076 1 2 39 39 109 228
1077 1 2 39 39 109 226
1078 1 2 39 39 108 110
1079 1 2 39 39 110 225
1080 1 2 39 39 110 227
1081 1 2 39 39 110 228
1082 1 2 39 39 110 226
1083 1 2 39 39 108 225
1084 1 2 39 39 108 227
1085 1 2 39 39 108 228
1086 1 2 39 39 108 226
1087 1 2 39 39 225 227
1088 1 2 39 39 225 228
1089 1 2 39 39 225 226
1090 1 2 39 39 227 228
1091 1 2 39 39 226 227
1092 1 2 39 39 226 228
1093 1 2 40 40 225 227
1094 1 2 40 40 225 228
1095 1 2 40 40 225 226
1096 1 2 40 40 145 225
1097 1 2 40 40 147 225
1098 1 2 40 40 148 225
1099 1 2 40 40 146 225
1100 1 2 40 40 227 228
1101 1 2 40 40 226 227
1102 1 2 40 40 145 227
1103 1 2 40 40 147 227
1104 1 2 40 40 148 227
1105 1 2 40 40 146 227
1106 1 2 40 40 226 228
1107 1 2 40 40 145 228
1108 1 2 40 40 147 228
1109 1 2 40 40 148 228
1110 1 2 40 40 146 228
1111 1 2 40 40 145 226
1112 1 2 40 40 147 226
1113 1 2 40 40 148 226
1114 1 2 40 40 146 226
1115 1 2 40 40 145 147
1116 1 2 40 40 145 148
1117 1 2 40 40 145 146
1118 1 2 40 40 147 148
1119 1 2 40 40 146 147
1120 1 2 40 40 146 148
1121 1 2 41 41 108 110
1122 1 2 41 41 34 108
1123 1 2 41 41 33 108
1124 1 2 41 41 108 226
1125 1 2 41 41 108 228
1126 1 2 41 41 108 198
1127 1 2 41 41 108 197
1128 1 2 41 41 34 110
1129 1 2 41 41 33 110
1130 1 2 41 41 110 226
1131 1 2 41 41 110 228
1132 1 2 41 41 110 198
1133 1 2 41 41 110 197
1134 1 2 41 41 33 34
1135 1 2 41 41 34 226
1136 1 2 41 41 34 228
1137 1 2 41 41 34 198
1138 1 2 41 41 34 197
1139 1 2 41 41 33 226
1140 1 2 41 41 33 228
1141 1 2 41 41 33 198
1142 1 2 41 41 33 197
1143 1 2 41 41 226 228
1144 1 2 41 41 198 226
1145 1 2 41 41 197 226
1146 1 2 41 41 198 228
1147 1 2 41 41 197 228
1148 1 2 41 41 197 198
1149 1 2 42 42 226 228
1150 1 2 42 42 198 226
1151 1 2 42 42 197 226
1152 1 2 42 42 146 226
1153 1 2 42 42 148 226
1154 1 2 42 42 72 226
1155 1 2 42 42 71 226
1156 1 2 42 42 198 228
1157 1 2 42 42 197 228
1158 1 2 42 42 146 228
1159 1 2 42 42 148 228
1160 1 2 42 42 72 228
1161 1 2 42 42 71 228
1162 1 2 42 42 197 198
1163 1 2 42 42 146 198
1164 1 2 42 42 148 198
1165 1 2 42 42 72 198
1166 1 2 42 42 71 198
1167 1 2 42 42 146 197
1168 1 2 42 42 148 197
1169 1 2 42 42 72 197
1170 1 2 42 42 71 197
1171 1 2 42 42 146 148
1172 1 2 42 42 72 146
1173 1 2 42 42 71 146
1174 1 2 42 42 72 148
1175 1 2 42 42 71 148
1176 1 2 42 42 71 72
1177 1 2 43 43 15 16
1178 1 2 43 43 15 111
1179 1 2 43 43 15 109
1180 1 2 43 43 15 179
1181 1 2 43 43 15 180
1182 1 2 43 43 15 229
1183 1 2 43 43 15 227
1184 1 2 43 43 16 111
1185 1 2 43 43 16 109
1186 1 2 43 43 16 179
1187 1 2 43 43 16 180
1188 1 2 43 43 16 229
1189 1 2 43 43 16 227
1190 1 2 43 43 109 111
1191 1 2 43 43 111 179
1192 1 2 43 43 111 180
1193 1 2 43 43 111 229
1194 1 2 43 43 111 227
1195 1 2 43 43 109 179
1196 1 2 43 43 109 180
1197 1 2 43 43 109 229
1198 1 2 43 43 109 227
1199 1 2 43 43 179 180
1200 1 2 43 43 179 229
1201 1 2 43 43 179 227
1202 1 2 43 43 180 229
1203 1 2 43 43 180 227
1204 1 2 43 43 227 229
1205 1 2 44 44 179 180
1206 1 2 44 44 179 229
1207 1 2 44 44 179 227
1208 1 2 44 44 53 179
1209 1 2 44 44 54 179
1210 1 2 44 44 149 179
1211 1 2 44 44 147 179
1212 1 2 44 44 180 229
1213 1 2 44 44 180 227
1214 1 2 44 44 53 180
1215 1 2 44 44 54 180
1216 1 2 44 44 149 180
1217 1 2 44 44 147 180
1218 1 2 44 44 227 229
1219 1 2 44 44 53 229
1220 1 2 44 44 54 229
1221 1 2 44 44 149 229
1222 1 2 44 44 147 229
1223 1 2 44 44 53 227
1224 1 2 44 44 54 227
1225 1 2 44 44 149 227
1226 1 2 44 44 147 227
1227 1 2 44 44 53 54
1228 1 2 44 44 53 149
1229 1 2 44 44 53 147
1230 1 2 44 44 54 149
1231 1 2 44 44 54 147
1232 1 2 44 44 147 149
1233 1 2 45 45 109 111
1234 1 2 45 45 109 112
1235 1 2 45 45 109 110
1236 1 2 45 45 109 227
1237 1 2 45 45 109 229
1238 1 2 45 45 109 230
1239 1 2 45 45 109 228
1240 1 2 45 45 111 112
1241 1 2 45 45 110 111
1242 1 2 45 45 111 227
1243 1 2 45 45 111 229
1244 1 2 45 45 111 230
1245 1 2 45 45 111 228
1246 1 2 45 45 110 112
1247 1 2 45 45 112 227
1248 1 2 45 45 112 229
1249 1 2 45 45 112 230
1250 1 2 45 45 112 228
1251 1 2 45 45 110 227
1252 1 2 45 45 110 229
1253 1 2 45 45 110 230
1254 1 2 45 45 110 228
1255 1 2 45 45 227 229
1256 1 2 45 45 227 230
1257 1 2 45 45 227 228
1258 1 2 45 45 229 230
1259 1 2 45 45 228 229
1260 1 2 45 45 228 230
1261 1 2 46 46 227 229
1262 1 2 46 46 227 230
1263 1 2 46 46 227 228
1264 1 2 46 46 147 227
1265 1 2 46 46 149 227
1266 1 2 46 46 150 227
1267 1 2 46 46 148 227
1268 1 2 46 46 229 230
1269 1 2 46 46 228 229
1270 1 2 46 46 147 229
1271 1 2 46 46 149 229
1272 1 2 46 46 150 229
1273 1 2 46 46 148 229
1274 1 2 46 46 228 230
1275 1 2 46 46 147 230
1276 1 2 46 46 149 230
1277 1 2 46 46 150 230
1278 1 2 46 46 148 230
1279 1 2 46 46 147 228
1280 1 2 46 46 149 228
1281 1 2 46 46 150 228
1282 1 2 46 46 148 228
1283 1 2 46 46 147 149
1284 1 2 46 46 147 150
1285 1 2 46 46 147 148
1286 1 2 46 46 149 150
1287 1 2 46 46 148 149
1288 1 2 46 46 148 150
1289 1 2 47 47 110 112
1290 1 2 47 47 35 110
1291 1 2 47 47 34 110
1292 1 2 47 47 110 228
1293 1 2 47 47 110 230
1294 1 2 47 47 110 199
1295 1 2 47 47 110 198
1296 1 2 47 47 35 112
1297 1 2 47 47 34 112
1298 1 2 47 47 112 228
1299 1 2 47 47 112 230
1300 1 2 47 47 112 199
1301 1 2 47 47 112 198
1302 1 2 47 47 34 35
1303 1 2 47 47 35 228
1304 1 2 47 47 35 230
1305 1 2 47 47 35 199
1306 1 2 47 47 35 198
1307 1 2 47 47 34 228
1308 1 2 47 47 34 230
1309 1 2 47 47 34 199
1310 1 2 47 47 34 198
1311 1 2 47 47 228 230
1312 1 2 47 47 199 228
1313 1 2 47 47 198 228
1314 1 2 47 47 199 230
1315 1 2 47 47 198 230
1316 1 2 47 47 198 199
1317 1 2 48 48 228 230
1318 1 2 48 48 199 228
1319 1 2 48 48 198 228
1320 1 2 48 48 148 228
1321 1 2 48 48 150 228
1322 1 2 48 48 73 228
1323 1 2 48 48 72 228
1324 1 2 48 48 199 230
1325 1 2 48 48 198 230
1326 1 2 48 48 148 230
1327 1 2 48 48 150 230
1328 1 2 48 48 73 230
1329 1 2 48 48 72 230
1330 1 2 48 48 198 199
1331 1 2 48 48 148 199
1332 1 2 48 48 150 199
1333 1 2 48 48 73 199
1334 1 2 48 48 72 199
1335 1 2 48 48 148 198
1336 1 2 48 48 150 198
1337 1 2 48 48 73 198
1338 1 2 48 48 72 198
1339 1 2 48 48 148 150
1340 1 2 48 48 73 148
1341 1 2 48 48 72 148
1342 1 2 48 48 73 150
1343 1 2 48 48 72 150
1344 1 2 48 48 72 73
1345 1 2 49 49 16 17
1346 1 2 49 49 16 113
1347 1 2 49 49 16 111
1348 1 2 49 49 16 180
1349 1 2 49 49 16 181
1350 1 2 49 49 16 231
1351 1 2 49 49 16 229
1352 1 2 49 49 17 113
1353 1 2 49 49 17 111
1354 1 2 49 49 17 180
1355 1 2 49 49 17 181
1356 1 2 49 49 17 231
1357 1 2 49 49 17 229
1358 1 2 49 49 111 113
1359 1 2 49 49 113 180
1360 1 2 49 49 113 181
1361 1 2 49 49 113 231
1362 1 2 49 49 113 229
1363 1 2 49 49 111 180
1364 1 2 49 49 111 181
1365 1 2 49 49 111 231
1366 1 2 49 49 111 229
1367 1 2 49 49 180 181
1368 1 2 49 49 180 231
1369 1 2 49 49 180 229
1370 1 2 49 49 181 231
1371 1 2 49 49 181 229
1372 1 2 49 49 229 231
1373 1 2 50 50 180 181
1374 1 2 50 50 180 231
1375 1 2 50 50 180 229
1376 1 2 50 50 54 180
1377 1 2 50 50 55 180
1378 1 2 50 50 151 180
1379 1 2 50 50 149 180
1380 1 2 50 50 181 231
1381 1 2 50 50 181 229
1382 1 2 50 50 54 181
1383 1 2 50 50 55 181
1384 1 2 50 50 151 181
1385 1 2 50 50 149 181
1386 1 2 50 50 229 231
1387 1 2 50 50 54 231
1388 1 2 50 50 55 231
1389 1 2 50 50 151 231
1390 1 2 50 50 149 231
1391 1 2 50 50 54 229
1392 1 2 50 50 55 229
1393 1 2 50 50 151 229
1394 1 2 50 50 149 229
1395 1 2 50 50 54 55
1396 1 2 50 50 54 151
1397 1 2 50 50 54 149
1398 1 2 50 50 55 151
1399 1 2 50 50 55 149
1400 1 2 50 50 149 151
1401 1 2 51 51 111 113
1402 1 2 51 51 111 114
1403 1 2 51 51 111 112
1404 1 2 51 51 111 229
1405 1 2 51 51 111 231
1406 1 2 51 51 111 232
1407 1 2 51 51 111 230
1408 1 2 51 51 113 114
1409 1 2 51 51 112 113
1410 1 2 51 51 113 229
1411 1 2 51 51 113 231
1412 1 2 51 51 113 232
1413 1 2 51 51 113 230
1414 1 2 51 51 112 114
1415 1 2 51 51 114 229
1416 1 2 51 51 114 231
1417 1 2 51 51 114 232
1418 1 2 51 51 114 230
1419 1 2 51 51 112 229
1420 1 2 51 51 112 231
1421 1 2 51 51 112 232
1422 1 2 51 51 112 230
1423 1 2 51 51 229 231
1424 1 2 51 51 229 232
1425 1 2 51 51 229 230
1426 1 2 51 51 231 232
1427 1 2 51 51 230 231
1428 1 2 51 51 230 232
1429 1 2 52 52 229 231
1430 1 2 52 52 229 232
1431 1 2 52 52 229 230
1432 1 2 52 52 149 229
1433 1 2 52 52 151 229
1434 1 2 52 52 152 229
1435 1 2 52 52 150 229
1436 1 2 52 52 231 232
1437 1 2 52 52 230 231
1438 1 2 52 52 149 231
1439 1 2 52 52 151 231
1440 1 2 52 52 152 231
1441 1 2 52 52 150 231
1442 1 2 52 52 230 232
1443 1 2 52 52 149 232
1444 1 2 52 52 151 232
1445 1 2 52 52 152 232
1446 1 2 52 52 150 232
1447 1 2 52 52 149 230
1448 1 2 52 52 151 230
1449 1 2 52 52 152 230
1450 1 2 52 52 150 230
1451 1 2 52 52 149 151
1452 1 2 52 52 149 152
1453 1 2 52 52 149 150
1454 1 2 52 52 151 152
1455 1 2 52 52 150 151
1456 1 2 52 52 150 152
1457 1 2 53 53 112 114
1458 1 2 53 53 36 112
1459 1 2 53 53 35 112
1460 1 2 53 53 112 230
1461 1 2 53 53 112 232
1462 1 2 53 53 112 200
1463 1 2 53 53 112 199
1464 1 2 53 53 36 114
1465 1 2 53 53 35 114
1466 1 2 53 53 114 230
1467 1 2 53 53 114 232
1468 1 2 53 53 114 200
1469 1 2 53 53 114 199
1470 1 2 53 53 35 36
1471 1 2 53 53 36 230
1472 1 2 53 53 36 232
1473 1 2 53 53 36 200
1474 1 2 53 53 36 199
1475 1 2 53 53 35 230
1476 1 2 53 53 35 232
1477 1 2 53 53 35 200
1478 1 2 53 53 35 199
1479 1 2 53 53 230 232
1480 1 2 53 53 200 230
1481 1 2 53 53 199 230
1482 1 2 53 53 200 232
1483 1 2 53 53 199 232
1484 1 2 53 53 199 200
1485 1 2 54 54 230 232
1486 1 2 54 54 200 230
1487 1 2 54 54 199 230
1488 1 2 54 54 150 230
1489 1 2 54 54 152 230
1490 1 2 54 54 74 230
1491 1 2 54 54 73 230
1492 1 2 54 54 200 232
1493 1 2 54 54 199 232
1494 1 2 54 54 150 232
1495 1 2 54 54 152 232
1496 1 2 54 54 74 232
1497 1 2 54 54 73 232
1498 1 2 54 54 199 200
1499 1 2 54 54 150 200
1500 1 2 54 54 152 200
1501 1 2 54 54 74 200
1502 1 2 54 54 73 200
1503 1 2 54 54 150 199
1504 1 2 54 54 152 199
1505 1 2 54 54 74 199
1506 1 2 54 54 73 199
1507 1 2 54 54 150 152
1508 1 2 54 54 74 150
1509 1 2 54 54 73 150
1510 1 2 54 54 74 152
1511 1 2 54 54 73 152
1512 1 2 54 54 73 74
1513 1 2 55 55 17 18
1514 1 2 55 55 17 115
1515 1 2 55 55 17 113
1516 1 2 55 55 17 181
1517 1 2 55 55 17 182
1518 1 2 55 55 17 233
1519 1 2 55 55 17 231
1520 1 2 55 55 18 115
1521 1 2 55 55 18 113
1522 1 2 55 55 18 181
1523 1 2 55 55 18 182
1524 1 2 55 55 18 233
1525 1 2 55 55 18 231
1526 1 2 55 55 113 115
1527 1 2 55 55 115 181
1528 1 2 55 55 115 182
1529 1 2 55 55 115 233
1530 1 2 55 55 115 231
1531 1 2 55 55 113 181
1532 1 2 55 55 113 182
1533 1 2 55 55 113 233
1534 1 2 55 55 113 231
1535 1 2 55 55 181 182
1536 1 2 55 55 181 233
1537 1 2 55 55 181 231
1538 1 2 55 55 182 233
1539 1 2 55 55 182 231
1540 1 2 55 55 231 233
1541 1 2 56 56 181 182
1542 1 2 56 56 181 233
1543 1 2 56 56 181 231
1544 1 2 56 56 55 181
1545 1 2 56 56 56 181
1546 1 2 56 56 153 181
1547 1 2 56 56 151 181
1548 1 2 56 56 182 233
1549 1 2 56 56 182 231
1550 1 2 56 56 55 182
1551 1 2 56 56 56 182
1552 1 2 56 56 153 182
1553 1 2 56 56 151 182
1554 1 2 56 56 231 233
1555 1 2 56 56 55 233
1556 1 2 56 56 56 233
1557 1 2 56 56 153 233
1558 1 2 56 56 151 233
1559 1 2 56 56 55 231
1560 1 2 56 56 56 231
1561 1 2 56 56 153 231
1562 1 2 56 56 151 231
1563 1 2 56 56 55 56
1564 1 2 56 56 55 153
1565 1 2 56 56 55 151
1566 1 2 56 56 56 153
1567 1 2 56 56 56 151
1568 1 2 56 56 151 153
1569 1 2 57 57 113 115
1570 1 2 57 57 113 116
1571 1 2 57 57 113 114
1572 1 2 57 57 113 231
1573 1 2 57 57 113 233
1574 1 2 57 57 113 234
1575 1 2 57 57 113 232
1576 1 2 57 57 115 116
1577 1 2 57 57 114 115
1578 1 2 57 57 115 231
1579 1 2 57 57 115 233
1580 1 2 57 57 115 234
1581 1 2 57 57 115 232
1582 1 2 57 57 114 116
1583 1 2 57 57 116 231
1584 1 2 57 57 116 233
1585 1 2 57 57 116 234
1586 1 2 57 57 116 232
1587 1 2 57 57 114 231
1588 1 2 57 57 114 233
1589 1 2 57 57 114 234
1590 1 2 57 57 114 232
1591 1 2 57 57 231 233
1592 1 2 57 57 231 234
1593 1 2 57 57 231 232
1594 1 2 57 57 233 234
1595 1 2 57 57 232 233
1596 1 2 57 57 232 234
1597 1 2 58 58 231 233
1598 1 2 58 58 231 234
1599 1 2 58 58 231 232
1600 1 2 58 58 151 231
1601 1 2 58 58 153 231
1602 1 2 58 58 154 231
1603 1 2 58 58 152 231
1604 1 2 58 58 233 234
1605 1 2 58 58 232 233
1606 1 2 58 58 151 233
1607 1 2 58 58 153 233
1608 1 2 58 58 154 233
1609 1 2 58 58 152 233
1610 1 2 58 58 232 234
1611 1 2 58 58 151 234
1612 1 2 58 58 153 234
1613 1 2 58 58 154 234
1614 1 2 58 58 152 234
1615 1 2 58 58 151 232
1616 1 2 58 58 153 232
1617 1 2 58 58 154 232
1618 1 2 58 58 152 232
1619 1 2 58 58 151 153
1620 1 2 58 58 151 154
1621 1 2 58 58 151 152
1622 1 2 58 58 153 154
1623 1 2 58 58 152 153
1624 1 2 58 58 152 154
1625 1 2 59 59 114 116
1626 1 2 59 59 37 114
1627 1 2 59 59 36 114
1628 1 2 59 59 114 232
1629 1 2 59 59 114 234
1630 1 2 59 59 114 201
1631 1 2 59 59 114 200
1632 1 2 59 59 37 116
1633 1 2 59 59 36 116
1634 1 2 59 59 116 232
1635 1 2 59 59 116 234
1636 1 2 59 59 116 201
1637 1 2 59 59 116 200
1638 1 2 59 59 36 37
1639 1 2 59 59 37 232
1640 1 2 59 59 37 234
1641 1 2 59 59 37 201
1642 1 2 59 59 37 200
1643 1 2 59 59 36 232
1644 1 2 59 59 36 234
1645 1 2 59 59 36 201
1646 1 2 59 59 36 200
1647 1 2 59 59 232 234
1648 1 2 59 59 201 232
1649 1 2 59 59 200 232
1650 1 2 59 59 201 234
1651 1 2 59 59 200 234
1652 1 2 59 59 200 201
1653 1 2 60 60 232 234
1654 1 2 60 60 201 232
1655 1 2 60 60 200 232
1656 1 2 60 60 152 232
1657 1 2 60 60 154 232
1658 1 2 60 60 75 232
1659 1 2 60 60 74 232
1660 1 2 60 60 201 234
1661 1 2 60 60 200 234
1662 1 2 60 60 152 234
1663 1 2 60 60 154 234
1664 1 2 60 60 75 234
1665 1 2 60 60 74 234
1666 1 2 60 60 200 201
1667 1 2 60 60 152 201
1668 1 2 60 60 154 201
1669 1 2 60 60 75 201
1670 1 2 60 60 74 201
1671 1 2 60 60 152 200
1672 1 2 60 60 154 200
1673 1 2 60 60 75 200
1674 1 2 60 60 74 200
1675 1 2 60 60 152 154
1676 1 2 60 60 75 152
1677 1 2 60 60 74 152
1678 1 2 60 60 75 154
1679 1 2 60 60 74 154
1680 1 2 60 60 74 75
1681 1 2 61 61 18 19
1682 1 2 61 61 18 117
1683 1 2 61 61 18 115
1684 1 2 61 61 18 182
1685 1 2 61 61 18 183
1686 1 2 61 61 18 235
1687 1 2 61 61 18 233
1688 1 2 61 61 19 117
1689 1 2 61 61 19 115
1690 1 2 61 61 19 182
1691 1 2 61 61 19 183
1692 1 2 61 61 19 235
1693 1 2 61 61 19 233
1694 1 2 61 61 115 117
1695 1 2 61 61 117 182
1696 1 2 61 61 117 183
1697 1 2 61 61 117 235
1698 1 2 61 61 117 233
1699 1 2 61 61 115 182
1700 1 2 61 61 115 183
1701 1 2 61 61 115 235
1702 1 2 61 61 115 233
1703 1 2 61 61 182 183
1704 1 2 61 61 182 235
1705 1 2 61 61 182 233
1706 1 2 61 61 183 235
1707 1 2 61 61 183 233
1708 1 2 61 61 233 235
1709 1 2 62 62 182 183
1710 1 2 62 62 182 235
1711 1 2 62 62 182 233
1712 1 2 62 62 56 182
1713 1 2 62 62 57 182
1714 1 2 62 62 155 182
1715 1 2 62 62 153 182
1716 1 2 62 62 183 235
1717 1 2 62 62 183 233
1718 1 2 62 62 56 183
1719 1 2 62 62 57 183
1720 1 2 62 62 155 183
1721 1 2 62 62 153 183
1722 1 2 62 62 233 235
1723 1 2 62 62 56 235
1724 1 2 62 62 57 235
1725 1 2 62 62 155 235
1726 1 2 62 62 153 235
1727 1 2 62 62 56 233
1728 1 2 62 62 57 233
1729 1 2 62 62 155 233
1730 1 2 62 62 153 233
1731 1 2 62 62 56 57
1732 1 2 62 62 56 155
1733 1 2 62 62 56 153
1734 1 2 62 62 57 155
1735 1 2 62 62 57 153
1736 1 2 62 62 153 155
1737 1 2 63 63 115 117
1738 1 2 63 63 115 118
1739 1 2 63 63 115 116
1740 1 2 63 63 115 233
1741 1 2 63 63 115 235
1742 1 2 63 63 115 236
1743 1 2 63 63 115 234
1744 1 2 63 63 117 118
1745 1 2 63 63 116 117
1746 1 2 63 63 117 233
1747 1 2 63 63 117 235
1748 1 2 63 63 117 236
1749 1 2 63 63 117 234
1750 1 2 63 63 116 118
1751 1 2 63 63 118 233
1752 1 2 63 63 118 235
1753 1 2 63 63 118 236
1754 1 2 63 63 118 234
1755 1 2 63 63 116 233
1756 1 2 63 63 116 235
1757 1 2 63 63 116 236
1758 1 2 63 63 116 234
1759 1 2 63 63 233 235
1760 1 2 63 63 233 236
1761 1 2 63 63 233 234
1762 1 2 63 63 235 236
1763 1 2 63 63 234 235
1764 1 2 63 63 234 236
1765 1 2 64 64 233 235
1766 1 2 64 64 233 236
1767 1 2 64 64 233 234
1768 1 2 64 64 153 233
1769 1 2 64 64 155 233
1770 1 2 64 64 156 233
1771 1 2 64 64 154 233
1772 1 2 64 64 235 236
1773 1 2 64 64 234 235
1774 1 2 64 64 153 235
1775 1 2 64 64 155 235
1776 1 2 64 64 156 235
1777 1 2 64 64 154 235
1778 1 2 64 64 234 236
1779 1 2 64 64 153 236
1780 1 2 64 64 155 236
1781 1 2 64 64 156 236
1782 1 2 64 64 154 236
1783 1 2 64 64 153 234
1784 1 2 64 64 155 234
1785 1 2 64 64 156 234
1786 1 2 64 64 154 234
1787 1 2 64 64 153 155
1788 1 2 64 64 153 156
1789 1 2 64 64 153 154
1790 1 2 64 64 155 156
1791 1 2 64 64 154 155
1792 1 2 64 64 154 156
1793 1 2 65 65 116 118
1794 1 2 65 65 38 116
1795 1 2 65 65 37 116
1796 1 2 65 65 116 234
1797 1 2 65 65 116 236
1798 1 2 65 65 116 202
1799 1 2 65 65 116 201
1800 1 2 65 65 38 118
1801 1 2 65 65 37 118
1802 1 2 65 65 118 234
1803 1 2 65 65 118 236
1804 1 2 65 65 118 202
1805 1 2 65 65 118 201
1806 1 2 65 65 37 38
1807 1 2 65 65 38 234
1808 1 2 65 65 38 236
1809 1 2 65 65 38 202
1810 1 2 65 65 38 201
1811 1 2 65 65 37 234
1812 1 2 65 65 37 236
1813 1 2 65 65 37 202
1814 1 2 65 65 37 201
1815 1 2 65 65 234 236
1816 1 2 65 65 202 234
1817 1 2 65 65 201 234
1818 1 2 65 65 202 236
1819 1 2 65 65 201 236
1820 1 2 65 65 201 202
1821 1 2 66 66 234 236
1822 1 2 66 66 202 234
1823 1 2 66 66 201 234
1824 1 2 66 66 154 234
1825 1 2 66 66 156 234
1826 1 2 66 66 76 234
1827 1 2 66 66 75 234
1828 1 2 66 66 202 236
1829 1 2 66 66 201 236
1830 1 2 66 66 154 236
1831 1 2 66 66 156 236
1832 1 2 66 66 76 236
1833 1 2 66 66 75 236
1834 1 2 66 66 201 202
1835 1 2 66 66 154 202
1836 1 2 66 66 156 202
1837 1 2 66 66 76 202
1838 1 2 66 66 75 202
1839 1 2 66 66 154 201
1840 1 2 66 66 156 201
1841 1 2 66 66 76 201
1842 1 2 66 66 75 201
1843 1 2 66 66 154 156
1844 1 2 66 66 76 154
1845 1 2 66 66 75 154
1846 1 2 66 66 76 156
1847 1 2 66 66 75 156
1848 1 2 66 66 75 76
1849 1 2 67 67 19 20
1850 1 2 67 67 19 119
1851 1 2 67 67 19 117
1852 1 2 67 67 19 183
1853 1 2 67 67 19 184
1854 1 2 67 67 19 237
1855 1 2 67 67 19 235
1856 1 2 67 67 20 119
1857 1 2 67 67 20 117
1858 1 2 67 67 20 183
1859 1 2 67 67 20 184
1860 1 2 67 67 20 237
1861 1 2 67 67 20 235
1862 1 2 67 67 117 119
1863 1 2 67 67 119 183
1864 1 2 67 67 119 184
1865 1 2 67 67 119 237
1866 1 2 67 67 119 235
1867 1 2 67 67 117 183
1868 1 2 67 67 117 184
1869 1 2 67 67 117 237
1870 1 2 67 67 117 235
1871 1 2 67 67 183 184
1872 1 2 67 67 183 237
1873 1 2 67 67 183 235
1874 1 2 67 67 184 237
1875 1 2 67 67 184 235
1876 1 2 67 67 235 237
1877 1 2 68 68 183 184
1878 1 2 68 68 183 237
1879 1 2 68 68 183 235
1880 1 2 68 68 57 183
1881 1 2 68 68 58 183
1882 1 2 68 68 157 183
1883 1 2 68 68 155 183
1884 1 2 68 68 184 237
1885 1 2 68 68 184 235
1886 1 2 68 68 57 184
1887 1 2 68 68 58 184
1888 1 2 68 68 157 184
1889 1 2 68 68 155 184
1890 1 2 68 68 235 237
1891 1 2 68 68 57 237
1892 1 2 68 68 58 237
1893 1 2 68 68 157 237
1894 1 2 68 68 155 237
1895 1 2 68 68 57 235
1896 1 2 68 68 58 235
1897 1 2 68 68 157 235
1898 1 2 68 68 155 235
1899 1 2 68 68 57 58
1900 1 2 68 68 57 157
1901 1 2 68 68 57 155
1902 1 2 68 68 58 157
1903 1 2 68 68 58 155
1904 1 2 68 68 155 157
1905 1 2 69 69 117 119
1906 1 2 69 69 117 120
1907 1 2 69 69 117 118
1908 1 2 69 69 117 235
1909 1 2 69 69 117 237
1910 1 2 69 69 117 238
1911 1 2 69 69 117 236
1912 1 2 69 69 119 120
1913 1 2 69 69 118 119
1914 1 2 69 69 119 235
1915 1 2 69 69 119 237
1916 1 2 69 69 119 238
1917 1 2 69 69 119 236
1918 1 2 69 69 118 120
1919 1 2 69 69 120 235
1920 1 2 69 69 120 237
1921 1 2 69 69 120 238
1922 1 2 69 69 120 236
1923 1 2 69 69 118 235
1924 1 2 69 69 118 237
1925 1 2 69 69 118 238
1926 1 2 69 69 118 236
1927 1 2 69 69 235 237
1928 1 2 69 69 235 238
1929 1 2 69 69 235 236
1930 1 2 69 69 237 238
1931 1 2 69 69 236 237
1932 1 2 69 69 236 238
1933 1 2 70 70 235 237
1934 1 2 70 70 235 238
1935 1 2 70 70 235 236
1936 1 2 70 70 155 235
1937 1 2 70 70 157 235
1938 1 2 70 70 158 235
1939 1 2 70 70 156 235
1940 1 2 70 70 237 238
1941 1 2 70 70 236 237
1942 1 2 70 70 155 237
1943 1 2 70 70 157 237
1944 1 2 70 70 158 237
1945 1 2 70 70 156 237
1946 1 2 70 70 236 238
1947 1 2 70 70 155 238
1948 1 2 70 70 157 238
1949 1 2 70 70 158 238
1950 1 2 70 70 156 238
1951 1 2 70 70 155 236
1952 1 2 70 70 157 236
1953 1 2 70 70 158 236
1954 1 2 70 70 156 236
1955 1 2 70 70 155 157
1956 1 2 70 70 155 158
1957 1 2 70 70 155 156
1958 1 2 70 70 157 158
1959 1 2 70 70 156 157
1960 1 2 70 70 156 158
1961 1 2 71 71 118 120
1962 1 2 71 71 39 118
1963 1 2 71 71 38 118
1964 1 2 71 71 118 236
1965 1 2 71 71 118 238
1966 1 2 71 71 118 203
1967 1 2 71 71 118 202
1968 1 2 71 71 39 120
1969 1 2 71 71 38 120
1970 1 2 71 71 120 236
1971 1 2 71 71 120 238
1972 1 2 71 71 120 203
1973 1 2 71 71 120 202
1974 1 2 71 71 38 39
1975 1 2 71 71 39 236
1976 1 2 71 71 39 238
1977 1 2 71 71 39 203
1978 1 2 71 71 39 202
1979 1 2 71 71 38 236
1980 1 2 71 71 38 238
1981 1 2 71 71 38 203
1982 1 2 71 71 38 202
1983 1 2 71 71 236 238
1984 1 2 71 71 203 236
1985 1 2 71 71 202 236
1986 1 2 71 71 203 238
1987 1 2 71 71 202 238
1988 1 2 71 71 202 203
1989 1 2 72 72 236 238
1990 1 2 72 72 203 236
1991 1 2 72 72 202 236
1992 1 2 72 72 156 236
1993 1 2 72 72 158 236
1994 1 2 72 72 77 236
1995 1 2 72 72 76 236
1996 1 2 72 72 203 238
1997 1 2 72 72 202 238
1998 1 2 72 72 156 238
1999 1 2 72 72 158 238
2000 1 2 72 72 77 238
2001 1 2 72 72 76 238
2002 1 2 72 72 202 203
2003 1 2 72 72 156 203
2004 1 2 72 72 158 203
2005 1 2 72 72 77 203
2006 1 2 72 72 76 203
2007 1 2 72 72 156 202
2008 1 2 72 72 158 202
2009 1 2 72 72 77 202
2010 1 2 72 72 76 202
2011 1 2 72 72 156 158
2012 1 2 72 72 77 156
2013 1 2 72 72 76 156
2014 1 2 72 72 77 158
2015 1 2 72 72 76 158
2016 1 2 72 72 76 77
2017 1 2 73 73 20 21
2018 1 2 73 73 20 121
2019 1 2 73 73 20 119
2020 1 2 73 73 20 184
2021 1 2 73 73 20 185
2022 1 2 73 73 20 239
2023 1 2 73 73 20 237
2024 1 2 73 73 21 121
2025 1 2 73 73 21 119
2026 1 2 73 73 21 184
2027 1 2 73 73 21 185
2028 1 2 73 73 21 239
2029 1 2 73 73 21 237
2030 1 2 73 73 119 121
2031 1 2 73 73 121 184
2032 1 2 73 73 121 185
2033 1 2 73 73 121 239
2034 1 2 73 73 121 237
2035 1 2 73 73 119 184
2036 1 2 73 73 119 185
2037 1 2 73 73 119 239
2038 1 2 73 73 119 237
2039 1 2 73 73 184 185
2040 1 2 73 73 184 239
2041 1 2 73 73 184 237
2042 1 2 73 73 185 239
2043 1 2 73 73 185 237
2044 1 2 73 73 237 239
2045 1 2 74 74 184 185
2046 1 2 74 74 184 239
2047 1 2 74 74 184 237
2048 1 2 74 74 58 184
2049 1 2 74 74 59 184
2050 1 2 74 74 159 184
2051 1 2 74 74 157 184
2052 1 2 74 74 185 239
2053 1 2 74 74 185 237
2054 1 2 74 74 58 185
2055 1 2 74 74 59 185
2056 1 2 74 74 159 185
2057 1 2 74 74 157 185
2058 1 2 74 74 237 239
2059 1 2 74 74 58 239
2060 1 2 74 74 59 239
2061 1 2 74 74 159 239
2062 1 2 74 74 157 239
2063 1 2 74 74 58 237
2064 1 2 74 74 59 237
2065 1 2 74 74 159 237
2066 1 2 74 74 157 237
2067 1 2 74 74 58 59
2068 1 2 74 74 58 159
2069 1 2 74 74 58 157
2070 1 2 74 74 59 159
2071 1 2 74 74 59 157
2072 1 2 74 74 157 159
2073 1 2 75 75 119 121
2074 1 2 75 75 119 122
2075 1 2 75 75 119 120
2076 1 2 75 75 119 237
2077 1 2 75 75 119 239
2078 1 2 75 75 119 240
2079 1 2 75 75 119 238
2080 1 2 75 75 121 122
2081 1 2 75 75 120 121
2082 1 2 75 75 121 237
2083 1 2 75 75 121 239
2084 1 2 75 75 121 240
2085 1 2 75 75 121 238
2086 1 2 75 75 120 122
2087 1 2 75 75 122 237
2088 1 2 75 75 122 239
2089 1 2 75 75 122 240
2090 1 2 75 75 122 238
2091 1 2 75 75 120 237
2092 1 2 75 75 120 239
2093 1 2 75 75 120 240
2094 1 2 75 75 120 238
2095 1 2 75 75 237 239
2096 1 2 75 75 237 240
2097 1 2 75 75 237 238
2098 1 2 75 75 239 240
2099 1 2 75 75 238 239
2100 1 2 75 75 238 240
2101 1 2 76 76 237 239
2102 1 2 76 76 237 240
2103 1 2 76 76 237 238
2104 1 2 76 76 157 237
2105 1 2 76 76 159 237
2106 1 2 76 76 160 237
2107 1 2 76 76 158 237
2108 1 2 76 76 239 240
2109 1 2 76 76 238 239
2110 1 2 76 76 157 239
2111 1 2 76 76 159 239
2112 1 2 76 76 160 239
2113 1 2 76 76 158 239
2114 1 2 76 76 238 240
2115 1 2 76 76 157 240
2116 1 2 76 76 159 240
2117 1 2 76 76 160 240
2118 1 2 76 76 158 240
2119 1 2 76 76 157 238
2120 1 2 76 76 159 238
2121 1 2 76 76 160 238
2122 1 2 76 76 158 238
2123 1 2 76 76 157 159
2124 1 2 76 76 157 160
2125 1 2 76 76 157 158
2126 1 2 76 76 159 160
2127 1 2 76 76 158 159
2128 1 2 76 76 158 160
2129 1 2 77 77 120 122
2130 1 2 77 77 40 120
2131 1 2 77 77 39 120
2132 1 2 77 77 120 238
2133 1 2 77 77 120 240
2134 1 2 77 77 120 204
2135 1 2 77 77 120 203
2136 1 2 77 77 40 122
2137 1 2 77 77 39 122
2138 1 2 77 77 122 238
2139 1 2 77 77 122 240
2140 1 2 77 77 122 204
2141 1 2 77 77 122 203
2142 1 2 77 77 39 40
2143 1 2 77 77 40 238
2144 1 2 77 77 40 240
2145 1 2 77 77 40 204
2146 1 2 77 77 40 203
2147 1 2 77 77 39 238
2148 1 2 77 77 39 240
2149 1 2 77 77 39 204
2150 1 2 77 77 39 203
2151 1 2 77 77 238 240
2152 1 2 77 77 204 238
2153 1 2 77 77 203 238
2154 1 2 77 77 204 240
2155 1 2 77 77 203 240
2156 1 2 77 77 203 204
2157 1 2 78 78 238 240
2158 1 2 78 78 204 238
2159 1 2 78 78 203 238
2160 1 2 78 78 158 238
2161 1 2 78 78 160 238
2162 1 2 78 78 78 238
2163 1 2 78 78 77 238
2164 1 2 78 78 204 240
2165 1 2 78 78 203 240
2166 1 2 78 78 158 240
2167 1 2 78 78 160 240
2168 1 2 78 78 78 240
2169 1 2 78 78 77 240
2170 1 2 78 78 203 204
2171 1 2 78 78 158 204
2172 1 2 78 78 160 204
2173 1 2 78 78 78 204
2174 1 2 78 78 77 204
2175 1 2 78 78 158 203
2176 1 2 78 78 160 203
2177 1 2 78 78 78 203
2178 1 2 78 78 77 203
2179 1 2 78 78 158 160
2180 1 2 78 78 78 158
2181 1 2 78 78 77 158
2182 1 2 78 78 78 160
2183 1 2 78 78 77 160
2184 1 2 78 78 77 78
2185 1 2 79 79 21 22
2186 1 2 79 79 21 123
2187 1 2 79 79 21 121
2188 1 2 79 79 21 185
2189 1 2 79 79 21 186
2190 1 2 79 79 21 241
2191 1 2 79 79 21 239
2192 1 2 79 79 22 123
2193 1 2 79 79 22 121
2194 1 2 79 79 22 185
2195 1 2 79 79 22 186
2196 1 2 79 79 22 241
2197 1 2 79 79 22 239
2198 1 2 79 79 121 123
2199 1 2 79 79 123 185
2200 1 2 79 79 123 186
2201 1 2 79 79 123 241
2202 1 2 79 79 123 239
2203 1 2 79 79 121 185
2204 1 2 79 79 121 186
2205 1 2 79 79 121 241
2206 1 2 79 79 121 239
2207 1 2 79 79 185 186
2208 1 2 79 79 185 241
2209 1 2 79 79 185 239
2210 1 2 79 79 186 241
2211 1 2 79 79 186 239
2212 1 2 79 79 239 241
2213 1 2 80 80 185 186
2214 1 2 80 80 185 241
2215 1 2 80 80 185 239
2216 1 2 80 80 59 185
2217 1 2 80 80 60 185
2218 1 2 80 80 161 185
2219 1 2 80 80 159 185
2220 1 2 80 80 186 241
2221 1 2 80 80 186 239
2222 1 2 80 80 59 186
2223 1 2 80 80 60 186
2224 1 2 80 80 161 186
2225 1 2 80 80 159 186
2226 1 2 80 80 239 241
2227 1 2 80 80 59 241
2228 1 2 80 80 60 241
2229 1 2 80 80 161 241
2230 1 2 80 80 159 241
2231 1 2 80 80 59 239
2232 1 2 80 80 60 239
2233 1 2 80 80 161 239
2234 1 2 80 80 159 239
2235 1 2 80 80 59 60
2236 1 2 80 80 59 161
2237 1 2 80 80 59 159
2238 1 2 80 80 60 161
2239 1 2 80 80 60 159
2240 1 2 80 80 159 161
2241 1 2 81 81 121 123
2242 1 2 81 81 121 124
2243 1 2 81 81 121 122
2244 1 2 81 81 121 239
2245 1 2 81 81 121 241
2246 1 2 81 81 121 242
2247 1 2 81 81 121 240
2248 1 2 81 81 123 124
2249 1 2 81 81 122 123
2250 1 2 81 81 123 239
2251 1 2 81 81 123 241
2252 1 2 81 81 123 242
2253 1 2 81 81 123 240
2254 1 2 81 81 122 124
2255 1 2 81 81 124 239
2256 1 2 81 81 124 241
2257 1 2 81 81 124 242
2258 1 2 81 81 124 240
2259 1 2 81 81 122 239
2260 1 2 81 81 122 241
2261 1 2 81 81 122 242
2262 1 2 81 81 122 240
2263 1 2 81 81 239 241
2264 1 2 81 81 239 242
2265 1 2 81 81 239 240
2266 1 2 81 81 241 242
2267 1 2 81 81 240 241
2268 1 2 81 81 240 242
2269 1 2 82 82 239 241
2270 1 2 82 82 239 242
2271 1 2 82 82 239 240
2272 1 2 82 82 159 239
2273 1 2 82 82 161 239
2274 1 2 82 82 162 239
2275 1 2 82 82 160 239
2276 1 2 82 82 241 242
2277 1 2 82 82 240 241
2278 1 2 82 82 159 241
2279 1 2 82 82 161 241
2280 1 2 82 82 162 241
2281 1 2 82 82 160 241
2282 1 2 82 82 240 242
2283 1 2 82 82 159 242
2284 1 2 82 82 161 242
2285 1 2 82 82 162 242
2286 1 2 82 82 160 242
2287 1 2 82 82 159 240
2288 1 2 82 82 161 240
2289 1 2 82 82 162 240
2290 1 2 82 82 160 240
2291 1 2 82 82 159 161
2292 1 2 82 82 159 162
2293 1 2 82 82 159 160
2294 1 2 82 82 161 162
2295 1 2 82 82 160 161
2296 1 2 82 82 160 162
2297 1 2 83 83 122 124
2298 1 2 83 83 41 122
2299 1 2 83 83 40 122
2300 1 2 83 83 122 240
2301 1 2 83 83 122 242
2302 1 2 83 83 122 205
2303 1 2 83 83 122 204
2304 1 2 83 83 41 124
2305 1 2 83 83 40 124
2306 1 2 83 83 124 240
2307 1 2 83 83 124 242
2308 1 2 83 83 124 205
2309 1 2 83 83 124 204
2310 1 2 83 83 40 41
2311 1 2 83 83 41 240
2312 1 2 83 83 41 242
2313 1 2 83 83 41 205
2314 1 2 83 83 41 204
2315 1 2 83 83 40 240
2316 1 2 83 83 40 242
2317 1 2 83 83 40 205
2318 1 2 83 83 40 204
2319 1 2 83 83 240 242
2320 1 2 83 83 205 240
2321 1 2 83 83 204 240
2322 1 2 83 83 205 242
2323 1 2 83 83 204 242
2324 1 2 83 83 204 205
2325 1 2 84 84 240 242
2326 1 2 84 84 205 240
2327 1 2 84 84 204 240
2328 1 2 84 84 160 240
2329 1 2 84 84 162 240
2330 1 2 84 84 79 240
2331 1 2 84 84 78 240
2332 1 2 84 84 205 242
2333 1 2 84 84 204 242
2334 1 2 84 84 160 242
2335 1 2 84 84 162 242
2336 1 2 84 84 79 242
2337 1 2 84 84 78 242
2338 1 2 84 84 204 205
2339 1 2 84 84 160 205
2340 1 2 84 84 162 205
2341 1 2 84 84 79 205
2342 1 2 84 84 78 205
2343 1 2 84 84 160 204
2344 1 2 84 84 162 204
2345 1 2 84 84 79 204
2346 1 2 84 84 78 204
2347 1 2 84 84 160 162
2348 1 2 84 84 79 160
2349 1 2 84 84 78 160
2350 1 2 84 84 79 162
2351 1 2 84 84 78 162
2352 1 2 84 84 78 79
2353 1 2 85 85 22 23
2354 1 2 85 85 22 125
2355 1 2 85 85 22 123
2356 1 2 85 85 22 186
2357 1 2 85 85 22 187
2358 1 2 85 85 22 243
2359 1 2 85 85 22 241
2360 1 2 85 85 23 125
2361 1 2 85 85 23 123
2362 1 2 85 85 23 186
2363 1 2 85 85 23 187
2364 1 2 85 85 23 243
2365 1 2 85 85 23 241
2366 1 2 85 85 123 125
2367 1 2 85 85 125 186
2368 1 2 85 85 125 187
2369 1 2 85 85 125 243
2370 1 2 85 85 125 241
2371 1 2 85 85 123 186
2372 1 2 85 85 123 187
2373 1 2 85 85 123 243
2374 1 2 85 85 123 241
2375 1 2 85 85 186 187
2376 1 2 85 85 186 243
2377 1 2 85 85 186 241
2378 1 2 85 85 187 243
2379 1 2 85 85 187 241
2380 1 2 85 85 241 243
2381 1 2 86 86 186 187
2382 1 2 86 86 186 243
2383 1 2 86 86 186 241
2384 1 2 86 86 60 186
2385 1 2 86 86 61 186
2386 1 2 86 86 163 186
2387 1 2 86 86 161 186
2388 1 2 86 86 187 243
2389 1 2 86 86 187 241
2390 1 2 86 86 60 187
2391 1 2 86 86 61 187
2392 1 2 86 86 163 187
2393 1 2 86 86 161 187
2394 1 2 86 86 241 243
2395 1 2 86 86 60 243
2396 1 2 86 86 61 243
2397 1 2 86 86 163 243
2398 1 2 86 86 161 243
2399 1 2 86 86 60 241
2400 1 2 86 86 61 241
2401 1 2 86 86 163 241
2402 1 2 86 86 161 241
2403 1 2 86 86 60 61
2404 1 2 86 86 60 163
2405 1 2 86 86 60 161
2406 1 2 86 86 61 163
2407 1 2 86 86 61 161
2408 1 2 86 86 161 163
2409 1 2 87 87 123 125
2410 1 2 87 87 123 126
2411 1 2 87 87 123 124
2412 1 2 87 87 123 241
2413 1 2 87 87 123 243
2414 1 2 87 87 123 244
2415 1 2 87 87 123 242
2416 1 2 87 87 125 126
2417 1 2 87 87 124 125
2418 1 2 87 87 125 241
2419 1 2 87 87 125 243
2420 1 2 87 87 125 244
2421 1 2 87 87 125 242
2422 1 2 87 87 124 126
2423 1 2 87 87 126 241
2424 1 2 87 87 126 243
2425 1 2 87 87 126 244
2426 1 2 87 87 126 242
2427 1 2 87 87 124 241
2428 1 2 87 87 124 243
2429 1 2 87 87 124 244
2430 1 2 87 87 124 242
2431 1 2 87 87 241 243
2432 1 2 87 87 241 244
2433 1 2 87 87 241 242
2434 1 2 87 87 243 244
2435 1 2 87 87 242 243
2436 1 2 87 87 242 244
2437 1 2 88 88 241 243
2438 1 2 88 88 241 244
2439 1 2 88 88 241 242
2440 1 2 88 88 161 241
2441 1 2 88 88 163 241
2442 1 2 88 88 164 241
2443 1 2 88 88 162 241
2444 1 2 88 88 243 244
2445 1 2 88 88 242 243
2446 1 2 88 88 161 243
2447 1 2 88 88 163 243
2448 1 2 88 88 164 243
2449 1 2 88 88 162 243
2450 1 2 88 88 242 244
2451 1 2 88 88 161 244
2452 1 2 88 88 163 244
2453 1 2 88 88 164 244
2454 1 2 88 88 162 244
2455 1 2 88 88 161 242
2456 1 2 88 88 163 242
2457 1 2 88 88 164 242
2458 1 2 88 88 162 242
2459 1 2 88 88 161 163
2460 1 2 88 88 161 164
2461 1 2 88 88 161 162
2462 1 2 88 88 163 164
2463 1 2 88 88 162 163
2464 1 2 88 88 162 164
2465 1 2 89 89 124 126
2466 1 2 89 89 42 124
2467 1 2 89 89 41 124
2468 1 2 89 89 124 242
2469 1 2 89 89 124 244
2470 1 2 89 89 124 206
2471 1 2 89 89 124 205
2472 1 2 89 89 42 126
2473 1 2 89 89 41 126
2474 1 2 89 89 126 242
2475 1 2 89 89 126 244
2476 1 2 89 89 126 206
2477 1 2 89 89 126 205
2478 1 2 89 89 41 42
2479 1 2 89 89 42 242
2480 1 2 89 89 42 244
2481 1 2 89 89 42 206
2482 1 2 89 89 42 205
2483 1 2 89 89 41 242
2484 1 2 89 89 41 244
2485 1 2 89 89 41 206
2486 1 2 89 89 41 205
2487 1 2 89 89 242 244
2488 1 2 89 89 206 242
2489 1 2 89 89 205 242
2490 1 2 89 89 206 244
2491 1 2 89 89 205 244
2492 1 2 89 89 205 206
2493 1 2 90 90 242 244
2494 1 2 90 90 206 242
2495 1 2 90 90 205 242
2496 1 2 90 90 162 242
2497 1 2 90 90 164 242
2498 1 2 90 90 80 242
2499 1 2 90 90 79 242
2500 1 2 90 90 206 244
2501 1 2 90 90 205 244
2502 1 2 90 90 162 244
2503 1 2 90 90 164 244
2504 1 2 90 90 80 244
2505 1 2 90 90 79 244
2506 1 2 90 90 205 206
2507 1 2 90 90 162 206
2508 1 2 90 90 164 206
2509 1 2 90 90 80 206
2510 1 2 90 90 79 206
2511 1 2 90 90 162 205
2512 1 2 90 90 164 205
2513 1 2 90 90 80 205
2514 1 2 90 90 79 205
2515 1 2 90 90 162 164
2516 1 2 90 90 80 162
2517 1 2 90 90 79 162
2518 1 2 90 90 80 164
2519 1 2 90 90 79 164
2520 1 2 90 90 79 80
2521 1 2 91 91 23 24
2522 1 2 91 91 23 127
2523 1 2 91 91 23 125
2524 1 2 91 91 23 187
2525 1 2 91 91 23 188
2526 1 2 91 91 23 245
2527 1 2 91 91 23 243
2528 1 2 91 91 24 127
2529 1 2 91 91 24 125
2530 1 2 91 91 24 187
2531 1 2 91 91 24 188
2532 1 2 91 91 24 245
2533 1 2 91 91 24 243
2534 1 2 91 91 125 127
2535 1 2 91 91 127 187
2536 1 2 91 91 127 188
2537 1 2 91 91 127 245
2538 1 2 91 91 127 243
2539 1 2 91 91 125 187
2540 1 2 91 91 125 188
2541 1 2 91 91 125 245
2542 1 2 91 91 125 243
2543 1 2 91 91 187 188
2544 1 2 91 91 187 245
2545 1 2 91 91 187 243
2546 1 2 91 91 188 245
2547 1 2 91 91 188 243
2548 1 2 91 91 243 245
2549 1 2 92 92 187 188
2550 1 2 92 92 187 245
2551 1 2 92 92 187 243
2552 1 2 92 92 61 187
2553 1 2 92 92 62 187
2554 1 2 92 92 165 187
2555 1 2 92 92 163 187
2556 1 2 92 92 188 245
2557 1 2 92 92 188 243
2558 1 2 92 92 61 188
2559 1 2 92 92 62 188
2560 1 2 92 92 165 188
2561 1 2 92 92 163 188
2562 1 2 92 92 243 245
2563 1 2 92 92 61 245
2564 1 2 92 92 62 245
2565 1 2 92 92 165 245
2566 1 2 92 92 163 245
2567 1 2 92 92 61 243
2568 1 2 92 92 62 243
2569 1 2 92 92 165 243
2570 1 2 92 92 163 243
2571 1 2 92 92 61 62
2572 1 2 92 92 61 165
2573 1 2 92 92 61 163
2574 1 2 92 92 62 165
2575 1 2 92 92 62 163
2576 1 2 92 92 163 165
2577 1 2 93 93 125 127
2578 1 2 93 93 125 128
2579 1 2 93 93 125 126
2580 1 2 93 93 125 243
2581 1 2 93 93 125 245
2582 1 2 93 93 125 246
2583 1 2 93 93 125 244
2584 1 2 93 93 127 128
2585 1 2 93 93 126 127
2586 1 2 93 93 127 243
2587 1 2 93 93 127 245
2588 1 2 93 93 127 246
2589 1 2 93 93 127 244
2590 1 2 93 93 126 128
2591 1 2 93 93 128 243
2592 1 2 93 93 128 245
2593 1 2 93 93 128 246
2594 1 2 93 93 128 244
2595 1 2 93 93 126 243
2596 1 2 93 93 126 245
2597 1 2 93 93 126 246
2598 1 2 93 93 126 244
2599 1 2 93 93 243 245
2600 1 2 93 93 243 246
2601 1 2 93 93 243 244
2602 1 2 93 93 245 246
2603 1 2 93 93 244 245
2604 1 2 93 93 244 246
2605 1 2 94 94 243 245
2606 1 2 94 94 243 246
2607 1 2 94 94 243 244
2608 1 2 94 94 163 243
2609 1 2 94 94 165 243
2610 1 2 94 94 166 243
2611 1 2 94 94 164 243
2612 1 2 94 94 245 246
2613 1 2 94 94 244 245
2614 1 2 94 94 163 245
2615 1 2 94 94 165 245
2616 1 2 94 94 166 245
2617 1 2 94 94 164 245
2618 1 2 94 94 244 246
2619 1 2 94 94 163 246
2620 1 2 94 94 165 246
2621 1 2 94 94 166 246
2622 1 2 94 94 164 246
2623 1 2 94 94 163 244
2624 1 2 94 94 165 244
2625 1 2 94 94 166 244
2626 1 2 94 94 164 244
2627 1 2 94 94 163 165
2628 1 2 94 94 163 166
2629 1 2 94 94 163 164
2630 1 2 94 94 165 166
2631 1 2 94 94 164 165
2632 1 2 94 94 164 166
2633 1 2 95 95 126 128
2634 1 2 95 95 43 126
2635 1 2 95 95 42 126
2636 1 2 95 95 126 244
2637 1 2 95 95 126 246
2638 1 2 95 95 126 207
2639 1 2 95 95 126 206
2640 1 2 95 95 43 128
2641 1 2 95 95 42 128
2642 1 2 95 95 128 244
2643 1 2 95 95 128 246
2644 1 2 95 95 128 207
2645 1 2 95 95 128 206
2646 1 2 95 95 42 43
2647 1 2 95 95 43 244
2648 1 2 95 95 43 246
2649 1 2 95 95 43 207
2650 1 2 95 95 43 206
2651 1 2 95 95 42 244
2652 1 2 95 95 42 246
2653 1 2 95 95 42 207
2654 1 2 95 95 42 206
2655 1 2 95 95 244 246
2656 1 2 95 95 207 244
2657 1 2 95 95 206 244
2658 1 2 95 95 207 246
2659 1 2 95 95 206 246
2660 1 2 95 95 206 207
2661 1 2 96 96 244 246
2662 1 2 96 96 207 244
2663 1 2 96 96 206 244
2664 1 2 96 96 164 244
2665 1 2 96 96 166 244
2666 1 2 96 96 81 244
2667 1 2 96 96 80 244
2668 1 2 96 96 207 246
2669 1 2 96 96 206 246
2670 1 2 96 96 164 246
2671 1 2 96 96 166 246
2672 1 2 96 96 81 246
2673 1 2 96 96 80 246
2674 1 2 96 96 206 207
2675 1 2 96 96 164 207
2676 1 2 96 96 166 207
2677 1 2 96 96 81 207
2678 1 2 96 96 80 207
2679 1 2 96 96 164 206
2680 1 2 96 96 166 206
2681 1 2 96 96 81 206
2682 1 2 96 96 80 206
2683 1 2 96 96 164 166
2684 1 2 96 96 81 164
2685 1 2 96 96 80 164
2686 1 2 96 96 81 166
2687 1 2 96 96 80 166
2688 1 2 96 96 80 81
2689 1 2 97 97 24 25
2690 1 2 97 97 24 129
2691 1 2 97 97 24 127
2692 1 2 97 97 24 188
2693 1 2 97 97 24 189
2694 1 2 97 97 24 247
2695 1 2 97 97 24 245
2696 1 2 97 97 25 129
2697 1 2 97 97 25 127
2698 1 2 97 97 25 188
2699 1 2 97 97 25 189
2700 1 2 97 97 25 247
2701 1 2 97 97 25 245
2702 1 2 97 97 127 129
2703 1 2 97 97 129 188
2704 1 2 97 97 129 189
2705 1 2 97 97 129 247
2706 1 2 97 97 129 245
2707 1 2 97 97 127 188
2708 1 2 97 97 127 189
2709 1 2 97 97 127 247
2710 1 2 97 97 127 245
2711 1 2 97 97 188 189
2712 1 2 97 97 188 247
2713 1 2 97 97 188 245
2714 1 2 97 97 189 247
2715 1 2 97 97 189 245
2716 1 2 97 97 245 247
2717 1 2 98 98 188 189
2718 1 2 98 98 188 247
2719 1 2 98 98 188 245
2720 1 2 98 98 62 188
2721 1 2 98 98 63 188
2722 1 2 98 98 167 188
2723 1 2 98 98 165 188
2724 1 2 98 98 189 247
2725 1 2 98 98 189 245
2726 1 2 98 98 62 189
2727 1 2 98 98 63 189
2728 1 2 98 98 167 189
2729 1 2 98 98 165 189
2730 1 2 98 98 245 247
2731 1 2 98 98 62 247
2732 1 2 98 98 63 247
2733 1 2 98 98 167 247
2734 1 2 98 98 165 247
2735 1 2 98 98 62 245
2736 1 2 98 98 63 245
2737 1 2 98 98 167 245
2738 1 2 98 98 165 245
2739 1 2 98 98 62 63
2740 1 2 98 98 62 167
2741 1 2 98 98 62 165
2742 1 2 98 98 63 167
2743 1 2 98 98 63 165
2744 1 2 98 98 165 167
2745 1 2 99 99 127 129
2746 1 2 99 99 127 130
2747 1 2 99 99 127 128
2748 1 2 99 99 127 245
2749 1 2 99 99 127 247
2750 1 2 99 99 127 248
2751 1 2 99 99 127 246
2752 1 2 99 99 129 130
2753 1 2 99 99 128 129
2754 1 2 99 99 129 245
2755 1 2 99 99 129 247
2756 1 2 99 99 129 248
2757 1 2 99 99 129 246
2758 1 2 99 99 128 130
2759 1 2 99 99 130 245
2760 1 2 99 99 130 247
2761 1 2 99 99 130 248
2762 1 2 99 99 130 246
2763 1 2 99 99 128 245
2764 1 2 99 99 128 247
2765 1 2 99 99 128 248
2766 1 2 99 99 128 246
2767 1 2 99 99 245 247
2768 1 2 99 99 245 248
2769 1 2 99 99 245 246
2770 1 2 99 99 247 248
2771 1 2 99 99 246 247
2772 1 2 99 99 246 248
2773 1 2 100 100 245 247
2774 1 2 100 100 245 248
2775 1 2 100 100 245 246
2776 1 2 100 100 165 245
2777 1 2 100 100 167 245
2778 1 2 100 100 168 245
2779 1 2 100 100 166 245
2780 1 2 100 100 247 248
2781 1 2 100 100 246 247
2782 1 2 100 100 165 247
2783 1 2 100 100 167 247
2784 1 2 100 100 168 247
2785 1 2 100 100 166 247
2786 1 2 100 100 246 248
2787 1 2 100 100 165 248
2788 1 2 100 100 167 248
2789 1 2 100 100 168 248
2790 1 2 100 100 166 248
2791 1 2 100 100 165 246
2792 1 2 100 100 167 246
2793 1 2 100 100 168 246
2794 1 2 100 100 166 246
2795 1 2 100 100 165 167
2796 1 2 100 100 165 168
2797 1 2 100 100 165 166
2798 1 2 100 100 167 168
2799 1 2 100 100 166 167
2800 1 2 100 100 166 168
2801 1 2 101 101 128 130
2802 1 2 101 101 44 128
2803 1 2 101 101 43 128
2804 1 2 101 101 128 246
2805 1 2 101 101 128 248
2806 1 2 101 101 128 208
2807 1 2 101 101 128 207
2808 1 2 101 101 44 130
2809 1 2 101 101 43 130
2810 1 2 101 101 130 246
2811 1 2 101 101 130 248
2812 1 2 101 101 130 208
2813 1 2 101 101 130 207
2814 1 2 101 101 43 44
2815 1 2 101 101 44 246
2816 1 2 101 101 44 248
2817 1 2 101 101 44 208
2818 1 2 101 101 44 207
2819 1 2 101 101 43 246
2820 1 2 101 101 43 248
2821 1 2 101 101 43 208
2822 1 2 101 101 43 207
2823 1 2 101 101 246 248
2824 1 2 101 101 208 246
2825 1 2 101 101 207 246
2826 1 2 101 101 208 248
2827 1 2 101 101 207 248
2828 1 2 101 101 207 208
2829 1 2 102 102 246 248
2830 1 2 102 102 208 246
2831 1 2 102 102 207 246
2832 1 2 102 102 166 246
2833 1 2 102 102 168 246
2834 1 2 102 102 82 246
2835 1 2 102 102 81 246
2836 1 2 102 102 208 248
2837 1 2 102 102 207 248
2838 1 2 102 102 166 248
2839 1 2 102 102 168 248
2840 1 2 102 102 82 248
2841 1 2 102 102 81 248
2842 1 2 102 102 207 208
2843 1 2 102 102 166 208
2844 1 2 102 102 168 208
2845 1 2 102 102 82 208
2846 1 2 102 102 81 208
2847 1 2 102 102 166 207
2848 1 2 102 102 168 207
2849 1 2 102 102 82 207
2850 1 2 102 102 81 207
2851 1 2 102 102 166 168
2852 1 2 102 102 82 166
2853 1 2 102 102 81 166
2854 1 2 102 102 82 168
2855 1 2 102 102 81 168
2856 1 2 102 102 81 82
2857 1 2 103 103 25 26
2858 1 2 103 103 25 131
2859 1 2 103 103 25 129
2860 1 2 103 103 25 189
2861 1 2 103 103 25 190
2862 1 2 103 103 25 249
2863 1 2 103 103 25 247
2864 1 2 103 103 26 131
2865 1 2 103 103 26 129
2866 1 2 103 103 26 189
2867 1 2 103 103 26 190
2868 1 2 103 103 26 249
2869 1 2 103 103 26 247
2870 1 2 103 103 129 131
2871 1 2 103 103 131 189
2872 1 2 103 103 131 190
2873 1 2 103 103 131 249
2874 1 2 103 103 131 247
2875 1 2 103 103 129 189
2876 1 2 103 103 129 190
2877 1 2 103 103 129 249
2878 1 2 103 103 129 247
2879 1 2 103 103 189 190
2880 1 2 103 103 189 249
2881 1 2 103 103 189 247
2882 1 2 103 103 190 249
2883 1 2 103 103 190 247
2884 1 2 103 103 247 249
2885 1 2 104 104 189 190
2886 1 2 104 104 189 249
2887 1 2 104 104 189 247
2888 1 2 104 104 63 189
2889 1 2 104 104 64 189
2890 1 2 104 104 169 189
2891 1 2 104 104 167 189
2892 1 2 104 104 190 249
2893 1 2 104 104 190 247
2894 1 2 104 104 63 190
2895 1 2 104 104 64 190
2896 1 2 104 104 169 190
2897 1 2 104 104 167 190
2898 1 2 104 104 247 249
2899 1 2 104 104 63 249
2900 1 2 104 104 64 249
2901 1 2 104 104 169 249
2902 1 2 104 104 167 249
2903 1 2 104 104 63 247
2904 1 2 104 104 64 247
2905 1 2 104 104 169 247
2906 1 2 104 104 167 247
2907 1 2 104 104 63 64
2908 1 2 104 104 63 169
2909 1 2 104 104 63 167
2910 1 2 104 104 64 169
2911 1 2 104 104 64 167
2912 1 2 104 104 167 169
2913 1 2 105 105 129 131
2914 1 2 105 105 129 132
2915 1 2 105 105 129 130
2916 1 2 105 105 129 247
2917 1 2 105 105 129 249
2918 1 2 105 105 129 250
2919 1 2 105 105 129 248
2920 1 2 105 105 131 132
2921 1 2 105 105 130 131
2922 1 2 105 105 131 247
2923 1 2 105 105 131 249
2924 1 2 105 105 131 250
2925 1 2 105 105 131 248
2926 1 2 105 105 130 132
2927 1 2 105 105 132 247
2928 1 2 105 105 132 249
2929 1 2 105 105 132 250
2930 1 2 105 105 132 248
2931 1 2 105 105 130 247
2932 1 2 105 105 130 249
2933 1 2 105 105 130 250
2934 1 2 105 105 130 248
2935 1 2 105 105 247 249
2936 1 2 105 105 247 250
2937 1 2 105 105 247 248
2938 1 2 105 105 249 250
2939 1 2 105 105 248 249
2940 1 2 105 105 248 250
2941 1 2 106 106 247 249
2942 1 2 106 106 247 250
2943 1 2 106 106 247 248
2944 1 2 106 106 167 247
2945 1 2 106 106 169 247
2946 1 2 106 106 170 247
2947 1 2 106 106 168 247
2948 1 2 106 106 249 250
2949 1 2 106 106 248 249
2950 1 2 106 106 167 249
2951 1 2 106 106 169 249
2952 1 2 106 106 170 249
2953 1 2 106 106 168 249
2954 1 2 106 106 248 250
2955 1 2 106 106 167 250
2956 1 2 106 106 169 250
2957 1 2 106 106 170 250
2958 1 2 106 106 168 250
2959 1 2 106 106 167 248
2960 1 2 106 106 169 248
2961 1 2 106 106 170 248
2962 1 2 106 106 168 248
2963 1 2 106 106 167 169
2964 1 2 106 106 167 170
2965 1 2 106 106 167 168
2966 1 2 106 106 169 170
2967 1 2 106 106 168 169
2968 1 2 106 106 168 170
2969 1 2 107 107 130 132
2970 1 2 107 107 45 130
2971 1 2 107 107 44 130
2972 1 2 107 107 130 248
2973 1 2 107 107 130 250
2974 1 2 107 107 130 209
2975 1 2 107 107 130 208
2976 1 2 107 107 45 132
2977 1 2 107 107 44 132
2978 1 2 107 107 132 248
2979 1 2 107 107 132 250
2980 1 2 107 107 132 209
2981 1 2 107 107 132 208
2982 1 2 107 107 44 45
2983 1 2 107 107 45 248
2984 1 2 107 107 45 250
2985 1 2 107 107 45 209
2986 1 2 107 107 45 208
2987 1 2 107 107 44 248
2988 1 2 107 107 44 250
2989 1 2 107 107 44 209
2990 1 2 107 107 44 208
2991 1 2 107 107 248 250
2992 1 2 107 107 209 248
2993 1 2 107 107 208 248
2994 1 2 107 107 209 250
2995 1 2 107 107 208 250
2996 1 2 107 107 208 209
2997 1 2 108 108 248 250
2998 1 2 108 108 209 248
2999 1 2 108 108 208 248
3000 1 2 108 108 168 248
3001 1 2 108 108 170 248
3002 1 2 108 108 83 248
3003 1 2 108 108 82 248
3004 1 2 108 108 209 250
3005 1 2 108 108 208 250
3006 1 2 108 108 168 250
3007 1 2 108 108 170 250
3008 1 2 108 108 83 250
3009 1 2 108 108 82 250
3010 1 2 108 108 208 209
3011 1 2 108 108 168 209
3012 1 2 108 108 170 209
3013 1 2 108 108 83 209
3014 1 2 108 108 82 209
3015 1 2 108 108 168 208
3016 1 2 108 108 170 208
3017 1 2 108 108 83 208
3018 1 2 108 108 82 208
3019 1 2 108 108 168 170
3020 1 2 108 108 83 168
3021 1 2 108 108 82 168
3022 1 2 108 108 83 170
3023 1 2 108 108 82 170
3024 1 2 108 108 82 83
3025 1 2 109 109 26 27
3026 1 2 109 109 26 133
3027 1 2 109 109 26 131
3028 1 2 109 109 26 190
3029 1 2 109 109 26 191
3030 1 2 109 109 26 251
3031 1 2 109 109 26 249
3032 1 2 109 109 27 133
3033 1 2 109 109 27 131
3034 1 2 109 109 27 190
3035 1 2 109 109 27 191
3036 1 2 109 109 27 251
3037 1 2 109 109 27 249
3038 1 2 109 109 131 133
3039 1 2 109 109 133 190
3040 1 2 109 109 133 191
3041 1 2 109 109 133 251
3042 1 2 109 109 133 249
3043 1 2 109 109 131 190
3044 1 2 109 109 131 191
3045 1 2 109 109 131 251
3046 1 2 109 109 131 249
3047 1 2 109 109 190 191
3048 1 2 109 109 190 251
3049 1 2 109 109 190 249
3050 1 2 109 109 191 251
3051 1 2 109 109 191 249
3052 1 2 109 109 249 251
3053 1 2 110 110 190 191
3054 1 2 110 110 190 251
3055 1 2 110 110 190 249
3056 1 2 110 110 64 190
3057 1 2 110 110 65 190
3058 1 2 110 110 171 190
3059 1 2 110 110 169 190
3060 1 2 110 110 191 251
3061 1 2 110 110 191 249
3062 1 2 110 110 64 191
3063 1 2 110 110 65 191
3064 1 2 110 110 171 191
3065 1 2 110 110 169 191
3066 1 2 110 110 249 251
3067 1 2 110 110 64 251
3068 1 2 110 110 65 251
3069 1 2 110 110 171 251
3070 1 2 110 110 169 251
3071 1 2 110 110 64 249
3072 1 2 110 110 65 249
3073 1 2 110 110 171 249
3074 1 2 110 110 169 249
3075 1 2 110 110 64 65
3076 1 2 110 110 64 171
3077 1 2 110 110 64 169
3078 1 2 110 110 65 171
3079 1 2 110 110 65 169
3080 1 2 110 110 169 171
3081 1 2 111 111 131 133
3082 1 2 111 111 131 134
3083 1 2 111 111 131 132
3084 1 2 111 111 131 249
3085 1 2 111 111 131 251
3086 1 2 111 111 131 252
3087 1 2 111 111 131 250
3088 1 2 111 111 133 134
3089 1 2 111 111 132 133
3090 1 2 111 111 133 249
3091 1 2 111 111 133 251
3092 1 2 111 111 133 252
3093 1 2 111 111 133 250
3094 1 2 111 111 132 134
3095 1 2 111 111 134 249
3096 1 2 111 111 134 251
3097 1 2 111 111 134 252
3098 1 2 111 111 134 250
3099 1 2 111 111 132 249
3100 1 2 111 111 132 251
3101 1 2 111 111 132 252
3102 1 2 111 111 132 250
3103 1 2 111 111 249 251
3104 1 2 111 111 249 252
3105 1 2 111 111 249 250
3106 1 2 111 111 251 252
3107 1 2 111 111 250 251
3108 1 2 111 111 250 252
3109 1 2 112 112 249 251
3110 1 2 112 112 249 252
3111 1 2 112 112 249 250
3112 1 2 112 112 169 249
3113 1 2 112 112 171 249
3114 1 2 112 112 172 249
3115 1 2 112 112 170 249
3116 1 2 112 112 251 252
3117 1 2 112 112 250 251
3118 1 2 112 112 169 251
3119 1 2 112 112 171 251
3120 1 2 112 112 172 251
3121 1 2 112 112 170 251
3122 1 2 112 112 250 252
3123 1 2 112 112 169 252
3124 1 2 112 112 171 252
3125 1 2 112 112 172 252
3126 1 2 112 112 170 252
3127 1 2 112 112 169 250
3128 1 2 112 112 171 250
3129 1 2 112 112 172 250
3130 1 2 112 112 170 250
3131 1 2 112 112 169 171
3132 1 2 112 112 169 172
3133 1 2 112 112 169 170
3134 1 2 112 112 171 172
3135 1 2 112 112 170 171
3136 1 2 112 112 170 172
3137 1 2 113 113 132 134
3138 1 2 113 113 46 132
3139 1 2 113 113 45 132
3140 1 2 113 113 132 250
3141 1 2 113 113 132 252
3142 1 2 113 113 132 210
3143 1 2 113 113 132 209
3144 1 2 113 113 46 134
3145 1 2 113 113 45 134
3146 1 2 113 113 134 250
3147 1 2 113 113 134 252
3148 1 2 113 113 134 210
3149 1 2 113 113 134 209
3150 1 2 113 113 45 46
3151 1 2 113 113 46 250
3152 1 2 113 113 46 252
3153 1 2 113 113 46 210
3154 1 2 113 113 46 209
3155 1 2 113 113 45 250
3156 1 2 113 113 45 252
3157 1 2 113 113 45 210
3158 1 2 113 113 45 209
3159 1 2 113 113 250 252
3160 1 2 113 113 210 250
3161 1 2 113 113 209 250
3162 1 2 113 113 210 252
3163 1 2 113 113 209 252
3164 1 2 113 113 209 210
3165 1 2 114 114 250 252
3166 1 2 114 114 210 250
3167 1 2 114 114 209 250
3168 1 2 114 114 170 250
3169 1 2 114 114 172 250
3170 1 2 114 114 84 250
3171 1 2 114 114 83 250
3172 1 2 114 114 210 252
3173 1 2 114 114 209 252
3174 1 2 114 114 170 252
3175 1 2 114 114 172 252
3176 1 2 114 114 84 252
3177 1 2 114 114 83 252
3178 1 2 114 114 209 210
3179 1 2 114 114 170 210
3180 1 2 114 114 172 210
3181 1 2 114 114 84 210
3182 1 2 114 114 83 210
3183 1 2 114 114 170 209
3184 1 2 114 114 172 209
3185 1 2 114 114 84 209
3186 1 2 114 114 83 209
3187 1 2 114 114 170 172
3188 1 2 114 114 84 170
3189 1 2 114 114 83 170
3190 1 2 114 114 84 172
3191 1 2 114 114 83 172
3192 1 2 114 114 83 84
3193 1 2 115 115 2 27
3194 1 2 115 115 27 87
3195 1 2 115 115 27 133
3196 1 2 115 115 27 191
3197 1 2 115 115 27 94
3198 1 2 115 115 27 213
3199 1 2 115 115 27 251
3200 1 2 115 115 2 87
3201 1 2 115 115 2 133
3202 1 2 115 115 2 191
3203 1 2 115 115 2 94
3204 1 2 115 115 2 213
3205 1 2 115 115 2 251
3206 1 2 115 115 87 133
3207 1 2 115 115 87 191
3208 1 2 115 115 87 94
3209 1 2 115 115 87 213
3210 1 2 115 115 87 251
3211 1 2 115 115 133 191
3212 1 2 115 115 94 133
3213 1 2 115 115 133 213
3214 1 2 115 115 133 251
3215 1 2 115 115 94 191
3216 1 2 115 115 191 213
3217 1 2 115 115 191 251
3218 1 2 115 115 94 213
3219 1 2 115 115 94 251
3220 1 2 115 115 213 251
3221 1 2 116 116 94 191
3222 1 2 116 116 191 213
3223 1 2 116 116 191 251
3224 1 2 116 116 65 191
3225 1 2 116 116 6 191
3226 1 2 116 116 91 191
3227 1 2 116 116 171 191
3228 1 2 116 116 94 213
3229 1 2 116 116 94 251
3230 1 2 116 116 65 94
3231 1 2 116 116 6 94
3232 1 2 116 116 91 94
3233 1 2 116 116 94 171
3234 1 2 116 116 213 251
3235 1 2 116 116 65 213
3236 1 2 116 116 6 213
3237 1 2 116 116 91 213
3238 1 2 116 116 171 213
3239 1 2 116 116 65 251
3240 1 2 116 116 6 251
3241 1 2 116 116 91 251
3242 1 2 116 116 171 251
3243 1 2 116 116 6 65
3244 1 2 116 116 65 91
3245 1 2 116 116 65 171
3246 1 2 116 116 6 91
3247 1 2 116 116 6 171
3248 1 2 116 116 91 171
3249 1 2 117 117 87 133
3250 1 2 117 117 88 133
3251 1 2 117 117 133 134
3252 1 2 117 117 133 251
3253 1 2 117 117 133 213
3254 1 2 117 117 133 214
3255 1 2 117 117 133 252
3256 1 2 117 117 87 88
3257 1 2 117 117 87 134
3258 1 2 117 117 87 251
3259 1 2 117 117 87 213
3260 1 2 117 117 87 214
3261 1 2 117 117 87 252
3262 1 2 117 117 88 134
3263 1 2 117 117 88 251
3264 1 2 117 117 88 213
3265 1 2 117 117 88 214
3266 1 2 117 117 88 252
3267 1 2 117 117 134 251
3268 1 2 117 117 134 213
3269 1 2 117 117 134 214
3270 1 2 117 117 134 252
3271 1 2 117 117 213 251
3272 1 2 117 117 214 251
3273 1 2 117 117 251 252
3274 1 2 117 117 213 214
3275 1 2 117 117 213 252
3276 1 2 117 117 214 252
3277 1 2 118 118 213 251
3278 1 2 118 118 214 251
3279 1 2 118 118 251 252
3280 1 2 118 118 171 251
3281 1 2 118 118 91 251
3282 1 2 118 118 92 251
3283 1 2 118 118 172 251
3284 1 2 118 118 213 214
3285 1 2 118 118 213 252
3286 1 2 118 118 171 213
3287 1 2 118 118 91 213
3288 1 2 118 118 92 213
3289 1 2 118 118 172 213
3290 1 2 118 118 214 252
3291 1 2 118 118 171 214
3292 1 2 118 118 91 214
3293 1 2 118 118 92 214
3294 1 2 118 118 172 214
3295 1 2 118 118 171 252
3296 1 2 118 118 91 252
3297 1 2 118 118 92 252
3298 1 2 118 118 172 252
3299 1 2 118 118 91 171
3300 1 2 118 118 92 171
3301 1 2 118 118 171 172
3302 1 2 118 118 91 92
3303 1 2 118 118 91 172
3304 1 2 118 118 92 172
3305 1 2 119 119 88 134
3306 1 2 119 119 3 134
3307 1 2 119 119 46 134
3308 1 2 119 119 134 252
3309 1 2 119 119 134 214
3310 1 2 119 119 96 134
3311 1 2 119 119 134 210
3312 1 2 119 119 3 88
3313 1 2 119 119 46 88
3314 1 2 119 119 88 252
3315 1 2 119 119 88 214
3316 1 2 119 119 88 96
3317 1 2 119 119 88 210
3318 1 2 119 119 3 46
3319 1 2 119 119 3 252
3320 1 2 119 119 3 214
3321 1 2 119 119 3 96
3322 1 2 119 119 3 210
3323 1 2 119 119 46 252
3324 1 2 119 119 46 214
3325 1 2 119 119 46 96
3326 1 2 119 119 46 210
3327 1 2 119 119 214 252
3328 1 2 119 119 96 252
3329 1 2 119 119 210 252
3330 1 2 119 119 96 214
3331 1 2 119 119 210 214
3332 1 2 119 119 96 210
3333 1 2 120 120 214 252
3334 1 2 120 120 96 252
3335 1 2 120 120 210 252
3336 1 2 120 120 172 252
3337 1 2 120 120 92 252
3338 1 2 120 120 7 252
3339 1 2 120 120 84 252
3340 1 2 120 120 96 214
3341 1 2 120 120 210 214
3342 1 2 120 120 172 214
3343 1 2 120 120 92 214
3344 1 2 120 120 7 214
3345 1 2 120 120 84 214
3346 1 2 120 120 96 210
3347 1 2 120 120 96 172
3348 1 2 120 120 92 96
3349 1 2 120 120 7 96
3350 1 2 120 120 84 96
3351 1 2 120 120 172 210
3352 1 2 120 120 92 210
3353 1 2 120 120 7 210
3354 1 2 120 120 84 210
3355 1 2 120 120 92 172
3356 1 2 120 120 7 172
3357 1 2 120 120 84 172
3358 1 2 120 120 7 92
3359 1 2 120 120 84 92
3360 1 2 120 120 7 84
$EndElements
