$MeshFormat
2.2 0 8
$EndMeshFormat
$PhysicalNames
7
2 1 "z_min"
2 2 "z_max"
2 3 "y_min"
2 4 "x_max"
2 5 "y_max"
2 6 "x_min"
3 7 "solid"
$EndPhysicalNames
$Nodes
336
1 0 0 0
2 20 0 0
3 20 3 0
4 0 3 0
5 0 0 3
6 20 0 3
7 20 3 3
8 0 3 3
9 0.9999999999991021 0 0
10 1.999999999998378 0 0
11 2.999999999996569 0 0
12 3.999999999993648 0 0
13 4.999999999990727 0 0
14 5.999999999987806 0 0
15 6.999999999984885 0 0
16 7.999999999982034 0 0
17 8.999999999983277 0 0
18 9.999999999984798 0 0
19 10.99999999998632 0 0
20 11.99999999998784 0 0
21 12.99999999998936 0 0
22 13.99999999999088 0 0
23 14.9999999999924 0 0
24 15.99999999999392 0 0
25 16.99999999999544 0 0
26 17.99999999999696 0 0
27 18.99999999999848 0 0
28 20 0.9999999999960252 0
29 20 1.999999999996162 0
30 19 3 0
31 18 3 0
32 17 3 0
33 15.99999999999999 3 0
34 14.99999999999999 3 0
35 13.99999999999999 3 0
36 12.99999999999999 3 0
37 11.99999999999999 3 0
38 10.99999999999999 3 0
39 9.999999999999993 3 0
40 8.999999999999995 3 0
41 7.999999999999993 3 0
42 6.999999999999995 3 0
43 5.999999999999996 3 0
44 4.999999999999996 3 0
45 3.999999999999996 3 0
46 3 3 0
47 1.999999999999996 3 0
48 1 3 0
49 0 2.000000000001938 0
50 0 1.000000000002804 0
51 0.9999999999991021 0 3
52 1.999999999998378 0 3
53 2.999999999996569 0 3
54 3.999999999993648 0 3
55 4.999999999990727 0 3
56 5.999999999987806 0 3
57 6.999999999984885 0 3
58 7.999999999982034 0 3
59 8.999999999983277 0 3
60 9.999999999984798 0 3
61 10.99999999998632 0 3
62 11.99999999998784 0 3
63 12.99999999998936 0 3
64 13.99999999999088 0 3
65 14.9999999999924 0 3
66 15.99999999999392 0 3
67 16.99999999999544 0 3
68 17.99999999999696 0 3
69 18.99999999999848 0 3
70 20 0.9999999999960252 3
71 20 1.999999999996162 3
72 19 3 3
73 18 3 3
74 17 3 3
75 15.99999999999999 3 3
76 14.99999999999999 3 3
77 13.99999999999999 3 3
78 12.99999999999999 3 3
79 11.99999999999999 3 3
80 10.99999999999999 3 3
81 9.999999999999993 3 3
82 8.999999999999995 3 3
83 7.999999999999993 3 3
84 6.999999999999995 3 3
85 5.999999999999996 3 3
86 4.999999999999996 3 3
87 3.999999999999996 3 3
88 3 3 3
89 1.999999999999996 3 3
90 1 3 3
91 0 2.000000000001938 3
92 0 1.000000000002804 3
93 0 0 1
94 0 0 2
95 20 0 1
96 20 0 2
97 20 3 1
98 20 3 2
99 0 3 1
100 0 3 2
101 0.9999999999994014 1.000000000002464 0
102 0.9999999999997007 2.000000000001648 0
103 1.999999999998917 1.000000000002125 0
104 1.999999999999456 2.000000000001359 0
105 2.999999999997713 1.000000000001786 0
106 2.999999999998857 2.000000000001071 0
107 3.999999999995765 1.000000000001448 0
108 3.999999999997881 2.000000000000782 0
109 4.999999999993817 1.000000000001109 0
110 4.999999999996906 2.000000000000493 0
111 5.99999999999187 1.00000000000077 0
112 5.999999999995933 2.000000000000204 0
113 6.999999999989923 1.000000000000431 0
114 6.999999999994957 1.999999999999915 0
115 7.999999999988022 1.000000000000092 0
116 7.999999999994007 1.999999999999627 0
117 8.999999999988848 0.999999999999753 0
118 8.999999999994424 1.999999999999338 0
119 9.999999999989861 0.9999999999994141 0
120 9.99999999999493 1.999999999999049 0
121 10.99999999999088 0.9999999999990751 0
122 10.99999999999543 1.99999999999876 0
123 11.99999999999189 0.9999999999987362 0
124 11.99999999999594 1.999999999998472 0
125 12.9999999999929 0.9999999999983974 0
126 12.99999999999644 1.999999999998183 0
127 13.99999999999391 0.9999999999980583 0
128 13.99999999999695 1.999999999997894 0
129 14.99999999999493 0.9999999999977194 0
130 14.99999999999746 1.999999999997605 0
131 15.99999999999595 0.9999999999973807 0
132 15.99999999999797 1.999999999997317 0
133 16.99999999999696 0.9999999999970416 0
134 16.99999999999848 1.999999999997027 0
135 17.99999999999797 0.9999999999967026 0
136 17.99999999999898 1.999999999996739 0
137 18.99999999999899 0.9999999999963639 0
138 18.99999999999949 1.99999999999645 0
139 0.9999999999991021 0 1
140 0.9999999999991021 0 2
141 1.999999999998378 0 1
142 1.999999999998378 0 2
143 2.999999999996569 0 1
144 2.999999999996569 0 2
145 3.999999999993648 0 1
146 3.999999999993648 0 2
147 4.999999999990727 0 1
148 4.999999999990727 0 2
149 5.999999999987806 0 1
150 5.999999999987806 0 2
151 6.999999999984885 0 1
152 6.999999999984885 0 2
153 7.999999999982034 0 1
154 7.999999999982034 0 2
155 8.999999999983277 0 1
156 8.999999999983277 0 2
157 9.999999999984798 0 1
158 9.999999999984798 0 2
159 10.99999999998632 0 1
160 10.99999999998632 0 2
161 11.99999999998784 0 1
162 11.99999999998784 0 2
163 12.99999999998936 0 1
164 12.99999999998936 0 2
165 13.99999999999088 0 1
166 13.99999999999088 0 2
167 14.9999999999924 0 1
168 14.9999999999924 0 2
169 15.99999999999392 0 1
170 15.99999999999392 0 2
171 16.99999999999544 0 1
172 16.99999999999544 0 2
173 17.99999999999696 0 1
174 17.99999999999696 0 2
175 18.99999999999848 0 1
176 18.99999999999848 0 2
177 20 0.9999999999960252 1
178 20 0.9999999999960252 2
179 20 1.999999999996162 1
180 20 1.999999999996162 2
181 19 3 1
182 19 3 2
183 18 3 1
184 18 3 2
185 17 3 1
186 17 3 2
187 15.99999999999999 3 1
188 15.99999999999999 3 2
189 14.99999999999999 3 1
190 14.99999999999999 3 2
191 13.99999999999999 3 1
192 13.99999999999999 3 2
193 12.99999999999999 3 1
194 12.99999999999999 3 2
195 11.99999999999999 3 1
196 11.99999999999999 3 2
197 10.99999999999999 3 1
198 10.99999999999999 3 2
199 9.999999999999993 3 1
200 9.999999999999993 3 2
201 8.999999999999995 3 1
202 8.999999999999995 3 2
203 7.999999999999993 3 1
204 7.999999999999993 3 2
205 6.999999999999995 3 1
206 6.999999999999995 3 2
207 5.999999999999996 3 1
208 5.999999999999996 3 2
209 4.999999999999996 3 1
210 4.999999999999996 3 2
211 3.999999999999996 3 1
212 3.999999999999996 3 2
213 3 3 1
214 3 3 2
215 1.999999999999996 3 1
216 1.999999999999996 3 2
217 1 3 1
218 1 3 2
219 0 2.000000000001938 1
220 0 2.000000000001938 2
221 0 1.000000000002804 1
222 0 1.000000000002804 2
223 0.9999999999994014 1.000000000002464 3
224 0.9999999999997007 2.000000000001648 3
225 1.999999999998917 1.000000000002125 3
226 1.999999999999456 2.000000000001359 3
227 2.999999999997713 1.000000000001786 3
228 2.999999999998857 2.000000000001071 3
229 3.999999999995765 1.000000000001448 3
230 3.999999999997881 2.000000000000782 3
231 4.999999999993817 1.000000000001109 3
232 4.999999999996906 2.000000000000493 3
233 5.99999999999187 1.00000000000077 3
234 5.999999999995933 2.000000000000204 3
235 6.999999999989923 1.000000000000431 3
236 6.999999999994957 1.999999999999915 3
237 7.999999999988022 1.000000000000092 3
238 7.999999999994007 1.999999999999627 3
239 8.999999999988848 0.999999999999753 3
240 8.999999999994424 1.999999999999338 3
241 9.999999999989861 0.9999999999994141 3
242 9.99999999999493 1.999999999999049 3
243 10.99999999999088 0.9999999999990751 3
244 10.99999999999543 1.99999999999876 3
245 11.99999999999189 0.9999999999987362 3
246 11.99999999999594 1.999999999998472 3
247 12.9999999999929 0.9999999999983974 3
248 12.99999999999644 1.999999999998183 3
249 13.99999999999391 0.9999999999980583 3
250 13.99999999999695 1.999999999997894 3
251 14.99999999999493 0.9999999999977194 3
252 14.99999999999746 1.999999999997605 3
253 15.99999999999595 0.9999999999973807 3
254 15.99999999999797 1.999999999997317 3
255 16.99999999999696 0.9999999999970416 3
256 16.99999999999848 1.999999999997027 3
257 17.99999999999797 0.9999999999967026 3
258 17.99999999999898 1.999999999996739 3
259 18.99999999999899 0.9999999999963639 3
260 18.99999999999949 1.99999999999645 3
261 0.9999999999994014 1.000000000002464 1
262 0.9999999999994014 1.000000000002464 2
263 0.9999999999997007 2.000000000001648 1
264 0.9999999999997007 2.000000000001648 2
265 1.999999999998917 1.000000000002125 1
266 1.999999999998917 1.000000000002125 2
267 1.999999999999456 2.000000000001359 1
268 1.999999999999456 2.000000000001359 2
269 2.999999999997713 1.000000000001786 1
270 2.999999999997713 1.000000000001786 2
271 2.999999999998857 2.000000000001071 1
272 2.999999999998857 2.000000000001071 2
273 3.999999999995765 1.000000000001448 1
274 3.999999999995765 1.000000000001448 2
275 3.999999999997881 2.000000000000782 1
276 3.999999999997881 2.000000000000782 2
277 4.999999999993817 1.000000000001109 1
278 4.999999999993817 1.000000000001109 2
279 4.999999999996906 2.000000000000493 1
280 4.999999999996906 2.000000000000493 2
281 5.99999999999187 1.00000000000077 1
282 5.99999999999187 1.00000000000077 2
283 5.999999999995933 2.000000000000204 1
284 5.999999999995933 2.000000000000204 2
285 6.999999999989923 1.000000000000431 1
286 6.999999999989923 1.000000000000431 2
287 6.999999999994957 1.999999999999915 1
288 6.999999999994957 1.999999999999915 2
289 7.999999999988022 1.000000000000092 1
290 7.999999999988022 1.000000000000092 2
291 7.999999999994007 1.999999999999627 1
292 7.999999999994007 1.999999999999627 2
293 8.999999999988848 0.999999999999753 1
294 8.999999999988848 0.999999999999753 2
295 8.999999999994424 1.999999999999338 1
296 8.999999999994424 1.999999999999338 2
297 9.999999999989861 0.9999999999994141 1
298 9.999999999989861 0.9999999999994141 2
299 9.99999999999493 1.999999999999049 1
300 9.99999999999493 1.999999999999049 2
301 10.99999999999088 0.9999999999990751 1
302 10.99999999999088 0.9999999999990751 2
303 10.99999999999543 1.99999999999876 1
304 10.99999999999543 1.99999999999876 2
305 11.99999999999189 0.9999999999987362 1
306 11.99999999999189 0.9999999999987362 2
307 11.99999999999594 1.999999999998472 1
308 11.99999999999594 1.999999999998472 2
309 12.9999999999929 0.9999999999983974 1
310 12.9999999999929 0.9999999999983974 2
311 12.99999999999644 1.999999999998183 1
312 12.99999999999644 1.999999999998183 2
313 13.99999999999391 0.9999999999980583 1
314 13.99999999999391 0.9999999999980583 2
315 13.99999999999695 1.999999999997894 1
316 13.99999999999695 1.999999999997894 2
317 14.99999999999493 0.9999999999977194 1
318 14.99999999999493 0.9999999999977194 2
319 14.99999999999746 1.999999999997605 1
320 14.99999999999746 1.999999999997605 2
321 15.99999999999595 0.9999999999973807 1
322 15.99999999999595 0.9999999999973807 2
323 15.99999999999797 1.999999999997317 1
324 15.99999999999797 1.999999999997317 2
325 16.99999999999696 0.9999999999970416 1
326 16.99999999999696 0.9999999999970416 2
327 16.99999999999848 1.999999999997027 1
328 16.99999999999848 1.999999999997027 2
329 17.99999999999797 0.9999999999967026 1
330 17.99999999999797 0.9999999999967026 2
331 17.99999999999898 1.999999999996739 1
332 17.99999999999898 1.999999999996739 2
333 18.99999999999899 0.9999999999963639 1
334 18.99999999999899 0.9999999999963639 2
335 18.99999999999949 1.99999999999645 1
336 18.99999999999949 1.99999999999645 2
$EndNodes
$Elements
438
1 3 2 1 1 1 9 101 50
2 3 2 1 1 50 101 102 49
3 3 2 1 1 49 102 48 4
4 3 2 1 1 9 10 103 101
5 3 2 1 1 101 103 104 102
6 3 2 1 1 102 104 47 48
7 3 2 1 1 10 11 105 103
8 3 2 1 1 103 105 106 104
9 3 2 1 1 104 106 46 47
10 3 2 1 1 11 12 107 105
11 3 2 1 1 105 107 108 106
12 3 2 1 1 106 108 45 46
13 3 2 1 1 12 13 109 107
14 3 2 1 1 107 109 110 108
15 3 2 1 1 108 110 44 45
16 3 2 1 1 13 14 111 109
17 3 2 1 1 109 111 112 110
18 3 2 1 1 110 112 43 44
19 3 2 1 1 14 15 113 111
20 3 2 1 1 111 113 114 112
21 3 2 1 1 112 114 42 43
22 3 2 1 1 15 16 115 113
23 3 2 1 1 113 115 116 114
24 3 2 1 1 114 116 41 42
25 3 2 1 1 16 17 117 115
26 3 2 1 1 115 117 118 116
27 3 2 1 1 116 118 40 41
28 3 2 1 1 17 18 119 117
29 3 2 1 1 117 119 120 118
30 3 2 1 1 118 120 39 40
31 3 2 1 1 18 19 121 119
32 3 2 1 1 119 121 122 120
33 3 2 1 1 120 122 38 39
34 3 2 1 1 19 20 123 121
35 3 2 1 1 121 123 124 122
36 3 2 1 1 122 124 37 38
37 3 2 1 1 20 21 125 123
38 3 2 1 1 123 125 126 124
39 3 2 1 1 124 126 36 37
40 3 2 1 1 21 22 127 125
41 3 2 1 1 125 127 128 126
42 3 2 1 1 126 128 35 36
43 3 2 1 1 22 23 129 127
44 3 2 1 1 127 129 130 128
45 3 2 1 1 128 130 34 35
46 3 2 1 1 23 24 131 129
47 3 2 1 1 129 131 132 130
48 3 2 1 1 130 132 33 34
49 3 2 1 1 24 25 133 131
50 3 2 1 1 131 133 134 132
51 3 2 1 1 132 134 32 33
52 3 2 1 1 25 26 135 133
53 3 2 1 1 133 135 136 134
54 3 2 1 1 134 136 31 32
55 3 2 1 1 26 27 137 135
56 3 2 1 1 135 137 138 136
57 3 2 1 1 136 138 30 31
58 3 2 1 1 27 2 28 137
59 3 2 1 1 137 28 29 138
60 3 2 1 1 138 29 3 30
61 3 2 3 13 1 9 139 93
62 3 2 3 13 93 139 140 94
63 3 2 3 13 94 140 51 5
64 3 2 3 13 9 10 141 139
65 3 2 3 13 139 141 142 140
66 3 2 3 13 140 142 52 51
67 3 2 3 13 10 11 143 141
68 3 2 3 13 141 143 144 142
69 3 2 3 13 142 144 53 52
70 3 2 3 13 11 12 145 143
71 3 2 3 13 143 145 146 144
72 3 2 3 13 144 146 54 53
73 3 2 3 13 12 13 147 145
74 3 2 3 13 145 147 148 146
75 3 2 3 13 146 148 55 54
76 3 2 3 13 13 14 149 147
77 3 2 3 13 147 149 150 148
78 3 2 3 13 148 150 56 55
79 3 2 3 13 14 15 151 149
80 3 2 3 13 149 151 152 150
81 3 2 3 13 150 152 57 56
82 3 2 3 13 15 16 153 151
83 3 2 3 13 151 153 154 152
84 3 2 3 13 152 154 58 57
85 3 2 3 13 16 17 155 153
86 3 2 3 13 153 155 156 154
87 3 2 3 13 154 156 59 58
88 3 2 3 13 17 18 157 155
89 3 2 3 13 155 157 158 156
90 3 2 3 13 156 158 60 59
91 3 2 3 13 18 19 159 157
92 3 2 3 13 157 159 160 158
93 3 2 3 13 158 160 61 60
94 3 2 3 13 19 20 161 159
95 3 2 3 13 159 161 162 160
96 3 2 3 13 160 162 62 61
97 3 2 3 13 20 21 163 161
98 3 2 3 13 161 163 164 162
99 3 2 3 13 162 164 63 62
100 3 2 3 13 21 22 165 163
101 3 2 3 13 163 165 166 164
102 3 2 3 13 164 166 64 63
103 3 2 3 13 22 23 167 165
104 3 2 3 13 165 167 168 166
105 3 2 3 13 166 168 65 64
106 3 2 3 13 23 24 169 167
107 3 2 3 13 167 169 170 168
108 3 2 3 13 168 170 66 65
109 3 2 3 13 24 25 171 169
110 3 2 3 13 169 171 172 170
111 3 2 3 13 170 172 67 66
112 3 2 3 13 25 26 173 171
113 3 2 3 13 171 173 174 172
114 3 2 3 13 172 174 68 67
115 3 2 3 13 26 27 175 173
116 3 2 3 13 173 175 176 174
117 3 2 3 13 174 176 69 68
118 3 2 3 13 27 2 95 175
119 3 2 3 13 175 95 96 176
120 3 2 3 13 176 96 6 69
121 3 2 4 17 2 28 177 95
122 3 2 4 17 95 177 178 96
123 3 2 4 17 96 178 70 6
124 3 2 4 17 28 29 179 177
125 3 2 4 17 177 179 180 178
126 3 2 4 17 178 180 71 70
127 3 2 4 17 29 3 97 179
128 3 2 4 17 179 97 98 180
129 3 2 4 17 180 98 7 71
130 3 2 5 21 3 30 181 97
131 3 2 5 21 97 181 182 98
132 3 2 5 21 98 182 72 7
133 3 2 5 21 30 31 183 181
134 3 2 5 21 181 183 184 182
135 3 2 5 21 182 184 73 72
136 3 2 5 21 31 32 185 183
137 3 2 5 21 183 185 186 184
138 3 2 5 21 184 186 74 73
139 3 2 5 21 32 33 187 185
140 3 2 5 21 185 187 188 186
141 3 2 5 21 186 188 75 74
142 3 2 5 21 33 34 189 187
143 3 2 5 21 187 189 190 188
144 3 2 5 21 188 190 76 75
145 3 2 5 21 34 35 191 189
146 3 2 5 21 189 191 192 190
147 3 2 5 21 190 192 77 76
148 3 2 5 21 35 36 193 191
149 3 2 5 21 191 193 194 192
150 3 2 5 21 192 194 78 77
151 3 2 5 21 36 37 195 193
152 3 2 5 21 193 195 196 194
153 3 2 5 21 194 196 79 78
154 3 2 5 21 37 38 197 195
155 3 2 5 21 195 197 198 196
156 3 2 5 21 196 198 80 79
157 3 2 5 21 38 39 199 197
158 3 2 5 21 197 199 200 198
159 3 2 5 21 198 200 81 80
160 3 2 5 21 39 40 201 199
161 3 2 5 21 199 201 202 200
162 3 2 5 21 200 202 82 81
163 3 2 5 21 40 41 203 201
164 3 2 5 21 201 203 204 202
165 3 2 5 21 202 204 83 82
166 3 2 5 21 41 42 205 203
167 3 2 5 21 203 205 206 204
168 3 2 5 21 204 206 84 83
169 3 2 5 21 42 43 207 205
170 3 2 5 21 205 207 208 206
171 3 2 5 21 206 208 85 84
172 3 2 5 21 43 44 209 207
173 3 2 5 21 207 209 210 208
174 3 2 5 21 208 210 86 85
175 3 2 5 21 44 45 211 209
176 3 2 5 21 209 211 212 210
177 3 2 5 21 210 212 87 86
178 3 2 5 21 45 46 213 211
179 3 2 5 21 211 213 214 212
180 3 2 5 21 212 214 88 87
181 3 2 5 21 46 47 215 213
182 3 2 5 21 213 215 216 214
183 3 2 5 21 214 216 89 88
184 3 2 5 21 47 48 217 215
185 3 2 5 21 215 217 218 216
186 3 2 5 21 216 218 90 89
187 3 2 5 21 48 4 99 217
188 3 2 5 21 217 99 100 218
189 3 2 5 21 218 100 8 90
190 3 2 6 25 4 49 219 99
191 3 2 6 25 99 219 220 100
192 3 2 6 25 100 220 91 8
193 3 2 6 25 49 50 221 219
194 3 2 6 25 219 221 222 220
195 3 2 6 25 220 222 92 91
196 3 2 6 25 50 1 93 221
197 3 2 6 25 221 93 94 222
198 3 2 6 25 222 94 5 92
199 3 2 2 26 5 51 223 92
200 3 2 2 26 92 223 224 91
201 3 2 2 26 91 224 90 8
202 3 2 2 26 51 52 225 223
203 3 2 2 26 223 225 226 224
204 3 2 2 26 224 226 89 90
205 3 2 2 26 52 53 227 225
206 3 2 2 26 225 227 228 226
207 3 2 2 26 226 228 88 89
208 3 2 2 26 53 54 229 227
209 3 2 2 26 227 229 230 228
210 3 2 2 26 228 230 87 88
211 3 2 2 26 54 55 231 229
212 3 2 2 26 229 231 232 230
213 3 2 2 26 230 232 86 87
214 3 2 2 26 55 56 233 231
215 3 2 2 26 231 233 234 232
216 3 2 2 26 232 234 85 86
217 3 2 2 26 56 57 235 233
218 3 2 2 26 233 235 236 234
219 3 2 2 26 234 236 84 85
220 3 2 2 26 57 58 237 235
221 3 2 2 26 235 237 238 236
222 3 2 2 26 236 238 83 84
223 3 2 2 26 58 59 239 237
224 3 2 2 26 237 239 240 238
225 3 2 2 26 238 240 82 83
226 3 2 2 26 59 60 241 239
227 3 2 2 26 239 241 242 240
228 3 2 2 26 240 242 81 82
229 3 2 2 26 60 61 243 241
230 3 2 2 26 241 243 244 242
231 3 2 2 26 242 244 80 81
232 3 2 2 26 61 62 245 243
233 3 2 2 26 243 245 246 244
234 3 2 2 26 244 246 79 80
235 3 2 2 26 62 63 247 245
236 3 2 2 26 245 247 248 246
237 3 2 2 26 246 248 78 79
238 3 2 2 26 63 64 249 247
239 3 2 2 26 247 249 250 248
240 3 2 2 26 248 250 77 78
241 3 2 2 26 64 65 251 249
242 3 2 2 26 249 251 252 250
243 3 2 2 26 250 252 76 77
244 3 2 2 26 65 66 253 251
245 3 2 2 26 251 253 254 252
246 3 2 2 26 252 254 75 76
247 3 2 2 26 66 67 255 253
248 3 2 2 26 253 255 256 254
249 3 2 2 26 254 256 74 75
250 3 2 2 26 67 68 257 255
251 3 2 2 26 255 257 258 256
252 3 2 2 26 256 258 73 74
253 3 2 2 26 68 69 259 257
254 3 2 2 26 257 259 260 258
255 3 2 2 26 258 260 72 73
256 3 2 2 26 69 6 70 259
257 3 2 2 26 259 70 71 260
258 3 2 2 26 260 71 7 72
259 5 2 7 1 1 9 101 50 93 139 261 221
260 5 2 7 1 93 139 261 221 94 140 262 222
261 5 2 7 1 94 140 262 222 5 51 223 92
262 5 2 7 1 50 101 102 49 221 261 263 219
263 5 2 7 1 221 261 263 219 222 262 264 220
264 5 2 7 1 222 262 264 220 92 223 224 91
265 5 2 7 1 49 102 48 4 219 263 217 99
266 5 2 7 1 219 263 217 99 220 264 218 100
267 5 2 7 1 220 264 218 100 91 224 90 8
268 5 2 7 1 9 10 103 101 139 141 265 261
269 5 2 7 1 139 141 265 261 140 142 266 262
270 5 2 7 1 140 142 266 262 51 52 225 223
271 5 2 7 1 101 103 104 102 261 265 267 263
272 5 2 7 1 261 265 267 263 262 266 268 264
273 5 2 7 1 262 266 268 264 223 225 226 224
274 5 2 7 1 102 104 47 48 263 267 215 217
275 5 2 7 1 263 267 215 217 264 268 216 218
276 5 2 7 1 264 268 216 218 224 226 89 90
277 5 2 7 1 10 11 105 103 141 143 269 265
278 5 2 7 1 141 143 269 265 142 144 270 266
279 5 2 7 1 142 144 270 266 52 53 227 225
280 5 2 7 1 103 105 106 104 265 269 271 267
281 5 2 7 1 265 269 271 267 266 270 272 268
282 5 2 7 1 266 270 272 268 225 227 228 226
283 5 2 7 1 104 106 46 47 267 271 213 215
284 5 2 7 1 267 271 213 215 268 272 214 216
285 5 2 7 1 268 272 214 216 226 228 88 89
286 5 2 7 1 11 12 107 105 143 145 273 269
287 5 2 7 1 143 145 273 269 144 146 274 270
288 5 2 7 1 144 146 274 270 53 54 229 227
289 5 2 7 1 105 107 108 106 269 273 275 271
290 5 2 7 1 269 273 275 271 270 274 276 272
291 5 2 7 1 270 274 276 272 227 229 230 228
292 5 2 7 1 106 108 45 46 271 275 211 213
293 5 2 7 1 271 275 211 213 272 276 212 214
294 5 2 7 1 272 276 212 214 228 230 87 88
295 5 2 7 1 12 13 109 107 145 147 277 273
296 5 2 7 1 145 147 277 273 146 148 278 274
297 5 2 7 1 146 148 278 274 54 55 231 229
298 5 2 7 1 107 109 110 108 273 277 279 275
299 5 2 7 1 273 277 279 275 274 278 280 276
300 5 2 7 1 274 278 280 276 229 231 232 230
301 5 2 7 1 108 110 44 45 275 279 209 211
302 5 2 7 1 275 279 209 211 276 280 210 212
303 5 2 7 1 276 280 210 212 230 232 86 87
304 5 2 7 1 13 14 111 109 147 149 281 277
305 5 2 7 1 147 149 281 277 148 150 282 278
306 5 2 7 1 148 150 282 278 55 56 233 231
307 5 2 7 1 109 111 112 110 277 281 283 279
308 5 2 7 1 277 281 283 279 278 282 284 280
309 5 2 7 1 278 282 284 280 231 233 234 232
310 5 2 7 1 110 112 43 44 279 283 207 209
311 5 2 7 1 279 283 207 209 280 284 208 210
312 5 2 7 1 280 284 208 210 232 234 85 86
313 5 2 7 1 14 15 113 111 149 151 285 281
314 5 2 7 1 149 151 285 281 150 152 286 282
315 5 2 7 1 150 152 286 282 56 57 235 233
316 5 2 7 1 111 113 114 112 281 285 287 283
317 5 2 7 1 281 285 287 283 282 286 288 284
318 5 2 7 1 282 286 288 284 233 235 236 234
319 5 2 7 1 112 114 42 43 283 287 205 207
320 5 2 7 1 283 287 205 207 284 288 206 208
321 5 2 7 1 284 288 206 208 234 236 84 85
322 5 2 7 1 15 16 115 113 151 153 289 285
323 5 2 7 1 151 153 289 285 152 154 290 286
324 5 2 7 1 152 154 290 286 57 58 237 235
325 5 2 7 1 113 115 116 114 285 289 291 287
326 5 2 7 1 285 289 291 287 286 290 292 288
327 5 2 7 1 286 290 292 288 235 237 238 236
328 5 2 7 1 114 116 41 42 287 291 203 205
329 5 2 7 1 287 291 203 205 288 292 204 206
330 5 2 7 1 288 292 204 206 236 238 83 84
331 5 2 7 1 16 17 117 115 153 155 293 289
332 5 2 7 1 153 155 293 289 154 156 294 290
333 5 2 7 1 154 156 294 290 58 59 239 237
334 5 2 7 1 115 117 118 116 289 293 295 291
335 5 2 7 1 289 293 295 291 290 294 296 292
336 5 2 7 1 290 294 296 292 237 239 240 238
337 5 2 7 1 116 118 40 41 291 295 201 203
338 5 2 7 1 291 295 201 203 292 296 202 204
339 5 2 7 1 292 296 202 204 238 240 82 83
340 5 2 7 1 17 18 119 117 155 157 297 293
341 5 2 7 1 155 157 297 293 156 158 298 294
342 5 2 7 1 156 158 298 294 59 60 241 239
343 5 2 7 1 117 119 120 118 293 297 299 295
344 5 2 7 1 293 297 299 295 294 298 300 296
345 5 2 7 1 294 298 300 296 239 241 242 240
346 5 2 7 1 118 120 39 40 295 299 199 201
347 5 2 7 1 295 299 199 201 296 300 200 202
348 5 2 7 1 296 300 200 202 240 242 81 82
349 5 2 7 1 18 19 121 119 157 159 301 297
350 5 2 7 1 157 159 301 297 158 160 302 298
351 5 2 7 1 158 160 302 298 60 61 243 241
352 5 2 7 1 119 121 122 120 297 301 303 299
353 5 2 7 1 297 301 303 299 298 302 304 300
354 5 2 7 1 298 302 304 300 241 243 244 242
355 5 2 7 1 120 122 38 39 299 303 197 199
356 5 2 7 1 299 303 197 199 300 304 198 200
357 5 2 7 1 300 304 198 200 242 244 80 81
358 5 2 7 1 19 20 123 121 159 161 305 301
359 5 2 7 1 159 161 305 301 160 162 306 302
360 5 2 7 1 160 162 306 302 61 62 245 243
361 5 2 7 1 121 123 124 122 301 305 307 303
362 5 2 7 1 301 305 307 303 302 306 308 304
363 5 2 7 1 302 306 308 304 243 245 246 244
364 5 2 7 1 122 124 37 38 303 307 195 197
365 5 2 7 1 303 307 195 197 304 308 196 198
366 5 2 7 1 304 308 196 198 244 246 79 80
367 5 2 7 1 20 21 125 123 161 163 309 305
368 5 2 7 1 161 163 309 305 162 164 310 306
369 5 2 7 1 162 164 310 306 62 63 247 245
370 5 2 7 1 123 125 126 124 305 309 311 307
371 5 2 7 1 305 309 311 307 306 310 312 308
372 5 2 7 1 306 310 312 308 245 247 248 246
373 5 2 7 1 124 126 36 37 307 311 193 195
374 5 2 7 1 307 311 193 195 308 312 194 196
375 5 2 7 1 308 312 194 196 246 248 78 79
376 5 2 7 1 21 22 127 125 163 165 313 309
377 5 2 7 1 163 165 313 309 164 166 314 310
378 5 2 7 1 164 166 314 310 63 64 249 247
379 5 2 7 1 125 127 128 126 309 313 315 311
380 5 2 7 1 309 313 315 311 310 314 316 312
381 5 2 7 1 310 314 316 312 247 249 250 248
382 5 2 7 1 126 128 35 36 311 315 191 193
383 5 2 7 1 311 315 191 193 312 316 192 194
384 5 2 7 1 312 316 192 194 248 250 77 78
385 5 2 7 1 22 23 129 127 165 167 317 313
386 5 2 7 1 165 167 317 313 166 168 318 314
387 5 2 7 1 166 168 318 314 64 65 251 249
388 5 2 7 1 127 129 130 128 313 317 319 315
389 5 2 7 1 313 317 319 315 314 318 320 316
390 5 2 7 1 314 318 320 316 249 251 252 250
391 5 2 7 1 128 130 34 35 315 319 189 191
392 5 2 7 1 315 319 189 191 316 320 190 192
393 5 2 7 1 316 320 190 192 250 252 76 77
394 5 2 7 1 23 24 131 129 167 169 321 317
395 5 2 7 1 167 169 321 317 168 170 322 318
396 5 2 7 1 168 170 322 318 65 66 253 251
397 5 2 7 1 129 131 132 130 317 321 323 319
398 5 2 7 1 317 321 323 319 318 322 324 320
399 5 2 7 1 318 322 324 320 251 253 254 252
400 5 2 7 1 130 132 33 34 319 323 187 189
401 5 2 7 1 319 323 187 189 320 324 188 190
402 5 2 7 1 320 324 188 190 252 254 75 76
403 5 2 7 1 24 25 133 131 169 171 325 321
404 5 2 7 1 169 171 325 321 170 172 326 322
405 5 2 7 1 170 172 326 322 66 67 255 253
406 5 2 7 1 131 133 134 132 321 325 327 323
407 5 2 7 1 321 325 327 323 322 326 328 324
408 5 2 7 1 322 326 328 324 253 255 256 254
409 5 2 7 1 132 134 32 33 323 327 185 187
410 5 2 7 1 323 327 185 187 324 328 186 188
411 5 2 7 1 324 328 186 188 254 256 74 75
412 5 2 7 1 25 26 135 133 171 173 329 325
413 5 2 7 1 171 173 329 325 172 174 330 326
414 5 2 7 1 172 174 330 326 67 68 257 255
415 5 2 7 1 133 135 136 134 325 329 331 327
416 5 2 7 1 325 329 331 327 326 330 332 328
417 5 2 7 1 326 330 332 328 255 257 258 256
418 5 2 7 1 134 136 31 32 327 331 183 185
419 5 2 7 1 327 331 183 185 328 332 184 186
420 5 2 7 1 328 332 184 186 256 258 73 74
421 5 2 7 1 26 27 137 135 173 175 333 329
422 5 2 7 1 173 175 333 329 174 176 334 330
423 5 2 7 1 174 176 334 330 68 69 259 257
424 5 2 7 1 135 137 138 136 329 333 335 331
425 5 2 7 1 329 333 335 331 330 334 336 332
426 5 2 7 1 330 334 336 332 257 259 260 258
427 5 2 7 1 136 138 30 31 331 335 181 183
428 5 2 7 1 331 335 181 183 332 336 182 184
429 5 2 7 1 332 336 182 184 258 260 72 73
430 5 2 7 1 27 2 28 137 175 95 177 333
431 5 2 7 1 175 95 177 333 176 96 178 334
432 5 2 7 1 176 96 178 334 69 6 70 259
433 5 2 7 1 137 28 29 138 333 177 179 335
434 5 2 7 1 333 177 179 335 334 178 180 336
435 5 2 7 1 334 178 180 336 259 70 71 260
436 5 2 7 1 138 29 3 30 335 179 97 181
437 5 2 7 1 335 179 97 181 336 180 98 182
438 5 2 7 1 336 180 98 182 260 71 7 72
$EndElements
