$MeshFormat
2.2 0 8
$EndMeshFormat
$PhysicalNames
27
1 1 "cell_0"
1 2 "cell_1"
1 3 "cell_2"
1 4 "cell_3"
1 5 "cell_4"
1 6 "cell_5"
1 7 "cell_6"
1 8 "cell_7"
1 9 "cell_8"
1 10 "cell_9"
1 11 "cell_10"
1 12 "cell_11"
1 13 "cell_12"
1 14 "cell_13"
1 15 "cell_14"
1 16 "cell_15"
1 17 "cell_16"
1 18 "cell_17"
1 19 "cell_18"
1 20 "cell_19"
1 21 "cell_20"
1 22 "cell_21"
1 23 "cell_22"
1 24 "cell_23"
1 25 "cell_24"
1 26 "cell_25"
1 27 "cell_26"
$EndPhysicalNames
$Nodes
64
1 0 0 0
2 0 0 0.33333333
3 0 0 0.66666667
4 0 0 1
5 0 0.33333333 0
6 0 0.33333333 0.33333333
7 0 0.33333333 0.66666667
8 0 0.33333333 1
9 0 0.66666667 0
10 0 0.66666667 0.33333333
11 0 0.66666667 0.66666667
12 0 0.66666667 1
13 0 1 0
14 0 1 0.33333333
15 0 1 0.66666667
16 0 1 1
17 0.33333333 0 0
18 0.33333333 0 0.33333333
19 0.33333333 0 0.66666667
20 0.33333333 0 1
21 0.33333333 0.33333333 0
22 0.3562021519 0.3309246431 0.3048615645
23 0.3443787963 0.3586459214 0.6410193874
24 0.33333333 0.33333333 1
25 0.33333333 0.66666667 0
26 0.3534552006 0.6363088275 0.3425463988
27 0.3526429161 0.6740980852 0.6377982426
28 0.33333333 0.66666667 1
29 0.33333333 1 0
30 0.33333333 1 0.33333333
31 0.33333333 1 0.66666667
32 0.33333333 1 1
33 0.66666667 0 0
34 0.66666667 0 0.33333333
35 0.66666667 0 0.66666667
36 0.66666667 0 1
37 0.66666667 0.33333333 0
38 0.6714794298 0.3058727175 0.3444167975
39 0.6736029749 0.3094013901 0.6480493627
40 0.66666667 0.33333333 1
41 0.66666667 0.66666667 0
42 0.644828145 0.6580531525 0.3446193334
43 0.6575424693 0.6886910645 0.6898852763
44 0.66666667 0.66666667 1
45 0.66666667 1 0
46 0.66666667 1 0.33333333
47 0.66666667 1 0.66666667
48 0.66666667 1 1
49 1 0 0
50 1 0 0.33333333
51 1 0 0.66666667
52 1 0 1
53 1 0.33333333 0
54 1 0.33333333 0.33333333
55 1 0.33333333 0.66666667
56 1 0.33333333 1
57 1 0.66666667 0
58 1 0.66666667 0.33333333
59 1 0.66666667 0.66666667
60 1 0.66666667 1
61 1 1 0
62 1 1 0.33333333
63 1 1 0.66666667
64 1 1 1
$EndNodes
$Elements
756
1 1 2 1 1 1 17
2 1 2 1 1 1 21
3 1 2 1 1 1 5
4 1 2 1 1 1 2
5 1 2 1 1 1 18
6 1 2 1 1 1 22
7 1 2 1 1 1 6
8 1 2 1 1 17 21
9 1 2 1 1 17 5
10 1 2 1 1 17 2
11 1 2 1 1 17 18
12 1 2 1 1 17 22
13 1 2 1 1 17 6
14 1 2 1 1 21 5
15 1 2 1 1 21 2
16 1 2 1 1 21 18
17 1 2 1 1 21 22
18 1 2 1 1 21 6
19 1 2 1 1 5 2
20 1 2 1 1 5 18
21 1 2 1 1 5 22
22 1 2 1 1 5 6
23 1 2 1 1 2 18
24 1 2 1 1 2 22
25 1 2 1 1 2 6
26 1 2 1 1 18 22
27 1 2 1 1 18 6
28 1 2 1 1 22 6
29 1 2 2 2 2 18
30 1 2 2 2 2 22
31 1 2 2 2 2 6
32 1 2 2 2 2 3
33 1 2 2 2 2 19
34 1 2 2 2 2 23
35 1 2 2 2 2 7
36 1 2 2 2 18 22
37 1 2 2 2 18 6
38 1 2 2 2 18 3
39 1 2 2 2 18 19
40 1 2 2 2 18 23
41 1 2 2 2 18 7
42 1 2 2 2 22 6
43 1 2 2 2 22 3
44 1 2 2 2 22 19
45 1 2 2 2 22 23
46 1 2 2 2 22 7
47 1 2 2 2 6 3
48 1 2 2 2 6 19
49 1 2 2 2 6 23
50 1 2 2 2 6 7
51 1 2 2 2 3 19
52 1 2 2 2 3 23
53 1 2 2 2 3 7
54 1 2 2 2 19 23
55 1 2 2 2 19 7
56 1 2 2 2 23 7
57 1 2 3 3 3 19
58 1 2 3 3 3 23
59 1 2 3 3 3 7
60 1 2 3 3 3 4
61 1 2 3 3 3 20
62 1 2 3 3 3 24
63 1 2 3 3 3 8
64 1 2 3 3 19 23
65 1 2 3 3 19 7
66 1 2 3 3 19 4
67 1 2 3 3 19 20
68 1 2 3 3 19 24
69 1 2 3 3 19 8
70 1 2 3 3 23 7
71 1 2 3 3 23 4
72 1 2 3 3 23 20
73 1 2 3 3 23 24
74 1 2 3 3 23 8
75 1 2 3 3 7 4
76 1 2 3 3 7 20
77 1 2 3 3 7 24
78 1 2 3 3 7 8
79 1 2 3 3 4 20
80 1 2 3 3 4 24
81 1 2 3 3 4 8
82 1 2 3 3 20 24
83 1 2 3 3 20 8
84 1 2 3 3 24 8
85 1 2 4 4 5 21
86 1 2 4 4 5 25
87 1 2 4 4 5 9
88 1 2 4 4 5 6
89 1 2 4 4 5 22
90 1 2 4 4 5 26
91 1 2 4 4 5 10
92 1 2 4 4 21 25
93 1 2 4 4 21 9
94 1 2 4 4 21 6
95 1 2 4 4 21 22
96 1 2 4 4 21 26
97 1 2 4 4 21 10
98 1 2 4 4 25 9
99 1 2 4 4 25 6
100 1 2 4 4 25 22
101 1 2 4 4 25 26
102 1 2 4 4 25 10
103 1 2 4 4 9 6
104 1 2 4 4 9 22
105 1 2 4 4 9 26
106 1 2 4 4 9 10
107 1 2 4 4 6 22
108 1 2 4 4 6 26
109 1 2 4 4 6 10
110 1 2 4 4 22 26
111 1 2 4 4 22 10
112 1 2 4 4 26 10
113 1 2 5 5 6 22
114 1 2 5 5 6 26
115 1 2 5 5 6 10
116 1 2 5 5 6 7
117 1 2 5 5 6 23
118 1 2 5 5 6 27
119 1 2 5 5 6 11
120 1 2 5 5 22 26
121 1 2 5 5 22 10
122 1 2 5 5 22 7
123 1 2 5 5 22 23
124 1 2 5 5 22 27
125 1 2 5 5 22 11
126 1 2 5 5 26 10
127 1 2 5 5 26 7
128 1 2 5 5 26 23
129 1 2 5 5 26 27
130 1 2 5 5 26 11
131 1 2 5 5 10 7
132 1 2 5 5 10 23
133 1 2 5 5 10 27
134 1 2 5 5 10 11
135 1 2 5 5 7 23
136 1 2 5 5 7 27
137 1 2 5 5 7 11
138 1 2 5 5 23 27
139 1 2 5 5 23 11
140 1 2 5 5 27 11
141 1 2 6 6 7 23
142 1 2 6 6 7 27
143 1 2 6 6 7 11
144 1 2 6 6 7 8
145 1 2 6 6 7 24
146 1 2 6 6 7 28
147 1 2 6 6 7 12
148 1 2 6 6 23 27
149 1 2 6 6 23 11
150 1 2 6 6 23 8
151 1 2 6 6 23 24
152 1 2 6 6 23 28
153 1 2 6 6 23 12
154 1 2 6 6 27 11
155 1 2 6 6 27 8
156 1 2 6 6 27 24
157 1 2 6 6 27 28
158 1 2 6 6 27 12
159 1 2 6 6 11 8
160 1 2 6 6 11 24
161 1 2 6 6 11 28
162 1 2 6 6 11 12
163 1 2 6 6 8 24
164 1 2 6 6 8 28
165 1 2 6 6 8 12
166 1 2 6 6 24 28
167 1 2 6 6 24 12
168 1 2 6 6 28 12
169 1 2 7 7 9 25
170 1 2 7 7 9 29
171 1 2 7 7 9 13
172 1 2 7 7 9 10
173 1 2 7 7 9 26
174 1 2 7 7 9 30
175 1 2 7 7 9 14
176 1 2 7 7 25 29
177 1 2 7 7 25 13
178 1 2 7 7 25 10
179 1 2 7 7 25 26
180 1 2 7 7 25 30
181 1 2 7 7 25 14
182 1 2 7 7 29 13
183 1 2 7 7 29 10
184 1 2 7 7 29 26
185 1 2 7 7 29 30
186 1 2 7 7 29 14
187 1 2 7 7 13 10
188 1 2 7 7 13 26
189 1 2 7 7 13 30
190 1 2 7 7 13 14
191 1 2 7 7 10 26
192 1 2 7 7 10 30
193 1 2 7 7 10 14
194 1 2 7 7 26 30
195 1 2 7 7 26 14
196 1 2 7 7 30 14
197 1 2 8 8 10 26
198 1 2 8 8 10 30
199 1 2 8 8 10 14
200 1 2 8 8 10 11
201 1 2 8 8 10 27
202 1 2 8 8 10 31
203 1 2 8 8 10 15
204 1 2 8 8 26 30
205 1 2 8 8 26 14
206 1 2 8 8 26 11
207 1 2 8 8 26 27
208 1 2 8 8 26 31
209 1 2 8 8 26 15
210 1 2 8 8 30 14
211 1 2 8 8 30 11
212 1 2 8 8 30 27
213 1 2 8 8 30 31
214 1 2 8 8 30 15
215 1 2 8 8 14 11
216 1 2 8 8 14 27
217 1 2 8 8 14 31
218 1 2 8 8 14 15
219 1 2 8 8 11 27
220 1 2 8 8 11 31
221 1 2 8 8 11 15
222 1 2 8 8 27 31
223 1 2 8 8 27 15
224 1 2 8 8 31 15
225 1 2 9 9 11 27
226 1 2 9 9 11 31
227 1 2 9 9 11 15
228 1 2 9 9 11 12
229 1 2 9 9 11 28
230 1 2 9 9 11 32
231 1 2 9 9 11 16
232 1 2 9 9 27 31
233 1 2 9 9 27 15
234 1 2 9 9 27 12
235 1 2 9 9 27 28
236 1 2 9 9 27 32
237 1 2 9 9 27 16
238 1 2 9 9 31 15
239 1 2 9 9 31 12
240 1 2 9 9 31 28
241 1 2 9 9 31 32
242 1 2 9 9 31 16
243 1 2 9 9 15 12
244 1 2 9 9 15 28
245 1 2 9 9 15 32
246 1 2 9 9 15 16
247 1 2 9 9 12 28
248 1 2 9 9 12 32
249 1 2 9 9 12 16
250 1 2 9 9 28 32
251 1 2 9 9 28 16
252 1 2 9 9 32 16
253 1 2 10 10 17 33
254 1 2 10 10 17 37
255 1 2 10 10 17 21
256 1 2 10 10 17 18
257 1 2 10 10 17 34
258 1 2 10 10 17 38
259 1 2 10 10 17 22
260 1 2 10 10 33 37
261 1 2 10 10 33 21
262 1 2 10 10 33 18
263 1 2 10 10 33 34
264 1 2 10 10 33 38
265 1 2 10 10 33 22
266 1 2 10 10 37 21
267 1 2 10 10 37 18
268 1 2 10 10 37 34
269 1 2 10 10 37 38
270 1 2 10 10 37 22
271 1 2 10 10 21 18
272 1 2 10 10 21 34
273 1 2 10 10 21 38
274 1 2 10 10 21 22
275 1 2 10 10 18 34
276 1 2 10 10 18 38
277 1 2 10 10 18 22
278 1 2 10 10 34 38
279 1 2 10 10 34 22
280 1 2 10 10 38 22
281 1 2 11 11 18 34
282 1 2 11 11 18 38
283 1 2 11 11 18 22
284 1 2 11 11 18 19
285 1 2 11 11 18 35
286 1 2 11 11 18 39
287 1 2 11 11 18 23
288 1 2 11 11 34 38
289 1 2 11 11 34 22
290 1 2 11 11 34 19
291 1 2 11 11 34 35
292 1 2 11 11 34 39
293 1 2 11 11 34 23
294 1 2 11 11 38 22
295 1 2 11 11 38 19
296 1 2 11 11 38 35
297 1 2 11 11 38 39
298 1 2 11 11 38 23
299 1 2 11 11 22 19
300 1 2 11 11 22 35
301 1 2 11 11 22 39
302 1 2 11 11 22 23
303 1 2 11 11 19 35
304 1 2 11 11 19 39
305 1 2 11 11 19 23
306 1 2 11 11 35 39
307 1 2 11 11 35 23
308 1 2 11 11 39 23
309 1 2 12 12 19 35
310 1 2 12 12 19 39
311 1 2 12 12 19 23
312 1 2 12 12 19 20
313 1 2 12 12 19 36
314 1 2 12 12 19 40
315 1 2 12 12 19 24
316 1 2 12 12 35 39
317 1 2 12 12 35 23
318 1 2 12 12 35 20
319 1 2 12 12 35 36
320 1 2 12 12 35 40
321 1 2 12 12 35 24
322 1 2 12 12 39 23
323 1 2 12 12 39 20
324 1 2 12 12 39 36
325 1 2 12 12 39 40
326 1 2 12 12 39 24
327 1 2 12 12 23 20
328 1 2 12 12 23 36
329 1 2 12 12 23 40
330 1 2 12 12 23 24
331 1 2 12 12 20 36
332 1 2 12 12 20 40
333 1 2 12 12 20 24
334 1 2 12 12 36 40
335 1 2 12 12 36 24
336 1 2 12 12 40 24
337 1 2 13 13 21 37
338 1 2 13 13 21 41
339 1 2 13 13 21 25
340 1 2 13 13 21 22
341 1 2 13 13 21 38
342 1 2 13 13 21 42
343 1 2 13 13 21 26
344 1 2 13 13 37 41
345 1 2 13 13 37 25
346 1 2 13 13 37 22
347 1 2 13 13 37 38
348 1 2 13 13 37 42
349 1 2 13 13 37 26
350 1 2 13 13 41 25
351 1 2 13 13 41 22
352 1 2 13 13 41 38
353 1 2 13 13 41 42
354 1 2 13 13 41 26
355 1 2 13 13 25 22
356 1 2 13 13 25 38
357 1 2 13 13 25 42
358 1 2 13 13 25 26
359 1 2 13 13 22 38
360 1 2 13 13 22 42
361 1 2 13 13 22 26
362 1 2 13 13 38 42
363 1 2 13 13 38 26
364 1 2 13 13 42 26
365 1 2 14 14 22 38
366 1 2 14 14 22 42
367 1 2 14 14 22 26
368 1 2 14 14 22 23
369 1 2 14 14 22 39
370 1 2 14 14 22 43
371 1 2 14 14 22 27
372 1 2 14 14 38 42
373 1 2 14 14 38 26
374 1 2 14 14 38 23
375 1 2 14 14 38 39
376 1 2 14 14 38 43
377 1 2 14 14 38 27
378 1 2 14 14 42 26
379 1 2 14 14 42 23
380 1 2 14 14 42 39
381 1 2 14 14 42 43
382 1 2 14 14 42 27
383 1 2 14 14 26 23
384 1 2 14 14 26 39
385 1 2 14 14 26 43
386 1 2 14 14 26 27
387 1 2 14 14 23 39
388 1 2 14 14 23 43
389 1 2 14 14 23 27
390 1 2 14 14 39 43
391 1 2 14 14 39 27
392 1 2 14 14 43 27
393 1 2 15 15 23 39
394 1 2 15 15 23 43
395 1 2 15 15 23 27
396 1 2 15 15 23 24
397 1 2 15 15 23 40
398 1 2 15 15 23 44
399 1 2 15 15 23 28
400 1 2 15 15 39 43
401 1 2 15 15 39 27
402 1 2 15 15 39 24
403 1 2 15 15 39 40
404 1 2 15 15 39 44
405 1 2 15 15 39 28
406 1 2 15 15 43 27
407 1 2 15 15 43 24
408 1 2 15 15 43 40
409 1 2 15 15 43 44
410 1 2 15 15 43 28
411 1 2 15 15 27 24
412 1 2 15 15 27 40
413 1 2 15 15 27 44
414 1 2 15 15 27 28
415 1 2 15 15 24 40
416 1 2 15 15 24 44
417 1 2 15 15 24 28
418 1 2 15 15 40 44
419 1 2 15 15 40 28
420 1 2 15 15 44 28
421 1 2 16 16 25 41
422 1 2 16 16 25 45
423 1 2 16 16 25 29
424 1 2 16 16 25 26
425 1 2 16 16 25 42
426 1 2 16 16 25 46
427 1 2 16 16 25 30
428 1 2 16 16 41 45
429 1 2 16 16 41 29
430 1 2 16 16 41 26
431 1 2 16 16 41 42
432 1 2 16 16 41 46
433 1 2 16 16 41 30
434 1 2 16 16 45 29
435 1 2 16 16 45 26
436 1 2 16 16 45 42
437 1 2 16 16 45 46
438 1 2 16 16 45 30
439 1 2 16 16 29 26
440 1 2 16 16 29 42
441 1 2 16 16 29 46
442 1 2 16 16 29 30
443 1 2 16 16 26 42
444 1 2 16 16 26 46
445 1 2 16 16 26 30
446 1 2 16 16 42 46
447 1 2 16 16 42 30
448 1 2 16 16 46 30
449 1 2 17 17 26 42
450 1 2 17 17 26 46
451 1 2 17 17 26 30
452 1 2 17 17 26 27
453 1 2 17 17 26 43
454 1 2 17 17 26 47
455 1 2 17 17 26 31
456 1 2 17 17 42 46
457 1 2 17 17 42 30
458 1 2 17 17 42 27
459 1 2 17 17 42 43
460 1 2 17 17 42 47
461 1 2 17 17 42 31
462 1 2 17 17 46 30
463 1 2 17 17 46 27
464 1 2 17 17 46 43
465 1 2 17 17 46 47
466 1 2 17 17 46 31
467 1 2 17 17 30 27
468 1 2 17 17 30 43
469 1 2 17 17 30 47
470 1 2 17 17 30 31
471 1 2 17 17 27 43
472 1 2 17 17 27 47
473 1 2 17 17 27 31
474 1 2 17 17 43 47
475 1 2 17 17 43 31
476 1 2 17 17 47 31
477 1 2 18 18 27 43
478 1 2 18 18 27 47
479 1 2 18 18 27 31
480 1 2 18 18 27 28
481 1 2 18 18 27 44
482 1 2 18 18 27 48
483 1 2 18 18 27 32
484 1 2 18 18 43 47
485 1 2 18 18 43 31
486 1 2 18 18 43 28
487 1 2 18 18 43 44
488 1 2 18 18 43 48
489 1 2 18 18 43 32
490 1 2 18 18 47 31
491 1 2 18 18 47 28
492 1 2 18 18 47 44
493 1 2 18 18 47 48
494 1 2 18 18 47 32
495 1 2 18 18 31 28
496 1 2 18 18 31 44
497 1 2 18 18 31 48
498 1 2 18 18 31 32
499 1 2 18 18 28 44
500 1 2 18 18 28 48
501 1 2 18 18 28 32
502 1 2 18 18 44 48
503 1 2 18 18 44 32
504 1 2 18 18 48 32
505 1 2 19 19 33 49
506 1 2 19 19 33 53
507 1 2 19 19 33 37
508 1 2 19 19 33 34
509 1 2 19 19 33 50
510 1 2 19 19 33 54
511 1 2 19 19 33 38
512 1 2 19 19 49 53
513 1 2 19 19 49 37
514 1 2 19 19 49 34
515 1 2 19 19 49 50
516 1 2 19 19 49 54
517 1 2 19 19 49 38
518 1 2 19 19 53 37
519 1 2 19 19 53 34
520 1 2 19 19 53 50
521 1 2 19 19 53 54
522 1 2 19 19 53 38
523 1 2 19 19 37 34
524 1 2 19 19 37 50
525 1 2 19 19 37 54
526 1 2 19 19 37 38
527 1 2 19 19 34 50
528 1 2 19 19 34 54
529 1 2 19 19 34 38
530 1 2 19 19 50 54
531 1 2 19 19 50 38
532 1 2 19 19 54 38
533 1 2 20 20 34 50
534 1 2 20 20 34 54
535 1 2 20 20 34 38
536 1 2 20 20 34 35
537 1 2 20 20 34 51
538 1 2 20 20 34 55
539 1 2 20 20 34 39
540 1 2 20 20 50 54
541 1 2 20 20 50 38
542 1 2 20 20 50 35
543 1 2 20 20 50 51
544 1 2 20 20 50 55
545 1 2 20 20 50 39
546 1 2 20 20 54 38
547 1 2 20 20 54 35
548 1 2 20 20 54 51
549 1 2 20 20 54 55
550 1 2 20 20 54 39
551 1 2 20 20 38 35
552 1 2 20 20 38 51
553 1 2 20 20 38 55
554 1 2 20 20 38 39
555 1 2 20 20 35 51
556 1 2 20 20 35 55
557 1 2 20 20 35 39
558 1 2 20 20 51 55
559 1 2 20 20 51 39
560 1 2 20 20 55 39
561 1 2 21 21 35 51
562 1 2 21 21 35 55
563 1 2 21 21 35 39
564 1 2 21 21 35 36
565 1 2 21 21 35 52
566 1 2 21 21 35 56
567 1 2 21 21 35 40
568 1 2 21 21 51 55
569 1 2 21 21 51 39
570 1 2 21 21 51 36
571 1 2 21 21 51 52
572 1 2 21 21 51 56
573 1 2 21 21 51 40
574 1 2 21 21 55 39
575 1 2 21 21 55 36
576 1 2 21 21 55 52
577 1 2 21 21 55 56
578 1 2 21 21 55 40
579 1 2 21 21 39 36
580 1 2 21 21 39 52
581 1 2 21 21 39 56
582 1 2 21 21 39 40
583 1 2 21 21 36 52
584 1 2 21 21 36 56
585 1 2 21 21 36 40
586 1 2 21 21 52 56
587 1 2 21 21 52 40
588 1 2 21 21 56 40
589 1 2 22 22 37 53
590 1 2 22 22 37 57
591 1 2 22 22 37 41
592 1 2 22 22 37 38
593 1 2 22 22 37 54
594 1 2 22 22 37 58
595 1 2 22 22 37 42
596 1 2 22 22 53 57
597 1 2 22 22 53 41
598 1 2 22 22 53 38
599 1 2 22 22 53 54
600 1 2 22 22 53 58
601 1 2 22 22 53 42
602 1 2 22 22 57 41
603 1 2 22 22 57 38
604 1 2 22 22 57 54
605 1 2 22 22 57 58
606 1 2 22 22 57 42
607 1 2 22 22 41 38
608 1 2 22 22 41 54
609 1 2 22 22 41 58
610 1 2 22 22 41 42
611 1 2 22 22 38 54
612 1 2 22 22 38 58
613 1 2 22 22 38 42
614 1 2 22 22 54 58
615 1 2 22 22 54 42
616 1 2 22 22 58 42
617 1 2 23 23 38 54
618 1 2 23 23 38 58
619 1 2 23 23 38 42
620 1 2 23 23 38 39
621 1 2 23 23 38 55
622 1 2 23 23 38 59
623 1 2 23 23 38 43
624 1 2 23 23 54 58
625 1 2 23 23 54 42
626 1 2 23 23 54 39
627 1 2 23 23 54 55
628 1 2 23 23 54 59
629 1 2 23 23 54 43
630 1 2 23 23 58 42
631 1 2 23 23 58 39
632 1 2 23 23 58 55
633 1 2 23 23 58 59
634 1 2 23 23 58 43
635 1 2 23 23 42 39
636 1 2 23 23 42 55
637 1 2 23 23 42 59
638 1 2 23 23 42 43
639 1 2 23 23 39 55
640 1 2 23 23 39 59
641 1 2 23 23 39 43
642 1 2 23 23 55 59
643 1 2 23 23 55 43
644 1 2 23 23 59 43
645 1 2 24 24 39 55
646 1 2 24 24 39 59
647 1 2 24 24 39 43
648 1 2 24 24 39 40
649 1 2 24 24 39 56
650 1 2 24 24 39 60
651 1 2 24 24 39 44
652 1 2 24 24 55 59
653 1 2 24 24 55 43
654 1 2 24 24 55 40
655 1 2 24 24 55 56
656 1 2 24 24 55 60
657 1 2 24 24 55 44
658 1 2 24 24 59 43
659 1 2 24 24 59 40
660 1 2 24 24 59 56
661 1 2 24 24 59 60
662 1 2 24 24 59 44
663 1 2 24 24 43 40
664 1 2 24 24 43 56
665 1 2 24 24 43 60
666 1 2 24 24 43 44
667 1 2 24 24 40 56
668 1 2 24 24 40 60
669 1 2 24 24 40 44
670 1 2 24 24 56 60
671 1 2 24 24 56 44
672 1 2 24 24 60 44
673 1 2 25 25 41 57
674 1 2 25 25 41 61
675 1 2 25 25 41 45
676 1 2 25 25 41 42
677 1 2 25 25 41 58
678 1 2 25 25 41 62
679 1 2 25 25 41 46
680 1 2 25 25 57 61
681 1 2 25 25 57 45
682 1 2 25 25 57 42
683 1 2 25 25 57 58
684 1 2 25 25 57 62
685 1 2 25 25 57 46
686 1 2 25 25 61 45
687 1 2 25 25 61 42
688 1 2 25 25 61 58
689 1 2 25 25 61 62
690 1 2 25 25 61 46
691 1 2 25 25 45 42
692 1 2 25 25 45 58
693 1 2 25 25 45 62
694 1 2 25 25 45 46
695 1 2 25 25 42 58
696 1 2 25 25 42 62
697 1 2 25 25 42 46
698 1 2 25 25 58 62
699 1 2 25 25 58 46
700 1 2 25 25 62 46
701 1 2 26 26 42 58
702 1 2 26 26 42 62
703 1 2 26 26 42 46
704 1 2 26 26 42 43
705 1 2 26 26 42 59
706 1 2 26 26 42 63
707 1 2 26 26 42 47
708 1 2 26 26 58 62
709 1 2 26 26 58 46
710 1 2 26 26 58 43
711 1 2 26 26 58 59
712 1 2 26 26 58 63
713 1 2 26 26 58 47
714 1 2 26 26 62 46
715 1 2 26 26 62 43
716 1 2 26 26 62 59
717 1 2 26 26 62 63
718 1 2 26 26 62 47
719 1 2 26 26 46 43
720 1 2 26 26 46 59
721 1 2 26 26 46 63
722 1 2 26 26 46 47
723 1 2 26 26 43 59
724 1 2 26 26 43 63
725 1 2 26 26 43 47
726 1 2 26 26 59 63
727 1 2 26 26 59 47
728 1 2 26 26 63 47
729 1 2 27 27 43 59
730 1 2 27 27 43 63
731 1 2 27 27 43 47
732 1 2 27 27 43 44
733 1 2 27 27 43 60
734 1 2 27 27 43 64
735 1 2 27 27 43 48
736 1 2 27 27 59 63
737 1 2 27 27 59 47
738 1 2 27 27 59 44
739 1 2 27 27 59 60
740 1 2 27 27 59 64
741 1 2 27 27 59 48
742 1 2 27 27 63 47
743 1 2 27 27 63 44
744 1 2 27 27 63 60
745 1 2 27 27 63 64
746 1 2 27 27 63 48
747 1 2 27 27 47 44
748 1 2 27 27 47 60
749 1 2 27 27 47 64
750 1 2 27 27 47 48
751 1 2 27 27 44 60
752 1 2 27 27 44 64
753 1 2 27 27 44 48
754 1 2 27 27 60 64
755 1 2 27 27 60 48
756 1 2 27 27 64 48
$EndElements
