$MeshFormat
2.2 0 8
$EndMeshFormat
$PhysicalNames
90
1 1 "cell_0"
1 2 "cell_1"
1 3 "cell_2"
1 4 "cell_3"
1 5 "cell_4"
1 6 "cell_5"
1 7 "cell_6"
1 8 "cell_7"
1 9 "cell_8"
1 10 "cell_9"
1 11 "cell_10"
1 12 "cell_11"
1 13 "cell_12"
1 14 "cell_13"
1 15 "cell_14"
1 16 "cell_15"
1 17 "cell_16"
1 18 "cell_17"
1 19 "cell_18"
1 20 "cell_19"
1 21 "cell_20"
1 22 "cell_21"
1 23 "cell_22"
1 24 "cell_23"
1 25 "cell_24"
1 26 "cell_25"
1 27 "cell_26"
1 28 "cell_27"
1 29 "cell_28"
1 30 "cell_29"
1 31 "cell_30"
1 32 "cell_31"
1 33 "cell_32"
1 34 "cell_33"
1 35 "cell_34"
1 36 "cell_35"
1 37 "cell_36"
1 38 "cell_37"
1 39 "cell_38"
1 40 "cell_39"
1 41 "cell_40"
1 42 "cell_41"
1 43 "cell_42"
1 44 "cell_43"
1 45 "cell_44"
1 46 "cell_45"
1 47 "cell_46"
1 48 "cell_47"
1 49 "cell_48"
1 50 "cell_49"
1 51 "cell_50"
1 52 "cell_51"
1 53 "cell_52"
1 54 "cell_53"
1 55 "cell_54"
1 56 "cell_55"
1 57 "cell_56"
1 58 "cell_57"
1 59 "cell_58"
1 60 "cell_59"
1 61 "cell_60"
1 62 "cell_61"
1 63 "cell_62"
1 64 "cell_63"
1 65 "cell_64"
1 66 "cell_65"
1 67 "cell_66"
1 68 "cell_67"
1 69 "cell_68"
1 70 "cell_69"
1 71 "cell_70"
1 72 "cell_71"
1 73 "cell_72"
1 74 "cell_73"
1 75 "cell_74"
1 76 "cell_75"
1 77 "cell_76"
1 78 "cell_77"
1 79 "cell_78"
1 80 "cell_79"
1 81 "cell_80"
1 82 "cell_81"
1 83 "cell_82"
1 84 "cell_83"
1 85 "cell_84"
1 86 "cell_85"
1 87 "cell_86"
1 88 "cell_87"
1 89 "cell_88"
1 90 "cell_89"
$EndPhysicalNames
$Nodes
176
1 0 0 0
2 20 0 0
3 20 3 0
4 0 3 0
5 0 0 3
6 20 0 3
7 20 3 3
8 0 3 3
9 2 0 0
10 4 0 0
11 6 0 0
12 8 0 0
13 10 0 0
14 12 0 0
15 14 0 0
16 16 0 0
17 18 0 0
18 20 1 0
19 20 2 0
20 18 3 0
21 16 3 0
22 14 3 0
23 12 3 0
24 10 3 0
25 8 3 0
26 6 3 0
27 4 3 0
28 2 3 0
29 0 2 0
30 0 1 0
31 2 0 3
32 4 0 3
33 6 0 3
34 8 0 3
35 10 0 3
36 12 0 3
37 14 0 3
38 16 0 3
39 18 0 3
40 20 1 3
41 20 2 3
42 18 3 3
43 16 3 3
44 14 3 3
45 12 3 3
46 10 3 3
47 8 3 3
48 6 3 3
49 4 3 3
50 2 3 3
51 0 2 3
52 0 1 3
53 0 0 1
54 0 0 2
55 20 0 1
56 20 0 2
57 20 3 1
58 20 3 2
59 0 3 1
60 0 3 2
61 2 1 0
62 2 2 0
63 4 1 0
64 4 2 0
65 6 1 0
66 6 2 0
67 8 1 0
68 8 2 0
69 10 1 0
70 10 2 0
71 12 1 0
72 12 2 0
73 14 1 0
74 14 2 0
75 16 1 0
76 16 2 0
77 18 1 0
78 18 2 0
79 2 0 1
80 2 0 2
81 4 0 1
82 4 0 2
83 6 0 1
84 6 0 2
85 8 0 1
86 8 0 2
87 10 0 1
88 10 0 2
89 12 0 1
90 12 0 2
91 14 0 1
92 14 0 2
93 16 0 1
94 16 0 2
95 18 0 1
96 18 0 2
97 20 1 1
98 20 1 2
99 20 2 1
100 20 2 2
101 18 3 1
102 18 3 2
103 16 3 1
104 16 3 2
105 14 3 1
106 14 3 2
107 12 3 1
108 12 3 2
109 10 3 1
110 10 3 2
111 8 3 1
112 8 3 2
113 6 3 1
114 6 3 2
115 4 3 1
116 4 3 2
117 2 3 1
118 2 3 2
119 0 2 1
120 0 2 2
121 0 1 1
122 0 1 2
123 2 1 3
124 2 2 3
125 4 1 3
126 4 2 3
127 6 1 3
128 6 2 3
129 8 1 3
130 8 2 3
131 10 1 3
132 10 2 3
133 12 1 3
134 12 2 3
135 14 1 3
136 14 2 3
137 16 1 3
138 16 2 3
139 18 1 3
140 18 2 3
141 2 1 1
142 2 1 2
143 2 2 1
144 2 2 2
145 4 1 1
146 4 1 2
147 4 2 1
148 4 2 2
149 6 1 1
150 6 1 2
151 6 2 1
152 6 2 2
153 8 1 1
154 8 1 2
155 8 2 1
156 8 2 2
157 10 1 1
158 10 1 2
159 10 2 1
160 10 2 2
161 12 1 1
162 12 1 2
163 12 2 1
164 12 2 2
165 14 1 1
166 14 1 2
167 14 2 1
168 14 2 2
169 16 1 1
170 16 1 2
171 16 2 1
172 16 2 2
173 18 1 1
174 18 1 2
175 18 2 1
176 18 2 2
$EndNodes
$Elements
2520
1 1 2 1 1 1 9
2 1 2 1 1 1 61
3 1 2 1 1 1 30
4 1 2 1 1 1 53
5 1 2 1 1 1 79
6 1 2 1 1 1 141
7 1 2 1 1 1 121
8 1 2 1 1 9 61
9 1 2 1 1 9 30
10 1 2 1 1 9 53
11 1 2 1 1 9 79
12 1 2 1 1 9 141
13 1 2 1 1 9 121
14 1 2 1 1 30 61
15 1 2 1 1 53 61
16 1 2 1 1 61 79
17 1 2 1 1 61 141
18 1 2 1 1 61 121
19 1 2 1 1 30 53
20 1 2 1 1 30 79
21 1 2 1 1 30 141
22 1 2 1 1 30 121
23 1 2 1 1 53 79
24 1 2 1 1 53 141
25 1 2 1 1 53 121
26 1 2 1 1 79 141
27 1 2 1 1 79 121
28 1 2 1 1 121 141
29 1 2 2 2 53 79
30 1 2 2 2 53 141
31 1 2 2 2 53 121
32 1 2 2 2 53 54
33 1 2 2 2 53 80
34 1 2 2 2 53 142
35 1 2 2 2 53 122
36 1 2 2 2 79 141
37 1 2 2 2 79 121
38 1 2 2 2 54 79
39 1 2 2 2 79 80
40 1 2 2 2 79 142
41 1 2 2 2 79 122
42 1 2 2 2 121 141
43 1 2 2 2 54 141
44 1 2 2 2 80 141
45 1 2 2 2 141 142
46 1 2 2 2 122 141
47 1 2 2 2 54 121
48 1 2 2 2 80 121
49 1 2 2 2 121 142
50 1 2 2 2 121 122
51 1 2 2 2 54 80
52 1 2 2 2 54 142
53 1 2 2 2 54 122
54 1 2 2 2 80 142
55 1 2 2 2 80 122
56 1 2 2 2 122 142
57 1 2 3 3 54 80
58 1 2 3 3 54 142
59 1 2 3 3 54 122
60 1 2 3 3 5 54
61 1 2 3 3 31 54
62 1 2 3 3 54 123
63 1 2 3 3 52 54
64 1 2 3 3 80 142
65 1 2 3 3 80 122
66 1 2 3 3 5 80
67 1 2 3 3 31 80
68 1 2 3 3 80 123
69 1 2 3 3 52 80
70 1 2 3 3 122 142
71 1 2 3 3 5 142
72 1 2 3 3 31 142
73 1 2 3 3 123 142
74 1 2 3 3 52 142
75 1 2 3 3 5 122
76 1 2 3 3 31 122
77 1 2 3 3 122 123
78 1 2 3 3 52 122
79 1 2 3 3 5 31
80 1 2 3 3 5 123
81 1 2 3 3 5 52
82 1 2 3 3 31 123
83 1 2 3 3 31 52
84 1 2 3 3 52 123
85 1 2 4 4 30 61
86 1 2 4 4 30 62
87 1 2 4 4 29 30
88 1 2 4 4 30 121
89 1 2 4 4 30 141
90 1 2 4 4 30 143
91 1 2 4 4 30 119
92 1 2 4 4 61 62
93 1 2 4 4 29 61
94 1 2 4 4 61 121
95 1 2 4 4 61 141
96 1 2 4 4 61 143
97 1 2 4 4 61 119
98 1 2 4 4 29 62
99 1 2 4 4 62 121
100 1 2 4 4 62 141
101 1 2 4 4 62 143
102 1 2 4 4 62 119
103 1 2 4 4 29 121
104 1 2 4 4 29 141
105 1 2 4 4 29 143
106 1 2 4 4 29 119
107 1 2 4 4 121 141
108 1 2 4 4 121 143
109 1 2 4 4 119 121
110 1 2 4 4 141 143
111 1 2 4 4 119 141
112 1 2 4 4 119 143
113 1 2 5 5 121 141
114 1 2 5 5 121 143
115 1 2 5 5 119 121
116 1 2 5 5 121 122
117 1 2 5 5 121 142
118 1 2 5 5 121 144
119 1 2 5 5 120 121
120 1 2 5 5 141 143
121 1 2 5 5 119 141
122 1 2 5 5 122 141
123 1 2 5 5 141 142
124 1 2 5 5 141 144
125 1 2 5 5 120 141
126 1 2 5 5 119 143
127 1 2 5 5 122 143
128 1 2 5 5 142 143
129 1 2 5 5 143 144
130 1 2 5 5 120 143
131 1 2 5 5 119 122
132 1 2 5 5 119 142
133 1 2 5 5 119 144
134 1 2 5 5 119 120
135 1 2 5 5 122 142
136 1 2 5 5 122 144
137 1 2 5 5 120 122
138 1 2 5 5 142 144
139 1 2 5 5 120 142
140 1 2 5 5 120 144
141 1 2 6 6 122 142
142 1 2 6 6 122 144
143 1 2 6 6 120 122
144 1 2 6 6 52 122
145 1 2 6 6 122 123
146 1 2 6 6 122 124
147 1 2 6 6 51 122
148 1 2 6 6 142 144
149 1 2 6 6 120 142
150 1 2 6 6 52 142
151 1 2 6 6 123 142
152 1 2 6 6 124 142
153 1 2 6 6 51 142
154 1 2 6 6 120 144
155 1 2 6 6 52 144
156 1 2 6 6 123 144
157 1 2 6 6 124 144
158 1 2 6 6 51 144
159 1 2 6 6 52 120
160 1 2 6 6 120 123
161 1 2 6 6 120 124
162 1 2 6 6 51 120
163 1 2 6 6 52 123
164 1 2 6 6 52 124
165 1 2 6 6 51 52
166 1 2 6 6 123 124
167 1 2 6 6 51 123
168 1 2 6 6 51 124
169 1 2 7 7 29 62
170 1 2 7 7 28 29
171 1 2 7 7 4 29
172 1 2 7 7 29 119
173 1 2 7 7 29 143
174 1 2 7 7 29 117
175 1 2 7 7 29 59
176 1 2 7 7 28 62
177 1 2 7 7 4 62
178 1 2 7 7 62 119
179 1 2 7 7 62 143
180 1 2 7 7 62 117
181 1 2 7 7 59 62
182 1 2 7 7 4 28
183 1 2 7 7 28 119
184 1 2 7 7 28 143
185 1 2 7 7 28 117
186 1 2 7 7 28 59
187 1 2 7 7 4 119
188 1 2 7 7 4 143
189 1 2 7 7 4 117
190 1 2 7 7 4 59
191 1 2 7 7 119 143
192 1 2 7 7 117 119
193 1 2 7 7 59 119
194 1 2 7 7 117 143
195 1 2 7 7 59 143
196 1 2 7 7 59 117
197 1 2 8 8 119 143
198 1 2 8 8 117 119
199 1 2 8 8 59 119
200 1 2 8 8 119 120
201 1 2 8 8 119 144
202 1 2 8 8 118 119
203 1 2 8 8 60 119
204 1 2 8 8 117 143
205 1 2 8 8 59 143
206 1 2 8 8 120 143
207 1 2 8 8 143 144
208 1 2 8 8 118 143
209 1 2 8 8 60 143
210 1 2 8 8 59 117
211 1 2 8 8 117 120
212 1 2 8 8 117 144
213 1 2 8 8 117 118
214 1 2 8 8 60 117
215 1 2 8 8 59 120
216 1 2 8 8 59 144
217 1 2 8 8 59 118
218 1 2 8 8 59 60
219 1 2 8 8 120 144
220 1 2 8 8 118 120
221 1 2 8 8 60 120
222 1 2 8 8 118 144
223 1 2 8 8 60 144
224 1 2 8 8 60 118
225 1 2 9 9 120 144
226 1 2 9 9 118 120
227 1 2 9 9 60 120
228 1 2 9 9 51 120
229 1 2 9 9 120 124
230 1 2 9 9 50 120
231 1 2 9 9 8 120
232 1 2 9 9 118 144
233 1 2 9 9 60 144
234 1 2 9 9 51 144
235 1 2 9 9 124 144
236 1 2 9 9 50 144
237 1 2 9 9 8 144
238 1 2 9 9 60 118
239 1 2 9 9 51 118
240 1 2 9 9 118 124
241 1 2 9 9 50 118
242 1 2 9 9 8 118
243 1 2 9 9 51 60
244 1 2 9 9 60 124
245 1 2 9 9 50 60
246 1 2 9 9 8 60
247 1 2 9 9 51 124
248 1 2 9 9 50 51
249 1 2 9 9 8 51
250 1 2 9 9 50 124
251 1 2 9 9 8 124
252 1 2 9 9 8 50
253 1 2 10 10 9 10
254 1 2 10 10 9 63
255 1 2 10 10 9 61
256 1 2 10 10 9 79
257 1 2 10 10 9 81
258 1 2 10 10 9 145
259 1 2 10 10 9 141
260 1 2 10 10 10 63
261 1 2 10 10 10 61
262 1 2 10 10 10 79
263 1 2 10 10 10 81
264 1 2 10 10 10 145
265 1 2 10 10 10 141
266 1 2 10 10 61 63
267 1 2 10 10 63 79
268 1 2 10 10 63 81
269 1 2 10 10 63 145
270 1 2 10 10 63 141
271 1 2 10 10 61 79
272 1 2 10 10 61 81
273 1 2 10 10 61 145
274 1 2 10 10 61 141
275 1 2 10 10 79 81
276 1 2 10 10 79 145
277 1 2 10 10 79 141
278 1 2 10 10 81 145
279 1 2 10 10 81 141
280 1 2 10 10 141 145
281 1 2 11 11 79 81
282 1 2 11 11 79 145
283 1 2 11 11 79 141
284 1 2 11 11 79 80
285 1 2 11 11 79 82
286 1 2 11 11 79 146
287 1 2 11 11 79 142
288 1 2 11 11 81 145
289 1 2 11 11 81 141
290 1 2 11 11 80 81
291 1 2 11 11 81 82
292 1 2 11 11 81 146
293 1 2 11 11 81 142
294 1 2 11 11 141 145
295 1 2 11 11 80 145
296 1 2 11 11 82 145
297 1 2 11 11 145 146
298 1 2 11 11 142 145
299 1 2 11 11 80 141
300 1 2 11 11 82 141
301 1 2 11 11 141 146
302 1 2 11 11 141 142
303 1 2 11 11 80 82
304 1 2 11 11 80 146
305 1 2 11 11 80 142
306 1 2 11 11 82 146
307 1 2 11 11 82 142
308 1 2 11 11 142 146
309 1 2 12 12 80 82
310 1 2 12 12 80 146
311 1 2 12 12 80 142
312 1 2 12 12 31 80
313 1 2 12 12 32 80
314 1 2 12 12 80 125
315 1 2 12 12 80 123
316 1 2 12 12 82 146
317 1 2 12 12 82 142
318 1 2 12 12 31 82
319 1 2 12 12 32 82
320 1 2 12 12 82 125
321 1 2 12 12 82 123
322 1 2 12 12 142 146
323 1 2 12 12 31 146
324 1 2 12 12 32 146
325 1 2 12 12 125 146
326 1 2 12 12 123 146
327 1 2 12 12 31 142
328 1 2 12 12 32 142
329 1 2 12 12 125 142
330 1 2 12 12 123 142
331 1 2 12 12 31 32
332 1 2 12 12 31 125
333 1 2 12 12 31 123
334 1 2 12 12 32 125
335 1 2 12 12 32 123
336 1 2 12 12 123 125
337 1 2 13 13 61 63
338 1 2 13 13 61 64
339 1 2 13 13 61 62
340 1 2 13 13 61 141
341 1 2 13 13 61 145
342 1 2 13 13 61 147
343 1 2 13 13 61 143
344 1 2 13 13 63 64
345 1 2 13 13 62 63
346 1 2 13 13 63 141
347 1 2 13 13 63 145
348 1 2 13 13 63 147
349 1 2 13 13 63 143
350 1 2 13 13 62 64
351 1 2 13 13 64 141
352 1 2 13 13 64 145
353 1 2 13 13 64 147
354 1 2 13 13 64 143
355 1 2 13 13 62 141
356 1 2 13 13 62 145
357 1 2 13 13 62 147
358 1 2 13 13 62 143
359 1 2 13 13 141 145
360 1 2 13 13 141 147
361 1 2 13 13 141 143
362 1 2 13 13 145 147
363 1 2 13 13 143 145
364 1 2 13 13 143 147
365 1 2 14 14 141 145
366 1 2 14 14 141 147
367 1 2 14 14 141 143
368 1 2 14 14 141 142
369 1 2 14 14 141 146
370 1 2 14 14 141 148
371 1 2 14 14 141 144
372 1 2 14 14 145 147
373 1 2 14 14 143 145
374 1 2 14 14 142 145
375 1 2 14 14 145 146
376 1 2 14 14 145 148
377 1 2 14 14 144 145
378 1 2 14 14 143 147
379 1 2 14 14 142 147
380 1 2 14 14 146 147
381 1 2 14 14 147 148
382 1 2 14 14 144 147
383 1 2 14 14 142 143
384 1 2 14 14 143 146
385 1 2 14 14 143 148
386 1 2 14 14 143 144
387 1 2 14 14 142 146
388 1 2 14 14 142 148
389 1 2 14 14 142 144
390 1 2 14 14 146 148
391 1 2 14 14 144 146
392 1 2 14 14 144 148
393 1 2 15 15 142 146
394 1 2 15 15 142 148
395 1 2 15 15 142 144
396 1 2 15 15 123 142
397 1 2 15 15 125 142
398 1 2 15 15 126 142
399 1 2 15 15 124 142
400 1 2 15 15 146 148
401 1 2 15 15 144 146
402 1 2 15 15 123 146
403 1 2 15 15 125 146
404 1 2 15 15 126 146
405 1 2 15 15 124 146
406 1 2 15 15 144 148
407 1 2 15 15 123 148
408 1 2 15 15 125 148
409 1 2 15 15 126 148
410 1 2 15 15 124 148
411 1 2 15 15 123 144
412 1 2 15 15 125 144
413 1 2 15 15 126 144
414 1 2 15 15 124 144
415 1 2 15 15 123 125
416 1 2 15 15 123 126
417 1 2 15 15 123 124
418 1 2 15 15 125 126
419 1 2 15 15 124 125
420 1 2 15 15 124 126
421 1 2 16 16 62 64
422 1 2 16 16 27 62
423 1 2 16 16 28 62
424 1 2 16 16 62 143
425 1 2 16 16 62 147
426 1 2 16 16 62 115
427 1 2 16 16 62 117
428 1 2 16 16 27 64
429 1 2 16 16 28 64
430 1 2 16 16 64 143
431 1 2 16 16 64 147
432 1 2 16 16 64 115
433 1 2 16 16 64 117
434 1 2 16 16 27 28
435 1 2 16 16 27 143
436 1 2 16 16 27 147
437 1 2 16 16 27 115
438 1 2 16 16 27 117
439 1 2 16 16 28 143
440 1 2 16 16 28 147
441 1 2 16 16 28 115
442 1 2 16 16 28 117
443 1 2 16 16 143 147
444 1 2 16 16 115 143
445 1 2 16 16 117 143
446 1 2 16 16 115 147
447 1 2 16 16 117 147
448 1 2 16 16 115 117
449 1 2 17 17 143 147
450 1 2 17 17 115 143
451 1 2 17 17 117 143
452 1 2 17 17 143 144
453 1 2 17 17 143 148
454 1 2 17 17 116 143
455 1 2 17 17 118 143
456 1 2 17 17 115 147
457 1 2 17 17 117 147
458 1 2 17 17 144 147
459 1 2 17 17 147 148
460 1 2 17 17 116 147
461 1 2 17 17 118 147
462 1 2 17 17 115 117
463 1 2 17 17 115 144
464 1 2 17 17 115 148
465 1 2 17 17 115 116
466 1 2 17 17 115 118
467 1 2 17 17 117 144
468 1 2 17 17 117 148
469 1 2 17 17 116 117
470 1 2 17 17 117 118
471 1 2 17 17 144 148
472 1 2 17 17 116 144
473 1 2 17 17 118 144
474 1 2 17 17 116 148
475 1 2 17 17 118 148
476 1 2 17 17 116 118
477 1 2 18 18 144 148
478 1 2 18 18 116 144
479 1 2 18 18 118 144
480 1 2 18 18 124 144
481 1 2 18 18 126 144
482 1 2 18 18 49 144
483 1 2 18 18 50 144
484 1 2 18 18 116 148
485 1 2 18 18 118 148
486 1 2 18 18 124 148
487 1 2 18 18 126 148
488 1 2 18 18 49 148
489 1 2 18 18 50 148
490 1 2 18 18 116 118
491 1 2 18 18 116 124
492 1 2 18 18 116 126
493 1 2 18 18 49 116
494 1 2 18 18 50 116
495 1 2 18 18 118 124
496 1 2 18 18 118 126
497 1 2 18 18 49 118
498 1 2 18 18 50 118
499 1 2 18 18 124 126
500 1 2 18 18 49 124
501 1 2 18 18 50 124
502 1 2 18 18 49 126
503 1 2 18 18 50 126
504 1 2 18 18 49 50
505 1 2 19 19 10 11
506 1 2 19 19 10 65
507 1 2 19 19 10 63
508 1 2 19 19 10 81
509 1 2 19 19 10 83
510 1 2 19 19 10 149
511 1 2 19 19 10 145
512 1 2 19 19 11 65
513 1 2 19 19 11 63
514 1 2 19 19 11 81
515 1 2 19 19 11 83
516 1 2 19 19 11 149
517 1 2 19 19 11 145
518 1 2 19 19 63 65
519 1 2 19 19 65 81
520 1 2 19 19 65 83
521 1 2 19 19 65 149
522 1 2 19 19 65 145
523 1 2 19 19 63 81
524 1 2 19 19 63 83
525 1 2 19 19 63 149
526 1 2 19 19 63 145
527 1 2 19 19 81 83
528 1 2 19 19 81 149
529 1 2 19 19 81 145
530 1 2 19 19 83 149
531 1 2 19 19 83 145
532 1 2 19 19 145 149
533 1 2 20 20 81 83
534 1 2 20 20 81 149
535 1 2 20 20 81 145
536 1 2 20 20 81 82
537 1 2 20 20 81 84
538 1 2 20 20 81 150
539 1 2 20 20 81 146
540 1 2 20 20 83 149
541 1 2 20 20 83 145
542 1 2 20 20 82 83
543 1 2 20 20 83 84
544 1 2 20 20 83 150
545 1 2 20 20 83 146
546 1 2 20 20 145 149
547 1 2 20 20 82 149
548 1 2 20 20 84 149
549 1 2 20 20 149 150
550 1 2 20 20 146 149
551 1 2 20 20 82 145
552 1 2 20 20 84 145
553 1 2 20 20 145 150
554 1 2 20 20 145 146
555 1 2 20 20 82 84
556 1 2 20 20 82 150
557 1 2 20 20 82 146
558 1 2 20 20 84 150
559 1 2 20 20 84 146
560 1 2 20 20 146 150
561 1 2 21 21 82 84
562 1 2 21 21 82 150
563 1 2 21 21 82 146
564 1 2 21 21 32 82
565 1 2 21 21 33 82
566 1 2 21 21 82 127
567 1 2 21 21 82 125
568 1 2 21 21 84 150
569 1 2 21 21 84 146
570 1 2 21 21 32 84
571 1 2 21 21 33 84
572 1 2 21 21 84 127
573 1 2 21 21 84 125
574 1 2 21 21 146 150
575 1 2 21 21 32 150
576 1 2 21 21 33 150
577 1 2 21 21 127 150
578 1 2 21 21 125 150
579 1 2 21 21 32 146
580 1 2 21 21 33 146
581 1 2 21 21 127 146
582 1 2 21 21 125 146
583 1 2 21 21 32 33
584 1 2 21 21 32 127
585 1 2 21 21 32 125
586 1 2 21 21 33 127
587 1 2 21 21 33 125
588 1 2 21 21 125 127
589 1 2 22 22 63 65
590 1 2 22 22 63 66
591 1 2 22 22 63 64
592 1 2 22 22 63 145
593 1 2 22 22 63 149
594 1 2 22 22 63 151
595 1 2 22 22 63 147
596 1 2 22 22 65 66
597 1 2 22 22 64 65
598 1 2 22 22 65 145
599 1 2 22 22 65 149
600 1 2 22 22 65 151
601 1 2 22 22 65 147
602 1 2 22 22 64 66
603 1 2 22 22 66 145
604 1 2 22 22 66 149
605 1 2 22 22 66 151
606 1 2 22 22 66 147
607 1 2 22 22 64 145
608 1 2 22 22 64 149
609 1 2 22 22 64 151
610 1 2 22 22 64 147
611 1 2 22 22 145 149
612 1 2 22 22 145 151
613 1 2 22 22 145 147
614 1 2 22 22 149 151
615 1 2 22 22 147 149
616 1 2 22 22 147 151
617 1 2 23 23 145 149
618 1 2 23 23 145 151
619 1 2 23 23 145 147
620 1 2 23 23 145 146
621 1 2 23 23 145 150
622 1 2 23 23 145 152
623 1 2 23 23 145 148
624 1 2 23 23 149 151
625 1 2 23 23 147 149
626 1 2 23 23 146 149
627 1 2 23 23 149 150
628 1 2 23 23 149 152
629 1 2 23 23 148 149
630 1 2 23 23 147 151
631 1 2 23 23 146 151
632 1 2 23 23 150 151
633 1 2 23 23 151 152
634 1 2 23 23 148 151
635 1 2 23 23 146 147
636 1 2 23 23 147 150
637 1 2 23 23 147 152
638 1 2 23 23 147 148
639 1 2 23 23 146 150
640 1 2 23 23 146 152
641 1 2 23 23 146 148
642 1 2 23 23 150 152
643 1 2 23 23 148 150
644 1 2 23 23 148 152
645 1 2 24 24 146 150
646 1 2 24 24 146 152
647 1 2 24 24 146 148
648 1 2 24 24 125 146
649 1 2 24 24 127 146
650 1 2 24 24 128 146
651 1 2 24 24 126 146
652 1 2 24 24 150 152
653 1 2 24 24 148 150
654 1 2 24 24 125 150
655 1 2 24 24 127 150
656 1 2 24 24 128 150
657 1 2 24 24 126 150
658 1 2 24 24 148 152
659 1 2 24 24 125 152
660 1 2 24 24 127 152
661 1 2 24 24 128 152
662 1 2 24 24 126 152
663 1 2 24 24 125 148
664 1 2 24 24 127 148
665 1 2 24 24 128 148
666 1 2 24 24 126 148
667 1 2 24 24 125 127
668 1 2 24 24 125 128
669 1 2 24 24 125 126
670 1 2 24 24 127 128
671 1 2 24 24 126 127
672 1 2 24 24 126 128
673 1 2 25 25 64 66
674 1 2 25 25 26 64
675 1 2 25 25 27 64
676 1 2 25 25 64 147
677 1 2 25 25 64 151
678 1 2 25 25 64 113
679 1 2 25 25 64 115
680 1 2 25 25 26 66
681 1 2 25 25 27 66
682 1 2 25 25 66 147
683 1 2 25 25 66 151
684 1 2 25 25 66 113
685 1 2 25 25 66 115
686 1 2 25 25 26 27
687 1 2 25 25 26 147
688 1 2 25 25 26 151
689 1 2 25 25 26 113
690 1 2 25 25 26 115
691 1 2 25 25 27 147
692 1 2 25 25 27 151
693 1 2 25 25 27 113
694 1 2 25 25 27 115
695 1 2 25 25 147 151
696 1 2 25 25 113 147
697 1 2 25 25 115 147
698 1 2 25 25 113 151
699 1 2 25 25 115 151
700 1 2 25 25 113 115
701 1 2 26 26 147 151
702 1 2 26 26 113 147
703 1 2 26 26 115 147
704 1 2 26 26 147 148
705 1 2 26 26 147 152
706 1 2 26 26 114 147
707 1 2 26 26 116 147
708 1 2 26 26 113 151
709 1 2 26 26 115 151
710 1 2 26 26 148 151
711 1 2 26 26 151 152
712 1 2 26 26 114 151
713 1 2 26 26 116 151
714 1 2 26 26 113 115
715 1 2 26 26 113 148
716 1 2 26 26 113 152
717 1 2 26 26 113 114
718 1 2 26 26 113 116
719 1 2 26 26 115 148
720 1 2 26 26 115 152
721 1 2 26 26 114 115
722 1 2 26 26 115 116
723 1 2 26 26 148 152
724 1 2 26 26 114 148
725 1 2 26 26 116 148
726 1 2 26 26 114 152
727 1 2 26 26 116 152
728 1 2 26 26 114 116
729 1 2 27 27 148 152
730 1 2 27 27 114 148
731 1 2 27 27 116 148
732 1 2 27 27 126 148
733 1 2 27 27 128 148
734 1 2 27 27 48 148
735 1 2 27 27 49 148
736 1 2 27 27 114 152
737 1 2 27 27 116 152
738 1 2 27 27 126 152
739 1 2 27 27 128 152
740 1 2 27 27 48 152
741 1 2 27 27 49 152
742 1 2 27 27 114 116
743 1 2 27 27 114 126
744 1 2 27 27 114 128
745 1 2 27 27 48 114
746 1 2 27 27 49 114
747 1 2 27 27 116 126
748 1 2 27 27 116 128
749 1 2 27 27 48 116
750 1 2 27 27 49 116
751 1 2 27 27 126 128
752 1 2 27 27 48 126
753 1 2 27 27 49 126
754 1 2 27 27 48 128
755 1 2 27 27 49 128
756 1 2 27 27 48 49
757 1 2 28 28 11 12
758 1 2 28 28 11 67
759 1 2 28 28 11 65
760 1 2 28 28 11 83
761 1 2 28 28 11 85
762 1 2 28 28 11 153
763 1 2 28 28 11 149
764 1 2 28 28 12 67
765 1 2 28 28 12 65
766 1 2 28 28 12 83
767 1 2 28 28 12 85
768 1 2 28 28 12 153
769 1 2 28 28 12 149
770 1 2 28 28 65 67
771 1 2 28 28 67 83
772 1 2 28 28 67 85
773 1 2 28 28 67 153
774 1 2 28 28 67 149
775 1 2 28 28 65 83
776 1 2 28 28 65 85
777 1 2 28 28 65 153
778 1 2 28 28 65 149
779 1 2 28 28 83 85
780 1 2 28 28 83 153
781 1 2 28 28 83 149
782 1 2 28 28 85 153
783 1 2 28 28 85 149
784 1 2 28 28 149 153
785 1 2 29 29 83 85
786 1 2 29 29 83 153
787 1 2 29 29 83 149
788 1 2 29 29 83 84
789 1 2 29 29 83 86
790 1 2 29 29 83 154
791 1 2 29 29 83 150
792 1 2 29 29 85 153
793 1 2 29 29 85 149
794 1 2 29 29 84 85
795 1 2 29 29 85 86
796 1 2 29 29 85 154
797 1 2 29 29 85 150
798 1 2 29 29 149 153
799 1 2 29 29 84 153
800 1 2 29 29 86 153
801 1 2 29 29 153 154
802 1 2 29 29 150 153
803 1 2 29 29 84 149
804 1 2 29 29 86 149
805 1 2 29 29 149 154
806 1 2 29 29 149 150
807 1 2 29 29 84 86
808 1 2 29 29 84 154
809 1 2 29 29 84 150
810 1 2 29 29 86 154
811 1 2 29 29 86 150
812 1 2 29 29 150 154
813 1 2 30 30 84 86
814 1 2 30 30 84 154
815 1 2 30 30 84 150
816 1 2 30 30 33 84
817 1 2 30 30 34 84
818 1 2 30 30 84 129
819 1 2 30 30 84 127
820 1 2 30 30 86 154
821 1 2 30 30 86 150
822 1 2 30 30 33 86
823 1 2 30 30 34 86
824 1 2 30 30 86 129
825 1 2 30 30 86 127
826 1 2 30 30 150 154
827 1 2 30 30 33 154
828 1 2 30 30 34 154
829 1 2 30 30 129 154
830 1 2 30 30 127 154
831 1 2 30 30 33 150
832 1 2 30 30 34 150
833 1 2 30 30 129 150
834 1 2 30 30 127 150
835 1 2 30 30 33 34
836 1 2 30 30 33 129
837 1 2 30 30 33 127
838 1 2 30 30 34 129
839 1 2 30 30 34 127
840 1 2 30 30 127 129
841 1 2 31 31 65 67
842 1 2 31 31 65 68
843 1 2 31 31 65 66
844 1 2 31 31 65 149
845 1 2 31 31 65 153
846 1 2 31 31 65 155
847 1 2 31 31 65 151
848 1 2 31 31 67 68
849 1 2 31 31 66 67
850 1 2 31 31 67 149
851 1 2 31 31 67 153
852 1 2 31 31 67 155
853 1 2 31 31 67 151
854 1 2 31 31 66 68
855 1 2 31 31 68 149
856 1 2 31 31 68 153
857 1 2 31 31 68 155
858 1 2 31 31 68 151
859 1 2 31 31 66 149
860 1 2 31 31 66 153
861 1 2 31 31 66 155
862 1 2 31 31 66 151
863 1 2 31 31 149 153
864 1 2 31 31 149 155
865 1 2 31 31 149 151
866 1 2 31 31 153 155
867 1 2 31 31 151 153
868 1 2 31 31 151 155
869 1 2 32 32 149 153
870 1 2 32 32 149 155
871 1 2 32 32 149 151
872 1 2 32 32 149 150
873 1 2 32 32 149 154
874 1 2 32 32 149 156
875 1 2 32 32 149 152
876 1 2 32 32 153 155
877 1 2 32 32 151 153
878 1 2 32 32 150 153
879 1 2 32 32 153 154
880 1 2 32 32 153 156
881 1 2 32 32 152 153
882 1 2 32 32 151 155
883 1 2 32 32 150 155
884 1 2 32 32 154 155
885 1 2 32 32 155 156
886 1 2 32 32 152 155
887 1 2 32 32 150 151
888 1 2 32 32 151 154
889 1 2 32 32 151 156
890 1 2 32 32 151 152
891 1 2 32 32 150 154
892 1 2 32 32 150 156
893 1 2 32 32 150 152
894 1 2 32 32 154 156
895 1 2 32 32 152 154
896 1 2 32 32 152 156
897 1 2 33 33 150 154
898 1 2 33 33 150 156
899 1 2 33 33 150 152
900 1 2 33 33 127 150
901 1 2 33 33 129 150
902 1 2 33 33 130 150
903 1 2 33 33 128 150
904 1 2 33 33 154 156
905 1 2 33 33 152 154
906 1 2 33 33 127 154
907 1 2 33 33 129 154
908 1 2 33 33 130 154
909 1 2 33 33 128 154
910 1 2 33 33 152 156
911 1 2 33 33 127 156
912 1 2 33 33 129 156
913 1 2 33 33 130 156
914 1 2 33 33 128 156
915 1 2 33 33 127 152
916 1 2 33 33 129 152
917 1 2 33 33 130 152
918 1 2 33 33 128 152
919 1 2 33 33 127 129
920 1 2 33 33 127 130
921 1 2 33 33 127 128
922 1 2 33 33 129 130
923 1 2 33 33 128 129
924 1 2 33 33 128 130
925 1 2 34 34 66 68
926 1 2 34 34 25 66
927 1 2 34 34 26 66
928 1 2 34 34 66 151
929 1 2 34 34 66 155
930 1 2 34 34 66 111
931 1 2 34 34 66 113
932 1 2 34 34 25 68
933 1 2 34 34 26 68
934 1 2 34 34 68 151
935 1 2 34 34 68 155
936 1 2 34 34 68 111
937 1 2 34 34 68 113
938 1 2 34 34 25 26
939 1 2 34 34 25 151
940 1 2 34 34 25 155
941 1 2 34 34 25 111
942 1 2 34 34 25 113
943 1 2 34 34 26 151
944 1 2 34 34 26 155
945 1 2 34 34 26 111
946 1 2 34 34 26 113
947 1 2 34 34 151 155
948 1 2 34 34 111 151
949 1 2 34 34 113 151
950 1 2 34 34 111 155
951 1 2 34 34 113 155
952 1 2 34 34 111 113
953 1 2 35 35 151 155
954 1 2 35 35 111 151
955 1 2 35 35 113 151
956 1 2 35 35 151 152
957 1 2 35 35 151 156
958 1 2 35 35 112 151
959 1 2 35 35 114 151
960 1 2 35 35 111 155
961 1 2 35 35 113 155
962 1 2 35 35 152 155
963 1 2 35 35 155 156
964 1 2 35 35 112 155
965 1 2 35 35 114 155
966 1 2 35 35 111 113
967 1 2 35 35 111 152
968 1 2 35 35 111 156
969 1 2 35 35 111 112
970 1 2 35 35 111 114
971 1 2 35 35 113 152
972 1 2 35 35 113 156
973 1 2 35 35 112 113
974 1 2 35 35 113 114
975 1 2 35 35 152 156
976 1 2 35 35 112 152
977 1 2 35 35 114 152
978 1 2 35 35 112 156
979 1 2 35 35 114 156
980 1 2 35 35 112 114
981 1 2 36 36 152 156
982 1 2 36 36 112 152
983 1 2 36 36 114 152
984 1 2 36 36 128 152
985 1 2 36 36 130 152
986 1 2 36 36 47 152
987 1 2 36 36 48 152
988 1 2 36 36 112 156
989 1 2 36 36 114 156
990 1 2 36 36 128 156
991 1 2 36 36 130 156
992 1 2 36 36 47 156
993 1 2 36 36 48 156
994 1 2 36 36 112 114
995 1 2 36 36 112 128
996 1 2 36 36 112 130
997 1 2 36 36 47 112
998 1 2 36 36 48 112
999 1 2 36 36 114 128
1000 1 2 36 36 114 130
1001 1 2 36 36 47 114
1002 1 2 36 36 48 114
1003 1 2 36 36 128 130
1004 1 2 36 36 47 128
1005 1 2 36 36 48 128
1006 1 2 36 36 47 130
1007 1 2 36 36 48 130
1008 1 2 36 36 47 48
1009 1 2 37 37 12 13
1010 1 2 37 37 12 69
1011 1 2 37 37 12 67
1012 1 2 37 37 12 85
1013 1 2 37 37 12 87
1014 1 2 37 37 12 157
1015 1 2 37 37 12 153
1016 1 2 37 37 13 69
1017 1 2 37 37 13 67
1018 1 2 37 37 13 85
1019 1 2 37 37 13 87
1020 1 2 37 37 13 157
1021 1 2 37 37 13 153
1022 1 2 37 37 67 69
1023 1 2 37 37 69 85
1024 1 2 37 37 69 87
1025 1 2 37 37 69 157
1026 1 2 37 37 69 153
1027 1 2 37 37 67 85
1028 1 2 37 37 67 87
1029 1 2 37 37 67 157
1030 1 2 37 37 67 153
1031 1 2 37 37 85 87
1032 1 2 37 37 85 157
1033 1 2 37 37 85 153
1034 1 2 37 37 87 157
1035 1 2 37 37 87 153
1036 1 2 37 37 153 157
1037 1 2 38 38 85 87
1038 1 2 38 38 85 157
1039 1 2 38 38 85 153
1040 1 2 38 38 85 86
1041 1 2 38 38 85 88
1042 1 2 38 38 85 158
1043 1 2 38 38 85 154
1044 1 2 38 38 87 157
1045 1 2 38 38 87 153
1046 1 2 38 38 86 87
1047 1 2 38 38 87 88
1048 1 2 38 38 87 158
1049 1 2 38 38 87 154
1050 1 2 38 38 153 157
1051 1 2 38 38 86 157
1052 1 2 38 38 88 157
1053 1 2 38 38 157 158
1054 1 2 38 38 154 157
1055 1 2 38 38 86 153
1056 1 2 38 38 88 153
1057 1 2 38 38 153 158
1058 1 2 38 38 153 154
1059 1 2 38 38 86 88
1060 1 2 38 38 86 158
1061 1 2 38 38 86 154
1062 1 2 38 38 88 158
1063 1 2 38 38 88 154
1064 1 2 38 38 154 158
1065 1 2 39 39 86 88
1066 1 2 39 39 86 158
1067 1 2 39 39 86 154
1068 1 2 39 39 34 86
1069 1 2 39 39 35 86
1070 1 2 39 39 86 131
1071 1 2 39 39 86 129
1072 1 2 39 39 88 158
1073 1 2 39 39 88 154
1074 1 2 39 39 34 88
1075 1 2 39 39 35 88
1076 1 2 39 39 88 131
1077 1 2 39 39 88 129
1078 1 2 39 39 154 158
1079 1 2 39 39 34 158
1080 1 2 39 39 35 158
1081 1 2 39 39 131 158
1082 1 2 39 39 129 158
1083 1 2 39 39 34 154
1084 1 2 39 39 35 154
1085 1 2 39 39 131 154
1086 1 2 39 39 129 154
1087 1 2 39 39 34 35
1088 1 2 39 39 34 131
1089 1 2 39 39 34 129
1090 1 2 39 39 35 131
1091 1 2 39 39 35 129
1092 1 2 39 39 129 131
1093 1 2 40 40 67 69
1094 1 2 40 40 67 70
1095 1 2 40 40 67 68
1096 1 2 40 40 67 153
1097 1 2 40 40 67 157
1098 1 2 40 40 67 159
1099 1 2 40 40 67 155
1100 1 2 40 40 69 70
1101 1 2 40 40 68 69
1102 1 2 40 40 69 153
1103 1 2 40 40 69 157
1104 1 2 40 40 69 159
1105 1 2 40 40 69 155
1106 1 2 40 40 68 70
1107 1 2 40 40 70 153
1108 1 2 40 40 70 157
1109 1 2 40 40 70 159
1110 1 2 40 40 70 155
1111 1 2 40 40 68 153
1112 1 2 40 40 68 157
1113 1 2 40 40 68 159
1114 1 2 40 40 68 155
1115 1 2 40 40 153 157
1116 1 2 40 40 153 159
1117 1 2 40 40 153 155
1118 1 2 40 40 157 159
1119 1 2 40 40 155 157
1120 1 2 40 40 155 159
1121 1 2 41 41 153 157
1122 1 2 41 41 153 159
1123 1 2 41 41 153 155
1124 1 2 41 41 153 154
1125 1 2 41 41 153 158
1126 1 2 41 41 153 160
1127 1 2 41 41 153 156
1128 1 2 41 41 157 159
1129 1 2 41 41 155 157
1130 1 2 41 41 154 157
1131 1 2 41 41 157 158
1132 1 2 41 41 157 160
1133 1 2 41 41 156 157
1134 1 2 41 41 155 159
1135 1 2 41 41 154 159
1136 1 2 41 41 158 159
1137 1 2 41 41 159 160
1138 1 2 41 41 156 159
1139 1 2 41 41 154 155
1140 1 2 41 41 155 158
1141 1 2 41 41 155 160
1142 1 2 41 41 155 156
1143 1 2 41 41 154 158
1144 1 2 41 41 154 160
1145 1 2 41 41 154 156
1146 1 2 41 41 158 160
1147 1 2 41 41 156 158
1148 1 2 41 41 156 160
1149 1 2 42 42 154 158
1150 1 2 42 42 154 160
1151 1 2 42 42 154 156
1152 1 2 42 42 129 154
1153 1 2 42 42 131 154
1154 1 2 42 42 132 154
1155 1 2 42 42 130 154
1156 1 2 42 42 158 160
1157 1 2 42 42 156 158
1158 1 2 42 42 129 158
1159 1 2 42 42 131 158
1160 1 2 42 42 132 158
1161 1 2 42 42 130 158
1162 1 2 42 42 156 160
1163 1 2 42 42 129 160
1164 1 2 42 42 131 160
1165 1 2 42 42 132 160
1166 1 2 42 42 130 160
1167 1 2 42 42 129 156
1168 1 2 42 42 131 156
1169 1 2 42 42 132 156
1170 1 2 42 42 130 156
1171 1 2 42 42 129 131
1172 1 2 42 42 129 132
1173 1 2 42 42 129 130
1174 1 2 42 42 131 132
1175 1 2 42 42 130 131
1176 1 2 42 42 130 132
1177 1 2 43 43 68 70
1178 1 2 43 43 24 68
1179 1 2 43 43 25 68
1180 1 2 43 43 68 155
1181 1 2 43 43 68 159
1182 1 2 43 43 68 109
1183 1 2 43 43 68 111
1184 1 2 43 43 24 70
1185 1 2 43 43 25 70
1186 1 2 43 43 70 155
1187 1 2 43 43 70 159
1188 1 2 43 43 70 109
1189 1 2 43 43 70 111
1190 1 2 43 43 24 25
1191 1 2 43 43 24 155
1192 1 2 43 43 24 159
1193 1 2 43 43 24 109
1194 1 2 43 43 24 111
1195 1 2 43 43 25 155
1196 1 2 43 43 25 159
1197 1 2 43 43 25 109
1198 1 2 43 43 25 111
1199 1 2 43 43 155 159
1200 1 2 43 43 109 155
1201 1 2 43 43 111 155
1202 1 2 43 43 109 159
1203 1 2 43 43 111 159
1204 1 2 43 43 109 111
1205 1 2 44 44 155 159
1206 1 2 44 44 109 155
1207 1 2 44 44 111 155
1208 1 2 44 44 155 156
1209 1 2 44 44 155 160
1210 1 2 44 44 110 155
1211 1 2 44 44 112 155
1212 1 2 44 44 109 159
1213 1 2 44 44 111 159
1214 1 2 44 44 156 159
1215 1 2 44 44 159 160
1216 1 2 44 44 110 159
1217 1 2 44 44 112 159
1218 1 2 44 44 109 111
1219 1 2 44 44 109 156
1220 1 2 44 44 109 160
1221 1 2 44 44 109 110
1222 1 2 44 44 109 112
1223 1 2 44 44 111 156
1224 1 2 44 44 111 160
1225 1 2 44 44 110 111
1226 1 2 44 44 111 112
1227 1 2 44 44 156 160
1228 1 2 44 44 110 156
1229 1 2 44 44 112 156
1230 1 2 44 44 110 160
1231 1 2 44 44 112 160
1232 1 2 44 44 110 112
1233 1 2 45 45 156 160
1234 1 2 45 45 110 156
1235 1 2 45 45 112 156
1236 1 2 45 45 130 156
1237 1 2 45 45 132 156
1238 1 2 45 45 46 156
1239 1 2 45 45 47 156
1240 1 2 45 45 110 160
1241 1 2 45 45 112 160
1242 1 2 45 45 130 160
1243 1 2 45 45 132 160
1244 1 2 45 45 46 160
1245 1 2 45 45 47 160
1246 1 2 45 45 110 112
1247 1 2 45 45 110 130
1248 1 2 45 45 110 132
1249 1 2 45 45 46 110
1250 1 2 45 45 47 110
1251 1 2 45 45 112 130
1252 1 2 45 45 112 132
1253 1 2 45 45 46 112
1254 1 2 45 45 47 112
1255 1 2 45 45 130 132
1256 1 2 45 45 46 130
1257 1 2 45 45 47 130
1258 1 2 45 45 46 132
1259 1 2 45 45 47 132
1260 1 2 45 45 46 47
1261 1 2 46 46 13 14
1262 1 2 46 46 13 71
1263 1 2 46 46 13 69
1264 1 2 46 46 13 87
1265 1 2 46 46 13 89
1266 1 2 46 46 13 161
1267 1 2 46 46 13 157
1268 1 2 46 46 14 71
1269 1 2 46 46 14 69
1270 1 2 46 46 14 87
1271 1 2 46 46 14 89
1272 1 2 46 46 14 161
1273 1 2 46 46 14 157
1274 1 2 46 46 69 71
1275 1 2 46 46 71 87
1276 1 2 46 46 71 89
1277 1 2 46 46 71 161
1278 1 2 46 46 71 157
1279 1 2 46 46 69 87
1280 1 2 46 46 69 89
1281 1 2 46 46 69 161
1282 1 2 46 46 69 157
1283 1 2 46 46 87 89
1284 1 2 46 46 87 161
1285 1 2 46 46 87 157
1286 1 2 46 46 89 161
1287 1 2 46 46 89 157
1288 1 2 46 46 157 161
1289 1 2 47 47 87 89
1290 1 2 47 47 87 161
1291 1 2 47 47 87 157
1292 1 2 47 47 87 88
1293 1 2 47 47 87 90
1294 1 2 47 47 87 162
1295 1 2 47 47 87 158
1296 1 2 47 47 89 161
1297 1 2 47 47 89 157
1298 1 2 47 47 88 89
1299 1 2 47 47 89 90
1300 1 2 47 47 89 162
1301 1 2 47 47 89 158
1302 1 2 47 47 157 161
1303 1 2 47 47 88 161
1304 1 2 47 47 90 161
1305 1 2 47 47 161 162
1306 1 2 47 47 158 161
1307 1 2 47 47 88 157
1308 1 2 47 47 90 157
1309 1 2 47 47 157 162
1310 1 2 47 47 157 158
1311 1 2 47 47 88 90
1312 1 2 47 47 88 162
1313 1 2 47 47 88 158
1314 1 2 47 47 90 162
1315 1 2 47 47 90 158
1316 1 2 47 47 158 162
1317 1 2 48 48 88 90
1318 1 2 48 48 88 162
1319 1 2 48 48 88 158
1320 1 2 48 48 35 88
1321 1 2 48 48 36 88
1322 1 2 48 48 88 133
1323 1 2 48 48 88 131
1324 1 2 48 48 90 162
1325 1 2 48 48 90 158
1326 1 2 48 48 35 90
1327 1 2 48 48 36 90
1328 1 2 48 48 90 133
1329 1 2 48 48 90 131
1330 1 2 48 48 158 162
1331 1 2 48 48 35 162
1332 1 2 48 48 36 162
1333 1 2 48 48 133 162
1334 1 2 48 48 131 162
1335 1 2 48 48 35 158
1336 1 2 48 48 36 158
1337 1 2 48 48 133 158
1338 1 2 48 48 131 158
1339 1 2 48 48 35 36
1340 1 2 48 48 35 133
1341 1 2 48 48 35 131
1342 1 2 48 48 36 133
1343 1 2 48 48 36 131
1344 1 2 48 48 131 133
1345 1 2 49 49 69 71
1346 1 2 49 49 69 72
1347 1 2 49 49 69 70
1348 1 2 49 49 69 157
1349 1 2 49 49 69 161
1350 1 2 49 49 69 163
1351 1 2 49 49 69 159
1352 1 2 49 49 71 72
1353 1 2 49 49 70 71
1354 1 2 49 49 71 157
1355 1 2 49 49 71 161
1356 1 2 49 49 71 163
1357 1 2 49 49 71 159
1358 1 2 49 49 70 72
1359 1 2 49 49 72 157
1360 1 2 49 49 72 161
1361 1 2 49 49 72 163
1362 1 2 49 49 72 159
1363 1 2 49 49 70 157
1364 1 2 49 49 70 161
1365 1 2 49 49 70 163
1366 1 2 49 49 70 159
1367 1 2 49 49 157 161
1368 1 2 49 49 157 163
1369 1 2 49 49 157 159
1370 1 2 49 49 161 163
1371 1 2 49 49 159 161
1372 1 2 49 49 159 163
1373 1 2 50 50 157 161
1374 1 2 50 50 157 163
1375 1 2 50 50 157 159
1376 1 2 50 50 157 158
1377 1 2 50 50 157 162
1378 1 2 50 50 157 164
1379 1 2 50 50 157 160
1380 1 2 50 50 161 163
1381 1 2 50 50 159 161
1382 1 2 50 50 158 161
1383 1 2 50 50 161 162
1384 1 2 50 50 161 164
1385 1 2 50 50 160 161
1386 1 2 50 50 159 163
1387 1 2 50 50 158 163
1388 1 2 50 50 162 163
1389 1 2 50 50 163 164
1390 1 2 50 50 160 163
1391 1 2 50 50 158 159
1392 1 2 50 50 159 162
1393 1 2 50 50 159 164
1394 1 2 50 50 159 160
1395 1 2 50 50 158 162
1396 1 2 50 50 158 164
1397 1 2 50 50 158 160
1398 1 2 50 50 162 164
1399 1 2 50 50 160 162
1400 1 2 50 50 160 164
1401 1 2 51 51 158 162
1402 1 2 51 51 158 164
1403 1 2 51 51 158 160
1404 1 2 51 51 131 158
1405 1 2 51 51 133 158
1406 1 2 51 51 134 158
1407 1 2 51 51 132 158
1408 1 2 51 51 162 164
1409 1 2 51 51 160 162
1410 1 2 51 51 131 162
1411 1 2 51 51 133 162
1412 1 2 51 51 134 162
1413 1 2 51 51 132 162
1414 1 2 51 51 160 164
1415 1 2 51 51 131 164
1416 1 2 51 51 133 164
1417 1 2 51 51 134 164
1418 1 2 51 51 132 164
1419 1 2 51 51 131 160
1420 1 2 51 51 133 160
1421 1 2 51 51 134 160
1422 1 2 51 51 132 160
1423 1 2 51 51 131 133
1424 1 2 51 51 131 134
1425 1 2 51 51 131 132
1426 1 2 51 51 133 134
1427 1 2 51 51 132 133
1428 1 2 51 51 132 134
1429 1 2 52 52 70 72
1430 1 2 52 52 23 70
1431 1 2 52 52 24 70
1432 1 2 52 52 70 159
1433 1 2 52 52 70 163
1434 1 2 52 52 70 107
1435 1 2 52 52 70 109
1436 1 2 52 52 23 72
1437 1 2 52 52 24 72
1438 1 2 52 52 72 159
1439 1 2 52 52 72 163
1440 1 2 52 52 72 107
1441 1 2 52 52 72 109
1442 1 2 52 52 23 24
1443 1 2 52 52 23 159
1444 1 2 52 52 23 163
1445 1 2 52 52 23 107
1446 1 2 52 52 23 109
1447 1 2 52 52 24 159
1448 1 2 52 52 24 163
1449 1 2 52 52 24 107
1450 1 2 52 52 24 109
1451 1 2 52 52 159 163
1452 1 2 52 52 107 159
1453 1 2 52 52 109 159
1454 1 2 52 52 107 163
1455 1 2 52 52 109 163
1456 1 2 52 52 107 109
1457 1 2 53 53 159 163
1458 1 2 53 53 107 159
1459 1 2 53 53 109 159
1460 1 2 53 53 159 160
1461 1 2 53 53 159 164
1462 1 2 53 53 108 159
1463 1 2 53 53 110 159
1464 1 2 53 53 107 163
1465 1 2 53 53 109 163
1466 1 2 53 53 160 163
1467 1 2 53 53 163 164
1468 1 2 53 53 108 163
1469 1 2 53 53 110 163
1470 1 2 53 53 107 109
1471 1 2 53 53 107 160
1472 1 2 53 53 107 164
1473 1 2 53 53 107 108
1474 1 2 53 53 107 110
1475 1 2 53 53 109 160
1476 1 2 53 53 109 164
1477 1 2 53 53 108 109
1478 1 2 53 53 109 110
1479 1 2 53 53 160 164
1480 1 2 53 53 108 160
1481 1 2 53 53 110 160
1482 1 2 53 53 108 164
1483 1 2 53 53 110 164
1484 1 2 53 53 108 110
1485 1 2 54 54 160 164
1486 1 2 54 54 108 160
1487 1 2 54 54 110 160
1488 1 2 54 54 132 160
1489 1 2 54 54 134 160
1490 1 2 54 54 45 160
1491 1 2 54 54 46 160
1492 1 2 54 54 108 164
1493 1 2 54 54 110 164
1494 1 2 54 54 132 164
1495 1 2 54 54 134 164
1496 1 2 54 54 45 164
1497 1 2 54 54 46 164
1498 1 2 54 54 108 110
1499 1 2 54 54 108 132
1500 1 2 54 54 108 134
1501 1 2 54 54 45 108
1502 1 2 54 54 46 108
1503 1 2 54 54 110 132
1504 1 2 54 54 110 134
1505 1 2 54 54 45 110
1506 1 2 54 54 46 110
1507 1 2 54 54 132 134
1508 1 2 54 54 45 132
1509 1 2 54 54 46 132
1510 1 2 54 54 45 134
1511 1 2 54 54 46 134
1512 1 2 54 54 45 46
1513 1 2 55 55 14 15
1514 1 2 55 55 14 73
1515 1 2 55 55 14 71
1516 1 2 55 55 14 89
1517 1 2 55 55 14 91
1518 1 2 55 55 14 165
1519 1 2 55 55 14 161
1520 1 2 55 55 15 73
1521 1 2 55 55 15 71
1522 1 2 55 55 15 89
1523 1 2 55 55 15 91
1524 1 2 55 55 15 165
1525 1 2 55 55 15 161
1526 1 2 55 55 71 73
1527 1 2 55 55 73 89
1528 1 2 55 55 73 91
1529 1 2 55 55 73 165
1530 1 2 55 55 73 161
1531 1 2 55 55 71 89
1532 1 2 55 55 71 91
1533 1 2 55 55 71 165
1534 1 2 55 55 71 161
1535 1 2 55 55 89 91
1536 1 2 55 55 89 165
1537 1 2 55 55 89 161
1538 1 2 55 55 91 165
1539 1 2 55 55 91 161
1540 1 2 55 55 161 165
1541 1 2 56 56 89 91
1542 1 2 56 56 89 165
1543 1 2 56 56 89 161
1544 1 2 56 56 89 90
1545 1 2 56 56 89 92
1546 1 2 56 56 89 166
1547 1 2 56 56 89 162
1548 1 2 56 56 91 165
1549 1 2 56 56 91 161
1550 1 2 56 56 90 91
1551 1 2 56 56 91 92
1552 1 2 56 56 91 166
1553 1 2 56 56 91 162
1554 1 2 56 56 161 165
1555 1 2 56 56 90 165
1556 1 2 56 56 92 165
1557 1 2 56 56 165 166
1558 1 2 56 56 162 165
1559 1 2 56 56 90 161
1560 1 2 56 56 92 161
1561 1 2 56 56 161 166
1562 1 2 56 56 161 162
1563 1 2 56 56 90 92
1564 1 2 56 56 90 166
1565 1 2 56 56 90 162
1566 1 2 56 56 92 166
1567 1 2 56 56 92 162
1568 1 2 56 56 162 166
1569 1 2 57 57 90 92
1570 1 2 57 57 90 166
1571 1 2 57 57 90 162
1572 1 2 57 57 36 90
1573 1 2 57 57 37 90
1574 1 2 57 57 90 135
1575 1 2 57 57 90 133
1576 1 2 57 57 92 166
1577 1 2 57 57 92 162
1578 1 2 57 57 36 92
1579 1 2 57 57 37 92
1580 1 2 57 57 92 135
1581 1 2 57 57 92 133
1582 1 2 57 57 162 166
1583 1 2 57 57 36 166
1584 1 2 57 57 37 166
1585 1 2 57 57 135 166
1586 1 2 57 57 133 166
1587 1 2 57 57 36 162
1588 1 2 57 57 37 162
1589 1 2 57 57 135 162
1590 1 2 57 57 133 162
1591 1 2 57 57 36 37
1592 1 2 57 57 36 135
1593 1 2 57 57 36 133
1594 1 2 57 57 37 135
1595 1 2 57 57 37 133
1596 1 2 57 57 133 135
1597 1 2 58 58 71 73
1598 1 2 58 58 71 74
1599 1 2 58 58 71 72
1600 1 2 58 58 71 161
1601 1 2 58 58 71 165
1602 1 2 58 58 71 167
1603 1 2 58 58 71 163
1604 1 2 58 58 73 74
1605 1 2 58 58 72 73
1606 1 2 58 58 73 161
1607 1 2 58 58 73 165
1608 1 2 58 58 73 167
1609 1 2 58 58 73 163
1610 1 2 58 58 72 74
1611 1 2 58 58 74 161
1612 1 2 58 58 74 165
1613 1 2 58 58 74 167
1614 1 2 58 58 74 163
1615 1 2 58 58 72 161
1616 1 2 58 58 72 165
1617 1 2 58 58 72 167
1618 1 2 58 58 72 163
1619 1 2 58 58 161 165
1620 1 2 58 58 161 167
1621 1 2 58 58 161 163
1622 1 2 58 58 165 167
1623 1 2 58 58 163 165
1624 1 2 58 58 163 167
1625 1 2 59 59 161 165
1626 1 2 59 59 161 167
1627 1 2 59 59 161 163
1628 1 2 59 59 161 162
1629 1 2 59 59 161 166
1630 1 2 59 59 161 168
1631 1 2 59 59 161 164
1632 1 2 59 59 165 167
1633 1 2 59 59 163 165
1634 1 2 59 59 162 165
1635 1 2 59 59 165 166
1636 1 2 59 59 165 168
1637 1 2 59 59 164 165
1638 1 2 59 59 163 167
1639 1 2 59 59 162 167
1640 1 2 59 59 166 167
1641 1 2 59 59 167 168
1642 1 2 59 59 164 167
1643 1 2 59 59 162 163
1644 1 2 59 59 163 166
1645 1 2 59 59 163 168
1646 1 2 59 59 163 164
1647 1 2 59 59 162 166
1648 1 2 59 59 162 168
1649 1 2 59 59 162 164
1650 1 2 59 59 166 168
1651 1 2 59 59 164 166
1652 1 2 59 59 164 168
1653 1 2 60 60 162 166
1654 1 2 60 60 162 168
1655 1 2 60 60 162 164
1656 1 2 60 60 133 162
1657 1 2 60 60 135 162
1658 1 2 60 60 136 162
1659 1 2 60 60 134 162
1660 1 2 60 60 166 168
1661 1 2 60 60 164 166
1662 1 2 60 60 133 166
1663 1 2 60 60 135 166
1664 1 2 60 60 136 166
1665 1 2 60 60 134 166
1666 1 2 60 60 164 168
1667 1 2 60 60 133 168
1668 1 2 60 60 135 168
1669 1 2 60 60 136 168
1670 1 2 60 60 134 168
1671 1 2 60 60 133 164
1672 1 2 60 60 135 164
1673 1 2 60 60 136 164
1674 1 2 60 60 134 164
1675 1 2 60 60 133 135
1676 1 2 60 60 133 136
1677 1 2 60 60 133 134
1678 1 2 60 60 135 136
1679 1 2 60 60 134 135
1680 1 2 60 60 134 136
1681 1 2 61 61 72 74
1682 1 2 61 61 22 72
1683 1 2 61 61 23 72
1684 1 2 61 61 72 163
1685 1 2 61 61 72 167
1686 1 2 61 61 72 105
1687 1 2 61 61 72 107
1688 1 2 61 61 22 74
1689 1 2 61 61 23 74
1690 1 2 61 61 74 163
1691 1 2 61 61 74 167
1692 1 2 61 61 74 105
1693 1 2 61 61 74 107
1694 1 2 61 61 22 23
1695 1 2 61 61 22 163
1696 1 2 61 61 22 167
1697 1 2 61 61 22 105
1698 1 2 61 61 22 107
1699 1 2 61 61 23 163
1700 1 2 61 61 23 167
1701 1 2 61 61 23 105
1702 1 2 61 61 23 107
1703 1 2 61 61 163 167
1704 1 2 61 61 105 163
1705 1 2 61 61 107 163
1706 1 2 61 61 105 167
1707 1 2 61 61 107 167
1708 1 2 61 61 105 107
1709 1 2 62 62 163 167
1710 1 2 62 62 105 163
1711 1 2 62 62 107 163
1712 1 2 62 62 163 164
1713 1 2 62 62 163 168
1714 1 2 62 62 106 163
1715 1 2 62 62 108 163
1716 1 2 62 62 105 167
1717 1 2 62 62 107 167
1718 1 2 62 62 164 167
1719 1 2 62 62 167 168
1720 1 2 62 62 106 167
1721 1 2 62 62 108 167
1722 1 2 62 62 105 107
1723 1 2 62 62 105 164
1724 1 2 62 62 105 168
1725 1 2 62 62 105 106
1726 1 2 62 62 105 108
1727 1 2 62 62 107 164
1728 1 2 62 62 107 168
1729 1 2 62 62 106 107
1730 1 2 62 62 107 108
1731 1 2 62 62 164 168
1732 1 2 62 62 106 164
1733 1 2 62 62 108 164
1734 1 2 62 62 106 168
1735 1 2 62 62 108 168
1736 1 2 62 62 106 108
1737 1 2 63 63 164 168
1738 1 2 63 63 106 164
1739 1 2 63 63 108 164
1740 1 2 63 63 134 164
1741 1 2 63 63 136 164
1742 1 2 63 63 44 164
1743 1 2 63 63 45 164
1744 1 2 63 63 106 168
1745 1 2 63 63 108 168
1746 1 2 63 63 134 168
1747 1 2 63 63 136 168
1748 1 2 63 63 44 168
1749 1 2 63 63 45 168
1750 1 2 63 63 106 108
1751 1 2 63 63 106 134
1752 1 2 63 63 106 136
1753 1 2 63 63 44 106
1754 1 2 63 63 45 106
1755 1 2 63 63 108 134
1756 1 2 63 63 108 136
1757 1 2 63 63 44 108
1758 1 2 63 63 45 108
1759 1 2 63 63 134 136
1760 1 2 63 63 44 134
1761 1 2 63 63 45 134
1762 1 2 63 63 44 136
1763 1 2 63 63 45 136
1764 1 2 63 63 44 45
1765 1 2 64 64 15 16
1766 1 2 64 64 15 75
1767 1 2 64 64 15 73
1768 1 2 64 64 15 91
1769 1 2 64 64 15 93
1770 1 2 64 64 15 169
1771 1 2 64 64 15 165
1772 1 2 64 64 16 75
1773 1 2 64 64 16 73
1774 1 2 64 64 16 91
1775 1 2 64 64 16 93
1776 1 2 64 64 16 169
1777 1 2 64 64 16 165
1778 1 2 64 64 73 75
1779 1 2 64 64 75 91
1780 1 2 64 64 75 93
1781 1 2 64 64 75 169
1782 1 2 64 64 75 165
1783 1 2 64 64 73 91
1784 1 2 64 64 73 93
1785 1 2 64 64 73 169
1786 1 2 64 64 73 165
1787 1 2 64 64 91 93
1788 1 2 64 64 91 169
1789 1 2 64 64 91 165
1790 1 2 64 64 93 169
1791 1 2 64 64 93 165
1792 1 2 64 64 165 169
1793 1 2 65 65 91 93
1794 1 2 65 65 91 169
1795 1 2 65 65 91 165
1796 1 2 65 65 91 92
1797 1 2 65 65 91 94
1798 1 2 65 65 91 170
1799 1 2 65 65 91 166
1800 1 2 65 65 93 169
1801 1 2 65 65 93 165
1802 1 2 65 65 92 93
1803 1 2 65 65 93 94
1804 1 2 65 65 93 170
1805 1 2 65 65 93 166
1806 1 2 65 65 165 169
1807 1 2 65 65 92 169
1808 1 2 65 65 94 169
1809 1 2 65 65 169 170
1810 1 2 65 65 166 169
1811 1 2 65 65 92 165
1812 1 2 65 65 94 165
1813 1 2 65 65 165 170
1814 1 2 65 65 165 166
1815 1 2 65 65 92 94
1816 1 2 65 65 92 170
1817 1 2 65 65 92 166
1818 1 2 65 65 94 170
1819 1 2 65 65 94 166
1820 1 2 65 65 166 170
1821 1 2 66 66 92 94
1822 1 2 66 66 92 170
1823 1 2 66 66 92 166
1824 1 2 66 66 37 92
1825 1 2 66 66 38 92
1826 1 2 66 66 92 137
1827 1 2 66 66 92 135
1828 1 2 66 66 94 170
1829 1 2 66 66 94 166
1830 1 2 66 66 37 94
1831 1 2 66 66 38 94
1832 1 2 66 66 94 137
1833 1 2 66 66 94 135
1834 1 2 66 66 166 170
1835 1 2 66 66 37 170
1836 1 2 66 66 38 170
1837 1 2 66 66 137 170
1838 1 2 66 66 135 170
1839 1 2 66 66 37 166
1840 1 2 66 66 38 166
1841 1 2 66 66 137 166
1842 1 2 66 66 135 166
1843 1 2 66 66 37 38
1844 1 2 66 66 37 137
1845 1 2 66 66 37 135
1846 1 2 66 66 38 137
1847 1 2 66 66 38 135
1848 1 2 66 66 135 137
1849 1 2 67 67 73 75
1850 1 2 67 67 73 76
1851 1 2 67 67 73 74
1852 1 2 67 67 73 165
1853 1 2 67 67 73 169
1854 1 2 67 67 73 171
1855 1 2 67 67 73 167
1856 1 2 67 67 75 76
1857 1 2 67 67 74 75
1858 1 2 67 67 75 165
1859 1 2 67 67 75 169
1860 1 2 67 67 75 171
1861 1 2 67 67 75 167
1862 1 2 67 67 74 76
1863 1 2 67 67 76 165
1864 1 2 67 67 76 169
1865 1 2 67 67 76 171
1866 1 2 67 67 76 167
1867 1 2 67 67 74 165
1868 1 2 67 67 74 169
1869 1 2 67 67 74 171
1870 1 2 67 67 74 167
1871 1 2 67 67 165 169
1872 1 2 67 67 165 171
1873 1 2 67 67 165 167
1874 1 2 67 67 169 171
1875 1 2 67 67 167 169
1876 1 2 67 67 167 171
1877 1 2 68 68 165 169
1878 1 2 68 68 165 171
1879 1 2 68 68 165 167
1880 1 2 68 68 165 166
1881 1 2 68 68 165 170
1882 1 2 68 68 165 172
1883 1 2 68 68 165 168
1884 1 2 68 68 169 171
1885 1 2 68 68 167 169
1886 1 2 68 68 166 169
1887 1 2 68 68 169 170
1888 1 2 68 68 169 172
1889 1 2 68 68 168 169
1890 1 2 68 68 167 171
1891 1 2 68 68 166 171
1892 1 2 68 68 170 171
1893 1 2 68 68 171 172
1894 1 2 68 68 168 171
1895 1 2 68 68 166 167
1896 1 2 68 68 167 170
1897 1 2 68 68 167 172
1898 1 2 68 68 167 168
1899 1 2 68 68 166 170
1900 1 2 68 68 166 172
1901 1 2 68 68 166 168
1902 1 2 68 68 170 172
1903 1 2 68 68 168 170
1904 1 2 68 68 168 172
1905 1 2 69 69 166 170
1906 1 2 69 69 166 172
1907 1 2 69 69 166 168
1908 1 2 69 69 135 166
1909 1 2 69 69 137 166
1910 1 2 69 69 138 166
1911 1 2 69 69 136 166
1912 1 2 69 69 170 172
1913 1 2 69 69 168 170
1914 1 2 69 69 135 170
1915 1 2 69 69 137 170
1916 1 2 69 69 138 170
1917 1 2 69 69 136 170
1918 1 2 69 69 168 172
1919 1 2 69 69 135 172
1920 1 2 69 69 137 172
1921 1 2 69 69 138 172
1922 1 2 69 69 136 172
1923 1 2 69 69 135 168
1924 1 2 69 69 137 168
1925 1 2 69 69 138 168
1926 1 2 69 69 136 168
1927 1 2 69 69 135 137
1928 1 2 69 69 135 138
1929 1 2 69 69 135 136
1930 1 2 69 69 137 138
1931 1 2 69 69 136 137
1932 1 2 69 69 136 138
1933 1 2 70 70 74 76
1934 1 2 70 70 21 74
1935 1 2 70 70 22 74
1936 1 2 70 70 74 167
1937 1 2 70 70 74 171
1938 1 2 70 70 74 103
1939 1 2 70 70 74 105
1940 1 2 70 70 21 76
1941 1 2 70 70 22 76
1942 1 2 70 70 76 167
1943 1 2 70 70 76 171
1944 1 2 70 70 76 103
1945 1 2 70 70 76 105
1946 1 2 70 70 21 22
1947 1 2 70 70 21 167
1948 1 2 70 70 21 171
1949 1 2 70 70 21 103
1950 1 2 70 70 21 105
1951 1 2 70 70 22 167
1952 1 2 70 70 22 171
1953 1 2 70 70 22 103
1954 1 2 70 70 22 105
1955 1 2 70 70 167 171
1956 1 2 70 70 103 167
1957 1 2 70 70 105 167
1958 1 2 70 70 103 171
1959 1 2 70 70 105 171
1960 1 2 70 70 103 105
1961 1 2 71 71 167 171
1962 1 2 71 71 103 167
1963 1 2 71 71 105 167
1964 1 2 71 71 167 168
1965 1 2 71 71 167 172
1966 1 2 71 71 104 167
1967 1 2 71 71 106 167
1968 1 2 71 71 103 171
1969 1 2 71 71 105 171
1970 1 2 71 71 168 171
1971 1 2 71 71 171 172
1972 1 2 71 71 104 171
1973 1 2 71 71 106 171
1974 1 2 71 71 103 105
1975 1 2 71 71 103 168
1976 1 2 71 71 103 172
1977 1 2 71 71 103 104
1978 1 2 71 71 103 106
1979 1 2 71 71 105 168
1980 1 2 71 71 105 172
1981 1 2 71 71 104 105
1982 1 2 71 71 105 106
1983 1 2 71 71 168 172
1984 1 2 71 71 104 168
1985 1 2 71 71 106 168
1986 1 2 71 71 104 172
1987 1 2 71 71 106 172
1988 1 2 71 71 104 106
1989 1 2 72 72 168 172
1990 1 2 72 72 104 168
1991 1 2 72 72 106 168
1992 1 2 72 72 136 168
1993 1 2 72 72 138 168
1994 1 2 72 72 43 168
1995 1 2 72 72 44 168
1996 1 2 72 72 104 172
1997 1 2 72 72 106 172
1998 1 2 72 72 136 172
1999 1 2 72 72 138 172
2000 1 2 72 72 43 172
2001 1 2 72 72 44 172
2002 1 2 72 72 104 106
2003 1 2 72 72 104 136
2004 1 2 72 72 104 138
2005 1 2 72 72 43 104
2006 1 2 72 72 44 104
2007 1 2 72 72 106 136
2008 1 2 72 72 106 138
2009 1 2 72 72 43 106
2010 1 2 72 72 44 106
2011 1 2 72 72 136 138
2012 1 2 72 72 43 136
2013 1 2 72 72 44 136
2014 1 2 72 72 43 138
2015 1 2 72 72 44 138
2016 1 2 72 72 43 44
2017 1 2 73 73 16 17
2018 1 2 73 73 16 77
2019 1 2 73 73 16 75
2020 1 2 73 73 16 93
2021 1 2 73 73 16 95
2022 1 2 73 73 16 173
2023 1 2 73 73 16 169
2024 1 2 73 73 17 77
2025 1 2 73 73 17 75
2026 1 2 73 73 17 93
2027 1 2 73 73 17 95
2028 1 2 73 73 17 173
2029 1 2 73 73 17 169
2030 1 2 73 73 75 77
2031 1 2 73 73 77 93
2032 1 2 73 73 77 95
2033 1 2 73 73 77 173
2034 1 2 73 73 77 169
2035 1 2 73 73 75 93
2036 1 2 73 73 75 95
2037 1 2 73 73 75 173
2038 1 2 73 73 75 169
2039 1 2 73 73 93 95
2040 1 2 73 73 93 173
2041 1 2 73 73 93 169
2042 1 2 73 73 95 173
2043 1 2 73 73 95 169
2044 1 2 73 73 169 173
2045 1 2 74 74 93 95
2046 1 2 74 74 93 173
2047 1 2 74 74 93 169
2048 1 2 74 74 93 94
2049 1 2 74 74 93 96
2050 1 2 74 74 93 174
2051 1 2 74 74 93 170
2052 1 2 74 74 95 173
2053 1 2 74 74 95 169
2054 1 2 74 74 94 95
2055 1 2 74 74 95 96
2056 1 2 74 74 95 174
2057 1 2 74 74 95 170
2058 1 2 74 74 169 173
2059 1 2 74 74 94 173
2060 1 2 74 74 96 173
2061 1 2 74 74 173 174
2062 1 2 74 74 170 173
2063 1 2 74 74 94 169
2064 1 2 74 74 96 169
2065 1 2 74 74 169 174
2066 1 2 74 74 169 170
2067 1 2 74 74 94 96
2068 1 2 74 74 94 174
2069 1 2 74 74 94 170
2070 1 2 74 74 96 174
2071 1 2 74 74 96 170
2072 1 2 74 74 170 174
2073 1 2 75 75 94 96
2074 1 2 75 75 94 174
2075 1 2 75 75 94 170
2076 1 2 75 75 38 94
2077 1 2 75 75 39 94
2078 1 2 75 75 94 139
2079 1 2 75 75 94 137
2080 1 2 75 75 96 174
2081 1 2 75 75 96 170
2082 1 2 75 75 38 96
2083 1 2 75 75 39 96
2084 1 2 75 75 96 139
2085 1 2 75 75 96 137
2086 1 2 75 75 170 174
2087 1 2 75 75 38 174
2088 1 2 75 75 39 174
2089 1 2 75 75 139 174
2090 1 2 75 75 137 174
2091 1 2 75 75 38 170
2092 1 2 75 75 39 170
2093 1 2 75 75 139 170
2094 1 2 75 75 137 170
2095 1 2 75 75 38 39
2096 1 2 75 75 38 139
2097 1 2 75 75 38 137
2098 1 2 75 75 39 139
2099 1 2 75 75 39 137
2100 1 2 75 75 137 139
2101 1 2 76 76 75 77
2102 1 2 76 76 75 78
2103 1 2 76 76 75 76
2104 1 2 76 76 75 169
2105 1 2 76 76 75 173
2106 1 2 76 76 75 175
2107 1 2 76 76 75 171
2108 1 2 76 76 77 78
2109 1 2 76 76 76 77
2110 1 2 76 76 77 169
2111 1 2 76 76 77 173
2112 1 2 76 76 77 175
2113 1 2 76 76 77 171
2114 1 2 76 76 76 78
2115 1 2 76 76 78 169
2116 1 2 76 76 78 173
2117 1 2 76 76 78 175
2118 1 2 76 76 78 171
2119 1 2 76 76 76 169
2120 1 2 76 76 76 173
2121 1 2 76 76 76 175
2122 1 2 76 76 76 171
2123 1 2 76 76 169 173
2124 1 2 76 76 169 175
2125 1 2 76 76 169 171
2126 1 2 76 76 173 175
2127 1 2 76 76 171 173
2128 1 2 76 76 171 175
2129 1 2 77 77 169 173
2130 1 2 77 77 169 175
2131 1 2 77 77 169 171
2132 1 2 77 77 169 170
2133 1 2 77 77 169 174
2134 1 2 77 77 169 176
2135 1 2 77 77 169 172
2136 1 2 77 77 173 175
2137 1 2 77 77 171 173
2138 1 2 77 77 170 173
2139 1 2 77 77 173 174
2140 1 2 77 77 173 176
2141 1 2 77 77 172 173
2142 1 2 77 77 171 175
2143 1 2 77 77 170 175
2144 1 2 77 77 174 175
2145 1 2 77 77 175 176
2146 1 2 77 77 172 175
2147 1 2 77 77 170 171
2148 1 2 77 77 171 174
2149 1 2 77 77 171 176
2150 1 2 77 77 171 172
2151 1 2 77 77 170 174
2152 1 2 77 77 170 176
2153 1 2 77 77 170 172
2154 1 2 77 77 174 176
2155 1 2 77 77 172 174
2156 1 2 77 77 172 176
2157 1 2 78 78 170 174
2158 1 2 78 78 170 176
2159 1 2 78 78 170 172
2160 1 2 78 78 137 170
2161 1 2 78 78 139 170
2162 1 2 78 78 140 170
2163 1 2 78 78 138 170
2164 1 2 78 78 174 176
2165 1 2 78 78 172 174
2166 1 2 78 78 137 174
2167 1 2 78 78 139 174
2168 1 2 78 78 140 174
2169 1 2 78 78 138 174
2170 1 2 78 78 172 176
2171 1 2 78 78 137 176
2172 1 2 78 78 139 176
2173 1 2 78 78 140 176
2174 1 2 78 78 138 176
2175 1 2 78 78 137 172
2176 1 2 78 78 139 172
2177 1 2 78 78 140 172
2178 1 2 78 78 138 172
2179 1 2 78 78 137 139
2180 1 2 78 78 137 140
2181 1 2 78 78 137 138
2182 1 2 78 78 139 140
2183 1 2 78 78 138 139
2184 1 2 78 78 138 140
2185 1 2 79 79 76 78
2186 1 2 79 79 20 76
2187 1 2 79 79 21 76
2188 1 2 79 79 76 171
2189 1 2 79 79 76 175
2190 1 2 79 79 76 101
2191 1 2 79 79 76 103
2192 1 2 79 79 20 78
2193 1 2 79 79 21 78
2194 1 2 79 79 78 171
2195 1 2 79 79 78 175
2196 1 2 79 79 78 101
2197 1 2 79 79 78 103
2198 1 2 79 79 20 21
2199 1 2 79 79 20 171
2200 1 2 79 79 20 175
2201 1 2 79 79 20 101
2202 1 2 79 79 20 103
2203 1 2 79 79 21 171
2204 1 2 79 79 21 175
2205 1 2 79 79 21 101
2206 1 2 79 79 21 103
2207 1 2 79 79 171 175
2208 1 2 79 79 101 171
2209 1 2 79 79 103 171
2210 1 2 79 79 101 175
2211 1 2 79 79 103 175
2212 1 2 79 79 101 103
2213 1 2 80 80 171 175
2214 1 2 80 80 101 171
2215 1 2 80 80 103 171
2216 1 2 80 80 171 172
2217 1 2 80 80 171 176
2218 1 2 80 80 102 171
2219 1 2 80 80 104 171
2220 1 2 80 80 101 175
2221 1 2 80 80 103 175
2222 1 2 80 80 172 175
2223 1 2 80 80 175 176
2224 1 2 80 80 102 175
2225 1 2 80 80 104 175
2226 1 2 80 80 101 103
2227 1 2 80 80 101 172
2228 1 2 80 80 101 176
2229 1 2 80 80 101 102
2230 1 2 80 80 101 104
2231 1 2 80 80 103 172
2232 1 2 80 80 103 176
2233 1 2 80 80 102 103
2234 1 2 80 80 103 104
2235 1 2 80 80 172 176
2236 1 2 80 80 102 172
2237 1 2 80 80 104 172
2238 1 2 80 80 102 176
2239 1 2 80 80 104 176
2240 1 2 80 80 102 104
2241 1 2 81 81 172 176
2242 1 2 81 81 102 172
2243 1 2 81 81 104 172
2244 1 2 81 81 138 172
2245 1 2 81 81 140 172
2246 1 2 81 81 42 172
2247 1 2 81 81 43 172
2248 1 2 81 81 102 176
2249 1 2 81 81 104 176
2250 1 2 81 81 138 176
2251 1 2 81 81 140 176
2252 1 2 81 81 42 176
2253 1 2 81 81 43 176
2254 1 2 81 81 102 104
2255 1 2 81 81 102 138
2256 1 2 81 81 102 140
2257 1 2 81 81 42 102
2258 1 2 81 81 43 102
2259 1 2 81 81 104 138
2260 1 2 81 81 104 140
2261 1 2 81 81 42 104
2262 1 2 81 81 43 104
2263 1 2 81 81 138 140
2264 1 2 81 81 42 138
2265 1 2 81 81 43 138
2266 1 2 81 81 42 140
2267 1 2 81 81 43 140
2268 1 2 81 81 42 43
2269 1 2 82 82 2 17
2270 1 2 82 82 17 18
2271 1 2 82 82 17 77
2272 1 2 82 82 17 95
2273 1 2 82 82 17 55
2274 1 2 82 82 17 97
2275 1 2 82 82 17 173
2276 1 2 82 82 2 18
2277 1 2 82 82 2 77
2278 1 2 82 82 2 95
2279 1 2 82 82 2 55
2280 1 2 82 82 2 97
2281 1 2 82 82 2 173
2282 1 2 82 82 18 77
2283 1 2 82 82 18 95
2284 1 2 82 82 18 55
2285 1 2 82 82 18 97
2286 1 2 82 82 18 173
2287 1 2 82 82 77 95
2288 1 2 82 82 55 77
2289 1 2 82 82 77 97
2290 1 2 82 82 77 173
2291 1 2 82 82 55 95
2292 1 2 82 82 95 97
2293 1 2 82 82 95 173
2294 1 2 82 82 55 97
2295 1 2 82 82 55 173
2296 1 2 82 82 97 173
2297 1 2 83 83 55 95
2298 1 2 83 83 95 97
2299 1 2 83 83 95 173
2300 1 2 83 83 95 96
2301 1 2 83 83 56 95
2302 1 2 83 83 95 98
2303 1 2 83 83 95 174
2304 1 2 83 83 55 97
2305 1 2 83 83 55 173
2306 1 2 83 83 55 96
2307 1 2 83 83 55 56
2308 1 2 83 83 55 98
2309 1 2 83 83 55 174
2310 1 2 83 83 97 173
2311 1 2 83 83 96 97
2312 1 2 83 83 56 97
2313 1 2 83 83 97 98
2314 1 2 83 83 97 174
2315 1 2 83 83 96 173
2316 1 2 83 83 56 173
2317 1 2 83 83 98 173
2318 1 2 83 83 173 174
2319 1 2 83 83 56 96
2320 1 2 83 83 96 98
2321 1 2 83 83 96 174
2322 1 2 83 83 56 98
2323 1 2 83 83 56 174
2324 1 2 83 83 98 174
2325 1 2 84 84 56 96
2326 1 2 84 84 96 98
2327 1 2 84 84 96 174
2328 1 2 84 84 39 96
2329 1 2 84 84 6 96
2330 1 2 84 84 40 96
2331 1 2 84 84 96 139
2332 1 2 84 84 56 98
2333 1 2 84 84 56 174
2334 1 2 84 84 39 56
2335 1 2 84 84 6 56
2336 1 2 84 84 40 56
2337 1 2 84 84 56 139
2338 1 2 84 84 98 174
2339 1 2 84 84 39 98
2340 1 2 84 84 6 98
2341 1 2 84 84 40 98
2342 1 2 84 84 98 139
2343 1 2 84 84 39 174
2344 1 2 84 84 6 174
2345 1 2 84 84 40 174
2346 1 2 84 84 139 174
2347 1 2 84 84 6 39
2348 1 2 84 84 39 40
2349 1 2 84 84 39 139
2350 1 2 84 84 6 40
2351 1 2 84 84 6 139
2352 1 2 84 84 40 139
2353 1 2 85 85 18 77
2354 1 2 85 85 19 77
2355 1 2 85 85 77 78
2356 1 2 85 85 77 173
2357 1 2 85 85 77 97
2358 1 2 85 85 77 99
2359 1 2 85 85 77 175
2360 1 2 85 85 18 19
2361 1 2 85 85 18 78
2362 1 2 85 85 18 173
2363 1 2 85 85 18 97
2364 1 2 85 85 18 99
2365 1 2 85 85 18 175
2366 1 2 85 85 19 78
2367 1 2 85 85 19 173
2368 1 2 85 85 19 97
2369 1 2 85 85 19 99
2370 1 2 85 85 19 175
2371 1 2 85 85 78 173
2372 1 2 85 85 78 97
2373 1 2 85 85 78 99
2374 1 2 85 85 78 175
2375 1 2 85 85 97 173
2376 1 2 85 85 99 173
2377 1 2 85 85 173 175
2378 1 2 85 85 97 99
2379 1 2 85 85 97 175
2380 1 2 85 85 99 175
2381 1 2 86 86 97 173
2382 1 2 86 86 99 173
2383 1 2 86 86 173 175
2384 1 2 86 86 173 174
2385 1 2 86 86 98 173
2386 1 2 86 86 100 173
2387 1 2 86 86 173 176
2388 1 2 86 86 97 99
2389 1 2 86 86 97 175
2390 1 2 86 86 97 174
2391 1 2 86 86 97 98
2392 1 2 86 86 97 100
2393 1 2 86 86 97 176
2394 1 2 86 86 99 175
2395 1 2 86 86 99 174
2396 1 2 86 86 98 99
2397 1 2 86 86 99 100
2398 1 2 86 86 99 176
2399 1 2 86 86 174 175
2400 1 2 86 86 98 175
2401 1 2 86 86 100 175
2402 1 2 86 86 175 176
2403 1 2 86 86 98 174
2404 1 2 86 86 100 174
2405 1 2 86 86 174 176
2406 1 2 86 86 98 100
2407 1 2 86 86 98 176
2408 1 2 86 86 100 176
2409 1 2 87 87 98 174
2410 1 2 87 87 100 174
2411 1 2 87 87 174 176
2412 1 2 87 87 139 174
2413 1 2 87 87 40 174
2414 1 2 87 87 41 174
2415 1 2 87 87 140 174
2416 1 2 87 87 98 100
2417 1 2 87 87 98 176
2418 1 2 87 87 98 139
2419 1 2 87 87 40 98
2420 1 2 87 87 41 98
2421 1 2 87 87 98 140
2422 1 2 87 87 100 176
2423 1 2 87 87 100 139
2424 1 2 87 87 40 100
2425 1 2 87 87 41 100
2426 1 2 87 87 100 140
2427 1 2 87 87 139 176
2428 1 2 87 87 40 176
2429 1 2 87 87 41 176
2430 1 2 87 87 140 176
2431 1 2 87 87 40 139
2432 1 2 87 87 41 139
2433 1 2 87 87 139 140
2434 1 2 87 87 40 41
2435 1 2 87 87 40 140
2436 1 2 87 87 41 140
2437 1 2 88 88 19 78
2438 1 2 88 88 3 78
2439 1 2 88 88 20 78
2440 1 2 88 88 78 175
2441 1 2 88 88 78 99
2442 1 2 88 88 57 78
2443 1 2 88 88 78 101
2444 1 2 88 88 3 19
2445 1 2 88 88 19 20
2446 1 2 88 88 19 175
2447 1 2 88 88 19 99
2448 1 2 88 88 19 57
2449 1 2 88 88 19 101
2450 1 2 88 88 3 20
2451 1 2 88 88 3 175
2452 1 2 88 88 3 99
2453 1 2 88 88 3 57
2454 1 2 88 88 3 101
2455 1 2 88 88 20 175
2456 1 2 88 88 20 99
2457 1 2 88 88 20 57
2458 1 2 88 88 20 101
2459 1 2 88 88 99 175
2460 1 2 88 88 57 175
2461 1 2 88 88 101 175
2462 1 2 88 88 57 99
2463 1 2 88 88 99 101
2464 1 2 88 88 57 101
2465 1 2 89 89 99 175
2466 1 2 89 89 57 175
2467 1 2 89 89 101 175
2468 1 2 89 89 175 176
2469 1 2 89 89 100 175
2470 1 2 89 89 58 175
2471 1 2 89 89 102 175
2472 1 2 89 89 57 99
2473 1 2 89 89 99 101
2474 1 2 89 89 99 176
2475 1 2 89 89 99 100
2476 1 2 89 89 58 99
2477 1 2 89 89 99 102
2478 1 2 89 89 57 101
2479 1 2 89 89 57 176
2480 1 2 89 89 57 100
2481 1 2 89 89 57 58
2482 1 2 89 89 57 102
2483 1 2 89 89 101 176
2484 1 2 89 89 100 101
2485 1 2 89 89 58 101
2486 1 2 89 89 101 102
2487 1 2 89 89 100 176
2488 1 2 89 89 58 176
2489 1 2 89 89 102 176
2490 1 2 89 89 58 100
2491 1 2 89 89 100 102
2492 1 2 89 89 58 102
2493 1 2 90 90 100 176
2494 1 2 90 90 58 176
2495 1 2 90 90 102 176
2496 1 2 90 90 140 176
2497 1 2 90 90 41 176
2498 1 2 90 90 7 176
2499 1 2 90 90 42 176
2500 1 2 90 90 58 100
2501 1 2 90 90 100 102
2502 1 2 90 90 100 140
2503 1 2 90 90 41 100
2504 1 2 90 90 7 100
2505 1 2 90 90 42 100
2506 1 2 90 90 58 102
2507 1 2 90 90 58 140
2508 1 2 90 90 41 58
2509 1 2 90 90 7 58
2510 1 2 90 90 42 58
2511 1 2 90 90 102 140
2512 1 2 90 90 41 102
2513 1 2 90 90 7 102
2514 1 2 90 90 42 102
2515 1 2 90 90 41 140
2516 1 2 90 90 7 140
2517 1 2 90 90 42 140
2518 1 2 90 90 7 41
2519 1 2 90 90 41 42
2520 1 2 90 90 7 42
$EndElements
