$MeshFormat
2.2 0 8
$EndMeshFormat
$PhysicalNames
7
2 1 "z_min"
2 2 "z_max"
2 3 "y_min"
2 4 "x_max"
2 5 "y_max"
2 6 "x_min"
3 7 "solid"
$EndPhysicalNames
$Nodes
176
1 0 0 0
2 20 0 0
3 20 3 0
4 0 3 0
5 0 0 3
6 20 0 3
7 20 3 3
8 0 3 3
9 1.999999999998378 0 0
10 3.999999999993648 0 0
11 5.999999999987806 0 0
12 7.999999999982034 0 0
13 9.999999999984798 0 0
14 11.99999999998784 0 0
15 13.99999999999088 0 0
16 15.99999999999392 0 0
17 17.99999999999696 0 0
18 20 0.9999999999960252 0
19 20 1.999999999996162 0
20 18 3 0
21 15.99999999999999 3 0
22 13.99999999999999 3 0
23 11.99999999999999 3 0
24 9.999999999999993 3 0
25 7.999999999999993 3 0
26 5.999999999999996 3 0
27 3.999999999999996 3 0
28 1.999999999999996 3 0
29 0 2.000000000001938 0
30 0 1.000000000002804 0
31 1.999999999998378 0 3
32 3.999999999993648 0 3
33 5.999999999987806 0 3
34 7.999999999982034 0 3
35 9.999999999984798 0 3
36 11.99999999998784 0 3
37 13.99999999999088 0 3
38 15.99999999999392 0 3
39 17.99999999999696 0 3
40 20 0.9999999999960252 3
41 20 1.999999999996162 3
42 18 3 3
43 15.99999999999999 3 3
44 13.99999999999999 3 3
45 11.99999999999999 3 3
46 9.999999999999993 3 3
47 7.999999999999993 3 3
48 5.999999999999996 3 3
49 3.999999999999996 3 3
50 1.999999999999996 3 3
51 0 2.000000000001938 3
52 0 1.000000000002804 3
53 0 0 1
54 0 0 2
55 20 0 1
56 20 0 2
57 20 3 1
58 20 3 2
59 0 3 1
60 0 3 2
61 1.999999999998917 1.000000000002125 0
62 1.999999999999456 2.000000000001359 0
63 3.999999999995765 1.000000000001448 0
64 3.999999999997881 2.000000000000782 0
65 5.99999999999187 1.00000000000077 0
66 5.999999999995933 2.000000000000204 0
67 7.999999999988022 1.000000000000092 0
68 7.999999999994007 1.999999999999627 0
69 9.999999999989861 0.9999999999994141 0
70 9.99999999999493 1.999999999999049 0
71 11.99999999999189 0.9999999999987362 0
72 11.99999999999594 1.999999999998472 0
73 13.99999999999391 0.9999999999980583 0
74 13.99999999999695 1.999999999997894 0
75 15.99999999999595 0.9999999999973807 0
76 15.99999999999797 1.999999999997317 0
77 17.99999999999797 0.9999999999967026 0
78 17.99999999999898 1.999999999996739 0
79 1.999999999998378 0 1
80 1.999999999998378 0 2
81 3.999999999993648 0 1
82 3.999999999993648 0 2
83 5.999999999987806 0 1
84 5.999999999987806 0 2
85 7.999999999982034 0 1
86 7.999999999982034 0 2
87 9.999999999984798 0 1
88 9.999999999984798 0 2
89 11.99999999998784 0 1
90 11.99999999998784 0 2
91 13.99999999999088 0 1
92 13.99999999999088 0 2
93 15.99999999999392 0 1
94 15.99999999999392 0 2
95 17.99999999999696 0 1
96 17.99999999999696 0 2
97 20 0.9999999999960252 1
98 20 0.9999999999960252 2
99 20 1.999999999996162 1
100 20 1.999999999996162 2
101 18 3 1
102 18 3 2
103 15.99999999999999 3 1
104 15.99999999999999 3 2
105 13.99999999999999 3 1
106 13.99999999999999 3 2
107 11.99999999999999 3 1
108 11.99999999999999 3 2
109 9.999999999999993 3 1
110 9.999999999999993 3 2
111 7.999999999999993 3 1
112 7.999999999999993 3 2
113 5.999999999999996 3 1
114 5.999999999999996 3 2
115 3.999999999999996 3 1
116 3.999999999999996 3 2
117 1.999999999999996 3 1
118 1.999999999999996 3 2
119 0 2.000000000001938 1
120 0 2.000000000001938 2
121 0 1.000000000002804 1
122 0 1.000000000002804 2
123 1.999999999998917 1.000000000002125 3
124 1.999999999999456 2.000000000001359 3
125 3.999999999995765 1.000000000001448 3
126 3.999999999997881 2.000000000000782 3
127 5.99999999999187 1.00000000000077 3
128 5.999999999995933 2.000000000000204 3
129 7.999999999988022 1.000000000000092 3
130 7.999999999994007 1.999999999999627 3
131 9.999999999989861 0.9999999999994141 3
132 9.99999999999493 1.999999999999049 3
133 11.99999999999189 0.9999999999987362 3
134 11.99999999999594 1.999999999998472 3
135 13.99999999999391 0.9999999999980583 3
136 13.99999999999695 1.999999999997894 3
137 15.99999999999595 0.9999999999973807 3
138 15.99999999999797 1.999999999997317 3
139 17.99999999999797 0.9999999999967026 3
140 17.99999999999898 1.999999999996739 3
141 1.999999999998917 1.000000000002125 1
142 1.999999999998917 1.000000000002125 2
143 1.999999999999456 2.000000000001359 1
144 1.999999999999456 2.000000000001359 2
145 3.999999999995765 1.000000000001448 1
146 3.999999999995765 1.000000000001448 2
147 3.999999999997881 2.000000000000782 1
148 3.999999999997881 2.000000000000782 2
149 5.99999999999187 1.00000000000077 1
150 5.99999999999187 1.00000000000077 2
151 5.999999999995933 2.000000000000204 1
152 5.999999999995933 2.000000000000204 2
153 7.999999999988022 1.000000000000092 1
154 7.999999999988022 1.000000000000092 2
155 7.999999999994007 1.999999999999627 1
156 7.999999999994007 1.999999999999627 2
157 9.999999999989861 0.9999999999994141 1
158 9.999999999989861 0.9999999999994141 2
159 9.99999999999493 1.999999999999049 1
160 9.99999999999493 1.999999999999049 2
161 11.99999999999189 0.9999999999987362 1
162 11.99999999999189 0.9999999999987362 2
163 11.99999999999594 1.999999999998472 1
164 11.99999999999594 1.999999999998472 2
165 13.99999999999391 0.9999999999980583 1
166 13.99999999999391 0.9999999999980583 2
167 13.99999999999695 1.999999999997894 1
168 13.99999999999695 1.999999999997894 2
169 15.99999999999595 0.9999999999973807 1
170 15.99999999999595 0.9999999999973807 2
171 15.99999999999797 1.999999999997317 1
172 15.99999999999797 1.999999999997317 2
173 17.99999999999797 0.9999999999967026 1
174 17.99999999999797 0.9999999999967026 2
175 17.99999999999898 1.999999999996739 1
176 17.99999999999898 1.999999999996739 2
$EndNodes
$Elements
228
1 3 2 1 1 1 9 61 30
2 3 2 1 1 30 61 62 29
3 3 2 1 1 29 62 28 4
4 3 2 1 1 9 10 63 61
5 3 2 1 1 61 63 64 62
6 3 2 1 1 62 64 27 28
7 3 2 1 1 10 11 65 63
8 3 2 1 1 63 65 66 64
9 3 2 1 1 64 66 26 27
10 3 2 1 1 11 12 67 65
11 3 2 1 1 65 67 68 66
12 3 2 1 1 66 68 25 26
13 3 2 1 1 12 13 69 67
14 3 2 1 1 67 69 70 68
15 3 2 1 1 68 70 24 25
16 3 2 1 1 13 14 71 69
17 3 2 1 1 69 71 72 70
18 3 2 1 1 70 72 23 24
19 3 2 1 1 14 15 73 71
20 3 2 1 1 71 73 74 72
21 3 2 1 1 72 74 22 23
22 3 2 1 1 15 16 75 73
23 3 2 1 1 73 75 76 74
24 3 2 1 1 74 76 21 22
25 3 2 1 1 16 17 77 75
26 3 2 1 1 75 77 78 76
27 3 2 1 1 76 78 20 21
28 3 2 1 1 17 2 18 77
29 3 2 1 1 77 18 19 78
30 3 2 1 1 78 19 3 20
31 3 2 3 13 1 9 79 53
32 3 2 3 13 53 79 80 54
33 3 2 3 13 54 80 31 5
34 3 2 3 13 9 10 81 79
35 3 2 3 13 79 81 82 80
36 3 2 3 13 80 82 32 31
37 3 2 3 13 10 11 83 81
38 3 2 3 13 81 83 84 82
39 3 2 3 13 82 84 33 32
40 3 2 3 13 11 12 85 83
41 3 2 3 13 83 85 86 84
42 3 2 3 13 84 86 34 33
43 3 2 3 13 12 13 87 85
44 3 2 3 13 85 87 88 86
45 3 2 3 13 86 88 35 34
46 3 2 3 13 13 14 89 87
47 3 2 3 13 87 89 90 88
48 3 2 3 13 88 90 36 35
49 3 2 3 13 14 15 91 89
50 3 2 3 13 89 91 92 90
51 3 2 3 13 90 92 37 36
52 3 2 3 13 15 16 93 91
53 3 2 3 13 91 93 94 92
54 3 2 3 13 92 94 38 37
55 3 2 3 13 16 17 95 93
56 3 2 3 13 93 95 96 94
57 3 2 3 13 94 96 39 38
58 3 2 3 13 17 2 55 95
59 3 2 3 13 95 55 56 96
60 3 2 3 13 96 56 6 39
61 3 2 4 17 2 18 97 55
62 3 2 4 17 55 97 98 56
63 3 2 4 17 56 98 40 6
64 3 2 4 17 18 19 99 97
65 3 2 4 17 97 99 100 98
66 3 2 4 17 98 100 41 40
67 3 2 4 17 19 3 57 99
68 3 2 4 17 99 57 58 100
69 3 2 4 17 100 58 7 41
70 3 2 5 21 3 20 101 57
71 3 2 5 21 57 101 102 58
72 3 2 5 21 58 102 42 7
73 3 2 5 21 20 21 103 101
74 3 2 5 21 101 103 104 102
75 3 2 5 21 102 104 43 42
76 3 2 5 21 21 22 105 103
77 3 2 5 21 103 105 106 104
78 3 2 5 21 104 106 44 43
79 3 2 5 21 22 23 107 105
80 3 2 5 21 105 107 108 106
81 3 2 5 21 106 108 45 44
82 3 2 5 21 23 24 109 107
83 3 2 5 21 107 109 110 108
84 3 2 5 21 108 110 46 45
85 3 2 5 21 24 25 111 109
86 3 2 5 21 109 111 112 110
87 3 2 5 21 110 112 47 46
88 3 2 5 21 25 26 113 111
89 3 2 5 21 111 113 114 112
90 3 2 5 21 112 114 48 47
91 3 2 5 21 26 27 115 113
92 3 2 5 21 113 115 116 114
93 3 2 5 21 114 116 49 48
94 3 2 5 21 27 28 117 115
95 3 2 5 21 115 117 118 116
96 3 2 5 21 116 118 50 49
97 3 2 5 21 28 4 59 117
98 3 2 5 21 117 59 60 118
99 3 2 5 21 118 60 8 50
100 3 2 6 25 4 29 119 59
101 3 2 6 25 59 119 120 60
102 3 2 6 25 60 120 51 8
103 3 2 6 25 29 30 121 119
104 3 2 6 25 119 121 122 120
105 3 2 6 25 120 122 52 51
106 3 2 6 25 30 1 53 121
107 3 2 6 25 121 53 54 122
108 3 2 6 25 122 54 5 52
109 3 2 2 26 5 31 123 52
110 3 2 2 26 52 123 124 51
111 3 2 2 26 51 124 50 8
112 3 2 2 26 31 32 125 123
113 3 2 2 26 123 125 126 124
114 3 2 2 26 124 126 49 50
115 3 2 2 26 32 33 127 125
116 3 2 2 26 125 127 128 126
117 3 2 2 26 126 128 48 49
118 3 2 2 26 33 34 129 127
119 3 2 2 26 127 129 130 128
120 3 2 2 26 128 130 47 48
121 3 2 2 26 34 35 131 129
122 3 2 2 26 129 131 132 130
123 3 2 2 26 130 132 46 47
124 3 2 2 26 35 36 133 131
125 3 2 2 26 131 133 134 132
126 3 2 2 26 132 134 45 46
127 3 2 2 26 36 37 135 133
128 3 2 2 26 133 135 136 134
129 3 2 2 26 134 136 44 45
130 3 2 2 26 37 38 137 135
131 3 2 2 26 135 137 138 136
132 3 2 2 26 136 138 43 44
133 3 2 2 26 38 39 139 137
134 3 2 2 26 137 139 140 138
135 3 2 2 26 138 140 42 43
136 3 2 2 26 39 6 40 139
137 3 2 2 26 139 40 41 140
138 3 2 2 26 140 41 7 42
139 5 2 7 1 1 9 61 30 53 79 141 121
140 5 2 7 1 53 79 141 121 54 80 142 122
141 5 2 7 1 54 80 142 122 5 31 123 52
142 5 2 7 1 30 61 62 29 121 141 143 119
143 5 2 7 1 121 141 143 119 122 142 144 120
144 5 2 7 1 122 142 144 120 52 123 124 51
145 5 2 7 1 29 62 28 4 119 143 117 59
146 5 2 7 1 119 143 117 59 120 144 118 60
147 5 2 7 1 120 144 118 60 51 124 50 8
148 5 2 7 1 9 10 63 61 79 81 145 141
149 5 2 7 1 79 81 145 141 80 82 146 142
150 5 2 7 1 80 82 146 142 31 32 125 123
151 5 2 7 1 61 63 64 62 141 145 147 143
152 5 2 7 1 141 145 147 143 142 146 148 144
153 5 2 7 1 142 146 148 144 123 125 126 124
154 5 2 7 1 62 64 27 28 143 147 115 117
155 5 2 7 1 143 147 115 117 144 148 116 118
156 5 2 7 1 144 148 116 118 124 126 49 50
157 5 2 7 1 10 11 65 63 81 83 149 145
158 5 2 7 1 81 83 149 145 82 84 150 146
159 5 2 7 1 82 84 150 146 32 33 127 125
160 5 2 7 1 63 65 66 64 145 149 151 147
161 5 2 7 1 145 149 151 147 146 150 152 148
162 5 2 7 1 146 150 152 148 125 127 128 126
163 5 2 7 1 64 66 26 27 147 151 113 115
164 5 2 7 1 147 151 113 115 148 152 114 116
165 5 2 7 1 148 152 114 116 126 128 48 49
166 5 2 7 1 11 12 67 65 83 85 153 149
167 5 2 7 1 83 85 153 149 84 86 154 150
168 5 2 7 1 84 86 154 150 33 34 129 127
169 5 2 7 1 65 67 68 66 149 153 155 151
170 5 2 7 1 149 153 155 151 150 154 156 152
171 5 2 7 1 150 154 156 152 127 129 130 128
172 5 2 7 1 66 68 25 26 151 155 111 113
173 5 2 7 1 151 155 111 113 152 156 112 114
174 5 2 7 1 152 156 112 114 128 130 47 48
175 5 2 7 1 12 13 69 67 85 87 157 153
176 5 2 7 1 85 87 157 153 86 88 158 154
177 5 2 7 1 86 88 158 154 34 35 131 129
178 5 2 7 1 67 69 70 68 153 157 159 155
179 5 2 7 1 153 157 159 155 154 158 160 156
180 5 2 7 1 154 158 160 156 129 131 132 130
181 5 2 7 1 68 70 24 25 155 159 109 111
182 5 2 7 1 155 159 109 111 156 160 110 112
183 5 2 7 1 156 160 110 112 130 132 46 47
184 5 2 7 1 13 14 71 69 87 89 161 157
185 5 2 7 1 87 89 161 157 88 90 162 158
186 5 2 7 1 88 90 162 158 35 36 133 131
187 5 2 7 1 69 71 72 70 157 161 163 159
188 5 2 7 1 157 161 163 159 158 162 164 160
189 5 2 7 1 158 162 164 160 131 133 134 132
190 5 2 7 1 70 72 23 24 159 163 107 109
191 5 2 7 1 159 163 107 109 160 164 108 110
192 5 2 7 1 160 164 108 110 132 134 45 46
193 5 2 7 1 14 15 73 71 89 91 165 161
194 5 2 7 1 89 91 165 161 90 92 166 162
195 5 2 7 1 90 92 166 162 36 37 135 133
196 5 2 7 1 71 73 74 72 161 165 167 163
197 5 2 7 1 161 165 167 163 162 166 168 164
198 5 2 7 1 162 166 168 164 133 135 136 134
199 5 2 7 1 72 74 22 23 163 167 105 107
200 5 2 7 1 163 167 105 107 164 168 106 108
201 5 2 7 1 164 168 106 108 134 136 44 45
202 5 2 7 1 15 16 75 73 91 93 169 165
203 5 2 7 1 91 93 169 165 92 94 170 166
204 5 2 7 1 92 94 170 166 37 38 137 135
205 5 2 7 1 73 75 76 74 165 169 171 167
206 5 2 7 1 165 169 171 167 166 170 172 168
207 5 2 7 1 166 170 172 168 135 137 138 136
208 5 2 7 1 74 76 21 22 167 171 103 105
209 5 2 7 1 167 171 103 105 168 172 104 106
210 5 2 7 1 168 172 104 106 136 138 43 44
211 5 2 7 1 16 17 77 75 93 95 173 169
212 5 2 7 1 93 95 173 169 94 96 174 170
213 5 2 7 1 94 96 174 170 38 39 139 137
214 5 2 7 1 75 77 78 76 169 173 175 171
215 5 2 7 1 169 173 175 171 170 174 176 172
216 5 2 7 1 170 174 176 172 137 139 140 138
217 5 2 7 1 76 78 20 21 171 175 101 103
218 5 2 7 1 171 175 101 103 172 176 102 104
219 5 2 7 1 172 176 102 104 138 140 42 43
220 5 2 7 1 17 2 18 77 95 55 97 173
221 5 2 7 1 95 55 97 173 96 56 98 174
222 5 2 7 1 96 56 98 174 39 6 40 139
223 5 2 7 1 77 18 19 78 173 97 99 175
224 5 2 7 1 173 97 99 175 174 98 100 176
225 5 2 7 1 174 98 100 176 139 40 41 140
226 5 2 7 1 78 19 3 20 175 99 57 101
227 5 2 7 1 175 99 57 101 176 100 58 102
228 5 2 7 1 176 100 58 102 140 41 7 42
$EndElements
