$MeshFormat
2.2 0 8
$EndMeshFormat
$PhysicalNames
7
2 1 "z_min"
2 2 "z_max"
2 3 "y_min"
2 4 "x_max"
2 5 "y_max"
2 6 "x_min"
3 7 "solid"
$EndPhysicalNames
$Nodes
132
1 0 0 0
2 20 1.5 1.5
3 20 4.5 1.5
4 0 6 0
5 0 0 6
6 20 1.5 4.5
7 20 4.5 4.5
8 0 6 6
9 1.999999999998299 0.1499999999998724 0.1499999999998724
10 3.999999999993522 0.2999999999995141 0.2999999999995141
11 5.999999999987664 0.4499999999990748 0.4499999999990748
12 7.999999999981875 0.5999999999986406 0.5999999999986406
13 9.999999999984528 0.7499999999988396 0.7499999999988396
14 11.99999999998762 0.8999999999990713 0.8999999999990713
15 13.99999999999071 1.049999999999303 1.049999999999303
16 15.99999999999381 1.199999999999536 1.199999999999536
17 17.99999999999691 1.349999999999768 1.349999999999768
18 1.999999999998016 5.850000000000149 0.1499999999998512
19 3.999999999992958 5.700000000000528 0.2999999999994719
20 5.999999999986809 5.550000000000989 0.4499999999990107
21 7.999999999980724 5.400000000001445 0.5999999999985542
22 9.999999999983105 5.250000000001267 0.7499999999987328
23 11.99999999998647 5.100000000001015 0.8999999999989854
24 13.99999999998985 4.950000000000761 1.049999999999239
25 15.99999999999324 4.800000000000507 1.199999999999493
26 17.99999999999662 4.650000000000253 1.349999999999747
27 1.999999999998016 0.1499999999998512 5.850000000000149
28 3.999999999992958 0.2999999999994719 5.700000000000528
29 5.999999999986809 0.4499999999990107 5.550000000000989
30 7.999999999980724 0.5999999999985542 5.400000000001445
31 9.999999999983105 0.7499999999987328 5.250000000001267
32 11.99999999998647 0.8999999999989854 5.100000000001015
33 13.99999999998985 1.049999999999239 4.950000000000761
34 15.99999999999324 1.199999999999493 4.800000000000507
35 17.99999999999662 1.349999999999747 4.650000000000253
36 1.999999999997732 5.85000000000017 5.85000000000017
37 3.999999999992394 5.70000000000057 5.70000000000057
38 5.999999999985958 5.550000000001053 5.550000000001053
39 7.99999999997959 5.400000000001531 5.400000000001531
40 9.999999999981688 5.250000000001373 5.250000000001373
41 11.99999999998533 5.100000000001101 5.100000000001101
42 13.99999999998899 4.950000000000825 4.950000000000825
43 15.99999999999266 4.80000000000055 4.80000000000055
44 17.99999999999633 4.650000000000275 4.650000000000275
45 0 1.99999999999205 0
46 0 3.999999999992323 0
47 20 2.499999999997516 1.5
48 20 3.499999999998759 1.5
49 0 1.99999999999205 6
50 0 3.999999999992323 6
51 20 2.499999999997516 4.5
52 20 3.499999999998759 4.5
53 0 0 2.999999999988572
54 20 1.5 2.999999999998139
55 0 6 2.999999999988572
56 20 4.5 2.999999999998139
57 1.999999999998205 2.049999999992561 0.1499999999998651
58 1.999999999998111 3.949999999993024 0.1499999999998578
59 3.999999999993336 2.099999999992995 0.2999999999994999
60 3.999999999993146 3.8999999999938 0.2999999999994855
61 5.99999999998738 2.149999999993403 0.4499999999990533
62 5.999999999987095 3.849999999994606 0.4499999999990317
63 7.999999999981491 2.199999999993813 0.5999999999986116
64 7.999999999981108 3.799999999995409 0.5999999999985826
65 9.999999999984059 2.249999999994432 0.7499999999988043
66 9.999999999983585 3.749999999996 0.7499999999987684
67 11.99999999998724 2.299999999995048 0.899999999999043
68 11.99999999998686 3.699999999996552 0.8999999999990143
69 13.99999999999043 2.349999999995665 1.049999999999283
70 13.99999999999014 3.649999999997104 1.049999999999261
71 15.99999999999362 2.399999999996282 1.199999999999522
72 15.99999999999343 3.599999999997656 1.199999999999507
73 17.99999999999681 2.449999999996899 1.349999999999761
74 17.99999999999672 3.549999999998207 1.349999999999754
75 1.999999999997923 2.049999999992554 5.850000000000157
76 1.999999999997827 3.94999999999303 5.850000000000166
77 3.999999999992772 2.099999999992982 5.700000000000544
78 3.999999999992583 3.899999999993815 5.700000000000559
79 5.999999999986525 2.149999999993381 5.550000000001011
80 5.999999999986244 3.849999999994628 5.550000000001035
81 7.999999999980349 2.199999999993783 5.400000000001475
82 7.999999999979973 3.799999999995435 5.400000000001504
83 9.999999999982638 2.249999999994396 5.250000000001303
84 9.999999999982162 3.749999999996034 5.250000000001339
85 11.9999999999861 2.299999999995019 5.100000000001043
86 11.99999999998571 3.699999999996579 5.100000000001073
87 13.99999999998957 2.349999999995644 4.950000000000783
88 13.99999999998929 3.649999999997124 4.950000000000805
89 15.99999999999305 2.399999999996268 4.800000000000521
90 15.99999999999286 3.59999999999767 4.800000000000536
91 17.99999999999653 2.449999999996893 4.65000000000026
92 17.99999999999643 3.549999999998215 4.650000000000269
93 1.999999999998158 0.1499999999998614 2.999999999989539
94 3.999999999993242 0.2999999999994928 2.999999999990504
95 5.999999999987239 0.4499999999990426 2.999999999991473
96 7.9999999999813 0.5999999999985972 2.999999999992441
97 9.999999999983819 0.7499999999987861 2.999999999993409
98 11.99999999998705 0.8999999999990286 2.999999999994354
99 13.99999999999029 1.049999999999272 2.999999999995301
100 15.99999999999353 1.199999999999515 2.999999999996246
101 17.99999999999677 1.349999999999758 2.999999999997192
102 1.999999999997874 5.850000000000163 2.999999999989538
103 3.999999999992677 5.700000000000553 2.999999999990505
104 5.999999999986385 5.550000000001024 2.999999999991473
105 7.999999999980162 5.400000000001491 2.99999999999244
106 9.999999999982398 5.250000000001322 2.999999999993407
107 11.9999999999859 5.100000000001059 2.999999999994355
108 13.99999999998943 4.950000000000795 2.9999999999953
109 15.99999999999296 4.80000000000053 2.999999999996246
110 17.99999999999648 4.650000000000265 2.999999999997192
111 0 1.99999999999205 2.999999999988572
112 0 3.999999999992323 2.999999999988572
113 20 2.499999999997516 2.999999999998139
114 20 3.499999999998759 2.999999999998139
115 1.999999999998064 2.049999999992559 2.99999999998954
116 1.999999999997969 3.94999999999303 2.999999999989541
117 3.999999999993056 2.09999999999299 2.999999999990505
118 3.999999999992866 3.899999999993812 2.999999999990505
119 5.999999999986954 2.149999999993393 2.999999999991475
120 5.99999999998667 3.849999999994619 2.999999999991474
121 7.99999999998092 2.199999999993799 2.999999999992442
122 7.999999999980546 3.799999999995423 2.99999999999244
123 9.99999999998335 2.249999999994413 2.99999999999341
124 9.999999999982874 3.749999999996017 2.99999999999341
125 11.99999999998668 2.299999999995035 2.999999999994355
126 11.99999999998629 3.699999999996566 2.999999999994356
127 13.99999999999001 2.349999999995656 2.999999999995302
128 13.99999999998972 3.649999999997116 2.999999999995302
129 15.99999999999334 2.399999999996276 2.999999999996246
130 15.99999999999315 3.599999999997665 2.999999999996246
131 17.99999999999668 2.449999999996896 2.999999999997191
132 17.99999999999658 3.549999999998211 2.999999999997192
$EndNodes
$Elements
172
1 3 2 1 1 1 9 57 45
2 3 2 1 1 45 57 58 46
3 3 2 1 1 46 58 18 4
4 3 2 1 1 9 10 59 57
5 3 2 1 1 57 59 60 58
6 3 2 1 1 58 60 19 18
7 3 2 1 1 10 11 61 59
8 3 2 1 1 59 61 62 60
9 3 2 1 1 60 62 20 19
10 3 2 1 1 11 12 63 61
11 3 2 1 1 61 63 64 62
12 3 2 1 1 62 64 21 20
13 3 2 1 1 12 13 65 63
14 3 2 1 1 63 65 66 64
15 3 2 1 1 64 66 22 21
16 3 2 1 1 13 14 67 65
17 3 2 1 1 65 67 68 66
18 3 2 1 1 66 68 23 22
19 3 2 1 1 14 15 69 67
20 3 2 1 1 67 69 70 68
21 3 2 1 1 68 70 24 23
22 3 2 1 1 15 16 71 69
23 3 2 1 1 69 71 72 70
24 3 2 1 1 70 72 25 24
25 3 2 1 1 16 17 73 71
26 3 2 1 1 71 73 74 72
27 3 2 1 1 72 74 26 25
28 3 2 1 1 17 2 47 73
29 3 2 1 1 73 47 48 74
30 3 2 1 1 74 48 3 26
31 3 2 2 2 5 27 75 49
32 3 2 2 2 49 75 76 50
33 3 2 2 2 50 76 36 8
34 3 2 2 2 27 28 77 75
35 3 2 2 2 75 77 78 76
36 3 2 2 2 76 78 37 36
37 3 2 2 2 28 29 79 77
38 3 2 2 2 77 79 80 78
39 3 2 2 2 78 80 38 37
40 3 2 2 2 29 30 81 79
41 3 2 2 2 79 81 82 80
42 3 2 2 2 80 82 39 38
43 3 2 2 2 30 31 83 81
44 3 2 2 2 81 83 84 82
45 3 2 2 2 82 84 40 39
46 3 2 2 2 31 32 85 83
47 3 2 2 2 83 85 86 84
48 3 2 2 2 84 86 41 40
49 3 2 2 2 32 33 87 85
50 3 2 2 2 85 87 88 86
51 3 2 2 2 86 88 42 41
52 3 2 2 2 33 34 89 87
53 3 2 2 2 87 89 90 88
54 3 2 2 2 88 90 43 42
55 3 2 2 2 34 35 91 89
56 3 2 2 2 89 91 92 90
57 3 2 2 2 90 92 44 43
58 3 2 2 2 35 6 51 91
59 3 2 2 2 91 51 52 92
60 3 2 2 2 92 52 7 44
61 3 2 3 3 1 9 93 53
62 3 2 3 3 53 93 27 5
63 3 2 3 3 9 10 94 93
64 3 2 3 3 93 94 28 27
65 3 2 3 3 10 11 95 94
66 3 2 3 3 94 95 29 28
67 3 2 3 3 11 12 96 95
68 3 2 3 3 95 96 30 29
69 3 2 3 3 12 13 97 96
70 3 2 3 3 96 97 31 30
71 3 2 3 3 13 14 98 97
72 3 2 3 3 97 98 32 31
73 3 2 3 3 14 15 99 98
74 3 2 3 3 98 99 33 32
75 3 2 3 3 15 16 100 99
76 3 2 3 3 99 100 34 33
77 3 2 3 3 16 17 101 100
78 3 2 3 3 100 101 35 34
79 3 2 3 3 17 2 54 101
80 3 2 3 3 101 54 6 35
81 3 2 5 4 4 18 102 55
82 3 2 5 4 55 102 36 8
83 3 2 5 4 18 19 103 102
84 3 2 5 4 102 103 37 36
85 3 2 5 4 19 20 104 103
86 3 2 5 4 103 104 38 37
87 3 2 5 4 20 21 105 104
88 3 2 5 4 104 105 39 38
89 3 2 5 4 21 22 106 105
90 3 2 5 4 105 106 40 39
91 3 2 5 4 22 23 107 106
92 3 2 5 4 106 107 41 40
93 3 2 5 4 23 24 108 107
94 3 2 5 4 107 108 42 41
95 3 2 5 4 24 25 109 108
96 3 2 5 4 108 109 43 42
97 3 2 5 4 25 26 110 109
98 3 2 5 4 109 110 44 43
99 3 2 5 4 26 3 56 110
100 3 2 5 4 110 56 7 44
101 3 2 6 5 1 45 111 53
102 3 2 6 5 53 111 49 5
103 3 2 6 5 45 46 112 111
104 3 2 6 5 111 112 50 49
105 3 2 6 5 46 4 55 112
106 3 2 6 5 112 55 8 50
107 3 2 4 6 2 47 113 54
108 3 2 4 6 54 113 51 6
109 3 2 4 6 47 48 114 113
110 3 2 4 6 113 114 52 51
111 3 2 4 6 48 3 56 114
112 3 2 4 6 114 56 7 52
113 5 2 7 1 1 9 57 45 53 93 115 111
114 5 2 7 1 53 93 115 111 5 27 75 49
115 5 2 7 1 45 57 58 46 111 115 116 112
116 5 2 7 1 111 115 116 112 49 75 76 50
117 5 2 7 1 46 58 18 4 112 116 102 55
118 5 2 7 1 112 116 102 55 50 76 36 8
119 5 2 7 1 9 10 59 57 93 94 117 115
120 5 2 7 1 93 94 117 115 27 28 77 75
121 5 2 7 1 57 59 60 58 115 117 118 116
122 5 2 7 1 115 117 118 116 75 77 78 76
123 5 2 7 1 58 60 19 18 116 118 103 102
124 5 2 7 1 116 118 103 102 76 78 37 36
125 5 2 7 1 10 11 61 59 94 95 119 117
126 5 2 7 1 94 95 119 117 28 29 79 77
127 5 2 7 1 59 61 62 60 117 119 120 118
128 5 2 7 1 117 119 120 118 77 79 80 78
129 5 2 7 1 60 62 20 19 118 120 104 103
130 5 2 7 1 118 120 104 103 78 80 38 37
131 5 2 7 1 11 12 63 61 95 96 121 119
132 5 2 7 1 95 96 121 119 29 30 81 79
133 5 2 7 1 61 63 64 62 119 121 122 120
134 5 2 7 1 119 121 122 120 79 81 82 80
135 5 2 7 1 62 64 21 20 120 122 105 104
136 5 2 7 1 120 122 105 104 80 82 39 38
137 5 2 7 1 12 13 65 63 96 97 123 121
138 5 2 7 1 96 97 123 121 30 31 83 81
139 5 2 7 1 63 65 66 64 121 123 124 122
140 5 2 7 1 121 123 124 122 81 83 84 82
141 5 2 7 1 64 66 22 21 122 124 106 105
142 5 2 7 1 122 124 106 105 82 84 40 39
143 5 2 7 1 13 14 67 65 97 98 125 123
144 5 2 7 1 97 98 125 123 31 32 85 83
145 5 2 7 1 65 67 68 66 123 125 126 124
146 5 2 7 1 123 125 126 124 83 85 86 84
147 5 2 7 1 66 68 23 22 124 126 107 106
148 5 2 7 1 124 126 107 106 84 86 41 40
149 5 2 7 1 14 15 69 67 98 99 127 125
150 5 2 7 1 98 99 127 125 32 33 87 85
151 5 2 7 1 67 69 70 68 125 127 128 126
152 5 2 7 1 125 127 128 126 85 87 88 86
153 5 2 7 1 68 70 24 23 126 128 108 107
154 5 2 7 1 126 128 108 107 86 88 42 41
155 5 2 7 1 15 16 71 69 99 100 129 127
156 5 2 7 1 99 100 129 127 33 34 89 87
157 5 2 7 1 69 71 72 70 127 129 130 128
158 5 2 7 1 127 129 130 128 87 89 90 88
159 5 2 7 1 70 72 25 24 128 130 109 108
160 5 2 7 1 128 130 109 108 88 90 43 42
161 5 2 7 1 16 17 73 71 100 101 131 129
162 5 2 7 1 100 101 131 129 34 35 91 89
163 5 2 7 1 71 73 74 72 129 131 132 130
164 5 2 7 1 129 131 132 130 89 91 92 90
165 5 2 7 1 72 74 26 25 130 132 110 109
166 5 2 7 1 130 132 110 109 90 92 44 43
167 5 2 7 1 17 2 47 73 101 54 113 131
168 5 2 7 1 101 54 113 131 35 6 51 91
169 5 2 7 1 73 47 48 74 131 113 114 132
170 5 2 7 1 131 113 114 132 91 51 52 92
171 5 2 7 1 74 48 3 26 132 114 56 110
172 5 2 7 1 132 114 56 110 92 52 7 44
$EndElements
