$MeshFormat
2.2 0 8
$EndMeshFormat
$PhysicalNames
60
1 1 "cell_0"
1 2 "cell_1"
1 3 "cell_2"
1 4 "cell_3"
1 5 "cell_4"
1 6 "cell_5"
1 7 "cell_6"
1 8 "cell_7"
1 9 "cell_8"
1 10 "cell_9"
1 11 "cell_10"
1 12 "cell_11"
1 13 "cell_12"
1 14 "cell_13"
1 15 "cell_14"
1 16 "cell_15"
1 17 "cell_16"
1 18 "cell_17"
1 19 "cell_18"
1 20 "cell_19"
1 21 "cell_20"
1 22 "cell_21"
1 23 "cell_22"
1 24 "cell_23"
1 25 "cell_24"
1 26 "cell_25"
1 27 "cell_26"
1 28 "cell_27"
1 29 "cell_28"
1 30 "cell_29"
1 31 "cell_30"
1 32 "cell_31"
1 33 "cell_32"
1 34 "cell_33"
1 35 "cell_34"
1 36 "cell_35"
1 37 "cell_36"
1 38 "cell_37"
1 39 "cell_38"
1 40 "cell_39"
1 41 "cell_40"
1 42 "cell_41"
1 43 "cell_42"
1 44 "cell_43"
1 45 "cell_44"
1 46 "cell_45"
1 47 "cell_46"
1 48 "cell_47"
1 49 "cell_48"
1 50 "cell_49"
1 51 "cell_50"
1 52 "cell_51"
1 53 "cell_52"
1 54 "cell_53"
1 55 "cell_54"
1 56 "cell_55"
1 57 "cell_56"
1 58 "cell_57"
1 59 "cell_58"
1 60 "cell_59"
$EndPhysicalNames
$Nodes
132
1 0 0 0
2 20 1.5 1.5
3 20 4.5 1.5
4 0 6 0
5 0 0 6
6 20 1.5 4.5
7 20 4.5 4.5
8 0 6 6
9 2 0.15 0.15
10 4 0.3 0.3
11 6 0.45 0.45
12 8 0.6 0.6
13 10 0.75 0.75
14 12 0.9 0.9
15 14 1.05 1.05
16 16 1.2 1.2
17 18 1.35 1.35
18 2 5.85 0.15
19 4 5.7 0.3
20 6 5.55 0.45
21 8 5.4 0.6
22 10 5.25 0.75
23 12 5.1 0.9
24 14 4.95 1.05
25 16 4.8 1.2
26 18 4.65 1.35
27 2 0.15 5.85
28 4 0.3 5.7
29 6 0.45 5.55
30 8 0.6 5.4
31 10 0.75 5.25
32 12 0.9 5.1
33 14 1.05 4.95
34 16 1.2 4.8
35 18 1.35 4.65
36 2 5.85 5.85
37 4 5.7 5.7
38 6 5.55 5.55
39 8 5.4 5.4
40 10 5.25 5.25
41 12 5.1 5.1
42 14 4.95 4.95
43 16 4.8 4.8
44 18 4.65 4.65
45 0 2 0
46 0 4 0
47 20 2.5 1.5
48 20 3.5 1.5
49 0 2 6
50 0 4 6
51 20 2.5 4.5
52 20 3.5 4.5
53 0 0 3
54 20 1.5 3
55 0 6 3
56 20 4.5 3
57 2 2.05 0.15
58 2 3.95 0.15
59 4 2.1 0.3
60 4 3.9 0.3
61 6 2.15 0.45
62 6 3.85 0.45
63 8 2.2 0.6
64 8 3.8 0.6
65 10 2.25 0.75
66 10 3.75 0.75
67 12 2.3 0.9
68 12 3.7 0.9
69 14 2.35 1.05
70 14 3.65 1.05
71 16 2.4 1.2
72 16 3.6 1.2
73 18 2.45 1.35
74 18 3.55 1.35
75 2 2.05 5.85
76 2 3.95 5.85
77 4 2.1 5.7
78 4 3.9 5.7
79 6 2.15 5.55
80 6 3.85 5.55
81 8 2.2 5.4
82 8 3.8 5.4
83 10 2.25 5.25
84 10 3.75 5.25
85 12 2.3 5.1
86 12 3.7 5.1
87 14 2.35 4.95
88 14 3.65 4.95
89 16 2.4 4.8
90 16 3.6 4.8
91 18 2.45 4.65
92 18 3.55 4.65
93 2 0.15 3
94 4 0.3 3
95 6 0.45 3
96 8 0.6 3
97 10 0.75 3
98 12 0.9 3
99 14 1.05 3
100 16 1.2 3
101 18 1.35 3
102 2 5.85 3
103 4 5.7 3
104 6 5.55 3
105 8 5.4 3
106 10 5.25 3
107 12 5.1 3
108 14 4.95 3
109 16 4.8 3
110 18 4.65 3
111 0 2 3
112 0 4 3
113 20 2.5 3
114 20 3.5 3
115 2 2.05 3
116 2 3.95 3
117 4 2.1 3
118 4 3.9 3
119 6 2.15 3
120 6 3.85 3
121 8 2.2 3
122 8 3.8 3
123 10 2.25 3
124 10 3.75 3
125 12 2.3 3
126 12 3.7 3
127 14 2.35 3
128 14 3.65 3
129 16 2.4 3
130 16 3.6 3
131 18 2.45 3
132 18 3.55 3
$EndNodes
$Elements
1680
1 1 2 1 1 1 9
2 1 2 1 1 1 57
3 1 2 1 1 1 45
4 1 2 1 1 1 53
5 1 2 1 1 1 93
6 1 2 1 1 1 115
7 1 2 1 1 1 111
8 1 2 1 1 9 57
9 1 2 1 1 9 45
10 1 2 1 1 9 53
11 1 2 1 1 9 93
12 1 2 1 1 9 115
13 1 2 1 1 9 111
14 1 2 1 1 45 57
15 1 2 1 1 53 57
16 1 2 1 1 57 93
17 1 2 1 1 57 115
18 1 2 1 1 57 111
19 1 2 1 1 45 53
20 1 2 1 1 45 93
21 1 2 1 1 45 115
22 1 2 1 1 45 111
23 1 2 1 1 53 93
24 1 2 1 1 53 115
25 1 2 1 1 53 111
26 1 2 1 1 93 115
27 1 2 1 1 93 111
28 1 2 1 1 111 115
29 1 2 2 2 53 93
30 1 2 2 2 53 115
31 1 2 2 2 53 111
32 1 2 2 2 5 53
33 1 2 2 2 27 53
34 1 2 2 2 53 75
35 1 2 2 2 49 53
36 1 2 2 2 93 115
37 1 2 2 2 93 111
38 1 2 2 2 5 93
39 1 2 2 2 27 93
40 1 2 2 2 75 93
41 1 2 2 2 49 93
42 1 2 2 2 111 115
43 1 2 2 2 5 115
44 1 2 2 2 27 115
45 1 2 2 2 75 115
46 1 2 2 2 49 115
47 1 2 2 2 5 111
48 1 2 2 2 27 111
49 1 2 2 2 75 111
50 1 2 2 2 49 111
51 1 2 2 2 5 27
52 1 2 2 2 5 75
53 1 2 2 2 5 49
54 1 2 2 2 27 75
55 1 2 2 2 27 49
56 1 2 2 2 49 75
57 1 2 3 3 45 57
58 1 2 3 3 45 58
59 1 2 3 3 45 46
60 1 2 3 3 45 111
61 1 2 3 3 45 115
62 1 2 3 3 45 116
63 1 2 3 3 45 112
64 1 2 3 3 57 58
65 1 2 3 3 46 57
66 1 2 3 3 57 111
67 1 2 3 3 57 115
68 1 2 3 3 57 116
69 1 2 3 3 57 112
70 1 2 3 3 46 58
71 1 2 3 3 58 111
72 1 2 3 3 58 115
73 1 2 3 3 58 116
74 1 2 3 3 58 112
75 1 2 3 3 46 111
76 1 2 3 3 46 115
77 1 2 3 3 46 116
78 1 2 3 3 46 112
79 1 2 3 3 111 115
80 1 2 3 3 111 116
81 1 2 3 3 111 112
82 1 2 3 3 115 116
83 1 2 3 3 112 115
84 1 2 3 3 112 116
85 1 2 4 4 111 115
86 1 2 4 4 111 116
87 1 2 4 4 111 112
88 1 2 4 4 49 111
89 1 2 4 4 75 111
90 1 2 4 4 76 111
91 1 2 4 4 50 111
92 1 2 4 4 115 116
93 1 2 4 4 112 115
94 1 2 4 4 49 115
95 1 2 4 4 75 115
96 1 2 4 4 76 115
97 1 2 4 4 50 115
98 1 2 4 4 112 116
99 1 2 4 4 49 116
100 1 2 4 4 75 116
101 1 2 4 4 76 116
102 1 2 4 4 50 116
103 1 2 4 4 49 112
104 1 2 4 4 75 112
105 1 2 4 4 76 112
106 1 2 4 4 50 112
107 1 2 4 4 49 75
108 1 2 4 4 49 76
109 1 2 4 4 49 50
110 1 2 4 4 75 76
111 1 2 4 4 50 75
112 1 2 4 4 50 76
113 1 2 5 5 46 58
114 1 2 5 5 18 46
115 1 2 5 5 4 46
116 1 2 5 5 46 112
117 1 2 5 5 46 116
118 1 2 5 5 46 102
119 1 2 5 5 46 55
120 1 2 5 5 18 58
121 1 2 5 5 4 58
122 1 2 5 5 58 112
123 1 2 5 5 58 116
124 1 2 5 5 58 102
125 1 2 5 5 55 58
126 1 2 5 5 4 18
127 1 2 5 5 18 112
128 1 2 5 5 18 116
129 1 2 5 5 18 102
130 1 2 5 5 18 55
131 1 2 5 5 4 112
132 1 2 5 5 4 116
133 1 2 5 5 4 102
134 1 2 5 5 4 55
135 1 2 5 5 112 116
136 1 2 5 5 102 112
137 1 2 5 5 55 112
138 1 2 5 5 102 116
139 1 2 5 5 55 116
140 1 2 5 5 55 102
141 1 2 6 6 112 116
142 1 2 6 6 102 112
143 1 2 6 6 55 112
144 1 2 6 6 50 112
145 1 2 6 6 76 112
146 1 2 6 6 36 112
147 1 2 6 6 8 112
148 1 2 6 6 102 116
149 1 2 6 6 55 116
150 1 2 6 6 50 116
151 1 2 6 6 76 116
152 1 2 6 6 36 116
153 1 2 6 6 8 116
154 1 2 6 6 55 102
155 1 2 6 6 50 102
156 1 2 6 6 76 102
157 1 2 6 6 36 102
158 1 2 6 6 8 102
159 1 2 6 6 50 55
160 1 2 6 6 55 76
161 1 2 6 6 36 55
162 1 2 6 6 8 55
163 1 2 6 6 50 76
164 1 2 6 6 36 50
165 1 2 6 6 8 50
166 1 2 6 6 36 76
167 1 2 6 6 8 76
168 1 2 6 6 8 36
169 1 2 7 7 9 10
170 1 2 7 7 9 59
171 1 2 7 7 9 57
172 1 2 7 7 9 93
173 1 2 7 7 9 94
174 1 2 7 7 9 117
175 1 2 7 7 9 115
176 1 2 7 7 10 59
177 1 2 7 7 10 57
178 1 2 7 7 10 93
179 1 2 7 7 10 94
180 1 2 7 7 10 117
181 1 2 7 7 10 115
182 1 2 7 7 57 59
183 1 2 7 7 59 93
184 1 2 7 7 59 94
185 1 2 7 7 59 117
186 1 2 7 7 59 115
187 1 2 7 7 57 93
188 1 2 7 7 57 94
189 1 2 7 7 57 117
190 1 2 7 7 57 115
191 1 2 7 7 93 94
192 1 2 7 7 93 117
193 1 2 7 7 93 115
194 1 2 7 7 94 117
195 1 2 7 7 94 115
196 1 2 7 7 115 117
197 1 2 8 8 93 94
198 1 2 8 8 93 117
199 1 2 8 8 93 115
200 1 2 8 8 27 93
201 1 2 8 8 28 93
202 1 2 8 8 77 93
203 1 2 8 8 75 93
204 1 2 8 8 94 117
205 1 2 8 8 94 115
206 1 2 8 8 27 94
207 1 2 8 8 28 94
208 1 2 8 8 77 94
209 1 2 8 8 75 94
210 1 2 8 8 115 117
211 1 2 8 8 27 117
212 1 2 8 8 28 117
213 1 2 8 8 77 117
214 1 2 8 8 75 117
215 1 2 8 8 27 115
216 1 2 8 8 28 115
217 1 2 8 8 77 115
218 1 2 8 8 75 115
219 1 2 8 8 27 28
220 1 2 8 8 27 77
221 1 2 8 8 27 75
222 1 2 8 8 28 77
223 1 2 8 8 28 75
224 1 2 8 8 75 77
225 1 2 9 9 57 59
226 1 2 9 9 57 60
227 1 2 9 9 57 58
228 1 2 9 9 57 115
229 1 2 9 9 57 117
230 1 2 9 9 57 118
231 1 2 9 9 57 116
232 1 2 9 9 59 60
233 1 2 9 9 58 59
234 1 2 9 9 59 115
235 1 2 9 9 59 117
236 1 2 9 9 59 118
237 1 2 9 9 59 116
238 1 2 9 9 58 60
239 1 2 9 9 60 115
240 1 2 9 9 60 117
241 1 2 9 9 60 118
242 1 2 9 9 60 116
243 1 2 9 9 58 115
244 1 2 9 9 58 117
245 1 2 9 9 58 118
246 1 2 9 9 58 116
247 1 2 9 9 115 117
248 1 2 9 9 115 118
249 1 2 9 9 115 116
250 1 2 9 9 117 118
251 1 2 9 9 116 117
252 1 2 9 9 116 118
253 1 2 10 10 115 117
254 1 2 10 10 115 118
255 1 2 10 10 115 116
256 1 2 10 10 75 115
257 1 2 10 10 77 115
258 1 2 10 10 78 115
259 1 2 10 10 76 115
260 1 2 10 10 117 118
261 1 2 10 10 116 117
262 1 2 10 10 75 117
263 1 2 10 10 77 117
264 1 2 10 10 78 117
265 1 2 10 10 76 117
266 1 2 10 10 116 118
267 1 2 10 10 75 118
268 1 2 10 10 77 118
269 1 2 10 10 78 118
270 1 2 10 10 76 118
271 1 2 10 10 75 116
272 1 2 10 10 77 116
273 1 2 10 10 78 116
274 1 2 10 10 76 116
275 1 2 10 10 75 77
276 1 2 10 10 75 78
277 1 2 10 10 75 76
278 1 2 10 10 77 78
279 1 2 10 10 76 77
280 1 2 10 10 76 78
281 1 2 11 11 58 60
282 1 2 11 11 19 58
283 1 2 11 11 18 58
284 1 2 11 11 58 116
285 1 2 11 11 58 118
286 1 2 11 11 58 103
287 1 2 11 11 58 102
288 1 2 11 11 19 60
289 1 2 11 11 18 60
290 1 2 11 11 60 116
291 1 2 11 11 60 118
292 1 2 11 11 60 103
293 1 2 11 11 60 102
294 1 2 11 11 18 19
295 1 2 11 11 19 116
296 1 2 11 11 19 118
297 1 2 11 11 19 103
298 1 2 11 11 19 102
299 1 2 11 11 18 116
300 1 2 11 11 18 118
301 1 2 11 11 18 103
302 1 2 11 11 18 102
303 1 2 11 11 116 118
304 1 2 11 11 103 116
305 1 2 11 11 102 116
306 1 2 11 11 103 118
307 1 2 11 11 102 118
308 1 2 11 11 102 103
309 1 2 12 12 116 118
310 1 2 12 12 103 116
311 1 2 12 12 102 116
312 1 2 12 12 76 116
313 1 2 12 12 78 116
314 1 2 12 12 37 116
315 1 2 12 12 36 116
316 1 2 12 12 103 118
317 1 2 12 12 102 118
318 1 2 12 12 76 118
319 1 2 12 12 78 118
320 1 2 12 12 37 118
321 1 2 12 12 36 118
322 1 2 12 12 102 103
323 1 2 12 12 76 103
324 1 2 12 12 78 103
325 1 2 12 12 37 103
326 1 2 12 12 36 103
327 1 2 12 12 76 102
328 1 2 12 12 78 102
329 1 2 12 12 37 102
330 1 2 12 12 36 102
331 1 2 12 12 76 78
332 1 2 12 12 37 76
333 1 2 12 12 36 76
334 1 2 12 12 37 78
335 1 2 12 12 36 78
336 1 2 12 12 36 37
337 1 2 13 13 10 11
338 1 2 13 13 10 61
339 1 2 13 13 10 59
340 1 2 13 13 10 94
341 1 2 13 13 10 95
342 1 2 13 13 10 119
343 1 2 13 13 10 117
344 1 2 13 13 11 61
345 1 2 13 13 11 59
346 1 2 13 13 11 94
347 1 2 13 13 11 95
348 1 2 13 13 11 119
349 1 2 13 13 11 117
350 1 2 13 13 59 61
351 1 2 13 13 61 94
352 1 2 13 13 61 95
353 1 2 13 13 61 119
354 1 2 13 13 61 117
355 1 2 13 13 59 94
356 1 2 13 13 59 95
357 1 2 13 13 59 119
358 1 2 13 13 59 117
359 1 2 13 13 94 95
360 1 2 13 13 94 119
361 1 2 13 13 94 117
362 1 2 13 13 95 119
363 1 2 13 13 95 117
364 1 2 13 13 117 119
365 1 2 14 14 94 95
366 1 2 14 14 94 119
367 1 2 14 14 94 117
368 1 2 14 14 28 94
369 1 2 14 14 29 94
370 1 2 14 14 79 94
371 1 2 14 14 77 94
372 1 2 14 14 95 119
373 1 2 14 14 95 117
374 1 2 14 14 28 95
375 1 2 14 14 29 95
376 1 2 14 14 79 95
377 1 2 14 14 77 95
378 1 2 14 14 117 119
379 1 2 14 14 28 119
380 1 2 14 14 29 119
381 1 2 14 14 79 119
382 1 2 14 14 77 119
383 1 2 14 14 28 117
384 1 2 14 14 29 117
385 1 2 14 14 79 117
386 1 2 14 14 77 117
387 1 2 14 14 28 29
388 1 2 14 14 28 79
389 1 2 14 14 28 77
390 1 2 14 14 29 79
391 1 2 14 14 29 77
392 1 2 14 14 77 79
393 1 2 15 15 59 61
394 1 2 15 15 59 62
395 1 2 15 15 59 60
396 1 2 15 15 59 117
397 1 2 15 15 59 119
398 1 2 15 15 59 120
399 1 2 15 15 59 118
400 1 2 15 15 61 62
401 1 2 15 15 60 61
402 1 2 15 15 61 117
403 1 2 15 15 61 119
404 1 2 15 15 61 120
405 1 2 15 15 61 118
406 1 2 15 15 60 62
407 1 2 15 15 62 117
408 1 2 15 15 62 119
409 1 2 15 15 62 120
410 1 2 15 15 62 118
411 1 2 15 15 60 117
412 1 2 15 15 60 119
413 1 2 15 15 60 120
414 1 2 15 15 60 118
415 1 2 15 15 117 119
416 1 2 15 15 117 120
417 1 2 15 15 117 118
418 1 2 15 15 119 120
419 1 2 15 15 118 119
420 1 2 15 15 118 120
421 1 2 16 16 117 119
422 1 2 16 16 117 120
423 1 2 16 16 117 118
424 1 2 16 16 77 117
425 1 2 16 16 79 117
426 1 2 16 16 80 117
427 1 2 16 16 78 117
428 1 2 16 16 119 120
429 1 2 16 16 118 119
430 1 2 16 16 77 119
431 1 2 16 16 79 119
432 1 2 16 16 80 119
433 1 2 16 16 78 119
434 1 2 16 16 118 120
435 1 2 16 16 77 120
436 1 2 16 16 79 120
437 1 2 16 16 80 120
438 1 2 16 16 78 120
439 1 2 16 16 77 118
440 1 2 16 16 79 118
441 1 2 16 16 80 118
442 1 2 16 16 78 118
443 1 2 16 16 77 79
444 1 2 16 16 77 80
445 1 2 16 16 77 78
446 1 2 16 16 79 80
447 1 2 16 16 78 79
448 1 2 16 16 78 80
449 1 2 17 17 60 62
450 1 2 17 17 20 60
451 1 2 17 17 19 60
452 1 2 17 17 60 118
453 1 2 17 17 60 120
454 1 2 17 17 60 104
455 1 2 17 17 60 103
456 1 2 17 17 20 62
457 1 2 17 17 19 62
458 1 2 17 17 62 118
459 1 2 17 17 62 120
460 1 2 17 17 62 104
461 1 2 17 17 62 103
462 1 2 17 17 19 20
463 1 2 17 17 20 118
464 1 2 17 17 20 120
465 1 2 17 17 20 104
466 1 2 17 17 20 103
467 1 2 17 17 19 118
468 1 2 17 17 19 120
469 1 2 17 17 19 104
470 1 2 17 17 19 103
471 1 2 17 17 118 120
472 1 2 17 17 104 118
473 1 2 17 17 103 118
474 1 2 17 17 104 120
475 1 2 17 17 103 120
476 1 2 17 17 103 104
477 1 2 18 18 118 120
478 1 2 18 18 104 118
479 1 2 18 18 103 118
480 1 2 18 18 78 118
481 1 2 18 18 80 118
482 1 2 18 18 38 118
483 1 2 18 18 37 118
484 1 2 18 18 104 120
485 1 2 18 18 103 120
486 1 2 18 18 78 120
487 1 2 18 18 80 120
488 1 2 18 18 38 120
489 1 2 18 18 37 120
490 1 2 18 18 103 104
491 1 2 18 18 78 104
492 1 2 18 18 80 104
493 1 2 18 18 38 104
494 1 2 18 18 37 104
495 1 2 18 18 78 103
496 1 2 18 18 80 103
497 1 2 18 18 38 103
498 1 2 18 18 37 103
499 1 2 18 18 78 80
500 1 2 18 18 38 78
501 1 2 18 18 37 78
502 1 2 18 18 38 80
503 1 2 18 18 37 80
504 1 2 18 18 37 38
505 1 2 19 19 11 12
506 1 2 19 19 11 63
507 1 2 19 19 11 61
508 1 2 19 19 11 95
509 1 2 19 19 11 96
510 1 2 19 19 11 121
511 1 2 19 19 11 119
512 1 2 19 19 12 63
513 1 2 19 19 12 61
514 1 2 19 19 12 95
515 1 2 19 19 12 96
516 1 2 19 19 12 121
517 1 2 19 19 12 119
518 1 2 19 19 61 63
519 1 2 19 19 63 95
520 1 2 19 19 63 96
521 1 2 19 19 63 121
522 1 2 19 19 63 119
523 1 2 19 19 61 95
524 1 2 19 19 61 96
525 1 2 19 19 61 121
526 1 2 19 19 61 119
527 1 2 19 19 95 96
528 1 2 19 19 95 121
529 1 2 19 19 95 119
530 1 2 19 19 96 121
531 1 2 19 19 96 119
532 1 2 19 19 119 121
533 1 2 20 20 95 96
534 1 2 20 20 95 121
535 1 2 20 20 95 119
536 1 2 20 20 29 95
537 1 2 20 20 30 95
538 1 2 20 20 81 95
539 1 2 20 20 79 95
540 1 2 20 20 96 121
541 1 2 20 20 96 119
542 1 2 20 20 29 96
543 1 2 20 20 30 96
544 1 2 20 20 81 96
545 1 2 20 20 79 96
546 1 2 20 20 119 121
547 1 2 20 20 29 121
548 1 2 20 20 30 121
549 1 2 20 20 81 121
550 1 2 20 20 79 121
551 1 2 20 20 29 119
552 1 2 20 20 30 119
553 1 2 20 20 81 119
554 1 2 20 20 79 119
555 1 2 20 20 29 30
556 1 2 20 20 29 81
557 1 2 20 20 29 79
558 1 2 20 20 30 81
559 1 2 20 20 30 79
560 1 2 20 20 79 81
561 1 2 21 21 61 63
562 1 2 21 21 61 64
563 1 2 21 21 61 62
564 1 2 21 21 61 119
565 1 2 21 21 61 121
566 1 2 21 21 61 122
567 1 2 21 21 61 120
568 1 2 21 21 63 64
569 1 2 21 21 62 63
570 1 2 21 21 63 119
571 1 2 21 21 63 121
572 1 2 21 21 63 122
573 1 2 21 21 63 120
574 1 2 21 21 62 64
575 1 2 21 21 64 119
576 1 2 21 21 64 121
577 1 2 21 21 64 122
578 1 2 21 21 64 120
579 1 2 21 21 62 119
580 1 2 21 21 62 121
581 1 2 21 21 62 122
582 1 2 21 21 62 120
583 1 2 21 21 119 121
584 1 2 21 21 119 122
585 1 2 21 21 119 120
586 1 2 21 21 121 122
587 1 2 21 21 120 121
588 1 2 21 21 120 122
589 1 2 22 22 119 121
590 1 2 22 22 119 122
591 1 2 22 22 119 120
592 1 2 22 22 79 119
593 1 2 22 22 81 119
594 1 2 22 22 82 119
595 1 2 22 22 80 119
596 1 2 22 22 121 122
597 1 2 22 22 120 121
598 1 2 22 22 79 121
599 1 2 22 22 81 121
600 1 2 22 22 82 121
601 1 2 22 22 80 121
602 1 2 22 22 120 122
603 1 2 22 22 79 122
604 1 2 22 22 81 122
605 1 2 22 22 82 122
606 1 2 22 22 80 122
607 1 2 22 22 79 120
608 1 2 22 22 81 120
609 1 2 22 22 82 120
610 1 2 22 22 80 120
611 1 2 22 22 79 81
612 1 2 22 22 79 82
613 1 2 22 22 79 80
614 1 2 22 22 81 82
615 1 2 22 22 80 81
616 1 2 22 22 80 82
617 1 2 23 23 62 64
618 1 2 23 23 21 62
619 1 2 23 23 20 62
620 1 2 23 23 62 120
621 1 2 23 23 62 122
622 1 2 23 23 62 105
623 1 2 23 23 62 104
624 1 2 23 23 21 64
625 1 2 23 23 20 64
626 1 2 23 23 64 120
627 1 2 23 23 64 122
628 1 2 23 23 64 105
629 1 2 23 23 64 104
630 1 2 23 23 20 21
631 1 2 23 23 21 120
632 1 2 23 23 21 122
633 1 2 23 23 21 105
634 1 2 23 23 21 104
635 1 2 23 23 20 120
636 1 2 23 23 20 122
637 1 2 23 23 20 105
638 1 2 23 23 20 104
639 1 2 23 23 120 122
640 1 2 23 23 105 120
641 1 2 23 23 104 120
642 1 2 23 23 105 122
643 1 2 23 23 104 122
644 1 2 23 23 104 105
645 1 2 24 24 120 122
646 1 2 24 24 105 120
647 1 2 24 24 104 120
648 1 2 24 24 80 120
649 1 2 24 24 82 120
650 1 2 24 24 39 120
651 1 2 24 24 38 120
652 1 2 24 24 105 122
653 1 2 24 24 104 122
654 1 2 24 24 80 122
655 1 2 24 24 82 122
656 1 2 24 24 39 122
657 1 2 24 24 38 122
658 1 2 24 24 104 105
659 1 2 24 24 80 105
660 1 2 24 24 82 105
661 1 2 24 24 39 105
662 1 2 24 24 38 105
663 1 2 24 24 80 104
664 1 2 24 24 82 104
665 1 2 24 24 39 104
666 1 2 24 24 38 104
667 1 2 24 24 80 82
668 1 2 24 24 39 80
669 1 2 24 24 38 80
670 1 2 24 24 39 82
671 1 2 24 24 38 82
672 1 2 24 24 38 39
673 1 2 25 25 12 13
674 1 2 25 25 12 65
675 1 2 25 25 12 63
676 1 2 25 25 12 96
677 1 2 25 25 12 97
678 1 2 25 25 12 123
679 1 2 25 25 12 121
680 1 2 25 25 13 65
681 1 2 25 25 13 63
682 1 2 25 25 13 96
683 1 2 25 25 13 97
684 1 2 25 25 13 123
685 1 2 25 25 13 121
686 1 2 25 25 63 65
687 1 2 25 25 65 96
688 1 2 25 25 65 97
689 1 2 25 25 65 123
690 1 2 25 25 65 121
691 1 2 25 25 63 96
692 1 2 25 25 63 97
693 1 2 25 25 63 123
694 1 2 25 25 63 121
695 1 2 25 25 96 97
696 1 2 25 25 96 123
697 1 2 25 25 96 121
698 1 2 25 25 97 123
699 1 2 25 25 97 121
700 1 2 25 25 121 123
701 1 2 26 26 96 97
702 1 2 26 26 96 123
703 1 2 26 26 96 121
704 1 2 26 26 30 96
705 1 2 26 26 31 96
706 1 2 26 26 83 96
707 1 2 26 26 81 96
708 1 2 26 26 97 123
709 1 2 26 26 97 121
710 1 2 26 26 30 97
711 1 2 26 26 31 97
712 1 2 26 26 83 97
713 1 2 26 26 81 97
714 1 2 26 26 121 123
715 1 2 26 26 30 123
716 1 2 26 26 31 123
717 1 2 26 26 83 123
718 1 2 26 26 81 123
719 1 2 26 26 30 121
720 1 2 26 26 31 121
721 1 2 26 26 83 121
722 1 2 26 26 81 121
723 1 2 26 26 30 31
724 1 2 26 26 30 83
725 1 2 26 26 30 81
726 1 2 26 26 31 83
727 1 2 26 26 31 81
728 1 2 26 26 81 83
729 1 2 27 27 63 65
730 1 2 27 27 63 66
731 1 2 27 27 63 64
732 1 2 27 27 63 121
733 1 2 27 27 63 123
734 1 2 27 27 63 124
735 1 2 27 27 63 122
736 1 2 27 27 65 66
737 1 2 27 27 64 65
738 1 2 27 27 65 121
739 1 2 27 27 65 123
740 1 2 27 27 65 124
741 1 2 27 27 65 122
742 1 2 27 27 64 66
743 1 2 27 27 66 121
744 1 2 27 27 66 123
745 1 2 27 27 66 124
746 1 2 27 27 66 122
747 1 2 27 27 64 121
748 1 2 27 27 64 123
749 1 2 27 27 64 124
750 1 2 27 27 64 122
751 1 2 27 27 121 123
752 1 2 27 27 121 124
753 1 2 27 27 121 122
754 1 2 27 27 123 124
755 1 2 27 27 122 123
756 1 2 27 27 122 124
757 1 2 28 28 121 123
758 1 2 28 28 121 124
759 1 2 28 28 121 122
760 1 2 28 28 81 121
761 1 2 28 28 83 121
762 1 2 28 28 84 121
763 1 2 28 28 82 121
764 1 2 28 28 123 124
765 1 2 28 28 122 123
766 1 2 28 28 81 123
767 1 2 28 28 83 123
768 1 2 28 28 84 123
769 1 2 28 28 82 123
770 1 2 28 28 122 124
771 1 2 28 28 81 124
772 1 2 28 28 83 124
773 1 2 28 28 84 124
774 1 2 28 28 82 124
775 1 2 28 28 81 122
776 1 2 28 28 83 122
777 1 2 28 28 84 122
778 1 2 28 28 82 122
779 1 2 28 28 81 83
780 1 2 28 28 81 84
781 1 2 28 28 81 82
782 1 2 28 28 83 84
783 1 2 28 28 82 83
784 1 2 28 28 82 84
785 1 2 29 29 64 66
786 1 2 29 29 22 64
787 1 2 29 29 21 64
788 1 2 29 29 64 122
789 1 2 29 29 64 124
790 1 2 29 29 64 106
791 1 2 29 29 64 105
792 1 2 29 29 22 66
793 1 2 29 29 21 66
794 1 2 29 29 66 122
795 1 2 29 29 66 124
796 1 2 29 29 66 106
797 1 2 29 29 66 105
798 1 2 29 29 21 22
799 1 2 29 29 22 122
800 1 2 29 29 22 124
801 1 2 29 29 22 106
802 1 2 29 29 22 105
803 1 2 29 29 21 122
804 1 2 29 29 21 124
805 1 2 29 29 21 106
806 1 2 29 29 21 105
807 1 2 29 29 122 124
808 1 2 29 29 106 122
809 1 2 29 29 105 122
810 1 2 29 29 106 124
811 1 2 29 29 105 124
812 1 2 29 29 105 106
813 1 2 30 30 122 124
814 1 2 30 30 106 122
815 1 2 30 30 105 122
816 1 2 30 30 82 122
817 1 2 30 30 84 122
818 1 2 30 30 40 122
819 1 2 30 30 39 122
820 1 2 30 30 106 124
821 1 2 30 30 105 124
822 1 2 30 30 82 124
823 1 2 30 30 84 124
824 1 2 30 30 40 124
825 1 2 30 30 39 124
826 1 2 30 30 105 106
827 1 2 30 30 82 106
828 1 2 30 30 84 106
829 1 2 30 30 40 106
830 1 2 30 30 39 106
831 1 2 30 30 82 105
832 1 2 30 30 84 105
833 1 2 30 30 40 105
834 1 2 30 30 39 105
835 1 2 30 30 82 84
836 1 2 30 30 40 82
837 1 2 30 30 39 82
838 1 2 30 30 40 84
839 1 2 30 30 39 84
840 1 2 30 30 39 40
841 1 2 31 31 13 14
842 1 2 31 31 13 67
843 1 2 31 31 13 65
844 1 2 31 31 13 97
845 1 2 31 31 13 98
846 1 2 31 31 13 125
847 1 2 31 31 13 123
848 1 2 31 31 14 67
849 1 2 31 31 14 65
850 1 2 31 31 14 97
851 1 2 31 31 14 98
852 1 2 31 31 14 125
853 1 2 31 31 14 123
854 1 2 31 31 65 67
855 1 2 31 31 67 97
856 1 2 31 31 67 98
857 1 2 31 31 67 125
858 1 2 31 31 67 123
859 1 2 31 31 65 97
860 1 2 31 31 65 98
861 1 2 31 31 65 125
862 1 2 31 31 65 123
863 1 2 31 31 97 98
864 1 2 31 31 97 125
865 1 2 31 31 97 123
866 1 2 31 31 98 125
867 1 2 31 31 98 123
868 1 2 31 31 123 125
869 1 2 32 32 97 98
870 1 2 32 32 97 125
871 1 2 32 32 97 123
872 1 2 32 32 31 97
873 1 2 32 32 32 97
874 1 2 32 32 85 97
875 1 2 32 32 83 97
876 1 2 32 32 98 125
877 1 2 32 32 98 123
878 1 2 32 32 31 98
879 1 2 32 32 32 98
880 1 2 32 32 85 98
881 1 2 32 32 83 98
882 1 2 32 32 123 125
883 1 2 32 32 31 125
884 1 2 32 32 32 125
885 1 2 32 32 85 125
886 1 2 32 32 83 125
887 1 2 32 32 31 123
888 1 2 32 32 32 123
889 1 2 32 32 85 123
890 1 2 32 32 83 123
891 1 2 32 32 31 32
892 1 2 32 32 31 85
893 1 2 32 32 31 83
894 1 2 32 32 32 85
895 1 2 32 32 32 83
896 1 2 32 32 83 85
897 1 2 33 33 65 67
898 1 2 33 33 65 68
899 1 2 33 33 65 66
900 1 2 33 33 65 123
901 1 2 33 33 65 125
902 1 2 33 33 65 126
903 1 2 33 33 65 124
904 1 2 33 33 67 68
905 1 2 33 33 66 67
906 1 2 33 33 67 123
907 1 2 33 33 67 125
908 1 2 33 33 67 126
909 1 2 33 33 67 124
910 1 2 33 33 66 68
911 1 2 33 33 68 123
912 1 2 33 33 68 125
913 1 2 33 33 68 126
914 1 2 33 33 68 124
915 1 2 33 33 66 123
916 1 2 33 33 66 125
917 1 2 33 33 66 126
918 1 2 33 33 66 124
919 1 2 33 33 123 125
920 1 2 33 33 123 126
921 1 2 33 33 123 124
922 1 2 33 33 125 126
923 1 2 33 33 124 125
924 1 2 33 33 124 126
925 1 2 34 34 123 125
926 1 2 34 34 123 126
927 1 2 34 34 123 124
928 1 2 34 34 83 123
929 1 2 34 34 85 123
930 1 2 34 34 86 123
931 1 2 34 34 84 123
932 1 2 34 34 125 126
933 1 2 34 34 124 125
934 1 2 34 34 83 125
935 1 2 34 34 85 125
936 1 2 34 34 86 125
937 1 2 34 34 84 125
938 1 2 34 34 124 126
939 1 2 34 34 83 126
940 1 2 34 34 85 126
941 1 2 34 34 86 126
942 1 2 34 34 84 126
943 1 2 34 34 83 124
944 1 2 34 34 85 124
945 1 2 34 34 86 124
946 1 2 34 34 84 124
947 1 2 34 34 83 85
948 1 2 34 34 83 86
949 1 2 34 34 83 84
950 1 2 34 34 85 86
951 1 2 34 34 84 85
952 1 2 34 34 84 86
953 1 2 35 35 66 68
954 1 2 35 35 23 66
955 1 2 35 35 22 66
956 1 2 35 35 66 124
957 1 2 35 35 66 126
958 1 2 35 35 66 107
959 1 2 35 35 66 106
960 1 2 35 35 23 68
961 1 2 35 35 22 68
962 1 2 35 35 68 124
963 1 2 35 35 68 126
964 1 2 35 35 68 107
965 1 2 35 35 68 106
966 1 2 35 35 22 23
967 1 2 35 35 23 124
968 1 2 35 35 23 126
969 1 2 35 35 23 107
970 1 2 35 35 23 106
971 1 2 35 35 22 124
972 1 2 35 35 22 126
973 1 2 35 35 22 107
974 1 2 35 35 22 106
975 1 2 35 35 124 126
976 1 2 35 35 107 124
977 1 2 35 35 106 124
978 1 2 35 35 107 126
979 1 2 35 35 106 126
980 1 2 35 35 106 107
981 1 2 36 36 124 126
982 1 2 36 36 107 124
983 1 2 36 36 106 124
984 1 2 36 36 84 124
985 1 2 36 36 86 124
986 1 2 36 36 41 124
987 1 2 36 36 40 124
988 1 2 36 36 107 126
989 1 2 36 36 106 126
990 1 2 36 36 84 126
991 1 2 36 36 86 126
992 1 2 36 36 41 126
993 1 2 36 36 40 126
994 1 2 36 36 106 107
995 1 2 36 36 84 107
996 1 2 36 36 86 107
997 1 2 36 36 41 107
998 1 2 36 36 40 107
999 1 2 36 36 84 106
1000 1 2 36 36 86 106
1001 1 2 36 36 41 106
1002 1 2 36 36 40 106
1003 1 2 36 36 84 86
1004 1 2 36 36 41 84
1005 1 2 36 36 40 84
1006 1 2 36 36 41 86
1007 1 2 36 36 40 86
1008 1 2 36 36 40 41
1009 1 2 37 37 14 15
1010 1 2 37 37 14 69
1011 1 2 37 37 14 67
1012 1 2 37 37 14 98
1013 1 2 37 37 14 99
1014 1 2 37 37 14 127
1015 1 2 37 37 14 125
1016 1 2 37 37 15 69
1017 1 2 37 37 15 67
1018 1 2 37 37 15 98
1019 1 2 37 37 15 99
1020 1 2 37 37 15 127
1021 1 2 37 37 15 125
1022 1 2 37 37 67 69
1023 1 2 37 37 69 98
1024 1 2 37 37 69 99
1025 1 2 37 37 69 127
1026 1 2 37 37 69 125
1027 1 2 37 37 67 98
1028 1 2 37 37 67 99
1029 1 2 37 37 67 127
1030 1 2 37 37 67 125
1031 1 2 37 37 98 99
1032 1 2 37 37 98 127
1033 1 2 37 37 98 125
1034 1 2 37 37 99 127
1035 1 2 37 37 99 125
1036 1 2 37 37 125 127
1037 1 2 38 38 98 99
1038 1 2 38 38 98 127
1039 1 2 38 38 98 125
1040 1 2 38 38 32 98
1041 1 2 38 38 33 98
1042 1 2 38 38 87 98
1043 1 2 38 38 85 98
1044 1 2 38 38 99 127
1045 1 2 38 38 99 125
1046 1 2 38 38 32 99
1047 1 2 38 38 33 99
1048 1 2 38 38 87 99
1049 1 2 38 38 85 99
1050 1 2 38 38 125 127
1051 1 2 38 38 32 127
1052 1 2 38 38 33 127
1053 1 2 38 38 87 127
1054 1 2 38 38 85 127
1055 1 2 38 38 32 125
1056 1 2 38 38 33 125
1057 1 2 38 38 87 125
1058 1 2 38 38 85 125
1059 1 2 38 38 32 33
1060 1 2 38 38 32 87
1061 1 2 38 38 32 85
1062 1 2 38 38 33 87
1063 1 2 38 38 33 85
1064 1 2 38 38 85 87
1065 1 2 39 39 67 69
1066 1 2 39 39 67 70
1067 1 2 39 39 67 68
1068 1 2 39 39 67 125
1069 1 2 39 39 67 127
1070 1 2 39 39 67 128
1071 1 2 39 39 67 126
1072 1 2 39 39 69 70
1073 1 2 39 39 68 69
1074 1 2 39 39 69 125
1075 1 2 39 39 69 127
1076 1 2 39 39 69 128
1077 1 2 39 39 69 126
1078 1 2 39 39 68 70
1079 1 2 39 39 70 125
1080 1 2 39 39 70 127
1081 1 2 39 39 70 128
1082 1 2 39 39 70 126
1083 1 2 39 39 68 125
1084 1 2 39 39 68 127
1085 1 2 39 39 68 128
1086 1 2 39 39 68 126
1087 1 2 39 39 125 127
1088 1 2 39 39 125 128
1089 1 2 39 39 125 126
1090 1 2 39 39 127 128
1091 1 2 39 39 126 127
1092 1 2 39 39 126 128
1093 1 2 40 40 125 127
1094 1 2 40 40 125 128
1095 1 2 40 40 125 126
1096 1 2 40 40 85 125
1097 1 2 40 40 87 125
1098 1 2 40 40 88 125
1099 1 2 40 40 86 125
1100 1 2 40 40 127 128
1101 1 2 40 40 126 127
1102 1 2 40 40 85 127
1103 1 2 40 40 87 127
1104 1 2 40 40 88 127
1105 1 2 40 40 86 127
1106 1 2 40 40 126 128
1107 1 2 40 40 85 128
1108 1 2 40 40 87 128
1109 1 2 40 40 88 128
1110 1 2 40 40 86 128
1111 1 2 40 40 85 126
1112 1 2 40 40 87 126
1113 1 2 40 40 88 126
1114 1 2 40 40 86 126
1115 1 2 40 40 85 87
1116 1 2 40 40 85 88
1117 1 2 40 40 85 86
1118 1 2 40 40 87 88
1119 1 2 40 40 86 87
1120 1 2 40 40 86 88
1121 1 2 41 41 68 70
1122 1 2 41 41 24 68
1123 1 2 41 41 23 68
1124 1 2 41 41 68 126
1125 1 2 41 41 68 128
1126 1 2 41 41 68 108
1127 1 2 41 41 68 107
1128 1 2 41 41 24 70
1129 1 2 41 41 23 70
1130 1 2 41 41 70 126
1131 1 2 41 41 70 128
1132 1 2 41 41 70 108
1133 1 2 41 41 70 107
1134 1 2 41 41 23 24
1135 1 2 41 41 24 126
1136 1 2 41 41 24 128
1137 1 2 41 41 24 108
1138 1 2 41 41 24 107
1139 1 2 41 41 23 126
1140 1 2 41 41 23 128
1141 1 2 41 41 23 108
1142 1 2 41 41 23 107
1143 1 2 41 41 126 128
1144 1 2 41 41 108 126
1145 1 2 41 41 107 126
1146 1 2 41 41 108 128
1147 1 2 41 41 107 128
1148 1 2 41 41 107 108
1149 1 2 42 42 126 128
1150 1 2 42 42 108 126
1151 1 2 42 42 107 126
1152 1 2 42 42 86 126
1153 1 2 42 42 88 126
1154 1 2 42 42 42 126
1155 1 2 42 42 41 126
1156 1 2 42 42 108 128
1157 1 2 42 42 107 128
1158 1 2 42 42 86 128
1159 1 2 42 42 88 128
1160 1 2 42 42 42 128
1161 1 2 42 42 41 128
1162 1 2 42 42 107 108
1163 1 2 42 42 86 108
1164 1 2 42 42 88 108
1165 1 2 42 42 42 108
1166 1 2 42 42 41 108
1167 1 2 42 42 86 107
1168 1 2 42 42 88 107
1169 1 2 42 42 42 107
1170 1 2 42 42 41 107
1171 1 2 42 42 86 88
1172 1 2 42 42 42 86
1173 1 2 42 42 41 86
1174 1 2 42 42 42 88
1175 1 2 42 42 41 88
1176 1 2 42 42 41 42
1177 1 2 43 43 15 16
1178 1 2 43 43 15 71
1179 1 2 43 43 15 69
1180 1 2 43 43 15 99
1181 1 2 43 43 15 100
1182 1 2 43 43 15 129
1183 1 2 43 43 15 127
1184 1 2 43 43 16 71
1185 1 2 43 43 16 69
1186 1 2 43 43 16 99
1187 1 2 43 43 16 100
1188 1 2 43 43 16 129
1189 1 2 43 43 16 127
1190 1 2 43 43 69 71
1191 1 2 43 43 71 99
1192 1 2 43 43 71 100
1193 1 2 43 43 71 129
1194 1 2 43 43 71 127
1195 1 2 43 43 69 99
1196 1 2 43 43 69 100
1197 1 2 43 43 69 129
1198 1 2 43 43 69 127
1199 1 2 43 43 99 100
1200 1 2 43 43 99 129
1201 1 2 43 43 99 127
1202 1 2 43 43 100 129
1203 1 2 43 43 100 127
1204 1 2 43 43 127 129
1205 1 2 44 44 99 100
1206 1 2 44 44 99 129
1207 1 2 44 44 99 127
1208 1 2 44 44 33 99
1209 1 2 44 44 34 99
1210 1 2 44 44 89 99
1211 1 2 44 44 87 99
1212 1 2 44 44 100 129
1213 1 2 44 44 100 127
1214 1 2 44 44 33 100
1215 1 2 44 44 34 100
1216 1 2 44 44 89 100
1217 1 2 44 44 87 100
1218 1 2 44 44 127 129
1219 1 2 44 44 33 129
1220 1 2 44 44 34 129
1221 1 2 44 44 89 129
1222 1 2 44 44 87 129
1223 1 2 44 44 33 127
1224 1 2 44 44 34 127
1225 1 2 44 44 89 127
1226 1 2 44 44 87 127
1227 1 2 44 44 33 34
1228 1 2 44 44 33 89
1229 1 2 44 44 33 87
1230 1 2 44 44 34 89
1231 1 2 44 44 34 87
1232 1 2 44 44 87 89
1233 1 2 45 45 69 71
1234 1 2 45 45 69 72
1235 1 2 45 45 69 70
1236 1 2 45 45 69 127
1237 1 2 45 45 69 129
1238 1 2 45 45 69 130
1239 1 2 45 45 69 128
1240 1 2 45 45 71 72
1241 1 2 45 45 70 71
1242 1 2 45 45 71 127
1243 1 2 45 45 71 129
1244 1 2 45 45 71 130
1245 1 2 45 45 71 128
1246 1 2 45 45 70 72
1247 1 2 45 45 72 127
1248 1 2 45 45 72 129
1249 1 2 45 45 72 130
1250 1 2 45 45 72 128
1251 1 2 45 45 70 127
1252 1 2 45 45 70 129
1253 1 2 45 45 70 130
1254 1 2 45 45 70 128
1255 1 2 45 45 127 129
1256 1 2 45 45 127 130
1257 1 2 45 45 127 128
1258 1 2 45 45 129 130
1259 1 2 45 45 128 129
1260 1 2 45 45 128 130
1261 1 2 46 46 127 129
1262 1 2 46 46 127 130
1263 1 2 46 46 127 128
1264 1 2 46 46 87 127
1265 1 2 46 46 89 127
1266 1 2 46 46 90 127
1267 1 2 46 46 88 127
1268 1 2 46 46 129 130
1269 1 2 46 46 128 129
1270 1 2 46 46 87 129
1271 1 2 46 46 89 129
1272 1 2 46 46 90 129
1273 1 2 46 46 88 129
1274 1 2 46 46 128 130
1275 1 2 46 46 87 130
1276 1 2 46 46 89 130
1277 1 2 46 46 90 130
1278 1 2 46 46 88 130
1279 1 2 46 46 87 128
1280 1 2 46 46 89 128
1281 1 2 46 46 90 128
1282 1 2 46 46 88 128
1283 1 2 46 46 87 89
1284 1 2 46 46 87 90
1285 1 2 46 46 87 88
1286 1 2 46 46 89 90
1287 1 2 46 46 88 89
1288 1 2 46 46 88 90
1289 1 2 47 47 70 72
1290 1 2 47 47 25 70
1291 1 2 47 47 24 70
1292 1 2 47 47 70 128
1293 1 2 47 47 70 130
1294 1 2 47 47 70 109
1295 1 2 47 47 70 108
1296 1 2 47 47 25 72
1297 1 2 47 47 24 72
1298 1 2 47 47 72 128
1299 1 2 47 47 72 130
1300 1 2 47 47 72 109
1301 1 2 47 47 72 108
1302 1 2 47 47 24 25
1303 1 2 47 47 25 128
1304 1 2 47 47 25 130
1305 1 2 47 47 25 109
1306 1 2 47 47 25 108
1307 1 2 47 47 24 128
1308 1 2 47 47 24 130
1309 1 2 47 47 24 109
1310 1 2 47 47 24 108
1311 1 2 47 47 128 130
1312 1 2 47 47 109 128
1313 1 2 47 47 108 128
1314 1 2 47 47 109 130
1315 1 2 47 47 108 130
1316 1 2 47 47 108 109
1317 1 2 48 48 128 130
1318 1 2 48 48 109 128
1319 1 2 48 48 108 128
1320 1 2 48 48 88 128
1321 1 2 48 48 90 128
1322 1 2 48 48 43 128
1323 1 2 48 48 42 128
1324 1 2 48 48 109 130
1325 1 2 48 48 108 130
1326 1 2 48 48 88 130
1327 1 2 48 48 90 130
1328 1 2 48 48 43 130
1329 1 2 48 48 42 130
1330 1 2 48 48 108 109
1331 1 2 48 48 88 109
1332 1 2 48 48 90 109
1333 1 2 48 48 43 109
1334 1 2 48 48 42 109
1335 1 2 48 48 88 108
1336 1 2 48 48 90 108
1337 1 2 48 48 43 108
1338 1 2 48 48 42 108
1339 1 2 48 48 88 90
1340 1 2 48 48 43 88
1341 1 2 48 48 42 88
1342 1 2 48 48 43 90
1343 1 2 48 48 42 90
1344 1 2 48 48 42 43
1345 1 2 49 49 16 17
1346 1 2 49 49 16 73
1347 1 2 49 49 16 71
1348 1 2 49 49 16 100
1349 1 2 49 49 16 101
1350 1 2 49 49 16 131
1351 1 2 49 49 16 129
1352 1 2 49 49 17 73
1353 1 2 49 49 17 71
1354 1 2 49 49 17 100
1355 1 2 49 49 17 101
1356 1 2 49 49 17 131
1357 1 2 49 49 17 129
1358 1 2 49 49 71 73
1359 1 2 49 49 73 100
1360 1 2 49 49 73 101
1361 1 2 49 49 73 131
1362 1 2 49 49 73 129
1363 1 2 49 49 71 100
1364 1 2 49 49 71 101
1365 1 2 49 49 71 131
1366 1 2 49 49 71 129
1367 1 2 49 49 100 101
1368 1 2 49 49 100 131
1369 1 2 49 49 100 129
1370 1 2 49 49 101 131
1371 1 2 49 49 101 129
1372 1 2 49 49 129 131
1373 1 2 50 50 100 101
1374 1 2 50 50 100 131
1375 1 2 50 50 100 129
1376 1 2 50 50 34 100
1377 1 2 50 50 35 100
1378 1 2 50 50 91 100
1379 1 2 50 50 89 100
1380 1 2 50 50 101 131
1381 1 2 50 50 101 129
1382 1 2 50 50 34 101
1383 1 2 50 50 35 101
1384 1 2 50 50 91 101
1385 1 2 50 50 89 101
1386 1 2 50 50 129 131
1387 1 2 50 50 34 131
1388 1 2 50 50 35 131
1389 1 2 50 50 91 131
1390 1 2 50 50 89 131
1391 1 2 50 50 34 129
1392 1 2 50 50 35 129
1393 1 2 50 50 91 129
1394 1 2 50 50 89 129
1395 1 2 50 50 34 35
1396 1 2 50 50 34 91
1397 1 2 50 50 34 89
1398 1 2 50 50 35 91
1399 1 2 50 50 35 89
1400 1 2 50 50 89 91
1401 1 2 51 51 71 73
1402 1 2 51 51 71 74
1403 1 2 51 51 71 72
1404 1 2 51 51 71 129
1405 1 2 51 51 71 131
1406 1 2 51 51 71 132
1407 1 2 51 51 71 130
1408 1 2 51 51 73 74
1409 1 2 51 51 72 73
1410 1 2 51 51 73 129
1411 1 2 51 51 73 131
1412 1 2 51 51 73 132
1413 1 2 51 51 73 130
1414 1 2 51 51 72 74
1415 1 2 51 51 74 129
1416 1 2 51 51 74 131
1417 1 2 51 51 74 132
1418 1 2 51 51 74 130
1419 1 2 51 51 72 129
1420 1 2 51 51 72 131
1421 1 2 51 51 72 132
1422 1 2 51 51 72 130
1423 1 2 51 51 129 131
1424 1 2 51 51 129 132
1425 1 2 51 51 129 130
1426 1 2 51 51 131 132
1427 1 2 51 51 130 131
1428 1 2 51 51 130 132
1429 1 2 52 52 129 131
1430 1 2 52 52 129 132
1431 1 2 52 52 129 130
1432 1 2 52 52 89 129
1433 1 2 52 52 91 129
1434 1 2 52 52 92 129
1435 1 2 52 52 90 129
1436 1 2 52 52 131 132
1437 1 2 52 52 130 131
1438 1 2 52 52 89 131
1439 1 2 52 52 91 131
1440 1 2 52 52 92 131
1441 1 2 52 52 90 131
1442 1 2 52 52 130 132
1443 1 2 52 52 89 132
1444 1 2 52 52 91 132
1445 1 2 52 52 92 132
1446 1 2 52 52 90 132
1447 1 2 52 52 89 130
1448 1 2 52 52 91 130
1449 1 2 52 52 92 130
1450 1 2 52 52 90 130
1451 1 2 52 52 89 91
1452 1 2 52 52 89 92
1453 1 2 52 52 89 90
1454 1 2 52 52 91 92
1455 1 2 52 52 90 91
1456 1 2 52 52 90 92
1457 1 2 53 53 72 74
1458 1 2 53 53 26 72
1459 1 2 53 53 25 72
1460 1 2 53 53 72 130
1461 1 2 53 53 72 132
1462 1 2 53 53 72 110
1463 1 2 53 53 72 109
1464 1 2 53 53 26 74
1465 1 2 53 53 25 74
1466 1 2 53 53 74 130
1467 1 2 53 53 74 132
1468 1 2 53 53 74 110
1469 1 2 53 53 74 109
1470 1 2 53 53 25 26
1471 1 2 53 53 26 130
1472 1 2 53 53 26 132
1473 1 2 53 53 26 110
1474 1 2 53 53 26 109
1475 1 2 53 53 25 130
1476 1 2 53 53 25 132
1477 1 2 53 53 25 110
1478 1 2 53 53 25 109
1479 1 2 53 53 130 132
1480 1 2 53 53 110 130
1481 1 2 53 53 109 130
1482 1 2 53 53 110 132
1483 1 2 53 53 109 132
1484 1 2 53 53 109 110
1485 1 2 54 54 130 132
1486 1 2 54 54 110 130
1487 1 2 54 54 109 130
1488 1 2 54 54 90 130
1489 1 2 54 54 92 130
1490 1 2 54 54 44 130
1491 1 2 54 54 43 130
1492 1 2 54 54 110 132
1493 1 2 54 54 109 132
1494 1 2 54 54 90 132
1495 1 2 54 54 92 132
1496 1 2 54 54 44 132
1497 1 2 54 54 43 132
1498 1 2 54 54 109 110
1499 1 2 54 54 90 110
1500 1 2 54 54 92 110
1501 1 2 54 54 44 110
1502 1 2 54 54 43 110
1503 1 2 54 54 90 109
1504 1 2 54 54 92 109
1505 1 2 54 54 44 109
1506 1 2 54 54 43 109
1507 1 2 54 54 90 92
1508 1 2 54 54 44 90
1509 1 2 54 54 43 90
1510 1 2 54 54 44 92
1511 1 2 54 54 43 92
1512 1 2 54 54 43 44
1513 1 2 55 55 2 17
1514 1 2 55 55 17 47
1515 1 2 55 55 17 73
1516 1 2 55 55 17 101
1517 1 2 55 55 17 54
1518 1 2 55 55 17 113
1519 1 2 55 55 17 131
1520 1 2 55 55 2 47
1521 1 2 55 55 2 73
1522 1 2 55 55 2 101
1523 1 2 55 55 2 54
1524 1 2 55 55 2 113
1525 1 2 55 55 2 131
1526 1 2 55 55 47 73
1527 1 2 55 55 47 101
1528 1 2 55 55 47 54
1529 1 2 55 55 47 113
1530 1 2 55 55 47 131
1531 1 2 55 55 73 101
1532 1 2 55 55 54 73
1533 1 2 55 55 73 113
1534 1 2 55 55 73 131
1535 1 2 55 55 54 101
1536 1 2 55 55 101 113
1537 1 2 55 55 101 131
1538 1 2 55 55 54 113
1539 1 2 55 55 54 131
1540 1 2 55 55 113 131
1541 1 2 56 56 54 101
1542 1 2 56 56 101 113
1543 1 2 56 56 101 131
1544 1 2 56 56 35 101
1545 1 2 56 56 6 101
1546 1 2 56 56 51 101
1547 1 2 56 56 91 101
1548 1 2 56 56 54 113
1549 1 2 56 56 54 131
1550 1 2 56 56 35 54
1551 1 2 56 56 6 54
1552 1 2 56 56 51 54
1553 1 2 56 56 54 91
1554 1 2 56 56 113 131
1555 1 2 56 56 35 113
1556 1 2 56 56 6 113
1557 1 2 56 56 51 113
1558 1 2 56 56 91 113
1559 1 2 56 56 35 131
1560 1 2 56 56 6 131
1561 1 2 56 56 51 131
1562 1 2 56 56 91 131
1563 1 2 56 56 6 35
1564 1 2 56 56 35 51
1565 1 2 56 56 35 91
1566 1 2 56 56 6 51
1567 1 2 56 56 6 91
1568 1 2 56 56 51 91
1569 1 2 57 57 47 73
1570 1 2 57 57 48 73
1571 1 2 57 57 73 74
1572 1 2 57 57 73 131
1573 1 2 57 57 73 113
1574 1 2 57 57 73 114
1575 1 2 57 57 73 132
1576 1 2 57 57 47 48
1577 1 2 57 57 47 74
1578 1 2 57 57 47 131
1579 1 2 57 57 47 113
1580 1 2 57 57 47 114
1581 1 2 57 57 47 132
1582 1 2 57 57 48 74
1583 1 2 57 57 48 131
1584 1 2 57 57 48 113
1585 1 2 57 57 48 114
1586 1 2 57 57 48 132
1587 1 2 57 57 74 131
1588 1 2 57 57 74 113
1589 1 2 57 57 74 114
1590 1 2 57 57 74 132
1591 1 2 57 57 113 131
1592 1 2 57 57 114 131
1593 1 2 57 57 131 132
1594 1 2 57 57 113 114
1595 1 2 57 57 113 132
1596 1 2 57 57 114 132
1597 1 2 58 58 113 131
1598 1 2 58 58 114 131
1599 1 2 58 58 131 132
1600 1 2 58 58 91 131
1601 1 2 58 58 51 131
1602 1 2 58 58 52 131
1603 1 2 58 58 92 131
1604 1 2 58 58 113 114
1605 1 2 58 58 113 132
1606 1 2 58 58 91 113
1607 1 2 58 58 51 113
1608 1 2 58 58 52 113
1609 1 2 58 58 92 113
1610 1 2 58 58 114 132
1611 1 2 58 58 91 114
1612 1 2 58 58 51 114
1613 1 2 58 58 52 114
1614 1 2 58 58 92 114
1615 1 2 58 58 91 132
1616 1 2 58 58 51 132
1617 1 2 58 58 52 132
1618 1 2 58 58 92 132
1619 1 2 58 58 51 91
1620 1 2 58 58 52 91
1621 1 2 58 58 91 92
1622 1 2 58 58 51 52
1623 1 2 58 58 51 92
1624 1 2 58 58 52 92
1625 1 2 59 59 48 74
1626 1 2 59 59 3 74
1627 1 2 59 59 26 74
1628 1 2 59 59 74 132
1629 1 2 59 59 74 114
1630 1 2 59 59 56 74
1631 1 2 59 59 74 110
1632 1 2 59 59 3 48
1633 1 2 59 59 26 48
1634 1 2 59 59 48 132
1635 1 2 59 59 48 114
1636 1 2 59 59 48 56
1637 1 2 59 59 48 110
1638 1 2 59 59 3 26
1639 1 2 59 59 3 132
1640 1 2 59 59 3 114
1641 1 2 59 59 3 56
1642 1 2 59 59 3 110
1643 1 2 59 59 26 132
1644 1 2 59 59 26 114
1645 1 2 59 59 26 56
1646 1 2 59 59 26 110
1647 1 2 59 59 114 132
1648 1 2 59 59 56 132
1649 1 2 59 59 110 132
1650 1 2 59 59 56 114
1651 1 2 59 59 110 114
1652 1 2 59 59 56 110
1653 1 2 60 60 114 132
1654 1 2 60 60 56 132
1655 1 2 60 60 110 132
1656 1 2 60 60 92 132
1657 1 2 60 60 52 132
1658 1 2 60 60 7 132
1659 1 2 60 60 44 132
1660 1 2 60 60 56 114
1661 1 2 60 60 110 114
1662 1 2 60 60 92 114
1663 1 2 60 60 52 114
1664 1 2 60 60 7 114
1665 1 2 60 60 44 114
1666 1 2 60 60 56 110
1667 1 2 60 60 56 92
1668 1 2 60 60 52 56
1669 1 2 60 60 7 56
1670 1 2 60 60 44 56
1671 1 2 60 60 92 110
1672 1 2 60 60 52 110
1673 1 2 60 60 7 110
1674 1 2 60 60 44 110
1675 1 2 60 60 52 92
1676 1 2 60 60 7 92
1677 1 2 60 60 44 92
1678 1 2 60 60 7 52
1679 1 2 60 60 44 52
1680 1 2 60 60 7 44
$EndElements
