$MeshFormat
2.2 0 8
$EndMeshFormat
$PhysicalNames
64
1 1 "cell_0"
1 2 "cell_1"
1 3 "cell_2"
1 4 "cell_3"
1 5 "cell_4"
1 6 "cell_5"
1 7 "cell_6"
1 8 "cell_7"
1 9 "cell_8"
1 10 "cell_9"
1 11 "cell_10"
1 12 "cell_11"
1 13 "cell_12"
1 14 "cell_13"
1 15 "cell_14"
1 16 "cell_15"
1 17 "cell_16"
1 18 "cell_17"
1 19 "cell_18"
1 20 "cell_19"
1 21 "cell_20"
1 22 "cell_21"
1 23 "cell_22"
1 24 "cell_23"
1 25 "cell_24"
1 26 "cell_25"
1 27 "cell_26"
1 28 "cell_27"
1 29 "cell_28"
1 30 "cell_29"
1 31 "cell_30"
1 32 "cell_31"
1 33 "cell_32"
1 34 "cell_33"
1 35 "cell_34"
1 36 "cell_35"
1 37 "cell_36"
1 38 "cell_37"
1 39 "cell_38"
1 40 "cell_39"
1 41 "cell_40"
1 42 "cell_41"
1 43 "cell_42"
1 44 "cell_43"
1 45 "cell_44"
1 46 "cell_45"
1 47 "cell_46"
1 48 "cell_47"
1 49 "cell_48"
1 50 "cell_49"
1 51 "cell_50"
1 52 "cell_51"
1 53 "cell_52"
1 54 "cell_53"
1 55 "cell_54"
1 56 "cell_55"
1 57 "cell_56"
1 58 "cell_57"
1 59 "cell_58"
1 60 "cell_59"
1 61 "cell_60"
1 62 "cell_61"
1 63 "cell_62"
1 64 "cell_63"
$EndPhysicalNames
$Nodes
125
1 0 0 0
2 0 0 0.25
3 0 0 0.5
4 0 0 0.75
5 0 0 1
6 0 0.25 0
7 0 0.25 0.25
8 0 0.25 0.5
9 0 0.25 0.75
10 0 0.25 1
11 0 0.5 0
12 0 0.5 0.25
13 0 0.5 0.5
14 0 0.5 0.75
15 0 0.5 1
16 0 0.75 0
17 0 0.75 0.25
18 0 0.75 0.5
19 0 0.75 0.75
20 0 0.75 1
21 0 1 0
22 0 1 0.25
23 0 1 0.5
24 0 1 0.75
25 0 1 1
26 0.25 0 0
27 0.25 0 0.25
28 0.25 0 0.5
29 0.25 0 0.75
30 0.25 0 1
31 0.25 0.25 0
32 0.23951311 0.1937196635 0.2603069931
33 0.2774711219 0.3348063222 0.5441400564
34 0.2871527793 0.130172999 0.8314972468
35 0.25 0.25 1
36 0.25 0.5 0
37 0.287618193 0.4886822391 0.337984155
38 0.371614384 0.4106619528 0.6167044079
39 0.1270338187 0.4453400078 0.8339818673
40 0.25 0.5 1
41 0.25 0.75 0
42 0.1258454531 0.6677110086 0.1743882588
43 0.1982168187 0.7575491532 0.5683619132
44 0.2264677998 0.710033626 0.8024125695
45 0.25 0.75 1
46 0.25 1 0
47 0.25 1 0.25
48 0.25 1 0.5
49 0.25 1 0.75
50 0.25 1 1
51 0.5 0 0
52 0.5 0 0.25
53 0.5 0 0.5
54 0.5 0 0.75
55 0.5 0 1
56 0.5 0.25 0
57 0.6107967642 0.176988805 0.3322687413
58 0.5770402272 0.3388820886 0.5288687685
59 0.4266136032 0.1475548015 0.6810210576
60 0.5 0.25 1
61 0.5 0.5 0
62 0.565682361 0.3877569109 0.2810193452
63 0.4770956556 0.4874396854 0.463550589
64 0.3782184914 0.421829691 0.7252927042
65 0.5 0.5 1
66 0.5 0.75 0
67 0.5747015464 0.7883073278 0.3514022693
68 0.5769092961 0.7231556475 0.5732953264
69 0.493827306 0.6273230372 0.8278494559
70 0.5 0.75 1
71 0.5 1 0
72 0.5 1 0.25
73 0.5 1 0.5
74 0.5 1 0.75
75 0.5 1 1
76 0.75 0 0
77 0.75 0 0.25
78 0.75 0 0.5
79 0.75 0 0.75
80 0.75 0 1
81 0.75 0.25 0
82 0.8525663119 0.3633777761 0.2539530044
83 0.6903783108 0.1567186553 0.591355094
84 0.6959790449 0.3343274684 0.8083119067
85 0.75 0.25 1
86 0.75 0.5 0
87 0.7741834788 0.4612984165 0.1310902931
88 0.7690221143 0.4820500633 0.5601150146
89 0.8491663276 0.4822180249 0.8201724655
90 0.75 0.5 1
91 0.75 0.75 0
92 0.7696799769 0.6490077712 0.3472949681
93 0.6503095602 0.6328732397 0.5615592189
94 0.7614951454 0.6512349927 0.6992714013
95 0.75 0.75 1
96 0.75 1 0
97 0.75 1 0.25
98 0.75 1 0.5
99 0.75 1 0.75
100 0.75 1 1
101 1 0 0
102 1 0 0.25
103 1 0 0.5
104 1 0 0.75
105 1 0 1
106 1 0.25 0
107 1 0.25 0.25
108 1 0.25 0.5
109 1 0.25 0.75
110 1 0.25 1
111 1 0.5 0
112 1 0.5 0.25
113 1 0.5 0.5
114 1 0.5 0.75
115 1 0.5 1
116 1 0.75 0
117 1 0.75 0.25
118 1 0.75 0.5
119 1 0.75 0.75
120 1 0.75 1
121 1 1 0
122 1 1 0.25
123 1 1 0.5
124 1 1 0.75
125 1 1 1
$EndNodes
$Elements
1792
1 1 2 1 1 1 26
2 1 2 1 1 1 31
3 1 2 1 1 1 6
4 1 2 1 1 1 2
5 1 2 1 1 1 27
6 1 2 1 1 1 32
7 1 2 1 1 1 7
8 1 2 1 1 26 31
9 1 2 1 1 26 6
10 1 2 1 1 26 2
11 1 2 1 1 26 27
12 1 2 1 1 26 32
13 1 2 1 1 26 7
14 1 2 1 1 31 6
15 1 2 1 1 31 2
16 1 2 1 1 31 27
17 1 2 1 1 31 32
18 1 2 1 1 31 7
19 1 2 1 1 6 2
20 1 2 1 1 6 27
21 1 2 1 1 6 32
22 1 2 1 1 6 7
23 1 2 1 1 2 27
24 1 2 1 1 2 32
25 1 2 1 1 2 7
26 1 2 1 1 27 32
27 1 2 1 1 27 7
28 1 2 1 1 32 7
29 1 2 2 2 2 27
30 1 2 2 2 2 32
31 1 2 2 2 2 7
32 1 2 2 2 2 3
33 1 2 2 2 2 28
34 1 2 2 2 2 33
35 1 2 2 2 2 8
36 1 2 2 2 27 32
37 1 2 2 2 27 7
38 1 2 2 2 27 3
39 1 2 2 2 27 28
40 1 2 2 2 27 33
41 1 2 2 2 27 8
42 1 2 2 2 32 7
43 1 2 2 2 32 3
44 1 2 2 2 32 28
45 1 2 2 2 32 33
46 1 2 2 2 32 8
47 1 2 2 2 7 3
48 1 2 2 2 7 28
49 1 2 2 2 7 33
50 1 2 2 2 7 8
51 1 2 2 2 3 28
52 1 2 2 2 3 33
53 1 2 2 2 3 8
54 1 2 2 2 28 33
55 1 2 2 2 28 8
56 1 2 2 2 33 8
57 1 2 3 3 3 28
58 1 2 3 3 3 33
59 1 2 3 3 3 8
60 1 2 3 3 3 4
61 1 2 3 3 3 29
62 1 2 3 3 3 34
63 1 2 3 3 3 9
64 1 2 3 3 28 33
65 1 2 3 3 28 8
66 1 2 3 3 28 4
67 1 2 3 3 28 29
68 1 2 3 3 28 34
69 1 2 3 3 28 9
70 1 2 3 3 33 8
71 1 2 3 3 33 4
72 1 2 3 3 33 29
73 1 2 3 3 33 34
74 1 2 3 3 33 9
75 1 2 3 3 8 4
76 1 2 3 3 8 29
77 1 2 3 3 8 34
78 1 2 3 3 8 9
79 1 2 3 3 4 29
80 1 2 3 3 4 34
81 1 2 3 3 4 9
82 1 2 3 3 29 34
83 1 2 3 3 29 9
84 1 2 3 3 34 9
85 1 2 4 4 4 29
86 1 2 4 4 4 34
87 1 2 4 4 4 9
88 1 2 4 4 4 5
89 1 2 4 4 4 30
90 1 2 4 4 4 35
91 1 2 4 4 4 10
92 1 2 4 4 29 34
93 1 2 4 4 29 9
94 1 2 4 4 29 5
95 1 2 4 4 29 30
96 1 2 4 4 29 35
97 1 2 4 4 29 10
98 1 2 4 4 34 9
99 1 2 4 4 34 5
100 1 2 4 4 34 30
101 1 2 4 4 34 35
102 1 2 4 4 34 10
103 1 2 4 4 9 5
104 1 2 4 4 9 30
105 1 2 4 4 9 35
106 1 2 4 4 9 10
107 1 2 4 4 5 30
108 1 2 4 4 5 35
109 1 2 4 4 5 10
110 1 2 4 4 30 35
111 1 2 4 4 30 10
112 1 2 4 4 35 10
113 1 2 5 5 6 31
114 1 2 5 5 6 36
115 1 2 5 5 6 11
116 1 2 5 5 6 7
117 1 2 5 5 6 32
118 1 2 5 5 6 37
119 1 2 5 5 6 12
120 1 2 5 5 31 36
121 1 2 5 5 31 11
122 1 2 5 5 31 7
123 1 2 5 5 31 32
124 1 2 5 5 31 37
125 1 2 5 5 31 12
126 1 2 5 5 36 11
127 1 2 5 5 36 7
128 1 2 5 5 36 32
129 1 2 5 5 36 37
130 1 2 5 5 36 12
131 1 2 5 5 11 7
132 1 2 5 5 11 32
133 1 2 5 5 11 37
134 1 2 5 5 11 12
135 1 2 5 5 7 32
136 1 2 5 5 7 37
137 1 2 5 5 7 12
138 1 2 5 5 32 37
139 1 2 5 5 32 12
140 1 2 5 5 37 12
141 1 2 6 6 7 32
142 1 2 6 6 7 37
143 1 2 6 6 7 12
144 1 2 6 6 7 8
145 1 2 6 6 7 33
146 1 2 6 6 7 38
147 1 2 6 6 7 13
148 1 2 6 6 32 37
149 1 2 6 6 32 12
150 1 2 6 6 32 8
151 1 2 6 6 32 33
152 1 2 6 6 32 38
153 1 2 6 6 32 13
154 1 2 6 6 37 12
155 1 2 6 6 37 8
156 1 2 6 6 37 33
157 1 2 6 6 37 38
158 1 2 6 6 37 13
159 1 2 6 6 12 8
160 1 2 6 6 12 33
161 1 2 6 6 12 38
162 1 2 6 6 12 13
163 1 2 6 6 8 33
164 1 2 6 6 8 38
165 1 2 6 6 8 13
166 1 2 6 6 33 38
167 1 2 6 6 33 13
168 1 2 6 6 38 13
169 1 2 7 7 8 33
170 1 2 7 7 8 38
171 1 2 7 7 8 13
172 1 2 7 7 8 9
173 1 2 7 7 8 34
174 1 2 7 7 8 39
175 1 2 7 7 8 14
176 1 2 7 7 33 38
177 1 2 7 7 33 13
178 1 2 7 7 33 9
179 1 2 7 7 33 34
180 1 2 7 7 33 39
181 1 2 7 7 33 14
182 1 2 7 7 38 13
183 1 2 7 7 38 9
184 1 2 7 7 38 34
185 1 2 7 7 38 39
186 1 2 7 7 38 14
187 1 2 7 7 13 9
188 1 2 7 7 13 34
189 1 2 7 7 13 39
190 1 2 7 7 13 14
191 1 2 7 7 9 34
192 1 2 7 7 9 39
193 1 2 7 7 9 14
194 1 2 7 7 34 39
195 1 2 7 7 34 14
196 1 2 7 7 39 14
197 1 2 8 8 9 34
198 1 2 8 8 9 39
199 1 2 8 8 9 14
200 1 2 8 8 9 10
201 1 2 8 8 9 35
202 1 2 8 8 9 40
203 1 2 8 8 9 15
204 1 2 8 8 34 39
205 1 2 8 8 34 14
206 1 2 8 8 34 10
207 1 2 8 8 34 35
208 1 2 8 8 34 40
209 1 2 8 8 34 15
210 1 2 8 8 39 14
211 1 2 8 8 39 10
212 1 2 8 8 39 35
213 1 2 8 8 39 40
214 1 2 8 8 39 15
215 1 2 8 8 14 10
216 1 2 8 8 14 35
217 1 2 8 8 14 40
218 1 2 8 8 14 15
219 1 2 8 8 10 35
220 1 2 8 8 10 40
221 1 2 8 8 10 15
222 1 2 8 8 35 40
223 1 2 8 8 35 15
224 1 2 8 8 40 15
225 1 2 9 9 11 36
226 1 2 9 9 11 41
227 1 2 9 9 11 16
228 1 2 9 9 11 12
229 1 2 9 9 11 37
230 1 2 9 9 11 42
231 1 2 9 9 11 17
232 1 2 9 9 36 41
233 1 2 9 9 36 16
234 1 2 9 9 36 12
235 1 2 9 9 36 37
236 1 2 9 9 36 42
237 1 2 9 9 36 17
238 1 2 9 9 41 16
239 1 2 9 9 41 12
240 1 2 9 9 41 37
241 1 2 9 9 41 42
242 1 2 9 9 41 17
243 1 2 9 9 16 12
244 1 2 9 9 16 37
245 1 2 9 9 16 42
246 1 2 9 9 16 17
247 1 2 9 9 12 37
248 1 2 9 9 12 42
249 1 2 9 9 12 17
250 1 2 9 9 37 42
251 1 2 9 9 37 17
252 1 2 9 9 42 17
253 1 2 10 10 12 37
254 1 2 10 10 12 42
255 1 2 10 10 12 17
256 1 2 10 10 12 13
257 1 2 10 10 12 38
258 1 2 10 10 12 43
259 1 2 10 10 12 18
260 1 2 10 10 37 42
261 1 2 10 10 37 17
262 1 2 10 10 37 13
263 1 2 10 10 37 38
264 1 2 10 10 37 43
265 1 2 10 10 37 18
266 1 2 10 10 42 17
267 1 2 10 10 42 13
268 1 2 10 10 42 38
269 1 2 10 10 42 43
270 1 2 10 10 42 18
271 1 2 10 10 17 13
272 1 2 10 10 17 38
273 1 2 10 10 17 43
274 1 2 10 10 17 18
275 1 2 10 10 13 38
276 1 2 10 10 13 43
277 1 2 10 10 13 18
278 1 2 10 10 38 43
279 1 2 10 10 38 18
280 1 2 10 10 43 18
281 1 2 11 11 13 38
282 1 2 11 11 13 43
283 1 2 11 11 13 18
284 1 2 11 11 13 14
285 1 2 11 11 13 39
286 1 2 11 11 13 44
287 1 2 11 11 13 19
288 1 2 11 11 38 43
289 1 2 11 11 38 18
290 1 2 11 11 38 14
291 1 2 11 11 38 39
292 1 2 11 11 38 44
293 1 2 11 11 38 19
294 1 2 11 11 43 18
295 1 2 11 11 43 14
296 1 2 11 11 43 39
297 1 2 11 11 43 44
298 1 2 11 11 43 19
299 1 2 11 11 18 14
300 1 2 11 11 18 39
301 1 2 11 11 18 44
302 1 2 11 11 18 19
303 1 2 11 11 14 39
304 1 2 11 11 14 44
305 1 2 11 11 14 19
306 1 2 11 11 39 44
307 1 2 11 11 39 19
308 1 2 11 11 44 19
309 1 2 12 12 14 39
310 1 2 12 12 14 44
311 1 2 12 12 14 19
312 1 2 12 12 14 15
313 1 2 12 12 14 40
314 1 2 12 12 14 45
315 1 2 12 12 14 20
316 1 2 12 12 39 44
317 1 2 12 12 39 19
318 1 2 12 12 39 15
319 1 2 12 12 39 40
320 1 2 12 12 39 45
321 1 2 12 12 39 20
322 1 2 12 12 44 19
323 1 2 12 12 44 15
324 1 2 12 12 44 40
325 1 2 12 12 44 45
326 1 2 12 12 44 20
327 1 2 12 12 19 15
328 1 2 12 12 19 40
329 1 2 12 12 19 45
330 1 2 12 12 19 20
331 1 2 12 12 15 40
332 1 2 12 12 15 45
333 1 2 12 12 15 20
334 1 2 12 12 40 45
335 1 2 12 12 40 20
336 1 2 12 12 45 20
337 1 2 13 13 16 41
338 1 2 13 13 16 46
339 1 2 13 13 16 21
340 1 2 13 13 16 17
341 1 2 13 13 16 42
342 1 2 13 13 16 47
343 1 2 13 13 16 22
344 1 2 13 13 41 46
345 1 2 13 13 41 21
346 1 2 13 13 41 17
347 1 2 13 13 41 42
348 1 2 13 13 41 47
349 1 2 13 13 41 22
350 1 2 13 13 46 21
351 1 2 13 13 46 17
352 1 2 13 13 46 42
353 1 2 13 13 46 47
354 1 2 13 13 46 22
355 1 2 13 13 21 17
356 1 2 13 13 21 42
357 1 2 13 13 21 47
358 1 2 13 13 21 22
359 1 2 13 13 17 42
360 1 2 13 13 17 47
361 1 2 13 13 17 22
362 1 2 13 13 42 47
363 1 2 13 13 42 22
364 1 2 13 13 47 22
365 1 2 14 14 17 42
366 1 2 14 14 17 47
367 1 2 14 14 17 22
368 1 2 14 14 17 18
369 1 2 14 14 17 43
370 1 2 14 14 17 48
371 1 2 14 14 17 23
372 1 2 14 14 42 47
373 1 2 14 14 42 22
374 1 2 14 14 42 18
375 1 2 14 14 42 43
376 1 2 14 14 42 48
377 1 2 14 14 42 23
378 1 2 14 14 47 22
379 1 2 14 14 47 18
380 1 2 14 14 47 43
381 1 2 14 14 47 48
382 1 2 14 14 47 23
383 1 2 14 14 22 18
384 1 2 14 14 22 43
385 1 2 14 14 22 48
386 1 2 14 14 22 23
387 1 2 14 14 18 43
388 1 2 14 14 18 48
389 1 2 14 14 18 23
390 1 2 14 14 43 48
391 1 2 14 14 43 23
392 1 2 14 14 48 23
393 1 2 15 15 18 43
394 1 2 15 15 18 48
395 1 2 15 15 18 23
396 1 2 15 15 18 19
397 1 2 15 15 18 44
398 1 2 15 15 18 49
399 1 2 15 15 18 24
400 1 2 15 15 43 48
401 1 2 15 15 43 23
402 1 2 15 15 43 19
403 1 2 15 15 43 44
404 1 2 15 15 43 49
405 1 2 15 15 43 24
406 1 2 15 15 48 23
407 1 2 15 15 48 19
408 1 2 15 15 48 44
409 1 2 15 15 48 49
410 1 2 15 15 48 24
411 1 2 15 15 23 19
412 1 2 15 15 23 44
413 1 2 15 15 23 49
414 1 2 15 15 23 24
415 1 2 15 15 19 44
416 1 2 15 15 19 49
417 1 2 15 15 19 24
418 1 2 15 15 44 49
419 1 2 15 15 44 24
420 1 2 15 15 49 24
421 1 2 16 16 19 44
422 1 2 16 16 19 49
423 1 2 16 16 19 24
424 1 2 16 16 19 20
425 1 2 16 16 19 45
426 1 2 16 16 19 50
427 1 2 16 16 19 25
428 1 2 16 16 44 49
429 1 2 16 16 44 24
430 1 2 16 16 44 20
431 1 2 16 16 44 45
432 1 2 16 16 44 50
433 1 2 16 16 44 25
434 1 2 16 16 49 24
435 1 2 16 16 49 20
436 1 2 16 16 49 45
437 1 2 16 16 49 50
438 1 2 16 16 49 25
439 1 2 16 16 24 20
440 1 2 16 16 24 45
441 1 2 16 16 24 50
442 1 2 16 16 24 25
443 1 2 16 16 20 45
444 1 2 16 16 20 50
445 1 2 16 16 20 25
446 1 2 16 16 45 50
447 1 2 16 16 45 25
448 1 2 16 16 50 25
449 1 2 17 17 26 51
450 1 2 17 17 26 56
451 1 2 17 17 26 31
452 1 2 17 17 26 27
453 1 2 17 17 26 52
454 1 2 17 17 26 57
455 1 2 17 17 26 32
456 1 2 17 17 51 56
457 1 2 17 17 51 31
458 1 2 17 17 51 27
459 1 2 17 17 51 52
460 1 2 17 17 51 57
461 1 2 17 17 51 32
462 1 2 17 17 56 31
463 1 2 17 17 56 27
464 1 2 17 17 56 52
465 1 2 17 17 56 57
466 1 2 17 17 56 32
467 1 2 17 17 31 27
468 1 2 17 17 31 52
469 1 2 17 17 31 57
470 1 2 17 17 31 32
471 1 2 17 17 27 52
472 1 2 17 17 27 57
473 1 2 17 17 27 32
474 1 2 17 17 52 57
475 1 2 17 17 52 32
476 1 2 17 17 57 32
477 1 2 18 18 27 52
478 1 2 18 18 27 57
479 1 2 18 18 27 32
480 1 2 18 18 27 28
481 1 2 18 18 27 53
482 1 2 18 18 27 58
483 1 2 18 18 27 33
484 1 2 18 18 52 57
485 1 2 18 18 52 32
486 1 2 18 18 52 28
487 1 2 18 18 52 53
488 1 2 18 18 52 58
489 1 2 18 18 52 33
490 1 2 18 18 57 32
491 1 2 18 18 57 28
492 1 2 18 18 57 53
493 1 2 18 18 57 58
494 1 2 18 18 57 33
495 1 2 18 18 32 28
496 1 2 18 18 32 53
497 1 2 18 18 32 58
498 1 2 18 18 32 33
499 1 2 18 18 28 53
500 1 2 18 18 28 58
501 1 2 18 18 28 33
502 1 2 18 18 53 58
503 1 2 18 18 53 33
504 1 2 18 18 58 33
505 1 2 19 19 28 53
506 1 2 19 19 28 58
507 1 2 19 19 28 33
508 1 2 19 19 28 29
509 1 2 19 19 28 54
510 1 2 19 19 28 59
511 1 2 19 19 28 34
512 1 2 19 19 53 58
513 1 2 19 19 53 33
514 1 2 19 19 53 29
515 1 2 19 19 53 54
516 1 2 19 19 53 59
517 1 2 19 19 53 34
518 1 2 19 19 58 33
519 1 2 19 19 58 29
520 1 2 19 19 58 54
521 1 2 19 19 58 59
522 1 2 19 19 58 34
523 1 2 19 19 33 29
524 1 2 19 19 33 54
525 1 2 19 19 33 59
526 1 2 19 19 33 34
527 1 2 19 19 29 54
528 1 2 19 19 29 59
529 1 2 19 19 29 34
530 1 2 19 19 54 59
531 1 2 19 19 54 34
532 1 2 19 19 59 34
533 1 2 20 20 29 54
534 1 2 20 20 29 59
535 1 2 20 20 29 34
536 1 2 20 20 29 30
537 1 2 20 20 29 55
538 1 2 20 20 29 60
539 1 2 20 20 29 35
540 1 2 20 20 54 59
541 1 2 20 20 54 34
542 1 2 20 20 54 30
543 1 2 20 20 54 55
544 1 2 20 20 54 60
545 1 2 20 20 54 35
546 1 2 20 20 59 34
547 1 2 20 20 59 30
548 1 2 20 20 59 55
549 1 2 20 20 59 60
550 1 2 20 20 59 35
551 1 2 20 20 34 30
552 1 2 20 20 34 55
553 1 2 20 20 34 60
554 1 2 20 20 34 35
555 1 2 20 20 30 55
556 1 2 20 20 30 60
557 1 2 20 20 30 35
558 1 2 20 20 55 60
559 1 2 20 20 55 35
560 1 2 20 20 60 35
561 1 2 21 21 31 56
562 1 2 21 21 31 61
563 1 2 21 21 31 36
564 1 2 21 21 31 32
565 1 2 21 21 31 57
566 1 2 21 21 31 62
567 1 2 21 21 31 37
568 1 2 21 21 56 61
569 1 2 21 21 56 36
570 1 2 21 21 56 32
571 1 2 21 21 56 57
572 1 2 21 21 56 62
573 1 2 21 21 56 37
574 1 2 21 21 61 36
575 1 2 21 21 61 32
576 1 2 21 21 61 57
577 1 2 21 21 61 62
578 1 2 21 21 61 37
579 1 2 21 21 36 32
580 1 2 21 21 36 57
581 1 2 21 21 36 62
582 1 2 21 21 36 37
583 1 2 21 21 32 57
584 1 2 21 21 32 62
585 1 2 21 21 32 37
586 1 2 21 21 57 62
587 1 2 21 21 57 37
588 1 2 21 21 62 37
589 1 2 22 22 32 57
590 1 2 22 22 32 62
591 1 2 22 22 32 37
592 1 2 22 22 32 33
593 1 2 22 22 32 58
594 1 2 22 22 32 63
595 1 2 22 22 32 38
596 1 2 22 22 57 62
597 1 2 22 22 57 37
598 1 2 22 22 57 33
599 1 2 22 22 57 58
600 1 2 22 22 57 63
601 1 2 22 22 57 38
602 1 2 22 22 62 37
603 1 2 22 22 62 33
604 1 2 22 22 62 58
605 1 2 22 22 62 63
606 1 2 22 22 62 38
607 1 2 22 22 37 33
608 1 2 22 22 37 58
609 1 2 22 22 37 63
610 1 2 22 22 37 38
611 1 2 22 22 33 58
612 1 2 22 22 33 63
613 1 2 22 22 33 38
614 1 2 22 22 58 63
615 1 2 22 22 58 38
616 1 2 22 22 63 38
617 1 2 23 23 33 58
618 1 2 23 23 33 63
619 1 2 23 23 33 38
620 1 2 23 23 33 34
621 1 2 23 23 33 59
622 1 2 23 23 33 64
623 1 2 23 23 33 39
624 1 2 23 23 58 63
625 1 2 23 23 58 38
626 1 2 23 23 58 34
627 1 2 23 23 58 59
628 1 2 23 23 58 64
629 1 2 23 23 58 39
630 1 2 23 23 63 38
631 1 2 23 23 63 34
632 1 2 23 23 63 59
633 1 2 23 23 63 64
634 1 2 23 23 63 39
635 1 2 23 23 38 34
636 1 2 23 23 38 59
637 1 2 23 23 38 64
638 1 2 23 23 38 39
639 1 2 23 23 34 59
640 1 2 23 23 34 64
641 1 2 23 23 34 39
642 1 2 23 23 59 64
643 1 2 23 23 59 39
644 1 2 23 23 64 39
645 1 2 24 24 34 59
646 1 2 24 24 34 64
647 1 2 24 24 34 39
648 1 2 24 24 34 35
649 1 2 24 24 34 60
650 1 2 24 24 34 65
651 1 2 24 24 34 40
652 1 2 24 24 59 64
653 1 2 24 24 59 39
654 1 2 24 24 59 35
655 1 2 24 24 59 60
656 1 2 24 24 59 65
657 1 2 24 24 59 40
658 1 2 24 24 64 39
659 1 2 24 24 64 35
660 1 2 24 24 64 60
661 1 2 24 24 64 65
662 1 2 24 24 64 40
663 1 2 24 24 39 35
664 1 2 24 24 39 60
665 1 2 24 24 39 65
666 1 2 24 24 39 40
667 1 2 24 24 35 60
668 1 2 24 24 35 65
669 1 2 24 24 35 40
670 1 2 24 24 60 65
671 1 2 24 24 60 40
672 1 2 24 24 65 40
673 1 2 25 25 36 61
674 1 2 25 25 36 66
675 1 2 25 25 36 41
676 1 2 25 25 36 37
677 1 2 25 25 36 62
678 1 2 25 25 36 67
679 1 2 25 25 36 42
680 1 2 25 25 61 66
681 1 2 25 25 61 41
682 1 2 25 25 61 37
683 1 2 25 25 61 62
684 1 2 25 25 61 67
685 1 2 25 25 61 42
686 1 2 25 25 66 41
687 1 2 25 25 66 37
688 1 2 25 25 66 62
689 1 2 25 25 66 67
690 1 2 25 25 66 42
691 1 2 25 25 41 37
692 1 2 25 25 41 62
693 1 2 25 25 41 67
694 1 2 25 25 41 42
695 1 2 25 25 37 62
696 1 2 25 25 37 67
697 1 2 25 25 37 42
698 1 2 25 25 62 67
699 1 2 25 25 62 42
700 1 2 25 25 67 42
701 1 2 26 26 37 62
702 1 2 26 26 37 67
703 1 2 26 26 37 42
704 1 2 26 26 37 38
705 1 2 26 26 37 63
706 1 2 26 26 37 68
707 1 2 26 26 37 43
708 1 2 26 26 62 67
709 1 2 26 26 62 42
710 1 2 26 26 62 38
711 1 2 26 26 62 63
712 1 2 26 26 62 68
713 1 2 26 26 62 43
714 1 2 26 26 67 42
715 1 2 26 26 67 38
716 1 2 26 26 67 63
717 1 2 26 26 67 68
718 1 2 26 26 67 43
719 1 2 26 26 42 38
720 1 2 26 26 42 63
721 1 2 26 26 42 68
722 1 2 26 26 42 43
723 1 2 26 26 38 63
724 1 2 26 26 38 68
725 1 2 26 26 38 43
726 1 2 26 26 63 68
727 1 2 26 26 63 43
728 1 2 26 26 68 43
729 1 2 27 27 38 63
730 1 2 27 27 38 68
731 1 2 27 27 38 43
732 1 2 27 27 38 39
733 1 2 27 27 38 64
734 1 2 27 27 38 69
735 1 2 27 27 38 44
736 1 2 27 27 63 68
737 1 2 27 27 63 43
738 1 2 27 27 63 39
739 1 2 27 27 63 64
740 1 2 27 27 63 69
741 1 2 27 27 63 44
742 1 2 27 27 68 43
743 1 2 27 27 68 39
744 1 2 27 27 68 64
745 1 2 27 27 68 69
746 1 2 27 27 68 44
747 1 2 27 27 43 39
748 1 2 27 27 43 64
749 1 2 27 27 43 69
750 1 2 27 27 43 44
751 1 2 27 27 39 64
752 1 2 27 27 39 69
753 1 2 27 27 39 44
754 1 2 27 27 64 69
755 1 2 27 27 64 44
756 1 2 27 27 69 44
757 1 2 28 28 39 64
758 1 2 28 28 39 69
759 1 2 28 28 39 44
760 1 2 28 28 39 40
761 1 2 28 28 39 65
762 1 2 28 28 39 70
763 1 2 28 28 39 45
764 1 2 28 28 64 69
765 1 2 28 28 64 44
766 1 2 28 28 64 40
767 1 2 28 28 64 65
768 1 2 28 28 64 70
769 1 2 28 28 64 45
770 1 2 28 28 69 44
771 1 2 28 28 69 40
772 1 2 28 28 69 65
773 1 2 28 28 69 70
774 1 2 28 28 69 45
775 1 2 28 28 44 40
776 1 2 28 28 44 65
777 1 2 28 28 44 70
778 1 2 28 28 44 45
779 1 2 28 28 40 65
780 1 2 28 28 40 70
781 1 2 28 28 40 45
782 1 2 28 28 65 70
783 1 2 28 28 65 45
784 1 2 28 28 70 45
785 1 2 29 29 41 66
786 1 2 29 29 41 71
787 1 2 29 29 41 46
788 1 2 29 29 41 42
789 1 2 29 29 41 67
790 1 2 29 29 41 72
791 1 2 29 29 41 47
792 1 2 29 29 66 71
793 1 2 29 29 66 46
794 1 2 29 29 66 42
795 1 2 29 29 66 67
796 1 2 29 29 66 72
797 1 2 29 29 66 47
798 1 2 29 29 71 46
799 1 2 29 29 71 42
800 1 2 29 29 71 67
801 1 2 29 29 71 72
802 1 2 29 29 71 47
803 1 2 29 29 46 42
804 1 2 29 29 46 67
805 1 2 29 29 46 72
806 1 2 29 29 46 47
807 1 2 29 29 42 67
808 1 2 29 29 42 72
809 1 2 29 29 42 47
810 1 2 29 29 67 72
811 1 2 29 29 67 47
812 1 2 29 29 72 47
813 1 2 30 30 42 67
814 1 2 30 30 42 72
815 1 2 30 30 42 47
816 1 2 30 30 42 43
817 1 2 30 30 42 68
818 1 2 30 30 42 73
819 1 2 30 30 42 48
820 1 2 30 30 67 72
821 1 2 30 30 67 47
822 1 2 30 30 67 43
823 1 2 30 30 67 68
824 1 2 30 30 67 73
825 1 2 30 30 67 48
826 1 2 30 30 72 47
827 1 2 30 30 72 43
828 1 2 30 30 72 68
829 1 2 30 30 72 73
830 1 2 30 30 72 48
831 1 2 30 30 47 43
832 1 2 30 30 47 68
833 1 2 30 30 47 73
834 1 2 30 30 47 48
835 1 2 30 30 43 68
836 1 2 30 30 43 73
837 1 2 30 30 43 48
838 1 2 30 30 68 73
839 1 2 30 30 68 48
840 1 2 30 30 73 48
841 1 2 31 31 43 68
842 1 2 31 31 43 73
843 1 2 31 31 43 48
844 1 2 31 31 43 44
845 1 2 31 31 43 69
846 1 2 31 31 43 74
847 1 2 31 31 43 49
848 1 2 31 31 68 73
849 1 2 31 31 68 48
850 1 2 31 31 68 44
851 1 2 31 31 68 69
852 1 2 31 31 68 74
853 1 2 31 31 68 49
854 1 2 31 31 73 48
855 1 2 31 31 73 44
856 1 2 31 31 73 69
857 1 2 31 31 73 74
858 1 2 31 31 73 49
859 1 2 31 31 48 44
860 1 2 31 31 48 69
861 1 2 31 31 48 74
862 1 2 31 31 48 49
863 1 2 31 31 44 69
864 1 2 31 31 44 74
865 1 2 31 31 44 49
866 1 2 31 31 69 74
867 1 2 31 31 69 49
868 1 2 31 31 74 49
869 1 2 32 32 44 69
870 1 2 32 32 44 74
871 1 2 32 32 44 49
872 1 2 32 32 44 45
873 1 2 32 32 44 70
874 1 2 32 32 44 75
875 1 2 32 32 44 50
876 1 2 32 32 69 74
877 1 2 32 32 69 49
878 1 2 32 32 69 45
879 1 2 32 32 69 70
880 1 2 32 32 69 75
881 1 2 32 32 69 50
882 1 2 32 32 74 49
883 1 2 32 32 74 45
884 1 2 32 32 74 70
885 1 2 32 32 74 75
886 1 2 32 32 74 50
887 1 2 32 32 49 45
888 1 2 32 32 49 70
889 1 2 32 32 49 75
890 1 2 32 32 49 50
891 1 2 32 32 45 70
892 1 2 32 32 45 75
893 1 2 32 32 45 50
894 1 2 32 32 70 75
895 1 2 32 32 70 50
896 1 2 32 32 75 50
897 1 2 33 33 51 76
898 1 2 33 33 51 81
899 1 2 33 33 51 56
900 1 2 33 33 51 52
901 1 2 33 33 51 77
902 1 2 33 33 51 82
903 1 2 33 33 51 57
904 1 2 33 33 76 81
905 1 2 33 33 76 56
906 1 2 33 33 76 52
907 1 2 33 33 76 77
908 1 2 33 33 76 82
909 1 2 33 33 76 57
910 1 2 33 33 81 56
911 1 2 33 33 81 52
912 1 2 33 33 81 77
913 1 2 33 33 81 82
914 1 2 33 33 81 57
915 1 2 33 33 56 52
916 1 2 33 33 56 77
917 1 2 33 33 56 82
918 1 2 33 33 56 57
919 1 2 33 33 52 77
920 1 2 33 33 52 82
921 1 2 33 33 52 57
922 1 2 33 33 77 82
923 1 2 33 33 77 57
924 1 2 33 33 82 57
925 1 2 34 34 52 77
926 1 2 34 34 52 82
927 1 2 34 34 52 57
928 1 2 34 34 52 53
929 1 2 34 34 52 78
930 1 2 34 34 52 83
931 1 2 34 34 52 58
932 1 2 34 34 77 82
933 1 2 34 34 77 57
934 1 2 34 34 77 53
935 1 2 34 34 77 78
936 1 2 34 34 77 83
937 1 2 34 34 77 58
938 1 2 34 34 82 57
939 1 2 34 34 82 53
940 1 2 34 34 82 78
941 1 2 34 34 82 83
942 1 2 34 34 82 58
943 1 2 34 34 57 53
944 1 2 34 34 57 78
945 1 2 34 34 57 83
946 1 2 34 34 57 58
947 1 2 34 34 53 78
948 1 2 34 34 53 83
949 1 2 34 34 53 58
950 1 2 34 34 78 83
951 1 2 34 34 78 58
952 1 2 34 34 83 58
953 1 2 35 35 53 78
954 1 2 35 35 53 83
955 1 2 35 35 53 58
956 1 2 35 35 53 54
957 1 2 35 35 53 79
958 1 2 35 35 53 84
959 1 2 35 35 53 59
960 1 2 35 35 78 83
961 1 2 35 35 78 58
962 1 2 35 35 78 54
963 1 2 35 35 78 79
964 1 2 35 35 78 84
965 1 2 35 35 78 59
966 1 2 35 35 83 58
967 1 2 35 35 83 54
968 1 2 35 35 83 79
969 1 2 35 35 83 84
970 1 2 35 35 83 59
971 1 2 35 35 58 54
972 1 2 35 35 58 79
973 1 2 35 35 58 84
974 1 2 35 35 58 59
975 1 2 35 35 54 79
976 1 2 35 35 54 84
977 1 2 35 35 54 59
978 1 2 35 35 79 84
979 1 2 35 35 79 59
980 1 2 35 35 84 59
981 1 2 36 36 54 79
982 1 2 36 36 54 84
983 1 2 36 36 54 59
984 1 2 36 36 54 55
985 1 2 36 36 54 80
986 1 2 36 36 54 85
987 1 2 36 36 54 60
988 1 2 36 36 79 84
989 1 2 36 36 79 59
990 1 2 36 36 79 55
991 1 2 36 36 79 80
992 1 2 36 36 79 85
993 1 2 36 36 79 60
994 1 2 36 36 84 59
995 1 2 36 36 84 55
996 1 2 36 36 84 80
997 1 2 36 36 84 85
998 1 2 36 36 84 60
999 1 2 36 36 59 55
1000 1 2 36 36 59 80
1001 1 2 36 36 59 85
1002 1 2 36 36 59 60
1003 1 2 36 36 55 80
1004 1 2 36 36 55 85
1005 1 2 36 36 55 60
1006 1 2 36 36 80 85
1007 1 2 36 36 80 60
1008 1 2 36 36 85 60
1009 1 2 37 37 56 81
1010 1 2 37 37 56 86
1011 1 2 37 37 56 61
1012 1 2 37 37 56 57
1013 1 2 37 37 56 82
1014 1 2 37 37 56 87
1015 1 2 37 37 56 62
1016 1 2 37 37 81 86
1017 1 2 37 37 81 61
1018 1 2 37 37 81 57
1019 1 2 37 37 81 82
1020 1 2 37 37 81 87
1021 1 2 37 37 81 62
1022 1 2 37 37 86 61
1023 1 2 37 37 86 57
1024 1 2 37 37 86 82
1025 1 2 37 37 86 87
1026 1 2 37 37 86 62
1027 1 2 37 37 61 57
1028 1 2 37 37 61 82
1029 1 2 37 37 61 87
1030 1 2 37 37 61 62
1031 1 2 37 37 57 82
1032 1 2 37 37 57 87
1033 1 2 37 37 57 62
1034 1 2 37 37 82 87
1035 1 2 37 37 82 62
1036 1 2 37 37 87 62
1037 1 2 38 38 57 82
1038 1 2 38 38 57 87
1039 1 2 38 38 57 62
1040 1 2 38 38 57 58
1041 1 2 38 38 57 83
1042 1 2 38 38 57 88
1043 1 2 38 38 57 63
1044 1 2 38 38 82 87
1045 1 2 38 38 82 62
1046 1 2 38 38 82 58
1047 1 2 38 38 82 83
1048 1 2 38 38 82 88
1049 1 2 38 38 82 63
1050 1 2 38 38 87 62
1051 1 2 38 38 87 58
1052 1 2 38 38 87 83
1053 1 2 38 38 87 88
1054 1 2 38 38 87 63
1055 1 2 38 38 62 58
1056 1 2 38 38 62 83
1057 1 2 38 38 62 88
1058 1 2 38 38 62 63
1059 1 2 38 38 58 83
1060 1 2 38 38 58 88
1061 1 2 38 38 58 63
1062 1 2 38 38 83 88
1063 1 2 38 38 83 63
1064 1 2 38 38 88 63
1065 1 2 39 39 58 83
1066 1 2 39 39 58 88
1067 1 2 39 39 58 63
1068 1 2 39 39 58 59
1069 1 2 39 39 58 84
1070 1 2 39 39 58 89
1071 1 2 39 39 58 64
1072 1 2 39 39 83 88
1073 1 2 39 39 83 63
1074 1 2 39 39 83 59
1075 1 2 39 39 83 84
1076 1 2 39 39 83 89
1077 1 2 39 39 83 64
1078 1 2 39 39 88 63
1079 1 2 39 39 88 59
1080 1 2 39 39 88 84
1081 1 2 39 39 88 89
1082 1 2 39 39 88 64
1083 1 2 39 39 63 59
1084 1 2 39 39 63 84
1085 1 2 39 39 63 89
1086 1 2 39 39 63 64
1087 1 2 39 39 59 84
1088 1 2 39 39 59 89
1089 1 2 39 39 59 64
1090 1 2 39 39 84 89
1091 1 2 39 39 84 64
1092 1 2 39 39 89 64
1093 1 2 40 40 59 84
1094 1 2 40 40 59 89
1095 1 2 40 40 59 64
1096 1 2 40 40 59 60
1097 1 2 40 40 59 85
1098 1 2 40 40 59 90
1099 1 2 40 40 59 65
1100 1 2 40 40 84 89
1101 1 2 40 40 84 64
1102 1 2 40 40 84 60
1103 1 2 40 40 84 85
1104 1 2 40 40 84 90
1105 1 2 40 40 84 65
1106 1 2 40 40 89 64
1107 1 2 40 40 89 60
1108 1 2 40 40 89 85
1109 1 2 40 40 89 90
1110 1 2 40 40 89 65
1111 1 2 40 40 64 60
1112 1 2 40 40 64 85
1113 1 2 40 40 64 90
1114 1 2 40 40 64 65
1115 1 2 40 40 60 85
1116 1 2 40 40 60 90
1117 1 2 40 40 60 65
1118 1 2 40 40 85 90
1119 1 2 40 40 85 65
1120 1 2 40 40 90 65
1121 1 2 41 41 61 86
1122 1 2 41 41 61 91
1123 1 2 41 41 61 66
1124 1 2 41 41 61 62
1125 1 2 41 41 61 87
1126 1 2 41 41 61 92
1127 1 2 41 41 61 67
1128 1 2 41 41 86 91
1129 1 2 41 41 86 66
1130 1 2 41 41 86 62
1131 1 2 41 41 86 87
1132 1 2 41 41 86 92
1133 1 2 41 41 86 67
1134 1 2 41 41 91 66
1135 1 2 41 41 91 62
1136 1 2 41 41 91 87
1137 1 2 41 41 91 92
1138 1 2 41 41 91 67
1139 1 2 41 41 66 62
1140 1 2 41 41 66 87
1141 1 2 41 41 66 92
1142 1 2 41 41 66 67
1143 1 2 41 41 62 87
1144 1 2 41 41 62 92
1145 1 2 41 41 62 67
1146 1 2 41 41 87 92
1147 1 2 41 41 87 67
1148 1 2 41 41 92 67
1149 1 2 42 42 62 87
1150 1 2 42 42 62 92
1151 1 2 42 42 62 67
1152 1 2 42 42 62 63
1153 1 2 42 42 62 88
1154 1 2 42 42 62 93
1155 1 2 42 42 62 68
1156 1 2 42 42 87 92
1157 1 2 42 42 87 67
1158 1 2 42 42 87 63
1159 1 2 42 42 87 88
1160 1 2 42 42 87 93
1161 1 2 42 42 87 68
1162 1 2 42 42 92 67
1163 1 2 42 42 92 63
1164 1 2 42 42 92 88
1165 1 2 42 42 92 93
1166 1 2 42 42 92 68
1167 1 2 42 42 67 63
1168 1 2 42 42 67 88
1169 1 2 42 42 67 93
1170 1 2 42 42 67 68
1171 1 2 42 42 63 88
1172 1 2 42 42 63 93
1173 1 2 42 42 63 68
1174 1 2 42 42 88 93
1175 1 2 42 42 88 68
1176 1 2 42 42 93 68
1177 1 2 43 43 63 88
1178 1 2 43 43 63 93
1179 1 2 43 43 63 68
1180 1 2 43 43 63 64
1181 1 2 43 43 63 89
1182 1 2 43 43 63 94
1183 1 2 43 43 63 69
1184 1 2 43 43 88 93
1185 1 2 43 43 88 68
1186 1 2 43 43 88 64
1187 1 2 43 43 88 89
1188 1 2 43 43 88 94
1189 1 2 43 43 88 69
1190 1 2 43 43 93 68
1191 1 2 43 43 93 64
1192 1 2 43 43 93 89
1193 1 2 43 43 93 94
1194 1 2 43 43 93 69
1195 1 2 43 43 68 64
1196 1 2 43 43 68 89
1197 1 2 43 43 68 94
1198 1 2 43 43 68 69
1199 1 2 43 43 64 89
1200 1 2 43 43 64 94
1201 1 2 43 43 64 69
1202 1 2 43 43 89 94
1203 1 2 43 43 89 69
1204 1 2 43 43 94 69
1205 1 2 44 44 64 89
1206 1 2 44 44 64 94
1207 1 2 44 44 64 69
1208 1 2 44 44 64 65
1209 1 2 44 44 64 90
1210 1 2 44 44 64 95
1211 1 2 44 44 64 70
1212 1 2 44 44 89 94
1213 1 2 44 44 89 69
1214 1 2 44 44 89 65
1215 1 2 44 44 89 90
1216 1 2 44 44 89 95
1217 1 2 44 44 89 70
1218 1 2 44 44 94 69
1219 1 2 44 44 94 65
1220 1 2 44 44 94 90
1221 1 2 44 44 94 95
1222 1 2 44 44 94 70
1223 1 2 44 44 69 65
1224 1 2 44 44 69 90
1225 1 2 44 44 69 95
1226 1 2 44 44 69 70
1227 1 2 44 44 65 90
1228 1 2 44 44 65 95
1229 1 2 44 44 65 70
1230 1 2 44 44 90 95
1231 1 2 44 44 90 70
1232 1 2 44 44 95 70
1233 1 2 45 45 66 91
1234 1 2 45 45 66 96
1235 1 2 45 45 66 71
1236 1 2 45 45 66 67
1237 1 2 45 45 66 92
1238 1 2 45 45 66 97
1239 1 2 45 45 66 72
1240 1 2 45 45 91 96
1241 1 2 45 45 91 71
1242 1 2 45 45 91 67
1243 1 2 45 45 91 92
1244 1 2 45 45 91 97
1245 1 2 45 45 91 72
1246 1 2 45 45 96 71
1247 1 2 45 45 96 67
1248 1 2 45 45 96 92
1249 1 2 45 45 96 97
1250 1 2 45 45 96 72
1251 1 2 45 45 71 67
1252 1 2 45 45 71 92
1253 1 2 45 45 71 97
1254 1 2 45 45 71 72
1255 1 2 45 45 67 92
1256 1 2 45 45 67 97
1257 1 2 45 45 67 72
1258 1 2 45 45 92 97
1259 1 2 45 45 92 72
1260 1 2 45 45 97 72
1261 1 2 46 46 67 92
1262 1 2 46 46 67 97
1263 1 2 46 46 67 72
1264 1 2 46 46 67 68
1265 1 2 46 46 67 93
1266 1 2 46 46 67 98
1267 1 2 46 46 67 73
1268 1 2 46 46 92 97
1269 1 2 46 46 92 72
1270 1 2 46 46 92 68
1271 1 2 46 46 92 93
1272 1 2 46 46 92 98
1273 1 2 46 46 92 73
1274 1 2 46 46 97 72
1275 1 2 46 46 97 68
1276 1 2 46 46 97 93
1277 1 2 46 46 97 98
1278 1 2 46 46 97 73
1279 1 2 46 46 72 68
1280 1 2 46 46 72 93
1281 1 2 46 46 72 98
1282 1 2 46 46 72 73
1283 1 2 46 46 68 93
1284 1 2 46 46 68 98
1285 1 2 46 46 68 73
1286 1 2 46 46 93 98
1287 1 2 46 46 93 73
1288 1 2 46 46 98 73
1289 1 2 47 47 68 93
1290 1 2 47 47 68 98
1291 1 2 47 47 68 73
1292 1 2 47 47 68 69
1293 1 2 47 47 68 94
1294 1 2 47 47 68 99
1295 1 2 47 47 68 74
1296 1 2 47 47 93 98
1297 1 2 47 47 93 73
1298 1 2 47 47 93 69
1299 1 2 47 47 93 94
1300 1 2 47 47 93 99
1301 1 2 47 47 93 74
1302 1 2 47 47 98 73
1303 1 2 47 47 98 69
1304 1 2 47 47 98 94
1305 1 2 47 47 98 99
1306 1 2 47 47 98 74
1307 1 2 47 47 73 69
1308 1 2 47 47 73 94
1309 1 2 47 47 73 99
1310 1 2 47 47 73 74
1311 1 2 47 47 69 94
1312 1 2 47 47 69 99
1313 1 2 47 47 69 74
1314 1 2 47 47 94 99
1315 1 2 47 47 94 74
1316 1 2 47 47 99 74
1317 1 2 48 48 69 94
1318 1 2 48 48 69 99
1319 1 2 48 48 69 74
1320 1 2 48 48 69 70
1321 1 2 48 48 69 95
1322 1 2 48 48 69 100
1323 1 2 48 48 69 75
1324 1 2 48 48 94 99
1325 1 2 48 48 94 74
1326 1 2 48 48 94 70
1327 1 2 48 48 94 95
1328 1 2 48 48 94 100
1329 1 2 48 48 94 75
1330 1 2 48 48 99 74
1331 1 2 48 48 99 70
1332 1 2 48 48 99 95
1333 1 2 48 48 99 100
1334 1 2 48 48 99 75
1335 1 2 48 48 74 70
1336 1 2 48 48 74 95
1337 1 2 48 48 74 100
1338 1 2 48 48 74 75
1339 1 2 48 48 70 95
1340 1 2 48 48 70 100
1341 1 2 48 48 70 75
1342 1 2 48 48 95 100
1343 1 2 48 48 95 75
1344 1 2 48 48 100 75
1345 1 2 49 49 76 101
1346 1 2 49 49 76 106
1347 1 2 49 49 76 81
1348 1 2 49 49 76 77
1349 1 2 49 49 76 102
1350 1 2 49 49 76 107
1351 1 2 49 49 76 82
1352 1 2 49 49 101 106
1353 1 2 49 49 101 81
1354 1 2 49 49 101 77
1355 1 2 49 49 101 102
1356 1 2 49 49 101 107
1357 1 2 49 49 101 82
1358 1 2 49 49 106 81
1359 1 2 49 49 106 77
1360 1 2 49 49 106 102
1361 1 2 49 49 106 107
1362 1 2 49 49 106 82
1363 1 2 49 49 81 77
1364 1 2 49 49 81 102
1365 1 2 49 49 81 107
1366 1 2 49 49 81 82
1367 1 2 49 49 77 102
1368 1 2 49 49 77 107
1369 1 2 49 49 77 82
1370 1 2 49 49 102 107
1371 1 2 49 49 102 82
1372 1 2 49 49 107 82
1373 1 2 50 50 77 102
1374 1 2 50 50 77 107
1375 1 2 50 50 77 82
1376 1 2 50 50 77 78
1377 1 2 50 50 77 103
1378 1 2 50 50 77 108
1379 1 2 50 50 77 83
1380 1 2 50 50 102 107
1381 1 2 50 50 102 82
1382 1 2 50 50 102 78
1383 1 2 50 50 102 103
1384 1 2 50 50 102 108
1385 1 2 50 50 102 83
1386 1 2 50 50 107 82
1387 1 2 50 50 107 78
1388 1 2 50 50 107 103
1389 1 2 50 50 107 108
1390 1 2 50 50 107 83
1391 1 2 50 50 82 78
1392 1 2 50 50 82 103
1393 1 2 50 50 82 108
1394 1 2 50 50 82 83
1395 1 2 50 50 78 103
1396 1 2 50 50 78 108
1397 1 2 50 50 78 83
1398 1 2 50 50 103 108
1399 1 2 50 50 103 83
1400 1 2 50 50 108 83
1401 1 2 51 51 78 103
1402 1 2 51 51 78 108
1403 1 2 51 51 78 83
1404 1 2 51 51 78 79
1405 1 2 51 51 78 104
1406 1 2 51 51 78 109
1407 1 2 51 51 78 84
1408 1 2 51 51 103 108
1409 1 2 51 51 103 83
1410 1 2 51 51 103 79
1411 1 2 51 51 103 104
1412 1 2 51 51 103 109
1413 1 2 51 51 103 84
1414 1 2 51 51 108 83
1415 1 2 51 51 108 79
1416 1 2 51 51 108 104
1417 1 2 51 51 108 109
1418 1 2 51 51 108 84
1419 1 2 51 51 83 79
1420 1 2 51 51 83 104
1421 1 2 51 51 83 109
1422 1 2 51 51 83 84
1423 1 2 51 51 79 104
1424 1 2 51 51 79 109
1425 1 2 51 51 79 84
1426 1 2 51 51 104 109
1427 1 2 51 51 104 84
1428 1 2 51 51 109 84
1429 1 2 52 52 79 104
1430 1 2 52 52 79 109
1431 1 2 52 52 79 84
1432 1 2 52 52 79 80
1433 1 2 52 52 79 105
1434 1 2 52 52 79 110
1435 1 2 52 52 79 85
1436 1 2 52 52 104 109
1437 1 2 52 52 104 84
1438 1 2 52 52 104 80
1439 1 2 52 52 104 105
1440 1 2 52 52 104 110
1441 1 2 52 52 104 85
1442 1 2 52 52 109 84
1443 1 2 52 52 109 80
1444 1 2 52 52 109 105
1445 1 2 52 52 109 110
1446 1 2 52 52 109 85
1447 1 2 52 52 84 80
1448 1 2 52 52 84 105
1449 1 2 52 52 84 110
1450 1 2 52 52 84 85
1451 1 2 52 52 80 105
1452 1 2 52 52 80 110
1453 1 2 52 52 80 85
1454 1 2 52 52 105 110
1455 1 2 52 52 105 85
1456 1 2 52 52 110 85
1457 1 2 53 53 81 106
1458 1 2 53 53 81 111
1459 1 2 53 53 81 86
1460 1 2 53 53 81 82
1461 1 2 53 53 81 107
1462 1 2 53 53 81 112
1463 1 2 53 53 81 87
1464 1 2 53 53 106 111
1465 1 2 53 53 106 86
1466 1 2 53 53 106 82
1467 1 2 53 53 106 107
1468 1 2 53 53 106 112
1469 1 2 53 53 106 87
1470 1 2 53 53 111 86
1471 1 2 53 53 111 82
1472 1 2 53 53 111 107
1473 1 2 53 53 111 112
1474 1 2 53 53 111 87
1475 1 2 53 53 86 82
1476 1 2 53 53 86 107
1477 1 2 53 53 86 112
1478 1 2 53 53 86 87
1479 1 2 53 53 82 107
1480 1 2 53 53 82 112
1481 1 2 53 53 82 87
1482 1 2 53 53 107 112
1483 1 2 53 53 107 87
1484 1 2 53 53 112 87
1485 1 2 54 54 82 107
1486 1 2 54 54 82 112
1487 1 2 54 54 82 87
1488 1 2 54 54 82 83
1489 1 2 54 54 82 108
1490 1 2 54 54 82 113
1491 1 2 54 54 82 88
1492 1 2 54 54 107 112
1493 1 2 54 54 107 87
1494 1 2 54 54 107 83
1495 1 2 54 54 107 108
1496 1 2 54 54 107 113
1497 1 2 54 54 107 88
1498 1 2 54 54 112 87
1499 1 2 54 54 112 83
1500 1 2 54 54 112 108
1501 1 2 54 54 112 113
1502 1 2 54 54 112 88
1503 1 2 54 54 87 83
1504 1 2 54 54 87 108
1505 1 2 54 54 87 113
1506 1 2 54 54 87 88
1507 1 2 54 54 83 108
1508 1 2 54 54 83 113
1509 1 2 54 54 83 88
1510 1 2 54 54 108 113
1511 1 2 54 54 108 88
1512 1 2 54 54 113 88
1513 1 2 55 55 83 108
1514 1 2 55 55 83 113
1515 1 2 55 55 83 88
1516 1 2 55 55 83 84
1517 1 2 55 55 83 109
1518 1 2 55 55 83 114
1519 1 2 55 55 83 89
1520 1 2 55 55 108 113
1521 1 2 55 55 108 88
1522 1 2 55 55 108 84
1523 1 2 55 55 108 109
1524 1 2 55 55 108 114
1525 1 2 55 55 108 89
1526 1 2 55 55 113 88
1527 1 2 55 55 113 84
1528 1 2 55 55 113 109
1529 1 2 55 55 113 114
1530 1 2 55 55 113 89
1531 1 2 55 55 88 84
1532 1 2 55 55 88 109
1533 1 2 55 55 88 114
1534 1 2 55 55 88 89
1535 1 2 55 55 84 109
1536 1 2 55 55 84 114
1537 1 2 55 55 84 89
1538 1 2 55 55 109 114
1539 1 2 55 55 109 89
1540 1 2 55 55 114 89
1541 1 2 56 56 84 109
1542 1 2 56 56 84 114
1543 1 2 56 56 84 89
1544 1 2 56 56 84 85
1545 1 2 56 56 84 110
1546 1 2 56 56 84 115
1547 1 2 56 56 84 90
1548 1 2 56 56 109 114
1549 1 2 56 56 109 89
1550 1 2 56 56 109 85
1551 1 2 56 56 109 110
1552 1 2 56 56 109 115
1553 1 2 56 56 109 90
1554 1 2 56 56 114 89
1555 1 2 56 56 114 85
1556 1 2 56 56 114 110
1557 1 2 56 56 114 115
1558 1 2 56 56 114 90
1559 1 2 56 56 89 85
1560 1 2 56 56 89 110
1561 1 2 56 56 89 115
1562 1 2 56 56 89 90
1563 1 2 56 56 85 110
1564 1 2 56 56 85 115
1565 1 2 56 56 85 90
1566 1 2 56 56 110 115
1567 1 2 56 56 110 90
1568 1 2 56 56 115 90
1569 1 2 57 57 86 111
1570 1 2 57 57 86 116
1571 1 2 57 57 86 91
1572 1 2 57 57 86 87
1573 1 2 57 57 86 112
1574 1 2 57 57 86 117
1575 1 2 57 57 86 92
1576 1 2 57 57 111 116
1577 1 2 57 57 111 91
1578 1 2 57 57 111 87
1579 1 2 57 57 111 112
1580 1 2 57 57 111 117
1581 1 2 57 57 111 92
1582 1 2 57 57 116 91
1583 1 2 57 57 116 87
1584 1 2 57 57 116 112
1585 1 2 57 57 116 117
1586 1 2 57 57 116 92
1587 1 2 57 57 91 87
1588 1 2 57 57 91 112
1589 1 2 57 57 91 117
1590 1 2 57 57 91 92
1591 1 2 57 57 87 112
1592 1 2 57 57 87 117
1593 1 2 57 57 87 92
1594 1 2 57 57 112 117
1595 1 2 57 57 112 92
1596 1 2 57 57 117 92
1597 1 2 58 58 87 112
1598 1 2 58 58 87 117
1599 1 2 58 58 87 92
1600 1 2 58 58 87 88
1601 1 2 58 58 87 113
1602 1 2 58 58 87 118
1603 1 2 58 58 87 93
1604 1 2 58 58 112 117
1605 1 2 58 58 112 92
1606 1 2 58 58 112 88
1607 1 2 58 58 112 113
1608 1 2 58 58 112 118
1609 1 2 58 58 112 93
1610 1 2 58 58 117 92
1611 1 2 58 58 117 88
1612 1 2 58 58 117 113
1613 1 2 58 58 117 118
1614 1 2 58 58 117 93
1615 1 2 58 58 92 88
1616 1 2 58 58 92 113
1617 1 2 58 58 92 118
1618 1 2 58 58 92 93
1619 1 2 58 58 88 113
1620 1 2 58 58 88 118
1621 1 2 58 58 88 93
1622 1 2 58 58 113 118
1623 1 2 58 58 113 93
1624 1 2 58 58 118 93
1625 1 2 59 59 88 113
1626 1 2 59 59 88 118
1627 1 2 59 59 88 93
1628 1 2 59 59 88 89
1629 1 2 59 59 88 114
1630 1 2 59 59 88 119
1631 1 2 59 59 88 94
1632 1 2 59 59 113 118
1633 1 2 59 59 113 93
1634 1 2 59 59 113 89
1635 1 2 59 59 113 114
1636 1 2 59 59 113 119
1637 1 2 59 59 113 94
1638 1 2 59 59 118 93
1639 1 2 59 59 118 89
1640 1 2 59 59 118 114
1641 1 2 59 59 118 119
1642 1 2 59 59 118 94
1643 1 2 59 59 93 89
1644 1 2 59 59 93 114
1645 1 2 59 59 93 119
1646 1 2 59 59 93 94
1647 1 2 59 59 89 114
1648 1 2 59 59 89 119
1649 1 2 59 59 89 94
1650 1 2 59 59 114 119
1651 1 2 59 59 114 94
1652 1 2 59 59 119 94
1653 1 2 60 60 89 114
1654 1 2 60 60 89 119
1655 1 2 60 60 89 94
1656 1 2 60 60 89 90
1657 1 2 60 60 89 115
1658 1 2 60 60 89 120
1659 1 2 60 60 89 95
1660 1 2 60 60 114 119
1661 1 2 60 60 114 94
1662 1 2 60 60 114 90
1663 1 2 60 60 114 115
1664 1 2 60 60 114 120
1665 1 2 60 60 114 95
1666 1 2 60 60 119 94
1667 1 2 60 60 119 90
1668 1 2 60 60 119 115
1669 1 2 60 60 119 120
1670 1 2 60 60 119 95
1671 1 2 60 60 94 90
1672 1 2 60 60 94 115
1673 1 2 60 60 94 120
1674 1 2 60 60 94 95
1675 1 2 60 60 90 115
1676 1 2 60 60 90 120
1677 1 2 60 60 90 95
1678 1 2 60 60 115 120
1679 1 2 60 60 115 95
1680 1 2 60 60 120 95
1681 1 2 61 61 91 116
1682 1 2 61 61 91 121
1683 1 2 61 61 91 96
1684 1 2 61 61 91 92
1685 1 2 61 61 91 117
1686 1 2 61 61 91 122
1687 1 2 61 61 91 97
1688 1 2 61 61 116 121
1689 1 2 61 61 116 96
1690 1 2 61 61 116 92
1691 1 2 61 61 116 117
1692 1 2 61 61 116 122
1693 1 2 61 61 116 97
1694 1 2 61 61 121 96
1695 1 2 61 61 121 92
1696 1 2 61 61 121 117
1697 1 2 61 61 121 122
1698 1 2 61 61 121 97
1699 1 2 61 61 96 92
1700 1 2 61 61 96 117
1701 1 2 61 61 96 122
1702 1 2 61 61 96 97
1703 1 2 61 61 92 117
1704 1 2 61 61 92 122
1705 1 2 61 61 92 97
1706 1 2 61 61 117 122
1707 1 2 61 61 117 97
1708 1 2 61 61 122 97
1709 1 2 62 62 92 117
1710 1 2 62 62 92 122
1711 1 2 62 62 92 97
1712 1 2 62 62 92 93
1713 1 2 62 62 92 118
1714 1 2 62 62 92 123
1715 1 2 62 62 92 98
1716 1 2 62 62 117 122
1717 1 2 62 62 117 97
1718 1 2 62 62 117 93
1719 1 2 62 62 117 118
1720 1 2 62 62 117 123
1721 1 2 62 62 117 98
1722 1 2 62 62 122 97
1723 1 2 62 62 122 93
1724 1 2 62 62 122 118
1725 1 2 62 62 122 123
1726 1 2 62 62 122 98
1727 1 2 62 62 97 93
1728 1 2 62 62 97 118
1729 1 2 62 62 97 123
1730 1 2 62 62 97 98
1731 1 2 62 62 93 118
1732 1 2 62 62 93 123
1733 1 2 62 62 93 98
1734 1 2 62 62 118 123
1735 1 2 62 62 118 98
1736 1 2 62 62 123 98
1737 1 2 63 63 93 118
1738 1 2 63 63 93 123
1739 1 2 63 63 93 98
1740 1 2 63 63 93 94
1741 1 2 63 63 93 119
1742 1 2 63 63 93 124
1743 1 2 63 63 93 99
1744 1 2 63 63 118 123
1745 1 2 63 63 118 98
1746 1 2 63 63 118 94
1747 1 2 63 63 118 119
1748 1 2 63 63 118 124
1749 1 2 63 63 118 99
1750 1 2 63 63 123 98
1751 1 2 63 63 123 94
1752 1 2 63 63 123 119
1753 1 2 63 63 123 124
1754 1 2 63 63 123 99
1755 1 2 63 63 98 94
1756 1 2 63 63 98 119
1757 1 2 63 63 98 124
1758 1 2 63 63 98 99
1759 1 2 63 63 94 119
1760 1 2 63 63 94 124
1761 1 2 63 63 94 99
1762 1 2 63 63 119 124
1763 1 2 63 63 119 99
1764 1 2 63 63 124 99
1765 1 2 64 64 94 119
1766 1 2 64 64 94 124
1767 1 2 64 64 94 99
1768 1 2 64 64 94 95
1769 1 2 64 64 94 120
1770 1 2 64 64 94 125
1771 1 2 64 64 94 100
1772 1 2 64 64 119 124
1773 1 2 64 64 119 99
1774 1 2 64 64 119 95
1775 1 2 64 64 119 120
1776 1 2 64 64 119 125
1777 1 2 64 64 119 100
1778 1 2 64 64 124 99
1779 1 2 64 64 124 95
1780 1 2 64 64 124 120
1781 1 2 64 64 124 125
1782 1 2 64 64 124 100
1783 1 2 64 64 99 95
1784 1 2 64 64 99 120
1785 1 2 64 64 99 125
1786 1 2 64 64 99 100
1787 1 2 64 64 95 120
1788 1 2 64 64 95 125
1789 1 2 64 64 95 100
1790 1 2 64 64 120 125
1791 1 2 64 64 120 100
1792 1 2 64 64 125 100
$EndElements
