$MeshFormat
2.2 0 8
$EndMeshFormat
$PhysicalNames
7
2 1 "z_min"
2 2 "z_max"
2 3 "y_min"
2 4 "x_max"
2 5 "y_max"
2 6 "x_min"
3 7 "solid"
$EndPhysicalNames
$Nodes
401
1 0 0 0
2 20 0 0
3 20 3 0
4 0 3 0
5 0 0 3
6 20 0 3
7 20 3 3
8 0 3 3
9 0.9999999999991025 0 0
10 1.999999999998379 0 0
11 2.99999999999657 0 0
12 3.999999999993654 0 0
13 4.999999999990736 0 0
14 5.99999999998782 0 0
15 6.999999999984902 0 0
16 7.999999999982053 0 0
17 8.999999999983299 0 0
18 9.999999999984821 0 0
19 10.99999999998634 0 0
20 11.99999999998786 0 0
21 12.99999999998939 0 0
22 13.99999999999091 0 0
23 14.99999999999243 0 0
24 15.99999999999396 0 0
25 16.99999999999547 0 0
26 17.99999999999698 0 0
27 18.99999999999849 0 0
28 20 0.9999999999960245 0
29 20 1.999999999996158 0
30 19 3 0
31 18 3 0
32 16.99999999999999 3 0
33 15.99999999999999 3 0
34 14.99999999999999 3 0
35 13.99999999999999 3 0
36 12.99999999999999 3 0
37 11.99999999999998 3 0
38 10.99999999999998 3 0
39 9.999999999999979 3 0
40 8.999999999999977 3 0
41 7.999999999999975 3 0
42 6.999999999999973 3 0
43 5.99999999999997 3 0
44 4.999999999999968 3 0
45 3.999999999999964 3 0
46 2.999999999999975 3 0
47 1.999999999999982 3 0
48 0.9999999999999929 3 0
49 0 2.000000000001941 0
50 0 1.00000000000281 0
51 0.9999999999991025 0 3
52 1.999999999998379 0 3
53 2.99999999999657 0 3
54 3.999999999993654 0 3
55 4.999999999990736 0 3
56 5.99999999998782 0 3
57 6.999999999984902 0 3
58 7.999999999982053 0 3
59 8.999999999983299 0 3
60 9.999999999984821 0 3
61 10.99999999998634 0 3
62 11.99999999998786 0 3
63 12.99999999998939 0 3
64 13.99999999999091 0 3
65 14.99999999999243 0 3
66 15.99999999999396 0 3
67 16.99999999999547 0 3
68 17.99999999999698 0 3
69 18.99999999999849 0 3
70 20 0.9999999999960245 3
71 20 1.999999999996158 3
72 19 3 3
73 18 3 3
74 16.99999999999999 3 3
75 15.99999999999999 3 3
76 14.99999999999999 3 3
77 13.99999999999999 3 3
78 12.99999999999999 3 3
79 11.99999999999998 3 3
80 10.99999999999998 3 3
81 9.999999999999979 3 3
82 8.999999999999977 3 3
83 7.999999999999975 3 3
84 6.999999999999973 3 3
85 5.99999999999997 3 3
86 4.999999999999968 3 3
87 3.999999999999964 3 3
88 2.999999999999975 3 3
89 1.999999999999982 3 3
90 0.9999999999999929 3 3
91 0 2.000000000001941 3
92 0 1.00000000000281 3
93 0 0 0.9999999999960245
94 0 0 1.999999999996158
95 20 0 0.9999999999960245
96 20 0 1.999999999996158
97 20 3 0.9999999999960245
98 20 3 1.999999999996158
99 0 3 0.9999999999960245
100 0 3 1.999999999996158
101 3.499999999995111 0.8660254037819124 0
102 5.499999999989278 0.8660254037819121 0
103 7.52831216349702 0.8496793685564099 0
104 1.504600087905821 2.234502555277197 0
105 17.5 2.133974596215559 0
106 15.49999999999999 2.133974596215559 0
107 13.49999999999999 2.133974596215559 0
108 11.49999999999998 2.133974596215559 0
109 9.507369888459298 2.158252693813887 0
110 19.06179990758373 1.49999999999844 0
111 4.499999999999966 2.133974596215564 0
112 16.49999999999472 0.8660254037857478 0
113 14.49999999999168 0.866025403785757 0
114 6.520222973934978 2.23310607323642 0
115 12.49999999998862 0.8660254037857562 0
116 10.49999999998558 0.8660254037857562 0
117 1.504600087905088 0.7654974447233309 0
118 5.501228314742249 2.168184575087683 0
119 8.504718693900683 0.8241963653050682 0
120 8.062129469918668 1.567654423567798 0
121 9.500204719105488 0.8439639345322576 0
122 13.49999999999032 0.8660254037856659 0
123 15.49999999999337 0.8660254037856573 0
124 11.49999999998694 0.8660254037856635 0
125 3.50000000000029 2.133974596215746 0
126 2.500199573437794 2.158470881365683 0
127 17.49999999999608 0.8660254037856312 0
128 2.500199573434999 0.8415291186323132 0
129 16.5 2.133974596215563 0
130 12.49999999999998 2.13397459621556 0
131 10.49999999999998 2.133974596215566 0
132 14.49999999999999 2.133974596215573 0
133 6.533030857418781 0.8082798947569572 0
134 4.499999999992195 0.8660254037819115 0
135 18.4707543799321 2.233653964774144 0
136 18.47075437993102 0.7663460352253506 0
137 0.8632236145395122 1.500000000001672 0
138 8.511583226392753 2.265322086858959 0
139 7.023949244126205 1.55455375866025 0
140 1.978803822869951 1.499999999999643 0
141 2.996533828288633 1.499999999998681 0
142 3.999999999993653 1.499999999996787 0
143 4.999999999990737 1.499999999995674 0
144 6.013071898367038 1.521691617586482 0
145 17 1.500000000002144 0
146 15.99999999999858 1.500000000001722 0
147 14.99999999999726 1.500000000001368 0
148 13.99999999999653 1.500000000001391 0
149 12.9999999999959 1.500000000001512 0
150 11.99999999999523 1.500000000001634 0
151 10.99999999999185 1.499999999999575 0
152 9.999999999983419 1.499999999993274 0
153 7.519647485728759 2.270106057053904 0
154 8.99999999997863 1.497422611922639 0
155 18.00055144457382 1.500000000000211 0
156 19.26794919243021 2.267949192429193 0
157 19.26794919243216 0.7320508075663622 0
158 0.7269592645554404 0.7269592645564527 0
159 0.726959264554207 2.27304073544632 0
160 6.499999999986361 0 0.8660254026352805
161 4.499999999992194 0 0.8660254026352808
162 2.509184158582705 0 0.8543615286073596
163 8.499999999982673 0 0.866025402637113
164 18.49999999999773 0 0.866025402639115
165 16.49999999999471 0 0.8660254026391164
166 11.4999999999871 0 0.8660254026391241
167 13.49999999999016 0 0.8660254026391256
168 0.9658646215461342 0 1.500000000459413
169 5.499999999989277 0 2.133974603774595
170 3.499999999995112 0 2.133974603774595
171 7.499999999983476 0 2.133974603774565
172 9.499999999984061 0 2.13397460377087
173 17.49999999999622 0 2.133974590951008
174 15.50322077674854 0 2.144860180446786
175 12.49999999998862 0 2.133974590951
176 9.499999999984063 0 0.8660254042414746
177 8.499999992649016 0 2.133974600450936
178 7.500000003307047 0 0.866025406352378
179 10.49999999834924 0 2.13397459715899
180 11.49999999735763 0 2.133974600970793
181 10.50000000023384 0 0.8660254036424265
182 2.509184159678943 0 2.145638469933921
183 3.499999999447564 0 0.8660254028254367
184 14.49702207349851 0 2.148884229712587
185 14.99999999999243 0 1.267949201131629
186 12.50000000261767 0 0.8660254035498562
187 18.50000000113725 0 2.133974595556345
188 17.49999999974797 0 0.8660254036424218
189 5.500000003312212 0 0.8660254063503298
190 6.499999994581759 0 2.133974591646584
191 4.499999999992196 0 2.133974592372164
192 13.49926867622223 0 2.1410066273066
193 16.50054021436122 0 2.140620233813707
194 1.549038101359639 0 2.162286764600831
195 1.549038104759087 0 0.8377132392640567
196 19.08077628915161 0 1.499999999691264
197 15.77904832441744 0 0.7783023209889186
198 14.22095167512355 0 0.778302322423877
199 8.999999996113996 0 1.500000004891584
200 11.00000000027002 0 1.500000001143875
201 6.999999996850097 0 1.500000001261276
202 10.00000000039249 0 1.500000003370817
203 3.999999999840433 0 1.499999997503723
204 3.002068864378505 0 1.500000002392729
205 4.999999999296958 0 1.499999997503722
206 12.00000000020606 0 1.500000001949559
207 18.0292788982828 0 1.499999997781105
208 16.99999999923529 0 1.49999999739461
209 13.0000000065771 0 1.50000000199063
210 7.999999995472884 0 1.500000004531177
211 5.99999999939396 0 1.500000000423745
212 14.00000000152433 0 1.502577393397525
213 15.99999999500117 0 1.502577390945019
214 2.005222812414403 0 1.500000003103218
215 0.7320508042146996 0 2.267949192950121
216 0.7320508079715258 0 0.7320508076271967
217 19.27304073668353 0 2.273040735339018
218 19.27304073470157 0 0.7269592645764897
219 20 2.095657159808053 1.500000001086548
220 20 0.8914001386079673 1.500000001210004
221 20 1.497842883749622 2.257680247757522
222 20 1.497842884823993 0.7423197562589721
223 20 0.7269592676122703 0.7269592676122704
224 20 2.273040731915681 2.273040737657495
225 20 0.7269592636371758 2.273040739720361
226 20 2.27304074293326 0.7269592649119196
227 19.03413537222902 3 1.499999999695399
228 1.542920327191773 3 0.7719363754977386
229 3.487879416149926 3 2.143045446220936
230 17.4908158425466 3 2.145638476061767
231 15.49999999999999 3 2.133974603772067
232 13.49999999999999 3 2.133974603772067
233 10.49999999999998 3 0.8660254026378088
234 8.499999999999979 3 2.133974603772067
235 6.499999999999975 3 0.8660254026378088
236 4.499999999999959 3 0.8660254058427411
237 16.49999999999999 3 0.8660254058427466
238 12.49999999999998 3 0.8660254026378088
239 14.49999999999999 3 0.8660254026378088
240 11.49999999999998 3 2.133974603772067
241 5.499999999999968 3 2.133974603772067
242 8.499999999999979 3 0.8660254026378088
243 1.499999999999982 3 2.133974590952326
244 5.500000000445597 3 0.8660254040417321
245 2.500000001636018 3 2.13397459716013
246 3.014430516583325 3 1.39185519823301
247 10.50000000733363 3 2.133974600449645
248 9.500000011102204 3 2.133974586465401
249 7.500000001636007 3 2.133974597160122
250 6.500000002629015 3 2.133974600972213
251 16.50000000163602 3 2.133974597160124
252 13.49999999737094 3 0.8660254035485413
253 15.49999999999999 3 0.8660253989770315
254 11.49999999999998 3 0.8660253973745671
255 7.500000002629019 3 0.8660254035485364
256 14.49999999999999 3 2.13397459621556
257 12.49999999999999 3 2.13397459621556
258 17.49081584170394 3 0.8543615260479407
259 4.482526003245953 3 2.147194293898741
260 9.499999999999977 3 0.8660254042402776
261 18.45096189440269 3 0.837713237164734
262 18.45096189289742 3 2.162286760798816
263 0.9200122629360621 3 1.498643838291621
264 2.455165352137307 3 0.7192473826612874
265 3.95520185446507 3 1.431832378132533
266 12.00000000011317 3 1.500000000689008
267 6.000000001811115 3 1.500000003135399
268 16.00000000541552 3 1.500000001535069
269 11.00000000333674 3 1.499999998651794
270 15.0000000025691 3 1.500000001554397
271 5.000000007207607 3 1.500000003315311
272 16.9979311463695 3 1.500000000727228
273 7.000000001207198 3 1.500000001754351
274 13.99999999725791 3 1.500000002815638
275 8.000000001891872 3 1.500000000745905
276 9.000000005034376 3 1.500000003082613
277 13.00000000151717 3 1.500000003701665
278 10.00000000703771 3 1.500000002185908
279 3.499999999999975 3 0.6313972128712072
280 1.963243101720352 3 1.485639123415231
281 17.99477717881528 3 1.49999999846336
282 19.26794919418832 3 2.267949187973788
283 19.26794919760529 3 0.732050807202701
284 0.7269592622209728 3 2.273040731920573
285 0.7269592647474816 3 0.7269592640259521
286 0 1.499999999306911 0.9043428457958615
287 0 1.499999999956411 2.108599860818355
288 0 0.7423197521424134 1.502157117844606
289 0 2.257680242982099 1.502157119030031
290 0 2.273040730926174 2.273040738916388
291 0 0.7269592622233283 2.273040732034576
292 0 0.726959260160462 0.7269592635182818
293 0 2.273040734719271 0.7269592636003372
294 3.499999999995111 0.8660254037819124 3
295 5.499999999989278 0.8660254037819121 3
296 7.52831216349702 0.8496793685564099 3
297 1.504600087905821 2.234502555277197 3
298 17.5 2.133974596215559 3
299 15.49999999999999 2.133974596215559 3
300 13.49999999999999 2.133974596215559 3
301 11.49999999999998 2.133974596215559 3
302 9.507369888459298 2.158252693813887 3
303 19.06179990758373 1.49999999999844 3
304 4.499999999999966 2.133974596215564 3
305 16.49999999999472 0.8660254037857478 3
306 14.49999999999168 0.866025403785757 3
307 6.520222973934978 2.23310607323642 3
308 12.49999999998862 0.8660254037857562 3
309 10.49999999998558 0.8660254037857562 3
310 1.504600087905088 0.7654974447233308 3
311 5.501228314742249 2.168184575087683 3
312 8.504718693900683 0.8241963653050682 3
313 8.062129469918668 1.567654423567798 3
314 9.500204719105488 0.8439639345322576 3
315 13.49999999999032 0.8660254037856659 3
316 15.49999999999337 0.8660254037856573 3
317 11.49999999998694 0.8660254037856635 3
318 3.50000000000029 2.133974596215746 3
319 2.500199573437794 2.158470881365683 3
320 17.49999999999608 0.8660254037856312 3
321 2.500199573434999 0.8415291186323132 3
322 16.5 2.133974596215563 3
323 12.49999999999998 2.13397459621556 3
324 10.49999999999998 2.133974596215566 3
325 14.49999999999999 2.133974596215573 3
326 6.533030857418781 0.8082798947569572 3
327 4.499999999992195 0.8660254037819115 3
328 18.4707543799321 2.233653964774144 3
329 18.47075437993102 0.7663460352253506 3
330 0.8632236145395121 1.500000000001672 3
331 8.511583226392753 2.265322086858959 3
332 7.023949244126205 1.55455375866025 3
333 1.978803822869951 1.499999999999643 3
334 2.996533828288633 1.49999999999868 3
335 3.999999999993653 1.499999999996787 3
336 4.999999999990737 1.499999999995674 3
337 6.013071898367038 1.521691617586482 3
338 17 1.500000000002144 3
339 15.99999999999858 1.500000000001722 3
340 14.99999999999726 1.500000000001368 3
341 13.99999999999653 1.500000000001391 3
342 12.9999999999959 1.500000000001512 3
343 11.99999999999523 1.500000000001634 3
344 10.99999999999185 1.499999999999575 3
345 9.999999999983419 1.499999999993274 3
346 7.519647485728759 2.270106057053904 3
347 8.99999999997863 1.497422611922639 3
348 18.00055144457382 1.500000000000211 3
349 19.26794919243021 2.267949192429193 3
350 19.26794919243216 0.7320508075663622 3
351 0.7269592645554404 0.7269592645564527 3
352 0.726959264554207 2.27304073544632 3
353 16.49999999999929 1.499311808841614 1.5
354 11.49999999999354 1.49999999948888 1.499999999396157
355 14.4999999999969 1.500000000857279 1.5
356 9.499999998253241 1.49999999851327 1.500000001350374
357 4.499999999568695 1.499999999948927 1.5
358 6.506297569507861 1.500000000717037 1.5
359 2.503645838396454 1.498171019250281 1.5
360 12.9999999999969 1.5 1.5
361 18.51445627552215 1.501989396094014 1.5
362 8.003148783880928 1.496851214350691 1.494027219021593
363 1.29951285897171 1.814034409768913 1.193617226916396
364 10.49999999855639 1.887053292423091 1.112946707903834
365 15.50013328040213 1.886990837553064 1.113009163817972
366 5.503148784391866 1.882426004209542 1.106965161397651
367 17.5067155382047 1.886299806440072 1.882717338264747
368 3.501397891275992 1.963008300735811 1.144117142998013
369 3.509064222631465 1.108699127880962 1.891300870001587
370 10.53710814118352 1.095557492817784 1.904442506861705
371 15.46318132040538 1.093507234372884 1.903382991075319
372 17.4604287194001 1.094272510195363 1.09427251022177
373 5.542445460784082 1.09589150527029 1.904108492724012
374 1.109450976755347 1.022172502914027 1.974701632691658
375 7.257886709277328 1.991192604854649 2.030051669509088
376 8.748430587585119 1.995223257874744 2.022982465223416
377 7.253653703329574 1.993230370093919 0.9681348499106682
378 8.752606654843527 1.99728991360466 0.9753201772933983
379 13.75000000028558 0.9948828753828668 2.003820312706516
380 12.24999999962044 2.004205577725255 2.004205577725254
381 13.74999999970874 2.004205578438572 0.9957944223557171
382 12.25000000037 0.9957944215422138 0.9957944223365043
383 13.786035647364 2.021092212431091 2.021092211446135
384 12.21396435275191 2.021092211599598 0.9789077885498597
385 12.21396435226233 0.9789077888051416 2.021092211880898
386 13.78658264398234 0.9786514609591231 0.9786514611082849
387 8.799208450265853 0.9741053507285324 0.9694923517390839
388 8.801727967090656 0.972903353193202 2.031637858343943
389 7.195753862552573 0.9720631083395017 0.9594981796872836
390 7.193247079731067 0.9709137064144108 2.041711479540055
391 15.85066438876814 2.051199962041439 2.051199961319189
392 10.14981024784856 2.0511554131928 2.051155409822421
393 10.85018974768009 0.9488445904731544 0.948844590386476
394 17.15200563412623 0.9496960090093979 2.050303991499062
395 17 2.117628033607041 0.8773492478999206
396 3.999999999993653 0.8786421370978805 0.8786421371145846
397 5.857919857089128 0.9450172180823527 0.952116528352039
398 3.985339343647356 2.119514505941444 2.112363186271323
399 5.851867098904828 2.05219924953115 2.044861939858393
400 2.99965618049387 0.8718827693058661 0.8663181178249941
401 1.995016196575292 0.9001985435974185 0.8668628677207174
$EndNodes
$Elements
1895
1 2 2 1 1 1 9 158
2 2 2 1 1 50 1 158
3 2 2 1 1 27 2 157
4 2 2 1 1 2 28 157
5 2 2 1 1 29 3 156
6 2 2 1 1 3 30 156
7 2 2 1 1 48 4 159
8 2 2 1 1 4 49 159
9 2 2 1 1 9 10 117
10 2 2 1 1 9 117 158
11 2 2 1 1 10 11 128
12 2 2 1 1 117 10 128
13 2 2 1 1 11 12 101
14 2 2 1 1 11 101 128
15 2 2 1 1 12 13 134
16 2 2 1 1 101 12 134
17 2 2 1 1 13 14 102
18 2 2 1 1 13 102 134
19 2 2 1 1 14 15 133
20 2 2 1 1 102 14 133
21 2 2 1 1 15 16 103
22 2 2 1 1 15 103 133
23 2 2 1 1 16 17 119
24 2 2 1 1 103 16 119
25 2 2 1 1 17 18 121
26 2 2 1 1 119 17 121
27 2 2 1 1 18 19 116
28 2 2 1 1 18 116 121
29 2 2 1 1 19 20 124
30 2 2 1 1 116 19 124
31 2 2 1 1 20 21 115
32 2 2 1 1 20 115 124
33 2 2 1 1 21 22 122
34 2 2 1 1 115 21 122
35 2 2 1 1 22 23 113
36 2 2 1 1 22 113 122
37 2 2 1 1 23 24 123
38 2 2 1 1 113 23 123
39 2 2 1 1 24 25 112
40 2 2 1 1 24 112 123
41 2 2 1 1 25 26 127
42 2 2 1 1 112 25 127
43 2 2 1 1 26 27 136
44 2 2 1 1 127 26 136
45 2 2 1 1 136 27 157
46 2 2 1 1 28 29 110
47 2 2 1 1 28 110 157
48 2 2 1 1 110 29 156
49 2 2 1 1 30 31 135
50 2 2 1 1 30 135 156
51 2 2 1 1 31 32 105
52 2 2 1 1 31 105 135
53 2 2 1 1 32 33 129
54 2 2 1 1 105 32 129
55 2 2 1 1 33 34 106
56 2 2 1 1 33 106 129
57 2 2 1 1 34 35 132
58 2 2 1 1 106 34 132
59 2 2 1 1 35 36 107
60 2 2 1 1 35 107 132
61 2 2 1 1 36 37 130
62 2 2 1 1 107 36 130
63 2 2 1 1 37 38 108
64 2 2 1 1 37 108 130
65 2 2 1 1 38 39 131
66 2 2 1 1 108 38 131
67 2 2 1 1 39 40 109
68 2 2 1 1 39 109 131
69 2 2 1 1 40 41 138
70 2 2 1 1 109 40 138
71 2 2 1 1 41 42 153
72 2 2 1 1 138 41 153
73 2 2 1 1 42 43 114
74 2 2 1 1 42 114 153
75 2 2 1 1 43 44 118
76 2 2 1 1 114 43 118
77 2 2 1 1 44 45 111
78 2 2 1 1 44 111 118
79 2 2 1 1 45 46 125
80 2 2 1 1 111 45 125
81 2 2 1 1 46 47 126
82 2 2 1 1 125 46 126
83 2 2 1 1 47 48 104
84 2 2 1 1 47 104 126
85 2 2 1 1 104 48 159
86 2 2 1 1 49 50 137
87 2 2 1 1 49 137 159
88 2 2 1 1 137 50 158
89 2 2 1 1 128 101 141
90 2 2 1 1 101 134 142
91 2 2 1 1 141 101 142
92 2 2 1 1 102 133 144
93 2 2 1 1 134 102 143
94 2 2 1 1 143 102 144
95 2 2 1 1 103 119 120
96 2 2 1 1 103 120 139
97 2 2 1 1 133 103 139
98 2 2 1 1 126 104 140
99 2 2 1 1 104 137 140
100 2 2 1 1 137 104 159
101 2 2 1 1 105 129 145
102 2 2 1 1 135 105 155
103 2 2 1 1 105 145 155
104 2 2 1 1 129 106 146
105 2 2 1 1 106 132 147
106 2 2 1 1 146 106 147
107 2 2 1 1 107 130 149
108 2 2 1 1 132 107 148
109 2 2 1 1 148 107 149
110 2 2 1 1 130 108 150
111 2 2 1 1 108 131 151
112 2 2 1 1 150 108 151
113 2 2 1 1 131 109 152
114 2 2 1 1 109 138 154
115 2 2 1 1 152 109 154
116 2 2 1 1 110 135 155
117 2 2 1 1 135 110 156
118 2 2 1 1 136 110 155
119 2 2 1 1 110 136 157
120 2 2 1 1 118 111 143
121 2 2 1 1 111 125 142
122 2 2 1 1 111 142 143
123 2 2 1 1 123 112 146
124 2 2 1 1 112 127 145
125 2 2 1 1 112 145 146
126 2 2 1 1 122 113 148
127 2 2 1 1 113 123 147
128 2 2 1 1 113 147 148
129 2 2 1 1 114 118 144
130 2 2 1 1 139 114 144
131 2 2 1 1 114 139 153
132 2 2 1 1 115 122 149
133 2 2 1 1 124 115 150
134 2 2 1 1 115 149 150
135 2 2 1 1 121 116 152
136 2 2 1 1 116 124 151
137 2 2 1 1 116 151 152
138 2 2 1 1 117 128 140
139 2 2 1 1 137 117 140
140 2 2 1 1 117 137 158
141 2 2 1 1 118 143 144
142 2 2 1 1 120 119 154
143 2 2 1 1 119 121 154
144 2 2 1 1 120 138 153
145 2 2 1 1 138 120 154
146 2 2 1 1 139 120 153
147 2 2 1 1 121 152 154
148 2 2 1 1 122 148 149
149 2 2 1 1 123 146 147
150 2 2 1 1 124 150 151
151 2 2 1 1 125 126 141
152 2 2 1 1 125 141 142
153 2 2 1 1 126 140 141
154 2 2 1 1 127 136 155
155 2 2 1 1 145 127 155
156 2 2 1 1 140 128 141
157 2 2 1 1 145 129 146
158 2 2 1 1 149 130 150
159 2 2 1 1 151 131 152
160 2 2 1 1 147 132 148
161 2 2 1 1 133 139 144
162 2 2 1 1 142 134 143
163 2 2 3 13 9 216 1
164 2 2 3 13 1 216 93
165 2 2 3 13 2 218 27
166 2 2 3 13 95 218 2
167 2 2 3 13 5 215 51
168 2 2 3 13 94 215 5
169 2 2 3 13 69 217 6
170 2 2 3 13 6 217 96
171 2 2 3 13 10 195 9
172 2 2 3 13 195 216 9
173 2 2 3 13 11 162 10
174 2 2 3 13 162 195 10
175 2 2 3 13 12 183 11
176 2 2 3 13 11 183 162
177 2 2 3 13 13 161 12
178 2 2 3 13 161 183 12
179 2 2 3 13 14 189 13
180 2 2 3 13 13 189 161
181 2 2 3 13 15 160 14
182 2 2 3 13 160 189 14
183 2 2 3 13 16 178 15
184 2 2 3 13 15 178 160
185 2 2 3 13 17 163 16
186 2 2 3 13 163 178 16
187 2 2 3 13 18 176 17
188 2 2 3 13 17 176 163
189 2 2 3 13 19 181 18
190 2 2 3 13 18 181 176
191 2 2 3 13 20 166 19
192 2 2 3 13 166 181 19
193 2 2 3 13 21 186 20
194 2 2 3 13 20 186 166
195 2 2 3 13 22 167 21
196 2 2 3 13 167 186 21
197 2 2 3 13 23 198 22
198 2 2 3 13 22 198 167
199 2 2 3 13 24 197 23
200 2 2 3 13 23 197 185
201 2 2 3 13 185 198 23
202 2 2 3 13 25 165 24
203 2 2 3 13 165 197 24
204 2 2 3 13 26 188 25
205 2 2 3 13 25 188 165
206 2 2 3 13 27 164 26
207 2 2 3 13 164 188 26
208 2 2 3 13 27 218 164
209 2 2 3 13 51 194 52
210 2 2 3 13 51 215 194
211 2 2 3 13 52 182 53
212 2 2 3 13 52 194 182
213 2 2 3 13 53 170 54
214 2 2 3 13 53 182 170
215 2 2 3 13 54 191 55
216 2 2 3 13 170 191 54
217 2 2 3 13 55 169 56
218 2 2 3 13 55 191 169
219 2 2 3 13 56 190 57
220 2 2 3 13 169 190 56
221 2 2 3 13 57 171 58
222 2 2 3 13 57 190 171
223 2 2 3 13 58 177 59
224 2 2 3 13 171 177 58
225 2 2 3 13 59 172 60
226 2 2 3 13 59 177 172
227 2 2 3 13 60 179 61
228 2 2 3 13 172 179 60
229 2 2 3 13 61 180 62
230 2 2 3 13 179 180 61
231 2 2 3 13 62 175 63
232 2 2 3 13 62 180 175
233 2 2 3 13 63 192 64
234 2 2 3 13 175 192 63
235 2 2 3 13 64 184 65
236 2 2 3 13 64 192 184
237 2 2 3 13 65 174 66
238 2 2 3 13 65 184 174
239 2 2 3 13 66 193 67
240 2 2 3 13 174 193 66
241 2 2 3 13 67 173 68
242 2 2 3 13 67 193 173
243 2 2 3 13 68 187 69
244 2 2 3 13 173 187 68
245 2 2 3 13 187 217 69
246 2 2 3 13 93 168 94
247 2 2 3 13 93 216 168
248 2 2 3 13 168 215 94
249 2 2 3 13 96 196 95
250 2 2 3 13 196 218 95
251 2 2 3 13 96 217 196
252 2 2 3 13 178 201 160
253 2 2 3 13 160 211 189
254 2 2 3 13 201 211 160
255 2 2 3 13 161 203 183
256 2 2 3 13 189 205 161
257 2 2 3 13 161 205 203
258 2 2 3 13 183 204 162
259 2 2 3 13 162 214 195
260 2 2 3 13 204 214 162
261 2 2 3 13 176 199 163
262 2 2 3 13 163 210 178
263 2 2 3 13 199 210 163
264 2 2 3 13 164 207 188
265 2 2 3 13 196 207 164
266 2 2 3 13 164 218 196
267 2 2 3 13 188 208 165
268 2 2 3 13 165 213 197
269 2 2 3 13 208 213 165
270 2 2 3 13 166 200 181
271 2 2 3 13 186 206 166
272 2 2 3 13 166 206 200
273 2 2 3 13 167 209 186
274 2 2 3 13 198 212 167
275 2 2 3 13 167 212 209
276 2 2 3 13 168 214 194
277 2 2 3 13 194 215 168
278 2 2 3 13 195 214 168
279 2 2 3 13 168 216 195
280 2 2 3 13 169 211 190
281 2 2 3 13 191 205 169
282 2 2 3 13 205 211 169
283 2 2 3 13 182 204 170
284 2 2 3 13 170 203 191
285 2 2 3 13 170 204 203
286 2 2 3 13 171 210 177
287 2 2 3 13 190 201 171
288 2 2 3 13 201 210 171
289 2 2 3 13 177 199 172
290 2 2 3 13 172 202 179
291 2 2 3 13 199 202 172
292 2 2 3 13 173 207 187
293 2 2 3 13 193 208 173
294 2 2 3 13 173 208 207
295 2 2 3 13 184 185 174
296 2 2 3 13 185 213 174
297 2 2 3 13 174 213 193
298 2 2 3 13 180 206 175
299 2 2 3 13 175 209 192
300 2 2 3 13 206 209 175
301 2 2 3 13 181 202 176
302 2 2 3 13 176 202 199
303 2 2 3 13 177 210 199
304 2 2 3 13 178 210 201
305 2 2 3 13 179 200 180
306 2 2 3 13 179 202 200
307 2 2 3 13 200 206 180
308 2 2 3 13 200 202 181
309 2 2 3 13 194 214 182
310 2 2 3 13 182 214 204
311 2 2 3 13 203 204 183
312 2 2 3 13 184 212 185
313 2 2 3 13 192 212 184
314 2 2 3 13 197 213 185
315 2 2 3 13 185 212 198
316 2 2 3 13 186 209 206
317 2 2 3 13 187 207 196
318 2 2 3 13 196 217 187
319 2 2 3 13 207 208 188
320 2 2 3 13 189 211 205
321 2 2 3 13 190 211 201
322 2 2 3 13 203 205 191
323 2 2 3 13 209 212 192
324 2 2 3 13 193 213 208
325 2 2 4 17 28 223 2
326 2 2 4 17 2 223 95
327 2 2 4 17 3 226 29
328 2 2 4 17 97 226 3
329 2 2 4 17 6 225 70
330 2 2 4 17 96 225 6
331 2 2 4 17 71 224 7
332 2 2 4 17 7 224 98
333 2 2 4 17 29 222 28
334 2 2 4 17 222 223 28
335 2 2 4 17 29 226 222
336 2 2 4 17 70 221 71
337 2 2 4 17 70 225 221
338 2 2 4 17 221 224 71
339 2 2 4 17 95 220 96
340 2 2 4 17 95 223 220
341 2 2 4 17 220 225 96
342 2 2 4 17 98 219 97
343 2 2 4 17 219 226 97
344 2 2 4 17 98 224 219
345 2 2 4 17 219 221 220
346 2 2 4 17 220 222 219
347 2 2 4 17 219 224 221
348 2 2 4 17 222 226 219
349 2 2 4 17 221 225 220
350 2 2 4 17 220 223 222
351 2 2 5 21 30 283 3
352 2 2 5 21 3 283 97
353 2 2 5 21 4 285 48
354 2 2 5 21 99 285 4
355 2 2 5 21 7 282 72
356 2 2 5 21 98 282 7
357 2 2 5 21 90 284 8
358 2 2 5 21 8 284 100
359 2 2 5 21 31 261 30
360 2 2 5 21 261 283 30
361 2 2 5 21 32 258 31
362 2 2 5 21 258 261 31
363 2 2 5 21 33 237 32
364 2 2 5 21 237 258 32
365 2 2 5 21 34 253 33
366 2 2 5 21 33 253 237
367 2 2 5 21 35 239 34
368 2 2 5 21 239 253 34
369 2 2 5 21 36 252 35
370 2 2 5 21 35 252 239
371 2 2 5 21 37 238 36
372 2 2 5 21 238 252 36
373 2 2 5 21 38 254 37
374 2 2 5 21 37 254 238
375 2 2 5 21 39 233 38
376 2 2 5 21 233 254 38
377 2 2 5 21 40 260 39
378 2 2 5 21 39 260 233
379 2 2 5 21 41 242 40
380 2 2 5 21 242 260 40
381 2 2 5 21 42 255 41
382 2 2 5 21 41 255 242
383 2 2 5 21 43 235 42
384 2 2 5 21 235 255 42
385 2 2 5 21 44 244 43
386 2 2 5 21 43 244 235
387 2 2 5 21 45 236 44
388 2 2 5 21 236 244 44
389 2 2 5 21 46 279 45
390 2 2 5 21 45 279 236
391 2 2 5 21 47 264 46
392 2 2 5 21 264 279 46
393 2 2 5 21 48 228 47
394 2 2 5 21 228 264 47
395 2 2 5 21 48 285 228
396 2 2 5 21 72 262 73
397 2 2 5 21 72 282 262
398 2 2 5 21 73 230 74
399 2 2 5 21 73 262 230
400 2 2 5 21 74 251 75
401 2 2 5 21 230 251 74
402 2 2 5 21 75 231 76
403 2 2 5 21 75 251 231
404 2 2 5 21 76 256 77
405 2 2 5 21 231 256 76
406 2 2 5 21 77 232 78
407 2 2 5 21 77 256 232
408 2 2 5 21 78 257 79
409 2 2 5 21 232 257 78
410 2 2 5 21 79 240 80
411 2 2 5 21 79 257 240
412 2 2 5 21 80 247 81
413 2 2 5 21 240 247 80
414 2 2 5 21 81 248 82
415 2 2 5 21 247 248 81
416 2 2 5 21 82 234 83
417 2 2 5 21 82 248 234
418 2 2 5 21 83 249 84
419 2 2 5 21 234 249 83
420 2 2 5 21 84 250 85
421 2 2 5 21 249 250 84
422 2 2 5 21 85 241 86
423 2 2 5 21 85 250 241
424 2 2 5 21 86 259 87
425 2 2 5 21 241 259 86
426 2 2 5 21 87 229 88
427 2 2 5 21 87 259 229
428 2 2 5 21 88 245 89
429 2 2 5 21 229 245 88
430 2 2 5 21 89 243 90
431 2 2 5 21 89 245 243
432 2 2 5 21 243 284 90
433 2 2 5 21 97 227 98
434 2 2 5 21 97 283 227
435 2 2 5 21 227 282 98
436 2 2 5 21 100 263 99
437 2 2 5 21 263 285 99
438 2 2 5 21 100 284 263
439 2 2 5 21 261 281 227
440 2 2 5 21 227 283 261
441 2 2 5 21 227 281 262
442 2 2 5 21 262 282 227
443 2 2 5 21 263 280 228
444 2 2 5 21 228 285 263
445 2 2 5 21 228 280 264
446 2 2 5 21 229 246 245
447 2 2 5 21 229 265 246
448 2 2 5 21 259 265 229
449 2 2 5 21 230 272 251
450 2 2 5 21 262 281 230
451 2 2 5 21 230 281 272
452 2 2 5 21 251 268 231
453 2 2 5 21 231 270 256
454 2 2 5 21 268 270 231
455 2 2 5 21 256 274 232
456 2 2 5 21 232 277 257
457 2 2 5 21 274 277 232
458 2 2 5 21 233 269 254
459 2 2 5 21 260 278 233
460 2 2 5 21 233 278 269
461 2 2 5 21 248 276 234
462 2 2 5 21 234 275 249
463 2 2 5 21 234 276 275
464 2 2 5 21 244 267 235
465 2 2 5 21 235 273 255
466 2 2 5 21 267 273 235
467 2 2 5 21 236 271 244
468 2 2 5 21 265 271 236
469 2 2 5 21 236 279 265
470 2 2 5 21 253 268 237
471 2 2 5 21 237 272 258
472 2 2 5 21 268 272 237
473 2 2 5 21 238 277 252
474 2 2 5 21 254 266 238
475 2 2 5 21 266 277 238
476 2 2 5 21 252 274 239
477 2 2 5 21 239 270 253
478 2 2 5 21 239 274 270
479 2 2 5 21 240 269 247
480 2 2 5 21 257 266 240
481 2 2 5 21 266 269 240
482 2 2 5 21 250 267 241
483 2 2 5 21 241 271 259
484 2 2 5 21 267 271 241
485 2 2 5 21 255 275 242
486 2 2 5 21 242 276 260
487 2 2 5 21 275 276 242
488 2 2 5 21 245 280 243
489 2 2 5 21 243 280 263
490 2 2 5 21 263 284 243
491 2 2 5 21 244 271 267
492 2 2 5 21 246 280 245
493 2 2 5 21 246 279 264
494 2 2 5 21 264 280 246
495 2 2 5 21 265 279 246
496 2 2 5 21 247 278 248
497 2 2 5 21 269 278 247
498 2 2 5 21 248 278 276
499 2 2 5 21 249 273 250
500 2 2 5 21 249 275 273
501 2 2 5 21 250 273 267
502 2 2 5 21 251 272 268
503 2 2 5 21 252 277 274
504 2 2 5 21 253 270 268
505 2 2 5 21 254 269 266
506 2 2 5 21 273 275 255
507 2 2 5 21 270 274 256
508 2 2 5 21 257 277 266
509 2 2 5 21 258 281 261
510 2 2 5 21 272 281 258
511 2 2 5 21 259 271 265
512 2 2 5 21 276 278 260
513 2 2 6 25 1 292 50
514 2 2 6 25 93 292 1
515 2 2 6 25 49 293 4
516 2 2 6 25 4 293 99
517 2 2 6 25 92 291 5
518 2 2 6 25 5 291 94
519 2 2 6 25 8 290 91
520 2 2 6 25 100 290 8
521 2 2 6 25 50 286 49
522 2 2 6 25 286 293 49
523 2 2 6 25 50 292 286
524 2 2 6 25 91 287 92
525 2 2 6 25 91 290 287
526 2 2 6 25 287 291 92
527 2 2 6 25 94 288 93
528 2 2 6 25 288 292 93
529 2 2 6 25 94 291 288
530 2 2 6 25 99 289 100
531 2 2 6 25 99 293 289
532 2 2 6 25 289 290 100
533 2 2 6 25 286 288 287
534 2 2 6 25 287 289 286
535 2 2 6 25 286 292 288
536 2 2 6 25 289 293 286
537 2 2 6 25 288 291 287
538 2 2 6 25 287 290 289
539 2 2 2 26 5 51 351
540 2 2 2 26 92 5 351
541 2 2 2 26 69 6 350
542 2 2 2 26 6 70 350
543 2 2 2 26 71 7 349
544 2 2 2 26 7 72 349
545 2 2 2 26 90 8 352
546 2 2 2 26 8 91 352
547 2 2 2 26 51 52 310
548 2 2 2 26 51 310 351
549 2 2 2 26 52 53 321
550 2 2 2 26 310 52 321
551 2 2 2 26 53 54 294
552 2 2 2 26 53 294 321
553 2 2 2 26 54 55 327
554 2 2 2 26 294 54 327
555 2 2 2 26 55 56 295
556 2 2 2 26 55 295 327
557 2 2 2 26 56 57 326
558 2 2 2 26 295 56 326
559 2 2 2 26 57 58 296
560 2 2 2 26 57 296 326
561 2 2 2 26 58 59 312
562 2 2 2 26 296 58 312
563 2 2 2 26 59 60 314
564 2 2 2 26 312 59 314
565 2 2 2 26 60 61 309
566 2 2 2 26 60 309 314
567 2 2 2 26 61 62 317
568 2 2 2 26 309 61 317
569 2 2 2 26 62 63 308
570 2 2 2 26 62 308 317
571 2 2 2 26 63 64 315
572 2 2 2 26 308 63 315
573 2 2 2 26 64 65 306
574 2 2 2 26 64 306 315
575 2 2 2 26 65 66 316
576 2 2 2 26 306 65 316
577 2 2 2 26 66 67 305
578 2 2 2 26 66 305 316
579 2 2 2 26 67 68 320
580 2 2 2 26 305 67 320
581 2 2 2 26 68 69 329
582 2 2 2 26 320 68 329
583 2 2 2 26 329 69 350
584 2 2 2 26 70 71 303
585 2 2 2 26 70 303 350
586 2 2 2 26 303 71 349
587 2 2 2 26 72 73 328
588 2 2 2 26 72 328 349
589 2 2 2 26 73 74 298
590 2 2 2 26 73 298 328
591 2 2 2 26 74 75 322
592 2 2 2 26 298 74 322
593 2 2 2 26 75 76 299
594 2 2 2 26 75 299 322
595 2 2 2 26 76 77 325
596 2 2 2 26 299 76 325
597 2 2 2 26 77 78 300
598 2 2 2 26 77 300 325
599 2 2 2 26 78 79 323
600 2 2 2 26 300 78 323
601 2 2 2 26 79 80 301
602 2 2 2 26 79 301 323
603 2 2 2 26 80 81 324
604 2 2 2 26 301 80 324
605 2 2 2 26 81 82 302
606 2 2 2 26 81 302 324
607 2 2 2 26 82 83 331
608 2 2 2 26 302 82 331
609 2 2 2 26 83 84 346
610 2 2 2 26 331 83 346
611 2 2 2 26 84 85 307
612 2 2 2 26 84 307 346
613 2 2 2 26 85 86 311
614 2 2 2 26 307 85 311
615 2 2 2 26 86 87 304
616 2 2 2 26 86 304 311
617 2 2 2 26 87 88 318
618 2 2 2 26 304 87 318
619 2 2 2 26 88 89 319
620 2 2 2 26 318 88 319
621 2 2 2 26 89 90 297
622 2 2 2 26 89 297 319
623 2 2 2 26 297 90 352
624 2 2 2 26 91 92 330
625 2 2 2 26 91 330 352
626 2 2 2 26 330 92 351
627 2 2 2 26 321 294 334
628 2 2 2 26 294 327 335
629 2 2 2 26 334 294 335
630 2 2 2 26 295 326 337
631 2 2 2 26 327 295 336
632 2 2 2 26 336 295 337
633 2 2 2 26 296 312 313
634 2 2 2 26 296 313 332
635 2 2 2 26 326 296 332
636 2 2 2 26 319 297 333
637 2 2 2 26 297 330 333
638 2 2 2 26 330 297 352
639 2 2 2 26 298 322 338
640 2 2 2 26 328 298 348
641 2 2 2 26 298 338 348
642 2 2 2 26 322 299 339
643 2 2 2 26 299 325 340
644 2 2 2 26 339 299 340
645 2 2 2 26 300 323 342
646 2 2 2 26 325 300 341
647 2 2 2 26 341 300 342
648 2 2 2 26 323 301 343
649 2 2 2 26 301 324 344
650 2 2 2 26 343 301 344
651 2 2 2 26 324 302 345
652 2 2 2 26 302 331 347
653 2 2 2 26 345 302 347
654 2 2 2 26 303 328 348
655 2 2 2 26 328 303 349
656 2 2 2 26 329 303 348
657 2 2 2 26 303 329 350
658 2 2 2 26 311 304 336
659 2 2 2 26 304 318 335
660 2 2 2 26 304 335 336
661 2 2 2 26 316 305 339
662 2 2 2 26 305 320 338
663 2 2 2 26 305 338 339
664 2 2 2 26 315 306 341
665 2 2 2 26 306 316 340
666 2 2 2 26 306 340 341
667 2 2 2 26 307 311 337
668 2 2 2 26 332 307 337
669 2 2 2 26 307 332 346
670 2 2 2 26 308 315 342
671 2 2 2 26 317 308 343
672 2 2 2 26 308 342 343
673 2 2 2 26 314 309 345
674 2 2 2 26 309 317 344
675 2 2 2 26 309 344 345
676 2 2 2 26 310 321 333
677 2 2 2 26 330 310 333
678 2 2 2 26 310 330 351
679 2 2 2 26 311 336 337
680 2 2 2 26 313 312 347
681 2 2 2 26 312 314 347
682 2 2 2 26 313 331 346
683 2 2 2 26 331 313 347
684 2 2 2 26 332 313 346
685 2 2 2 26 314 345 347
686 2 2 2 26 315 341 342
687 2 2 2 26 316 339 340
688 2 2 2 26 317 343 344
689 2 2 2 26 318 319 334
690 2 2 2 26 318 334 335
691 2 2 2 26 319 333 334
692 2 2 2 26 320 329 348
693 2 2 2 26 338 320 348
694 2 2 2 26 333 321 334
695 2 2 2 26 338 322 339
696 2 2 2 26 342 323 343
697 2 2 2 26 344 324 345
698 2 2 2 26 340 325 341
699 2 2 2 26 326 332 337
700 2 2 2 26 335 327 336
701 4 2 7 1 261 135 361 395
702 4 2 7 1 245 229 319 398
703 4 2 7 1 105 361 135 395
704 4 2 7 1 319 229 318 398
705 4 2 7 1 245 319 359 398
706 4 2 7 1 297 243 359 363
707 4 2 7 1 113 123 147 355
708 4 2 7 1 146 123 112 353
709 4 2 7 1 123 147 355 365
710 4 2 7 1 123 353 146 365
711 4 2 7 1 258 261 281 395
712 4 2 7 1 325 355 256 391
713 4 2 7 1 176 121 356 393
714 4 2 7 1 240 354 301 392
715 4 2 7 1 123 197 112 353
716 4 2 7 1 105 155 135 361
717 4 2 7 1 261 361 281 395
718 4 2 7 1 321 359 182 374
719 4 2 7 1 187 329 361 394
720 4 2 7 1 245 243 280 359
721 4 2 7 1 105 155 361 395
722 4 2 7 1 319 333 297 359
723 4 2 7 1 333 297 359 363
724 4 2 7 1 321 182 194 374
725 4 2 7 1 261 135 283 361
726 4 2 7 1 282 328 262 361
727 4 2 7 1 136 164 157 361
728 4 2 7 1 225 217 350 361
729 4 2 7 1 223 157 218 361
730 4 2 7 1 113 185 123 355
731 4 2 7 1 297 352 363 374
732 4 2 7 1 121 152 356 393
733 4 2 7 1 158 292 216 363
734 4 2 7 1 283 135 156 361
735 4 2 7 1 282 349 328 361
736 4 2 7 1 226 283 156 361
737 4 2 7 1 282 224 349 361
738 4 2 7 1 134 396 161 397
739 4 2 7 1 284 352 290 363
740 4 2 7 1 340 355 325 391
741 4 2 7 1 256 355 270 391
742 4 2 7 1 269 354 240 392
743 4 2 7 1 301 354 344 392
744 4 2 7 1 202 176 356 393
745 4 2 7 1 158 363 216 401
746 4 2 7 1 259 304 398 399
747 4 2 7 1 361 367 281 395
748 4 2 7 1 218 157 164 361
749 4 2 7 1 221 225 303 361
750 4 2 7 1 292 216 363 374
751 4 2 7 1 352 290 363 374
752 4 2 7 1 221 303 224 361
753 4 2 7 1 197 165 112 353
754 4 2 7 1 333 297 363 374
755 4 2 7 1 310 321 194 374
756 4 2 7 1 216 363 374 401
757 4 2 7 1 243 280 359 363
758 4 2 7 1 334 369 359 398
759 4 2 7 1 182 214 194 374
760 4 2 7 1 155 372 361 395
761 4 2 7 1 182 359 214 374
762 4 2 7 1 225 350 303 361
763 4 2 7 1 303 349 224 361
764 4 2 7 1 348 361 329 394
765 4 2 7 1 333 363 359 374
766 4 2 7 1 187 361 207 394
767 4 2 7 1 213 353 197 371
768 4 2 7 1 292 288 216 374
769 4 2 7 1 325 256 231 391
770 4 2 7 1 231 299 325 391
771 4 2 7 1 247 240 301 392
772 4 2 7 1 324 247 301 392
773 4 2 7 1 333 359 321 374
774 4 2 7 1 176 181 121 393
775 4 2 7 1 187 173 329 394
776 4 2 7 1 126 359 264 363
777 4 2 7 1 314 370 172 388
778 4 2 7 1 172 370 356 388
779 4 2 7 1 314 356 370 388
780 4 2 7 1 297 330 352 374
781 4 2 7 1 216 374 168 401
782 4 2 7 1 121 176 356 387
783 4 2 7 1 121 181 116 393
784 4 2 7 1 217 196 187 361
785 4 2 7 1 218 164 196 361
786 4 2 7 1 191 357 327 373
787 4 2 7 1 259 241 304 399
788 4 2 7 1 329 303 350 361
789 4 2 7 1 136 157 110 361
790 4 2 7 1 102 134 161 397
791 4 2 7 1 189 102 161 397
792 4 2 7 1 256 355 325 383
793 4 2 7 1 239 355 132 365
794 4 2 7 1 108 254 364 384
795 4 2 7 1 108 364 354 384
796 4 2 7 1 354 364 254 384
797 4 2 7 1 109 260 356 364
798 4 2 7 1 349 303 328 361
799 4 2 7 1 135 110 156 361
800 4 2 7 1 185 197 123 371
801 4 2 7 1 241 311 304 399
802 4 2 7 1 354 370 344 392
803 4 2 7 1 114 358 235 366
804 4 2 7 1 164 361 136 372
805 4 2 7 1 217 225 220 361
806 4 2 7 1 218 220 223 361
807 4 2 7 1 340 371 355 391
808 4 2 7 1 104 264 228 363
809 4 2 7 1 327 357 191 369
810 4 2 7 1 355 365 270 391
811 4 2 7 1 269 364 354 392
812 4 2 7 1 152 364 356 393
813 4 2 7 1 240 301 354 380
814 4 2 7 1 239 132 355 381
815 4 2 7 1 109 356 260 378
816 4 2 7 1 173 320 329 394
817 4 2 7 1 289 284 290 363
818 4 2 7 1 283 226 219 361
819 4 2 7 1 224 282 219 361
820 4 2 7 1 165 112 353 372
821 4 2 7 1 236 357 111 366
822 4 2 7 1 205 189 161 397
823 4 2 7 1 184 355 306 371
824 4 2 7 1 168 216 288 374
825 4 2 7 1 121 116 152 393
826 4 2 7 1 217 220 196 361
827 4 2 7 1 218 196 220 361
828 4 2 7 1 184 306 355 379
829 4 2 7 1 235 358 114 377
830 4 2 7 1 227 261 283 361
831 4 2 7 1 262 227 282 361
832 4 2 7 1 310 333 321 374
833 4 2 7 1 305 193 371 394
834 4 2 7 1 143 366 357 397
835 4 2 7 1 197 213 165 353
836 4 2 7 1 299 340 325 391
837 4 2 7 1 231 256 270 391
838 4 2 7 1 247 269 240 392
839 4 2 7 1 324 301 344 392
840 4 2 7 1 202 181 176 393
841 4 2 7 1 202 356 370 393
842 4 2 7 1 289 263 284 363
843 4 2 7 1 104 126 264 363
844 4 2 7 1 290 352 330 374
845 4 2 7 1 216 168 195 401
846 4 2 7 1 262 361 328 367
847 4 2 7 1 182 359 321 369
848 4 2 7 1 171 296 177 388
849 4 2 7 1 171 296 388 390
850 4 2 7 1 317 180 370 385
851 4 2 7 1 178 163 103 387
852 4 2 7 1 236 111 357 368
853 4 2 7 1 205 357 373 397
854 4 2 7 1 178 387 103 389
855 4 2 7 1 143 134 102 397
856 4 2 7 1 320 348 329 394
857 4 2 7 1 113 185 355 386
858 4 2 7 1 283 219 227 361
859 4 2 7 1 282 227 219 361
860 4 2 7 1 312 177 296 388
861 4 2 7 1 361 372 367 395
862 4 2 7 1 336 373 357 399
863 4 2 7 1 119 103 163 387
864 4 2 7 1 322 251 367 391
865 4 2 7 1 259 271 241 399
866 4 2 7 1 117 158 216 401
867 4 2 7 1 311 336 304 399
868 4 2 7 1 122 382 167 386
869 4 2 7 1 232 300 380 383
870 4 2 7 1 238 130 381 384
871 4 2 7 1 286 288 292 374
872 4 2 7 1 175 308 379 385
873 4 2 7 1 187 207 173 394
874 4 2 7 1 271 357 366 399
875 4 2 7 1 192 175 308 379
876 4 2 7 1 317 370 354 385
877 4 2 7 1 354 370 180 385
878 4 2 7 1 232 300 323 380
879 4 2 7 1 238 130 107 381
880 4 2 7 1 107 252 238 381
881 4 2 7 1 122 186 167 382
882 4 2 7 1 323 257 232 380
883 4 2 7 1 115 186 122 382
884 4 2 7 1 308 315 192 379
885 4 2 7 1 126 264 359 368
886 4 2 7 1 221 220 225 361
887 4 2 7 1 222 223 220 361
888 4 2 7 1 226 222 219 361
889 4 2 7 1 221 224 219 361
890 4 2 7 1 264 359 280 363
891 4 2 7 1 158 137 292 363
892 4 2 7 1 326 190 373 390
893 4 2 7 1 287 363 290 374
894 4 2 7 1 348 367 361 394
895 4 2 7 1 361 372 207 394
896 4 2 7 1 345 314 356 370
897 4 2 7 1 242 377 153 378
898 4 2 7 1 359 369 368 398
899 4 2 7 1 284 263 243 363
900 4 2 7 1 346 375 234 376
901 4 2 7 1 255 153 242 377
902 4 2 7 1 117 216 195 401
903 4 2 7 1 249 234 346 375
904 4 2 7 1 202 356 172 370
905 4 2 7 1 210 171 388 390
906 4 2 7 1 144 358 114 366
907 4 2 7 1 210 171 177 388
908 4 2 7 1 178 210 387 389
909 4 2 7 1 126 140 359 363
910 4 2 7 1 138 242 153 378
911 4 2 7 1 178 210 163 387
912 4 2 7 1 331 346 234 376
913 4 2 7 1 152 109 356 364
914 4 2 7 1 205 357 191 373
915 4 2 7 1 358 373 190 390
916 4 2 7 1 132 355 147 365
917 4 2 7 1 270 355 239 365
918 4 2 7 1 254 354 269 364
919 4 2 7 1 151 354 108 364
920 4 2 7 1 260 278 356 364
921 4 2 7 1 327 357 336 373
922 4 2 7 1 359 214 374 401
923 4 2 7 1 296 313 388 390
924 4 2 7 1 326 373 358 390
925 4 2 7 1 235 358 267 366
926 4 2 7 1 113 198 185 386
927 4 2 7 1 103 387 120 389
928 4 2 7 1 210 388 362 390
929 4 2 7 1 264 280 228 363
930 4 2 7 1 154 152 109 356
931 4 2 7 1 121 152 154 356
932 4 2 7 1 347 345 314 356
933 4 2 7 1 114 358 144 377
934 4 2 7 1 155 136 361 372
935 4 2 7 1 286 292 363 374
936 4 2 7 1 290 330 287 374
937 4 2 7 1 362 387 210 389
938 4 2 7 1 362 388 313 390
939 4 2 7 1 347 356 314 388
940 4 2 7 1 142 357 111 368
941 4 2 7 1 121 356 154 387
942 4 2 7 1 240 269 266 354
943 4 2 7 1 266 269 254 354
944 4 2 7 1 340 306 341 355
945 4 2 7 1 113 147 148 355
946 4 2 7 1 343 344 301 354
947 4 2 7 1 132 148 147 355
948 4 2 7 1 341 325 340 355
949 4 2 7 1 343 317 344 354
950 4 2 7 1 108 151 150 354
951 4 2 7 1 260 278 276 356
952 4 2 7 1 180 206 200 354
953 4 2 7 1 270 256 274 355
954 4 2 7 1 239 270 274 355
955 4 2 7 1 199 202 176 356
956 4 2 7 1 199 172 202 356
957 4 2 7 1 111 357 143 366
958 4 2 7 1 317 344 354 370
959 4 2 7 1 180 354 200 370
960 4 2 7 1 112 145 146 353
961 4 2 7 1 120 387 362 389
962 4 2 7 1 191 357 203 369
963 4 2 7 1 306 355 340 371
964 4 2 7 1 327 335 357 369
965 4 2 7 1 132 106 253 365
966 4 2 7 1 253 239 132 365
967 4 2 7 1 131 108 254 364
968 4 2 7 1 254 233 131 364
969 4 2 7 1 253 106 129 365
970 4 2 7 1 129 237 253 365
971 4 2 7 1 235 273 267 358
972 4 2 7 1 211 190 201 358
973 4 2 7 1 203 191 205 357
974 4 2 7 1 144 358 139 377
975 4 2 7 1 314 179 172 370
976 4 2 7 1 345 356 347 392
977 4 2 7 1 337 358 326 373
978 4 2 7 1 268 353 272 391
979 4 2 7 1 276 356 278 392
980 4 2 7 1 151 150 354 393
981 4 2 7 1 206 200 354 393
982 4 2 7 1 338 339 353 394
983 4 2 7 1 338 353 339 391
984 4 2 7 1 145 353 112 372
985 4 2 7 1 309 179 314 370
986 4 2 7 1 144 389 358 397
987 4 2 7 1 154 356 109 378
988 4 2 7 1 353 365 268 395
989 4 2 7 1 230 322 251 367
990 4 2 7 1 174 305 193 371
991 4 2 7 1 172 356 199 388
992 4 2 7 1 211 190 358 373
993 4 2 7 1 146 365 353 395
994 4 2 7 1 129 237 365 395
995 4 2 7 1 199 356 176 387
996 4 2 7 1 316 305 174 371
997 4 2 7 1 356 376 347 392
998 4 2 7 1 335 336 327 357
999 4 2 7 1 109 233 260 364
1000 4 2 7 1 322 230 298 367
1001 4 2 7 1 111 142 143 357
1002 4 2 7 1 113 355 148 386
1003 4 2 7 1 254 266 354 384
1004 4 2 7 1 325 355 341 383
1005 4 2 7 1 317 354 343 385
1006 4 2 7 1 108 354 150 384
1007 4 2 7 1 274 355 256 383
1008 4 2 7 1 206 354 180 385
1009 4 2 7 1 289 290 287 363
1010 4 2 7 1 114 144 139 377
1011 4 2 7 1 312 296 313 388
1012 4 2 7 1 190 201 358 390
1013 4 2 7 1 328 361 348 367
1014 4 2 7 1 109 131 233 364
1015 4 2 7 1 302 347 376 392
1016 4 2 7 1 294 182 321 369
1017 4 2 7 1 211 358 201 397
1018 4 2 7 1 103 119 120 387
1019 4 2 7 1 267 358 273 399
1020 4 2 7 1 204 359 182 369
1021 4 2 7 1 170 182 294 369
1022 4 2 7 1 191 170 294 369
1023 4 2 7 1 327 191 294 369
1024 4 2 7 1 268 272 353 395
1025 4 2 7 1 338 305 339 394
1026 4 2 7 1 145 146 353 395
1027 4 2 7 1 122 149 382 386
1028 4 2 7 1 209 167 382 386
1029 4 2 7 1 308 342 379 385
1030 4 2 7 1 342 380 300 383
1031 4 2 7 1 232 380 277 383
1032 4 2 7 1 149 381 130 384
1033 4 2 7 1 277 238 381 384
1034 4 2 7 1 276 278 248 392
1035 4 2 7 1 151 124 150 393
1036 4 2 7 1 206 166 200 393
1037 4 2 7 1 139 358 144 389
1038 4 2 7 1 237 268 365 395
1039 4 2 7 1 326 358 337 390
1040 4 2 7 1 209 175 379 385
1041 4 2 7 1 165 353 208 372
1042 4 2 7 1 240 354 266 380
1043 4 2 7 1 301 343 354 380
1044 4 2 7 1 148 355 132 381
1045 4 2 7 1 239 355 274 381
1046 4 2 7 1 169 191 295 373
1047 4 2 7 1 295 191 327 373
1048 4 2 7 1 341 355 306 379
1049 4 2 7 1 322 338 339 391
1050 4 2 7 1 332 337 358 390
1051 4 2 7 1 251 268 272 391
1052 4 2 7 1 146 129 365 395
1053 4 2 7 1 188 164 136 372
1054 4 2 7 1 321 359 334 369
1055 4 2 7 1 260 356 276 378
1056 4 2 7 1 126 359 141 368
1057 4 2 7 1 205 203 357 396
1058 4 2 7 1 271 357 236 366
1059 4 2 7 1 358 389 201 397
1060 4 2 7 1 244 118 235 366
1061 4 2 7 1 213 208 165 353
1062 4 2 7 1 126 104 140 363
1063 4 2 7 1 207 361 164 372
1064 4 2 7 1 273 358 235 377
1065 4 2 7 1 317 180 309 370
1066 4 2 7 1 309 180 179 370
1067 4 2 7 1 160 201 389 397
1068 4 2 7 1 242 275 377 378
1069 4 2 7 1 246 359 264 368
1070 4 2 7 1 136 110 155 361
1071 4 2 7 1 303 329 348 361
1072 4 2 7 1 143 357 142 396
1073 4 2 7 1 302 345 347 392
1074 4 2 7 1 208 353 213 394
1075 4 2 7 1 111 118 236 366
1076 4 2 7 1 242 275 255 377
1077 4 2 7 1 336 357 335 398
1078 4 2 7 1 303 348 328 361
1079 4 2 7 1 155 110 135 361
1080 4 2 7 1 308 342 315 379
1081 4 2 7 1 184 355 212 379
1082 4 2 7 1 267 273 250 399
1083 4 2 7 1 232 257 277 380
1084 4 2 7 1 342 323 300 380
1085 4 2 7 1 149 107 130 381
1086 4 2 7 1 115 122 149 382
1087 4 2 7 1 277 238 252 381
1088 4 2 7 1 209 167 186 382
1089 4 2 7 1 332 358 337 399
1090 4 2 7 1 192 209 175 379
1091 4 2 7 1 118 244 236 366
1092 4 2 7 1 292 137 286 363
1093 4 2 7 1 165 188 112 372
1094 4 2 7 1 188 127 112 372
1095 4 2 7 1 332 375 358 399
1096 4 2 7 1 114 235 118 366
1097 4 2 7 1 234 375 275 376
1098 4 2 7 1 316 174 306 371
1099 4 2 7 1 234 249 275 375
1100 4 2 7 1 188 136 127 372
1101 4 2 7 1 160 211 201 397
1102 4 2 7 1 328 298 230 367
1103 4 2 7 1 328 230 262 367
1104 4 2 7 1 360 382 149 386
1105 4 2 7 1 209 382 360 386
1106 4 2 7 1 360 379 342 385
1107 4 2 7 1 342 360 380 383
1108 4 2 7 1 149 360 381 384
1109 4 2 7 1 277 381 360 384
1110 4 2 7 1 277 380 360 383
1111 4 2 7 1 144 133 389 397
1112 4 2 7 1 209 379 360 385
1113 4 2 7 1 174 184 306 371
1114 4 2 7 1 182 204 214 359
1115 4 2 7 1 281 361 262 367
1116 4 2 7 1 193 208 213 394
1117 4 2 7 1 264 246 280 359
1118 4 2 7 1 265 357 271 398
1119 4 2 7 1 236 271 265 357
1120 4 2 7 1 169 295 190 373
1121 4 2 7 1 236 357 265 368
1122 4 2 7 1 280 246 245 359
1123 4 2 7 1 188 112 25 165
1124 4 2 7 1 112 188 25 127
1125 4 2 7 1 107 238 36 130
1126 4 2 7 1 107 238 252 36
1127 4 2 7 1 132 34 253 106
1128 4 2 7 1 21 122 186 167
1129 4 2 7 1 253 33 129 106
1130 4 2 7 1 254 233 38 131
1131 4 2 7 1 131 38 254 108
1132 4 2 7 1 21 122 115 186
1133 4 2 7 1 253 239 34 132
1134 4 2 7 1 78 300 323 232
1135 4 2 7 1 232 323 78 257
1136 4 2 7 1 253 33 237 129
1137 4 2 7 1 231 325 76 256
1138 4 2 7 1 299 325 76 231
1139 4 2 7 1 301 324 80 247
1140 4 2 7 1 240 301 80 247
1141 4 2 7 1 180 61 309 179
1142 4 2 7 1 61 309 317 180
1143 4 2 7 1 191 294 54 327
1144 4 2 7 1 294 191 54 170
1145 4 2 7 1 139 144 133 389
1146 4 2 7 1 362 377 275 378
1147 4 2 7 1 153 377 120 378
1148 4 2 7 1 332 326 337 390
1149 4 2 7 1 63 308 192 175
1150 4 2 7 1 63 308 315 192
1151 4 2 7 1 196 164 207 361
1152 4 2 7 1 207 187 196 361
1153 4 2 7 1 275 375 362 376
1154 4 2 7 1 313 375 346 376
1155 4 2 7 1 345 370 356 392
1156 4 2 7 1 174 306 65 316
1157 4 2 7 1 353 371 339 391
1158 4 2 7 1 295 326 190 373
1159 4 2 7 1 138 153 120 378
1160 4 2 7 1 116 121 18 181
1161 4 2 7 1 60 314 309 179
1162 4 2 7 1 121 176 18 181
1163 4 2 7 1 314 60 172 179
1164 4 2 7 1 298 322 74 230
1165 4 2 7 1 251 74 322 230
1166 4 2 7 1 294 53 182 170
1167 4 2 7 1 321 294 53 182
1168 4 2 7 1 193 174 66 305
1169 4 2 7 1 316 66 174 305
1170 4 2 7 1 331 313 346 376
1171 4 2 7 1 306 174 65 184
1172 4 2 7 1 307 375 332 399
1173 4 2 7 1 191 295 55 169
1174 4 2 7 1 295 191 55 327
1175 4 2 7 1 102 13 161 134
1176 4 2 7 1 13 161 189 102
1177 4 2 7 1 56 190 169 295
1178 4 2 7 1 261 227 281 361
1179 4 2 7 1 281 227 262 361
1180 4 2 7 1 268 365 353 391
1181 4 2 7 1 356 364 278 392
1182 4 2 7 1 354 364 151 393
1183 4 2 7 1 214 359 204 400
1184 4 2 7 1 233 109 39 131
1185 4 2 7 1 260 109 39 233
1186 4 2 7 1 126 140 141 359
1187 4 2 7 1 319 334 333 359
1188 4 2 7 1 333 334 321 359
1189 4 2 7 1 279 111 236 368
1190 4 2 7 1 267 366 358 399
1191 4 2 7 1 353 367 338 394
1192 4 2 7 1 272 367 353 395
1193 4 2 7 1 279 125 111 368
1194 4 2 7 1 318 88 229 319
1195 4 2 7 1 245 229 88 319
1196 4 2 7 1 200 370 354 393
1197 4 2 7 1 185 355 184 371
1198 4 2 7 1 357 368 142 396
1199 4 2 7 1 145 353 372 395
1200 4 2 7 1 295 56 190 326
1201 4 2 7 1 126 125 279 368
1202 4 2 7 1 103 163 16 119
1203 4 2 7 1 177 58 312 296
1204 4 2 7 1 141 400 359 401
1205 4 2 7 1 307 332 337 399
1206 4 2 7 1 16 178 163 103
1207 4 2 7 1 58 177 171 296
1208 4 2 7 1 203 369 357 396
1209 4 2 7 1 264 126 279 368
1210 4 2 7 1 335 357 369 398
1211 4 2 7 1 236 118 44 244
1212 4 2 7 1 44 111 118 236
1213 4 2 7 1 211 373 358 397
1214 4 2 7 1 214 359 400 401
1215 4 2 7 1 144 358 366 397
1216 4 2 7 1 199 356 387 388
1217 4 2 7 1 154 356 378 387
1218 4 2 7 1 347 376 356 388
1219 4 2 7 1 184 185 212 355
1220 4 2 7 1 208 372 353 394
1221 4 2 7 1 337 358 373 399
1222 4 2 7 1 319 89 245 297
1223 4 2 7 1 355 381 148 386
1224 4 2 7 1 266 380 354 384
1225 4 2 7 1 354 380 343 385
1226 4 2 7 1 274 381 355 383
1227 4 2 7 1 150 354 382 384
1228 4 2 7 1 206 382 354 385
1229 4 2 7 1 341 355 379 383
1230 4 2 7 1 210 362 389 390
1231 4 2 7 1 89 243 245 297
1232 4 2 7 1 141 359 140 401
1233 4 2 7 1 140 359 363 401
1234 4 2 7 1 201 389 358 390
1235 4 2 7 1 139 377 358 389
1236 4 2 7 1 358 375 332 390
1237 4 2 7 1 120 377 362 378
1238 4 2 7 1 356 376 276 378
1239 4 2 7 1 210 387 362 388
1240 4 2 7 1 362 375 313 376
1241 4 2 7 1 105 31 258 135
1242 4 2 7 1 328 298 73 230
1243 4 2 7 1 31 261 258 135
1244 4 2 7 1 73 328 230 262
1245 4 2 7 1 136 127 26 188
1246 4 2 7 1 329 173 68 320
1247 4 2 7 1 212 379 355 386
1248 4 2 7 1 212 355 185 386
1249 4 2 7 1 221 219 220 361
1250 4 2 7 1 219 222 220 361
1251 4 2 7 1 265 368 357 398
1252 4 2 7 1 273 375 358 377
1253 4 2 7 1 313 375 362 390
1254 4 2 7 1 188 26 136 164
1255 4 2 7 1 187 173 68 329
1256 4 2 7 1 359 369 204 400
1257 4 2 7 1 141 368 359 400
1258 4 2 7 1 182 52 321 194
1259 4 2 7 1 52 310 321 194
1260 4 2 7 1 342 379 360 383
1261 4 2 7 1 149 381 360 386
1262 4 2 7 1 360 379 209 386
1263 4 2 7 1 277 360 380 384
1264 4 2 7 1 149 382 360 384
1265 4 2 7 1 342 380 360 385
1266 4 2 7 1 360 381 277 383
1267 4 2 7 1 209 360 382 385
1268 4 2 7 1 120 362 377 389
1269 4 2 7 1 275 362 375 377
1270 4 2 7 1 275 376 362 378
1271 4 2 7 1 364 370 354 392
1272 4 2 7 1 355 371 365 391
1273 4 2 7 1 364 370 356 393
1274 4 2 7 1 41 153 138 242
1275 4 2 7 1 346 234 83 331
1276 4 2 7 1 153 41 255 242
1277 4 2 7 1 249 234 83 346
1278 4 2 7 1 366 373 357 397
1279 4 2 7 1 333 330 297 374
1280 4 2 7 1 304 336 335 398
1281 4 2 7 1 362 376 313 388
1282 4 2 7 1 268 237 272 395
1283 4 2 7 1 357 373 366 399
1284 4 2 7 1 205 161 203 396
1285 4 2 7 1 142 396 368 400
1286 4 2 7 1 120 378 362 387
1287 4 2 7 1 145 129 146 395
1288 4 2 7 1 142 368 141 400
1289 4 2 7 1 143 142 134 396
1290 4 2 7 1 367 372 361 394
1291 4 2 7 1 285 289 293 363
1292 4 2 7 1 101 396 142 400
1293 4 2 7 1 124 166 382 393
1294 4 2 7 1 345 309 314 370
1295 4 2 7 1 111 45 279 236
1296 4 2 7 1 302 376 248 392
1297 4 2 7 1 101 142 141 400
1298 4 2 7 1 179 202 172 370
1299 4 2 7 1 45 125 111 279
1300 4 2 7 1 305 316 339 371
1301 4 2 7 1 169 205 191 373
1302 4 2 7 1 285 263 289 363
1303 4 2 7 1 144 114 118 366
1304 4 2 7 1 168 374 214 401
1305 4 2 7 1 214 204 162 400
1306 4 2 7 1 230 251 272 367
1307 4 2 7 1 106 132 147 365
1308 4 2 7 1 253 270 239 365
1309 4 2 7 1 254 269 233 364
1310 4 2 7 1 131 151 108 364
1311 4 2 7 1 260 233 278 364
1312 4 2 7 1 106 146 129 365
1313 4 2 7 1 253 237 268 365
1314 4 2 7 1 338 322 298 367
1315 4 2 7 1 152 131 109 364
1316 4 2 7 1 250 375 307 399
1317 4 2 7 1 125 126 141 368
1318 4 2 7 1 126 125 46 279
1319 4 2 7 1 125 142 111 368
1320 4 2 7 1 155 127 136 372
1321 4 2 7 1 235 267 244 366
1322 4 2 7 1 168 214 195 401
1323 4 2 7 1 23 123 113 185
1324 4 2 7 1 174 193 213 371
1325 4 2 7 1 170 204 182 369
1326 4 2 7 1 123 146 147 365
1327 4 2 7 1 294 321 334 369
1328 4 2 7 1 295 327 336 373
1329 4 2 7 1 228 285 104 363
1330 4 2 7 1 46 126 279 264
1331 4 2 7 1 207 164 188 372
1332 4 2 7 1 183 204 203 369
1333 4 2 7 1 214 400 162 401
1334 4 2 7 1 265 271 259 398
1335 4 2 7 1 359 374 363 401
1336 4 2 7 1 183 369 203 396
1337 4 2 7 1 191 203 170 369
1338 4 2 7 1 183 204 369 400
1339 4 2 7 1 327 294 335 369
1340 4 2 7 1 118 111 143 366
1341 4 2 7 1 183 369 396 400
1342 4 2 7 1 298 328 348 367
1343 4 2 7 1 301 240 79 380
1344 4 2 7 1 35 132 239 381
1345 4 2 7 1 20 124 166 382
1346 4 2 7 1 210 389 201 390
1347 4 2 7 1 137 159 293 363
1348 4 2 7 1 285 293 159 363
1349 4 2 7 1 140 137 117 401
1350 4 2 7 1 244 271 236 366
1351 4 2 7 1 248 302 82 376
1352 4 2 7 1 64 306 184 379
1353 4 2 7 1 212 185 198 386
1354 4 2 7 1 199 387 210 388
1355 4 2 7 1 109 260 40 378
1356 4 2 7 1 275 375 273 377
1357 4 2 7 1 285 159 104 363
1358 4 2 7 1 128 400 141 401
1359 4 2 7 1 264 47 104 228
1360 4 2 7 1 276 376 275 378
1361 4 2 7 1 185 213 197 371
1362 4 2 7 1 289 287 286 363
1363 4 2 7 1 180 200 179 370
1364 4 2 7 1 317 309 344 370
1365 4 2 7 1 375 389 362 390
1366 4 2 7 1 316 306 340 371
1367 4 2 7 1 375 377 362 389
1368 4 2 7 1 358 389 375 390
1369 4 2 7 1 264 279 246 368
1370 4 2 7 1 358 377 375 389
1371 4 2 7 1 286 363 287 374
1372 4 2 7 1 295 337 326 373
1373 4 2 7 1 145 112 127 372
1374 4 2 7 1 288 286 287 374
1375 4 2 7 1 211 169 190 373
1376 4 2 7 1 77 256 325 383
1377 4 2 7 1 108 37 254 384
1378 4 2 7 1 317 62 180 385
1379 4 2 7 1 362 387 376 388
1380 4 2 7 1 356 376 387 388
1381 4 2 7 1 84 307 250 375
1382 4 2 7 1 362 378 376 387
1383 4 2 7 1 341 379 342 383
1384 4 2 7 1 376 378 356 387
1385 4 2 7 1 149 148 381 386
1386 4 2 7 1 150 382 149 384
1387 4 2 7 1 277 380 266 384
1388 4 2 7 1 343 380 342 385
1389 4 2 7 1 274 277 381 383
1390 4 2 7 1 209 382 206 385
1391 4 2 7 1 104 126 47 264
1392 4 2 7 1 230 281 262 367
1393 4 2 7 1 270 365 268 391
1394 4 2 7 1 278 364 269 392
1395 4 2 7 1 151 364 152 393
1396 4 2 7 1 344 370 345 392
1397 4 2 7 1 200 202 370 393
1398 4 2 7 1 339 371 340 391
1399 4 2 7 1 114 42 235 377
1400 4 2 7 1 133 160 389 397
1401 4 2 7 1 301 79 323 380
1402 4 2 7 1 107 132 35 381
1403 4 2 7 1 20 115 124 382
1404 4 2 7 1 257 79 240 380
1405 4 2 7 1 35 239 252 381
1406 4 2 7 1 20 166 186 382
1407 4 2 7 1 64 315 306 379
1408 4 2 7 1 140 363 137 401
1409 4 2 7 1 331 82 302 376
1410 4 2 7 1 84 250 249 375
1411 4 2 7 1 165 208 188 372
1412 4 2 7 1 82 234 248 376
1413 4 2 7 1 120 377 139 389
1414 4 2 7 1 313 332 375 390
1415 4 2 7 1 243 263 280 363
1416 4 2 7 1 138 109 40 378
1417 4 2 7 1 42 255 235 377
1418 4 2 7 1 242 40 260 378
1419 4 2 7 1 212 209 379 386
1420 4 2 7 1 205 373 211 397
1421 4 2 7 1 64 184 192 379
1422 4 2 7 1 17 176 121 387
1423 4 2 7 1 144 366 143 397
1424 4 2 7 1 314 172 59 388
1425 4 2 7 1 337 373 336 399
1426 4 2 7 1 128 141 140 401
1427 4 2 7 1 208 207 372 394
1428 4 2 7 1 271 366 267 399
1429 4 2 7 1 338 367 348 394
1430 4 2 7 1 346 307 84 375
1431 4 2 7 1 137 293 286 363
1432 4 2 7 1 108 130 37 384
1433 4 2 7 1 325 300 77 383
1434 4 2 7 1 232 256 77 383
1435 4 2 7 1 238 254 37 384
1436 4 2 7 1 317 308 62 385
1437 4 2 7 1 175 180 62 385
1438 4 2 7 1 299 339 340 391
1439 4 2 7 1 231 270 268 391
1440 4 2 7 1 42 114 153 377
1441 4 2 7 1 247 278 269 392
1442 4 2 7 1 324 344 345 392
1443 4 2 7 1 200 181 202 393
1444 4 2 7 1 116 151 152 393
1445 4 2 7 1 257 323 79 380
1446 4 2 7 1 35 252 107 381
1447 4 2 7 1 20 186 115 382
1448 4 2 7 1 64 192 315 379
1449 4 2 7 1 379 381 360 383
1450 4 2 7 1 360 381 379 386
1451 4 2 7 1 355 381 379 383
1452 4 2 7 1 379 381 355 386
1453 4 2 7 1 360 382 380 384
1454 4 2 7 1 380 382 360 385
1455 4 2 7 1 82 331 234 376
1456 4 2 7 1 380 382 354 384
1457 4 2 7 1 354 382 380 385
1458 4 2 7 1 313 296 332 390
1459 4 2 7 1 205 211 189 397
1460 4 2 7 1 236 265 279 368
1461 4 2 7 1 125 141 142 368
1462 4 2 7 1 120 139 103 389
1463 4 2 7 1 346 84 249 375
1464 4 2 7 1 242 138 40 378
1465 4 2 7 1 208 173 207 394
1466 4 2 7 1 176 17 163 387
1467 4 2 7 1 124 19 166 393
1468 4 2 7 1 75 251 322 391
1469 4 2 7 1 15 133 160 389
1470 4 2 7 1 193 305 67 394
1471 4 2 7 1 42 153 255 377
1472 4 2 7 1 172 177 59 388
1473 4 2 7 1 190 326 57 390
1474 4 2 7 1 17 121 119 387
1475 4 2 7 1 174 185 184 371
1476 4 2 7 1 144 143 102 397
1477 4 2 7 1 154 378 120 387
1478 4 2 7 1 313 376 347 388
1479 4 2 7 1 210 201 171 390
1480 4 2 7 1 314 59 312 388
1481 4 2 7 1 201 210 178 389
1482 4 2 7 1 248 81 302 392
1483 4 2 7 1 275 273 255 377
1484 4 2 7 1 15 160 178 389
1485 4 2 7 1 275 249 273 375
1486 4 2 7 1 199 210 177 388
1487 4 2 7 1 265 229 368 398
1488 4 2 7 1 171 190 57 390
1489 4 2 7 1 210 199 163 387
1490 4 2 7 1 242 276 275 378
1491 4 2 7 1 275 276 234 376
1492 4 2 7 1 23 123 185 197
1493 4 2 7 1 185 113 23 198
1494 4 2 7 1 320 338 348 394
1495 4 2 7 1 337 336 311 399
1496 4 2 7 1 238 37 130 384
1497 4 2 7 1 300 232 77 383
1498 4 2 7 1 175 62 308 385
1499 4 2 7 1 149 122 148 386
1500 4 2 7 1 341 342 300 383
1501 4 2 7 1 277 266 238 384
1502 4 2 7 1 150 149 130 384
1503 4 2 7 1 308 343 342 385
1504 4 2 7 1 274 232 277 383
1505 4 2 7 1 209 206 175 385
1506 4 2 7 1 280 263 228 363
1507 4 2 7 1 160 133 14 397
1508 4 2 7 1 271 267 241 399
1509 4 2 7 1 250 307 85 399
1510 4 2 7 1 293 289 286 363
1511 4 2 7 1 194 214 168 374
1512 4 2 7 1 212 167 209 386
1513 4 2 7 1 342 341 315 379
1514 4 2 7 1 122 198 113 386
1515 4 2 7 1 17 119 163 387
1516 4 2 7 1 148 107 149 381
1517 4 2 7 1 342 343 323 380
1518 4 2 7 1 150 115 149 382
1519 4 2 7 1 277 257 266 380
1520 4 2 7 1 274 277 252 381
1521 4 2 7 1 209 186 206 382
1522 4 2 7 1 22 113 122 198
1523 4 2 7 1 112 123 24 197
1524 4 2 7 1 246 265 229 368
1525 4 2 7 1 269 278 233 364
1526 4 2 7 1 131 152 151 364
1527 4 2 7 1 146 106 147 365
1528 4 2 7 1 268 270 253 365
1529 4 2 7 1 177 312 59 388
1530 4 2 7 1 368 396 369 400
1531 4 2 7 1 103 15 178 389
1532 4 2 7 1 296 171 57 390
1533 4 2 7 1 320 67 305 394
1534 4 2 7 1 339 316 340 371
1535 4 2 7 1 179 200 202 370
1536 4 2 7 1 345 344 309 370
1537 4 2 7 1 103 133 15 389
1538 4 2 7 1 248 247 81 392
1539 4 2 7 1 181 166 19 393
1540 4 2 7 1 124 116 19 393
1541 4 2 7 1 67 173 193 394
1542 4 2 7 1 75 322 299 391
1543 4 2 7 1 75 231 251 391
1544 4 2 7 1 170 203 204 369
1545 4 2 7 1 296 57 326 390
1546 4 2 7 1 228 263 285 363
1547 4 2 7 1 215 288 291 374
1548 4 2 7 1 209 192 212 379
1549 4 2 7 1 169 211 205 373
1550 4 2 7 1 324 302 81 392
1551 4 2 7 1 160 14 189 397
1552 4 2 7 1 104 137 140 363
1553 4 2 7 1 294 334 335 369
1554 4 2 7 1 271 244 267 366
1555 4 2 7 1 241 250 85 399
1556 4 2 7 1 168 288 215 374
1557 4 2 7 1 357 369 368 396
1558 4 2 7 1 291 330 351 374
1559 4 2 7 1 67 320 173 394
1560 4 2 7 1 324 81 247 392
1561 4 2 7 1 181 19 116 393
1562 4 2 7 1 272 281 230 367
1563 4 2 7 1 75 299 231 391
1564 4 2 7 1 208 207 188 372
1565 4 2 7 1 337 295 336 373
1566 4 2 7 1 143 144 118 366
1567 4 2 7 1 338 298 348 367
1568 4 2 7 1 310 330 333 374
1569 4 2 7 1 307 311 85 399
1570 4 2 7 1 127 155 145 372
1571 4 2 7 1 312 313 347 388
1572 4 2 7 1 154 120 119 387
1573 4 2 7 1 194 215 310 374
1574 4 2 7 1 368 369 359 400
1575 4 2 7 1 102 14 133 397
1576 4 2 7 1 367 372 353 395
1577 4 2 7 1 14 102 189 397
1578 4 2 7 1 198 122 167 386
1579 4 2 7 1 69 217 187 329
1580 4 2 7 1 159 137 104 363
1581 4 2 7 1 85 311 241 399
1582 4 2 7 1 198 122 22 167
1583 4 2 7 1 24 112 197 165
1584 4 2 7 1 283 261 30 135
1585 4 2 7 1 282 328 72 262
1586 4 2 7 1 215 351 310 374
1587 4 2 7 1 356 370 364 392
1588 4 2 7 1 365 371 353 391
1589 4 2 7 1 368 369 357 398
1590 4 2 7 1 285 104 48 228
1591 4 2 7 1 217 69 350 329
1592 4 2 7 1 139 120 153 377
1593 4 2 7 1 313 332 346 375
1594 4 2 7 1 156 283 30 135
1595 4 2 7 1 328 72 349 282
1596 4 2 7 1 237 129 32 395
1597 4 2 7 1 284 243 90 297
1598 4 2 7 1 229 87 318 398
1599 4 2 7 1 351 92 330 291
1600 4 2 7 1 290 352 91 330
1601 4 2 7 1 161 134 12 396
1602 4 2 7 1 12 101 183 396
1603 4 2 7 1 32 105 258 395
1604 4 2 7 1 310 51 215 194
1605 4 2 7 1 9 216 195 117
1606 4 2 7 1 213 185 174 371
1607 4 2 7 1 292 158 50 137
1608 4 2 7 1 159 49 137 293
1609 4 2 7 1 259 304 87 398
1610 4 2 7 1 354 370 364 393
1611 4 2 7 1 291 287 330 374
1612 4 2 7 1 10 162 128 401
1613 4 2 7 1 183 101 11 400
1614 4 2 7 1 90 352 284 297
1615 4 2 7 1 104 48 159 285
1616 4 2 7 1 220 95 218 223
1617 4 2 7 1 225 220 96 217
1618 4 2 7 1 51 351 310 215
1619 4 2 7 1 216 9 158 117
1620 4 2 7 1 353 372 367 394
1621 4 2 7 1 95 196 220 218
1622 4 2 7 1 220 96 217 196
1623 4 2 7 1 358 373 366 397
1624 4 2 7 1 249 250 273 375
1625 4 2 7 1 366 373 358 399
1626 4 2 7 1 11 128 162 400
1627 4 2 7 1 283 97 219 226
1628 4 2 7 1 224 282 98 219
1629 4 2 7 1 255 273 235 377
1630 4 2 7 1 318 87 304 398
1631 4 2 7 1 276 248 234 376
1632 4 2 7 1 129 105 32 395
1633 4 2 7 1 237 32 258 395
1634 4 2 7 1 260 276 242 378
1635 4 2 7 1 263 99 285 289
1636 4 2 7 1 12 183 161 396
1637 4 2 7 1 101 12 134 396
1638 4 2 7 1 302 347 331 376
1639 4 2 7 1 219 227 97 283
1640 4 2 7 1 282 98 219 227
1641 4 2 7 1 289 263 100 284
1642 4 2 7 1 138 120 154 378
1643 4 2 7 1 331 347 313 376
1644 4 2 7 1 341 306 315 379
1645 4 2 7 1 293 285 99 289
1646 4 2 7 1 240 266 257 380
1647 4 2 7 1 107 148 132 381
1648 4 2 7 1 124 115 150 382
1649 4 2 7 1 301 323 343 380
1650 4 2 7 1 252 239 274 381
1651 4 2 7 1 166 206 186 382
1652 4 2 7 1 154 109 138 378
1653 4 2 7 1 229 259 87 398
1654 4 2 7 1 284 100 289 290
1655 4 2 7 1 351 215 291 374
1656 4 2 7 1 29 156 110 222
1657 4 2 7 1 10 195 162 401
1658 4 2 7 1 323 79 78 257
1659 4 2 7 1 77 76 325 256
1660 4 2 7 1 127 25 26 188
1661 4 2 7 1 21 22 122 167
1662 4 2 7 1 237 33 32 129
1663 4 2 7 1 112 24 25 165
1664 4 2 7 1 37 36 238 130
1665 4 2 7 1 233 39 38 131
1666 4 2 7 1 327 54 191 55
1667 4 2 7 1 322 75 74 251
1668 4 2 7 1 308 63 62 175
1669 4 2 7 1 67 68 173 320
1670 4 2 7 1 36 35 252 107
1671 4 2 7 1 20 21 115 186
1672 4 2 7 1 35 34 239 132
1673 4 2 7 1 124 19 20 166
1674 4 2 7 1 13 12 161 134
1675 4 2 7 1 34 33 253 106
1676 4 2 7 1 80 324 81 247
1677 4 2 7 1 38 37 254 108
1678 4 2 7 1 80 79 301 240
1679 4 2 7 1 300 78 77 232
1680 4 2 7 1 299 76 75 231
1681 4 2 7 1 62 61 317 180
1682 4 2 7 1 116 18 19 181
1683 4 2 7 1 60 309 61 179
1684 4 2 7 1 12 11 183 101
1685 4 2 7 1 54 53 294 170
1686 4 2 7 1 156 29 226 222
1687 4 2 7 1 222 110 28 157
1688 4 2 7 1 101 183 396 400
1689 4 2 7 1 223 222 28 157
1690 4 2 7 1 193 66 67 305
1691 4 2 7 1 315 64 63 192
1692 4 2 7 1 162 183 11 400
1693 4 2 7 1 229 87 88 318
1694 4 2 7 1 298 74 73 230
1695 4 2 7 1 32 31 258 105
1696 4 2 7 1 192 184 212 379
1697 4 2 7 1 195 10 117 401
1698 4 2 7 1 101 128 11 400
1699 4 2 7 1 93 216 292 288
1700 4 2 7 1 216 93 168 288
1701 4 2 7 1 45 111 44 236
1702 4 2 7 1 16 15 178 103
1703 4 2 7 1 57 58 171 296
1704 4 2 7 1 66 174 65 316
1705 4 2 7 1 168 94 215 288
1706 4 2 7 1 189 14 13 102
1707 4 2 7 1 55 56 169 295
1708 4 2 7 1 94 291 215 288
1709 4 2 7 1 291 92 330 287
1710 4 2 7 1 330 91 290 287
1711 4 2 7 1 10 128 117 401
1712 4 2 7 1 176 18 17 121
1713 4 2 7 1 172 59 60 314
1714 4 2 7 1 50 286 292 137
1715 4 2 7 1 286 137 49 293
1716 4 2 7 1 64 306 65 184
1717 4 2 7 1 86 87 259 304
1718 4 2 7 1 88 89 245 319
1719 4 2 7 1 128 162 400 401
1720 4 2 7 1 39 40 109 260
1721 4 2 7 1 81 82 248 302
1722 4 2 7 1 254 238 266 384
1723 4 2 7 1 300 325 341 383
1724 4 2 7 1 130 108 150 384
1725 4 2 7 1 317 343 308 385
1726 4 2 7 1 232 274 256 383
1727 4 2 7 1 175 206 180 385
1728 4 2 7 1 122 113 148 386
1729 4 2 7 1 346 332 307 375
1730 4 2 7 1 121 154 119 387
1731 4 2 7 1 52 321 53 182
1732 4 2 7 1 11 10 162 128
1733 4 2 7 1 153 114 139 377
1734 4 2 7 1 312 347 314 388
1735 4 2 7 1 163 199 176 387
1736 4 2 7 1 163 17 16 119
1737 4 2 7 1 58 59 177 312
1738 4 2 7 1 177 172 199 388
1739 4 2 7 1 160 201 178 389
1740 4 2 7 1 190 171 201 390
1741 4 2 7 1 43 44 118 244
1742 4 2 7 1 85 86 241 311
1743 4 2 7 1 291 288 287 374
1744 4 2 7 1 279 265 246 368
1745 4 2 7 1 103 139 133 389
1746 4 2 7 1 296 326 332 390
1747 4 2 7 1 56 57 190 326
1748 4 2 7 1 160 15 14 133
1749 4 2 7 1 311 307 337 399
1750 4 2 7 1 26 27 136 164
1751 4 2 7 1 187 68 69 329
1752 4 2 7 1 133 144 102 397
1753 4 2 7 1 320 305 338 394
1754 4 2 7 1 247 248 278 392
1755 4 2 7 1 200 166 181 393
1756 4 2 7 1 116 124 151 393
1757 4 2 7 1 299 322 339 391
1758 4 2 7 1 251 231 268 391
1759 4 2 7 1 324 345 302 392
1760 4 2 7 1 243 89 90 297
1761 4 2 7 1 189 211 160 397
1762 4 2 7 1 193 173 208 394
1763 4 2 7 1 98 219 227 97
1764 4 2 7 1 220 96 196 95
1765 4 2 7 1 267 250 241 399
1766 4 2 7 1 114 42 43 235
1767 4 2 7 1 84 85 250 307
1768 4 2 7 1 31 30 261 135
1769 4 2 7 1 328 73 72 262
1770 4 2 7 1 293 159 4 285
1771 4 2 7 1 290 284 8 352
1772 4 2 7 1 289 263 99 100
1773 4 2 7 1 224 349 7 282
1774 4 2 7 1 226 283 3 156
1775 4 2 7 1 5 351 215 291
1776 4 2 7 1 2 218 223 157
1777 4 2 7 1 6 225 217 350
1778 4 2 7 1 292 1 158 216
1779 4 2 7 1 28 29 110 222
1780 4 2 7 1 70 221 303 71
1781 4 2 7 1 40 41 138 242
1782 4 2 7 1 234 82 83 331
1783 4 2 7 1 168 93 94 288
1784 4 2 7 1 51 310 52 194
1785 4 2 7 1 10 9 195 117
1786 4 2 7 1 83 84 249 346
1787 4 2 7 1 153 41 42 255
1788 4 2 7 1 330 310 351 374
1789 4 2 7 1 137 50 286 49
1790 4 2 7 1 194 168 215 374
1791 4 2 7 1 91 330 92 287
1792 4 2 7 1 47 48 104 228
1793 4 2 7 1 259 229 265 398
1794 4 2 7 1 304 335 318 398
1795 4 2 7 1 237 258 272 395
1796 4 2 7 1 145 105 129 395
1797 4 2 7 1 161 183 203 396
1798 4 2 7 1 126 46 47 264
1799 4 2 7 1 134 142 101 396
1800 4 2 7 1 162 204 183 400
1801 4 2 7 1 22 23 113 198
1802 4 2 7 1 123 23 24 197
1803 4 2 7 1 195 214 162 401
1804 4 2 7 1 101 141 128 400
1805 4 2 7 1 349 72 7 282
1806 4 2 7 1 30 3 283 156
1807 4 2 7 1 125 45 46 279
1808 4 2 7 1 159 48 4 285
1809 4 2 7 1 352 284 8 90
1810 4 2 7 1 218 2 27 157
1811 4 2 7 1 69 6 217 350
1812 4 2 7 1 51 5 351 215
1813 4 2 7 1 1 9 158 216
1814 4 2 7 1 352 8 290 91
1815 4 2 7 1 351 5 92 291
1816 4 2 7 1 212 198 167 386
1817 4 2 7 1 4 49 159 293
1818 4 2 7 1 292 158 1 50
1819 4 2 7 1 285 4 293 99
1820 4 2 7 1 8 100 284 290
1821 4 2 7 1 128 140 117 401
1822 4 2 7 1 218 95 2 223
1823 4 2 7 1 225 96 6 217
1824 4 2 7 1 223 28 2 157
1825 4 2 7 1 226 3 29 156
1826 4 2 7 1 7 71 349 224
1827 4 2 7 1 350 6 225 70
1828 4 2 7 1 291 215 5 94
1829 4 2 7 1 216 292 1 93
1830 4 2 7 1 7 224 282 98
1831 4 2 7 1 3 97 283 226
1832 4 2 7 1 398 245 368 359
1833 4 2 7 1 398 368 245 229
1834 4 2 7 1 246 368 245 359
1835 4 2 7 1 246 245 368 229
1836 4 2 7 1 245 297 359 319
1837 4 2 7 1 359 297 245 243
1838 4 2 7 1 398 319 334 318
1839 4 2 7 1 398 334 319 359
1840 4 2 7 1 123 371 355 185
1841 4 2 7 1 355 371 123 365
1842 4 2 7 1 371 123 353 197
1843 4 2 7 1 371 353 123 365
1844 4 2 7 1 303 225 70 350
1845 4 2 7 1 303 70 225 221
1846 4 2 7 1 222 157 361 110
1847 4 2 7 1 361 157 222 223
1848 4 2 7 1 156 222 361 110
1849 4 2 7 1 361 222 156 226
1850 4 2 7 1 303 224 71 221
1851 4 2 7 1 71 224 303 349
1852 4 2 7 1 396 205 397 357
1853 4 2 7 1 396 397 205 161
1854 4 2 7 1 396 143 397 134
1855 4 2 7 1 396 397 143 357
1856 4 2 7 1 398 271 399 357
1857 4 2 7 1 398 399 271 259
1858 4 2 7 1 284 297 363 243
1859 4 2 7 1 363 297 284 352
1860 4 2 7 1 398 336 399 304
1861 4 2 7 1 398 399 336 357
1862 4 2 7 1 304 241 86 311
1863 4 2 7 1 304 86 241 259
1864 4 2 7 1 394 339 371 305
1865 4 2 7 1 394 371 339 353
1866 4 2 7 1 392 276 376 248
1867 4 2 7 1 392 376 276 356
1868 4 2 7 1 393 150 382 124
1869 4 2 7 1 393 382 150 354
1870 4 2 7 1 393 206 382 354
1871 4 2 7 1 393 382 206 166
1872 4 2 7 1 272 391 367 251
1873 4 2 7 1 367 391 272 353
1874 4 2 7 1 391 338 367 322
1875 4 2 7 1 391 367 338 353
1876 4 2 7 1 258 135 395 105
1877 4 2 7 1 395 135 258 261
1878 4 2 7 1 399 273 375 358
1879 4 2 7 1 399 375 273 250
1880 4 2 7 1 213 394 371 193
1881 4 2 7 1 371 394 213 353
1882 4 2 7 1 118 235 43 244
1883 4 2 7 1 43 235 118 114
1884 4 2 7 1 157 164 27 218
1885 4 2 7 1 157 27 164 136
1886 4 2 7 1 329 217 361 350
1887 4 2 7 1 329 361 217 187
1888 4 2 7 1 401 137 158 363
1889 4 2 7 1 401 158 137 117
1890 4 2 7 1 398 334 335 318
1891 4 2 7 1 398 335 334 369
1892 4 2 7 1 395 155 145 105
1893 4 2 7 1 395 145 155 372
1894 4 2 7 1 281 395 272 258
1895 4 2 7 1 272 395 281 367
$EndElements
