$MeshFormat
2.2 0 8
$EndMeshFormat
$PhysicalNames
3
1 1 "edge"
1 2 "face"
1 3 "volume"
$EndPhysicalNames
$Nodes
8
1 0 0 0
2 1 0 0
3 1 1 0
4 0 1 0
5 0 0 1
6 1 0 1
7 1 1 1
8 0 1 1
$EndNodes
$Elements
28
1 1 2 1 1 1 2
2 1 2 2 2 1 3
3 1 2 1 1 1 4
4 1 2 1 1 1 5
5 1 2 2 2 1 6
6 1 2 3 3 1 7
7 1 2 2 2 1 8
8 1 2 1 1 2 3
9 1 2 2 2 2 4
10 1 2 2 2 2 5
11 1 2 1 1 2 6
12 1 2 2 2 2 7
13 1 2 3 3 2 8
14 1 2 1 1 3 4
15 1 2 3 3 3 5
16 1 2 2 2 3 6
17 1 2 1 1 3 7
18 1 2 2 2 3 8
19 1 2 2 2 4 5
20 1 2 3 3 4 6
21 1 2 2 2 4 7
22 1 2 1 1 4 8
23 1 2 1 1 5 6
24 1 2 2 2 5 7
25 1 2 1 1 5 8
26 1 2 1 1 6 7
27 1 2 2 2 6 8
28 1 2 1 1 7 8
$EndElements
