$MeshFormat
2.2 0 8
$EndMeshFormat
$PhysicalNames
2
1 1 "spring1"
1 2 "spring2"
$EndPhysicalNames
$Nodes
8
1 0 0 0
2 1 0 0
3 1 1 0
4 0 1 0
5 0 0 1
6 1 0 1
7 1 1 1
8 0 1 1
$EndNodes
$Elements
24
1 1 2 1 1 1 2
2 1 2 1 1 2 3
3 1 2 1 1 3 4
4 1 2 1 1 4 1
5 1 2 1 1 5 6
6 1 2 1 1 6 7
7 1 2 1 1 7 8
8 1 2 1 1 8 5
9 1 2 1 1 1 5
10 1 2 1 1 2 6
11 1 2 1 1 3 7
12 1 2 1 1 4 8
13 1 2 2 2 1 8
14 1 2 2 2 4 5
15 1 2 2 2 2 7
16 1 2 2 2 3 6
17 1 2 2 2 1 6
18 1 2 2 2 2 5
19 1 2 2 2 1 3
20 1 2 2 2 4 2
21 1 2 2 2 4 7
22 1 2 2 2 8 3
23 1 2 2 2 8 6
24 1 2 2 2 5 7
$EndElements
