$MeshFormat
2.2 0 8
$EndMeshFormat
$PhysicalNames
7
2 1 "z_min"
2 2 "z_max"
2 3 "y_min"
2 4 "x_max"
2 5 "y_max"
2 6 "x_min"
3 7 "solid"
$EndPhysicalNames
$Nodes
252
1 0 0 0
2 20 2.25 2.25
3 20 3.75 2.25
4 0 6 0
5 0 0 6
6 20 2.25 3.75
7 20 3.75 3.75
8 0 6 6
9 4.046654951962672 0.4552486820958005 0.4552486820958005
10 7.283978876910869 0.8194476236524727 0.8194476236524727
11 9.873837988908813 1.110806773752241 1.110806773752241
12 11.94572525916161 1.343894091655681 1.343894091655681
13 13.60323505988493 1.530363944237055 1.530363944237055
14 14.92924288808043 1.679539824909049 1.679539824909049
15 15.99004912880939 1.798880526991056 1.798880526991056
16 16.83869410393059 1.894353086692191 1.894353086692191
17 17.51761007005798 1.970731132881522 1.970731132881522
18 18.06074281986325 2.031833567234616 2.031833567234616
19 18.4952490131511 2.080715513979499 2.080715513979499
20 18.84285397445726 2.119821072126442 2.119821072126442
21 19.12093793692195 2.15110551790372 2.15110551790372
22 19.34340510162953 2.176133073933322 2.176133073933322
23 19.52137883736366 2.196155119203412 2.196155119203412
24 19.66375783643033 2.212172756598412 2.212172756598412
25 19.77766101337579 2.224986864004777 2.224986864004777
26 19.86878355741822 2.23523815020955 2.23523815020955
27 19.94168158945239 2.243439178813393 2.243439178813393
28 4.046654951962765 5.544751317904189 0.455248682095811
29 7.283978876911052 5.180552376347507 0.8194476236524932
30 9.873837988909042 4.889193226247733 1.110806773752267
31 11.94572525916167 4.656105908344312 1.343894091655688
32 13.60323505988487 4.469636055762953 1.530363944237047
33 14.92924288808029 4.320460175090966 1.679539824909033
34 15.9900491288092 4.201119473008965 1.798880526991036
35 16.83869410393039 4.105646913307831 1.894353086692168
36 17.51761007005777 4.029268867118501 1.970731132881499
37 18.06074281986308 3.968166432765404 2.031833567234596
38 18.49524901315098 3.919284486020515 2.080715513979485
39 18.84285397445717 3.880178927873569 2.119821072126431
40 19.12093793692189 3.848894482096287 2.151105517903713
41 19.34340510162949 3.823866926066683 2.176133073933317
42 19.52137883736363 3.803844880796591 2.196155119203409
43 19.66375783643031 3.78782724340159 2.21217275659841
44 19.77766101337578 3.775013135995224 2.224986864004776
45 19.86878355741821 3.764761849790451 2.235238150209549
46 19.94168158945238 3.756560821186607 2.243439178813393
47 4.046654951962765 0.455248682095811 5.544751317904189
48 7.283978876911052 0.8194476236524932 5.180552376347507
49 9.873837988909042 1.110806773752267 4.889193226247733
50 11.94572525916167 1.343894091655688 4.656105908344312
51 13.60323505988487 1.530363944237047 4.469636055762953
52 14.92924288808029 1.679539824909033 4.320460175090966
53 15.9900491288092 1.798880526991036 4.201119473008965
54 16.83869410393039 1.894353086692168 4.105646913307831
55 17.51761007005777 1.970731132881499 4.029268867118501
56 18.06074281986308 2.031833567234596 3.968166432765404
57 18.49524901315098 2.080715513979485 3.919284486020515
58 18.84285397445717 2.119821072126431 3.880178927873569
59 19.12093793692189 2.151105517903713 3.848894482096287
60 19.34340510162949 2.176133073933317 3.823866926066683
61 19.52137883736363 2.196155119203409 3.803844880796591
62 19.66375783643031 2.21217275659841 3.78782724340159
63 19.77766101337578 2.224986864004776 3.775013135995224
64 19.86878355741821 2.235238150209549 3.764761849790451
65 19.94168158945238 2.243439178813393 3.756560821186607
66 4.046654837076657 5.544751330828876 5.544751330828876
67 7.283978706056498 5.180552395568644 5.180552395568644
68 9.873837786135876 4.889193249059714 4.889193249059714
69 11.9457250434093 4.656105932616454 4.656105932616454
70 13.60323484379362 4.469636080073219 4.469636080073219
71 14.92924267975354 4.320460198527727 4.320460198527727
72 15.99004893842071 4.20111949442767 4.20111949442767
73 16.83869393045784 4.105646932823493 4.105646932823493
74 17.51760991393246 4.029268884682598 4.029268884682598
75 18.06074268108503 3.968166448377934 3.968166448377934
76 18.49524889102632 3.919284499759538 3.919284499759538
77 18.84285386388737 3.880178940312671 3.880178940312671
78 19.12093784018432 3.848894492979264 3.848894492979264
79 19.34340501695177 3.823866935592926 3.823866935592926
80 19.52137876157238 3.803844889323108 3.803844889323108
81 19.66375777175511 3.78782725067755 3.78782725067755
82 19.77766096367479 3.775013141586586 3.775013141586586
83 19.86878351085208 3.764761855029141 3.764761855029141
84 19.94168155012987 3.75656082561039 3.75656082561039
85 0 1.99999999999205 0
86 0 3.999999999992323 0
87 20 2.749999999999999 2.25
88 20 3.25 2.25
89 0 1.99999999999205 6
90 0 3.999999999992323 6
91 20 2.749999999999999 3.75
92 20 3.25 3.75
93 0 0 2.999999999988572
94 20 2.25 2.999999999999999
95 0 6 2.999999999988572
96 20 3.75 2.999999999999999
97 4.046654951962702 2.151749560692256 0.4552486820958039
98 4.046654951962734 3.84825043929527 0.4552486820958075
99 7.283978876910929 2.273149207879095 0.8194476236524797
100 7.283978876910989 3.726850792110948 0.8194476236524864
101 9.873837988908887 2.370268924580047 1.11080677375225
102 9.873837988908965 3.629731075412016 1.110806773752259
103 11.94572525916163 2.447964697215355 1.343894091655683
104 11.94572525916165 3.552035302778343 1.343894091655686
105 13.60323505988491 2.510121314743144 1.530363944237052
106 13.60323505988488 3.489878685251866 1.53036394423705
107 14.92924288808038 2.559846608301005 1.679539824909043
108 14.92924288808033 3.440153391695047 1.679539824909038
109 15.99004912880931 2.599626842328763 1.798880526991048
110 15.99004912880926 3.400373157668122 1.798880526991042
111 16.83869410393052 2.631451028896147 1.894353086692184
112 16.83869410393045 3.368548971101404 1.894353086692177
113 17.5176100700579 2.656910377626194 1.970731132881514
114 17.51761007005784 3.343089622371889 1.970731132881507
115 18.0607428198632 2.677277855744107 2.03183356723461
116 18.06074281986313 3.322722144254395 2.031833567234602
117 18.49524901315106 2.693571837992572 2.080715513979495
118 18.49524901315102 3.306428162006265 2.08071551397949
119 18.84285397445723 2.70660702404169 2.119821072126439
120 18.8428539744572 3.293392975957415 2.119821072126436
121 19.12093793692193 2.717035172634226 2.151105517903718
122 19.12093793692192 3.282964827365093 2.151105517903716
123 19.34340510162951 2.725377691310848 2.17613307393332
124 19.3434051016295 3.274622308688643 2.176133073933319
125 19.52137883736365 2.732051706400948 2.196155119203411
126 19.52137883736364 3.267948293598681 2.19615511920341
127 19.66375783643032 2.737390918866003 2.212172756598411
128 19.66375783643031 3.262609081133735 2.21217275659841
129 19.77766101337578 2.741662288001503 2.224986864004776
130 19.77766101337578 3.258337711998323 2.224986864004776
131 19.86878355741821 2.745079383403131 2.235238150209549
132 19.86878355741821 3.254920616596767 2.235238150209549
133 19.94168158945238 2.74781305960444 2.243439178813393
134 19.94168158945238 3.252186940395513 2.243439178813393
135 4.046654913667394 2.151749565000491 5.544751322212418
136 4.046654875372024 3.848250447911731 5.544751326520646
137 7.283978819959534 2.273149214286156 5.180552382754552
138 7.283978763008014 3.726850804925046 5.180552389161598
139 9.873837921317987 2.370268932184057 4.889193233851726
140 9.873837853726929 3.629731090620012 4.88919324145572
141 11.94572518724422 2.447964705306075 4.656105916435026
142 11.94572511532676 3.552035318959773 4.656105924525739
143 13.60323498785445 2.51012132284656 4.469636063866375
144 13.60323491582403 3.489878701458706 4.469636071969796
145 14.92924281863804 2.559846616113249 4.32046018290322
146 14.92924274919578 3.440153407319549 4.320460190715474
147 15.99004906534637 2.599626849468319 4.201119480148533
148 15.99004900188354 3.400373171947253 4.201119487288101
149 16.83869404610619 2.631451035401353 4.105646919813053
150 16.83869398828201 3.368548984111838 4.105646926318273
151 17.51761001801599 2.656910383480878 4.0292688729732
152 17.51760996597422 3.343089634081279 4.029268878827899
153 18.06074277360373 2.67727786094827 3.96816643796958
154 18.06074272734438 3.322722154662744 3.968166443173757
155 18.49524897244276 2.693571842572238 3.91928449060019
156 18.49524893173454 3.306428171165609 3.919284495179864
157 18.84285393760057 2.70660702818805 3.880178932019936
158 18.84285390074397 3.293392984250147 3.880178936166303
159 19.12093790467603 2.71703517626188 3.848894485723947
160 19.12093787243017 3.282964834620409 3.848894489351605
161 19.34340507340358 2.725377694486257 3.823866929242097
162 19.34340504517767 3.274622315039471 3.823866932417511
163 19.52137881209988 2.732051709243118 3.803844883638764
164 19.52137878683613 3.267948299283024 3.803844886480935
165 19.66375781487191 2.737390921291322 3.78782724582691
166 19.6637577933135 3.262609085984373 3.787827248252231
167 19.77766099680878 2.74166228986529 3.775013137859011
168 19.77766098024178 3.258337715725897 3.775013139722799
169 19.86878354189616 2.74507938514936 3.764761851536682
170 19.86878352637412 3.254920620089226 3.764761853282911
171 19.94168157634487 2.747813061079035 3.756560822661202
172 19.94168156323737 3.252186943344702 3.756560824135796
173 4.046654951962715 0.4552486820958054 2.999999999990878
174 7.283978876910958 0.8194476236524829 2.999999999992723
175 9.873837988908926 1.110806773752254 2.999999999994201
176 11.94572525916164 1.343894091655685 2.999999999995394
177 13.6032350598849 1.530363944237051 2.999999999996348
178 14.92924288808036 1.679539824909041 2.99999999999711
179 15.99004912880929 1.798880526991046 2.999999999997719
180 16.83869410393048 1.89435308669218 2.999999999998203
181 17.51761007005787 1.970731132881511 2.999999999998593
182 18.06074281986317 2.031833567234607 2.9999999999989
183 18.49524901315104 2.080715513979492 2.999999999999146
184 18.84285397445721 2.119821072126436 2.999999999999343
185 19.12093793692192 2.151105517903717 2.999999999999501
186 19.3434051016295 2.17613307393332 2.999999999999626
187 19.52137883736364 2.19615511920341 2.999999999999727
188 19.66375783643032 2.212172756598411 2.999999999999809
189 19.77766101337578 2.224986864004776 2.999999999999873
190 19.86878355741821 2.235238150209549 2.999999999999925
191 19.94168158945238 2.243439178813393 2.999999999999967
192 4.04665489451971 5.544751324366531 3.000000006453227
193 7.283978791483774 5.180552385958074 3.000000009603302
194 9.873837887522459 4.889193237653721 3.000000011400204
195 11.94572515128548 4.656105920480382 3.000000012131468
196 13.60323495183924 4.469636067918084 3.000000012151477
197 14.92924278391691 4.320460186809346 3.000000011715482
198 15.99004903361495 4.201119483718316 3.000000010707061
199 16.83869401719411 4.105646923065661 3.000000009756023
200 17.51760999199511 4.029268875900549 3.000000008780629
201 18.06074275047405 3.968166440571668 3.000000007805156
202 18.49524895208865 3.919284492890026 3.000000006868651
203 18.84285391917226 3.880178934093119 3.000000006218889
204 19.1209378885531 3.848894487537775 3.000000005440985
205 19.34340505929062 3.823866930829803 3.000000004762746
206 19.521378799468 3.803844885059848 3.000000004262985
207 19.6637578040927 3.78782724703957 3.000000003637787
208 19.77766098852528 3.775013138790904 3.000000002795553
209 19.86878353413514 3.764761852409795 3.00000000261927
210 19.94168156979113 3.756560823398497 3.000000002211857
211 0 1.99999999999205 2.999999999988572
212 0 3.999999999992323 2.999999999988572
213 20 2.749999999999999 2.999999999999999
214 20 3.25 2.999999999999999
215 4.046654932815043 2.151749562846372 3.000000002144995
216 4.046654913667377 3.8482504436035 3.000000004299109
217 7.283978848435229 2.273149211082626 3.00000000319625
218 7.2839788199595 3.726850798517996 3.000000006399777
219 9.873837955113435 2.370268928382051 3.000000003796203
220 9.873837921317945 3.629731083016012 3.000000007598203
221 11.94572522320292 2.447964701260715 3.000000004040752
222 11.94572518724421 3.552035310869057 3.00000000808611
223 13.60323502386968 2.510121318794852 3.000000004048056
224 13.60323498785445 3.489878693355283 3.000000008099766
225 14.92924285335921 2.559846612207127 3.000000003903236
226 14.92924281863806 3.440153399507298 3.000000007809357
227 15.99004909707784 2.599626845898541 3.000000003567498
228 15.99004906534639 3.400373164807687 3.000000007137279
229 16.83869407501835 2.631451032148749 3.000000003250809
230 16.83869404610623 3.368548977606621 3.000000006503417
231 17.51761004403694 2.656910380553536 3.000000002925939
232 17.51761001801603 3.343089628226584 3.000000005853284
233 18.06074279673346 2.677277858346188 3.000000002600985
234 18.06074277360376 3.322722149458569 3.000000005203069
235 18.49524899279691 2.693571840282407 3.000000002288981
236 18.49524897244277 3.306428166585937 3.000000004578816
237 18.84285395602889 2.706607026114868 3.000000002072525
238 18.84285393760057 3.293392980103781 3.000000004145707
239 19.12093792079897 2.717035174448053 3.000000001813329
240 19.12093790467604 3.282964830992752 3.000000003627159
241 19.34340508751655 2.725377692898552 3.000000001587333
242 19.34340507340358 3.274622311864058 3.000000003175039
243 19.52137882473176 2.732051707822032 3.000000001420814
244 19.52137881209988 3.267948296440851 3.000000002841899
245 19.66375782565111 2.737390920078662 3.00000000121247
246 19.6637578148719 3.262609083559054 3.000000002425129
247 19.77766100509227 2.741662288933394 3.000000000931764
248 19.77766099680878 3.258337713862109 3.000000001863661
249 19.86878354965718 2.745079384276245 3.000000000873041
250 19.86878354189617 3.254920618342997 3.000000001746154
251 19.94168158289862 2.747813060341739 3.000000000737263
252 19.94168157634488 3.252186941870108 3.00000000147456
$EndNodes
$Elements
332
1 3 2 1 1 1 9 97 85
2 3 2 1 1 85 97 98 86
3 3 2 1 1 86 98 28 4
4 3 2 1 1 9 10 99 97
5 3 2 1 1 97 99 100 98
6 3 2 1 1 98 100 29 28
7 3 2 1 1 10 11 101 99
8 3 2 1 1 99 101 102 100
9 3 2 1 1 100 102 30 29
10 3 2 1 1 11 12 103 101
11 3 2 1 1 101 103 104 102
12 3 2 1 1 102 104 31 30
13 3 2 1 1 12 13 105 103
14 3 2 1 1 103 105 106 104
15 3 2 1 1 104 106 32 31
16 3 2 1 1 13 14 107 105
17 3 2 1 1 105 107 108 106
18 3 2 1 1 106 108 33 32
19 3 2 1 1 14 15 109 107
20 3 2 1 1 107 109 110 108
21 3 2 1 1 108 110 34 33
22 3 2 1 1 15 16 111 109
23 3 2 1 1 109 111 112 110
24 3 2 1 1 110 112 35 34
25 3 2 1 1 16 17 113 111
26 3 2 1 1 111 113 114 112
27 3 2 1 1 112 114 36 35
28 3 2 1 1 17 18 115 113
29 3 2 1 1 113 115 116 114
30 3 2 1 1 114 116 37 36
31 3 2 1 1 18 19 117 115
32 3 2 1 1 115 117 118 116
33 3 2 1 1 116 118 38 37
34 3 2 1 1 19 20 119 117
35 3 2 1 1 117 119 120 118
36 3 2 1 1 118 120 39 38
37 3 2 1 1 20 21 121 119
38 3 2 1 1 119 121 122 120
39 3 2 1 1 120 122 40 39
40 3 2 1 1 21 22 123 121
41 3 2 1 1 121 123 124 122
42 3 2 1 1 122 124 41 40
43 3 2 1 1 22 23 125 123
44 3 2 1 1 123 125 126 124
45 3 2 1 1 124 126 42 41
46 3 2 1 1 23 24 127 125
47 3 2 1 1 125 127 128 126
48 3 2 1 1 126 128 43 42
49 3 2 1 1 24 25 129 127
50 3 2 1 1 127 129 130 128
51 3 2 1 1 128 130 44 43
52 3 2 1 1 25 26 131 129
53 3 2 1 1 129 131 132 130
54 3 2 1 1 130 132 45 44
55 3 2 1 1 26 27 133 131
56 3 2 1 1 131 133 134 132
57 3 2 1 1 132 134 46 45
58 3 2 1 1 27 2 87 133
59 3 2 1 1 133 87 88 134
60 3 2 1 1 134 88 3 46
61 3 2 2 2 5 47 135 89
62 3 2 2 2 89 135 136 90
63 3 2 2 2 90 136 66 8
64 3 2 2 2 47 48 137 135
65 3 2 2 2 135 137 138 136
66 3 2 2 2 136 138 67 66
67 3 2 2 2 48 49 139 137
68 3 2 2 2 137 139 140 138
69 3 2 2 2 138 140 68 67
70 3 2 2 2 49 50 141 139
71 3 2 2 2 139 141 142 140
72 3 2 2 2 140 142 69 68
73 3 2 2 2 50 51 143 141
74 3 2 2 2 141 143 144 142
75 3 2 2 2 142 144 70 69
76 3 2 2 2 51 52 145 143
77 3 2 2 2 143 145 146 144
78 3 2 2 2 144 146 71 70
79 3 2 2 2 52 53 147 145
80 3 2 2 2 145 147 148 146
81 3 2 2 2 146 148 72 71
82 3 2 2 2 53 54 149 147
83 3 2 2 2 147 149 150 148
84 3 2 2 2 148 150 73 72
85 3 2 2 2 54 55 151 149
86 3 2 2 2 149 151 152 150
87 3 2 2 2 150 152 74 73
88 3 2 2 2 55 56 153 151
89 3 2 2 2 151 153 154 152
90 3 2 2 2 152 154 75 74
91 3 2 2 2 56 57 155 153
92 3 2 2 2 153 155 156 154
93 3 2 2 2 154 156 76 75
94 3 2 2 2 57 58 157 155
95 3 2 2 2 155 157 158 156
96 3 2 2 2 156 158 77 76
97 3 2 2 2 58 59 159 157
98 3 2 2 2 157 159 160 158
99 3 2 2 2 158 160 78 77
100 3 2 2 2 59 60 161 159
101 3 2 2 2 159 161 162 160
102 3 2 2 2 160 162 79 78
103 3 2 2 2 60 61 163 161
104 3 2 2 2 161 163 164 162
105 3 2 2 2 162 164 80 79
106 3 2 2 2 61 62 165 163
107 3 2 2 2 163 165 166 164
108 3 2 2 2 164 166 81 80
109 3 2 2 2 62 63 167 165
110 3 2 2 2 165 167 168 166
111 3 2 2 2 166 168 82 81
112 3 2 2 2 63 64 169 167
113 3 2 2 2 167 169 170 168
114 3 2 2 2 168 170 83 82
115 3 2 2 2 64 65 171 169
116 3 2 2 2 169 171 172 170
117 3 2 2 2 170 172 84 83
118 3 2 2 2 65 6 91 171
119 3 2 2 2 171 91 92 172
120 3 2 2 2 172 92 7 84
121 3 2 3 3 1 9 173 93
122 3 2 3 3 93 173 47 5
123 3 2 3 3 9 10 174 173
124 3 2 3 3 173 174 48 47
125 3 2 3 3 10 11 175 174
126 3 2 3 3 174 175 49 48
127 3 2 3 3 11 12 176 175
128 3 2 3 3 175 176 50 49
129 3 2 3 3 12 13 177 176
130 3 2 3 3 176 177 51 50
131 3 2 3 3 13 14 178 177
132 3 2 3 3 177 178 52 51
133 3 2 3 3 14 15 179 178
134 3 2 3 3 178 179 53 52
135 3 2 3 3 15 16 180 179
136 3 2 3 3 179 180 54 53
137 3 2 3 3 16 17 181 180
138 3 2 3 3 180 181 55 54
139 3 2 3 3 17 18 182 181
140 3 2 3 3 181 182 56 55
141 3 2 3 3 18 19 183 182
142 3 2 3 3 182 183 57 56
143 3 2 3 3 19 20 184 183
144 3 2 3 3 183 184 58 57
145 3 2 3 3 20 21 185 184
146 3 2 3 3 184 185 59 58
147 3 2 3 3 21 22 186 185
148 3 2 3 3 185 186 60 59
149 3 2 3 3 22 23 187 186
150 3 2 3 3 186 187 61 60
151 3 2 3 3 23 24 188 187
152 3 2 3 3 187 188 62 61
153 3 2 3 3 24 25 189 188
154 3 2 3 3 188 189 63 62
155 3 2 3 3 25 26 190 189
156 3 2 3 3 189 190 64 63
157 3 2 3 3 26 27 191 190
158 3 2 3 3 190 191 65 64
159 3 2 3 3 27 2 94 191
160 3 2 3 3 191 94 6 65
161 3 2 5 4 4 28 192 95
162 3 2 5 4 95 192 66 8
163 3 2 5 4 28 29 193 192
164 3 2 5 4 192 193 67 66
165 3 2 5 4 29 30 194 193
166 3 2 5 4 193 194 68 67
167 3 2 5 4 30 31 195 194
168 3 2 5 4 194 195 69 68
169 3 2 5 4 31 32 196 195
170 3 2 5 4 195 196 70 69
171 3 2 5 4 32 33 197 196
172 3 2 5 4 196 197 71 70
173 3 2 5 4 33 34 198 197
174 3 2 5 4 197 198 72 71
175 3 2 5 4 34 35 199 198
176 3 2 5 4 198 199 73 72
177 3 2 5 4 35 36 200 199
178 3 2 5 4 199 200 74 73
179 3 2 5 4 36 37 201 200
180 3 2 5 4 200 201 75 74
181 3 2 5 4 37 38 202 201
182 3 2 5 4 201 202 76 75
183 3 2 5 4 38 39 203 202
184 3 2 5 4 202 203 77 76
185 3 2 5 4 39 40 204 203
186 3 2 5 4 203 204 78 77
187 3 2 5 4 40 41 205 204
188 3 2 5 4 204 205 79 78
189 3 2 5 4 41 42 206 205
190 3 2 5 4 205 206 80 79
191 3 2 5 4 42 43 207 206
192 3 2 5 4 206 207 81 80
193 3 2 5 4 43 44 208 207
194 3 2 5 4 207 208 82 81
195 3 2 5 4 44 45 209 208
196 3 2 5 4 208 209 83 82
197 3 2 5 4 45 46 210 209
198 3 2 5 4 209 210 84 83
199 3 2 5 4 46 3 96 210
200 3 2 5 4 210 96 7 84
201 3 2 6 5 1 85 211 93
202 3 2 6 5 93 211 89 5
203 3 2 6 5 85 86 212 211
204 3 2 6 5 211 212 90 89
205 3 2 6 5 86 4 95 212
206 3 2 6 5 212 95 8 90
207 3 2 4 6 2 87 213 94
208 3 2 4 6 94 213 91 6
209 3 2 4 6 87 88 214 213
210 3 2 4 6 213 214 92 91
211 3 2 4 6 88 3 96 214
212 3 2 4 6 214 96 7 92
213 5 2 7 1 1 9 97 85 93 173 215 211
214 5 2 7 1 93 173 215 211 5 47 135 89
215 5 2 7 1 85 97 98 86 211 215 216 212
216 5 2 7 1 211 215 216 212 89 135 136 90
217 5 2 7 1 86 98 28 4 212 216 192 95
218 5 2 7 1 212 216 192 95 90 136 66 8
219 5 2 7 1 9 10 99 97 173 174 217 215
220 5 2 7 1 173 174 217 215 47 48 137 135
221 5 2 7 1 97 99 100 98 215 217 218 216
222 5 2 7 1 215 217 218 216 135 137 138 136
223 5 2 7 1 98 100 29 28 216 218 193 192
224 5 2 7 1 216 218 193 192 136 138 67 66
225 5 2 7 1 10 11 101 99 174 175 219 217
226 5 2 7 1 174 175 219 217 48 49 139 137
227 5 2 7 1 99 101 102 100 217 219 220 218
228 5 2 7 1 217 219 220 218 137 139 140 138
229 5 2 7 1 100 102 30 29 218 220 194 193
230 5 2 7 1 218 220 194 193 138 140 68 67
231 5 2 7 1 11 12 103 101 175 176 221 219
232 5 2 7 1 175 176 221 219 49 50 141 139
233 5 2 7 1 101 103 104 102 219 221 222 220
234 5 2 7 1 219 221 222 220 139 141 142 140
235 5 2 7 1 102 104 31 30 220 222 195 194
236 5 2 7 1 220 222 195 194 140 142 69 68
237 5 2 7 1 12 13 105 103 176 177 223 221
238 5 2 7 1 176 177 223 221 50 51 143 141
239 5 2 7 1 103 105 106 104 221 223 224 222
240 5 2 7 1 221 223 224 222 141 143 144 142
241 5 2 7 1 104 106 32 31 222 224 196 195
242 5 2 7 1 222 224 196 195 142 144 70 69
243 5 2 7 1 13 14 107 105 177 178 225 223
244 5 2 7 1 177 178 225 223 51 52 145 143
245 5 2 7 1 105 107 108 106 223 225 226 224
246 5 2 7 1 223 225 226 224 143 145 146 144
247 5 2 7 1 106 108 33 32 224 226 197 196
248 5 2 7 1 224 226 197 196 144 146 71 70
249 5 2 7 1 14 15 109 107 178 179 227 225
250 5 2 7 1 178 179 227 225 52 53 147 145
251 5 2 7 1 107 109 110 108 225 227 228 226
252 5 2 7 1 225 227 228 226 145 147 148 146
253 5 2 7 1 108 110 34 33 226 228 198 197
254 5 2 7 1 226 228 198 197 146 148 72 71
255 5 2 7 1 15 16 111 109 179 180 229 227
256 5 2 7 1 179 180 229 227 53 54 149 147
257 5 2 7 1 109 111 112 110 227 229 230 228
258 5 2 7 1 227 229 230 228 147 149 150 148
259 5 2 7 1 110 112 35 34 228 230 199 198
260 5 2 7 1 228 230 199 198 148 150 73 72
261 5 2 7 1 16 17 113 111 180 181 231 229
262 5 2 7 1 180 181 231 229 54 55 151 149
263 5 2 7 1 111 113 114 112 229 231 232 230
264 5 2 7 1 229 231 232 230 149 151 152 150
265 5 2 7 1 112 114 36 35 230 232 200 199
266 5 2 7 1 230 232 200 199 150 152 74 73
267 5 2 7 1 17 18 115 113 181 182 233 231
268 5 2 7 1 181 182 233 231 55 56 153 151
269 5 2 7 1 113 115 116 114 231 233 234 232
270 5 2 7 1 231 233 234 232 151 153 154 152
271 5 2 7 1 114 116 37 36 232 234 201 200
272 5 2 7 1 232 234 201 200 152 154 75 74
273 5 2 7 1 18 19 117 115 182 183 235 233
274 5 2 7 1 182 183 235 233 56 57 155 153
275 5 2 7 1 115 117 118 116 233 235 236 234
276 5 2 7 1 233 235 236 234 153 155 156 154
277 5 2 7 1 116 118 38 37 234 236 202 201
278 5 2 7 1 234 236 202 201 154 156 76 75
279 5 2 7 1 19 20 119 117 183 184 237 235
280 5 2 7 1 183 184 237 235 57 58 157 155
281 5 2 7 1 117 119 120 118 235 237 238 236
282 5 2 7 1 235 237 238 236 155 157 158 156
283 5 2 7 1 118 120 39 38 236 238 203 202
284 5 2 7 1 236 238 203 202 156 158 77 76
285 5 2 7 1 20 21 121 119 184 185 239 237
286 5 2 7 1 184 185 239 237 58 59 159 157
287 5 2 7 1 119 121 122 120 237 239 240 238
288 5 2 7 1 237 239 240 238 157 159 160 158
289 5 2 7 1 120 122 40 39 238 240 204 203
290 5 2 7 1 238 240 204 203 158 160 78 77
291 5 2 7 1 21 22 123 121 185 186 241 239
292 5 2 7 1 185 186 241 239 59 60 161 159
293 5 2 7 1 121 123 124 122 239 241 242 240
294 5 2 7 1 239 241 242 240 159 161 162 160
295 5 2 7 1 122 124 41 40 240 242 205 204
296 5 2 7 1 240 242 205 204 160 162 79 78
297 5 2 7 1 22 23 125 123 186 187 243 241
298 5 2 7 1 186 187 243 241 60 61 163 161
299 5 2 7 1 123 125 126 124 241 243 244 242
300 5 2 7 1 241 243 244 242 161 163 164 162
301 5 2 7 1 124 126 42 41 242 244 206 205
302 5 2 7 1 242 244 206 205 162 164 80 79
303 5 2 7 1 23 24 127 125 187 188 245 243
304 5 2 7 1 187 188 245 243 61 62 165 163
305 5 2 7 1 125 127 128 126 243 245 246 244
306 5 2 7 1 243 245 246 244 163 165 166 164
307 5 2 7 1 126 128 43 42 244 246 207 206
308 5 2 7 1 244 246 207 206 164 166 81 80
309 5 2 7 1 24 25 129 127 188 189 247 245
310 5 2 7 1 188 189 247 245 62 63 167 165
311 5 2 7 1 127 129 130 128 245 247 248 246
312 5 2 7 1 245 247 248 246 165 167 168 166
313 5 2 7 1 128 130 44 43 246 248 208 207
314 5 2 7 1 246 248 208 207 166 168 82 81
315 5 2 7 1 25 26 131 129 189 190 249 247
316 5 2 7 1 189 190 249 247 63 64 169 167
317 5 2 7 1 129 131 132 130 247 249 250 248
318 5 2 7 1 247 249 250 248 167 169 170 168
319 5 2 7 1 130 132 45 44 248 250 209 208
320 5 2 7 1 248 250 209 208 168 170 83 82
321 5 2 7 1 26 27 133 131 190 191 251 249
322 5 2 7 1 190 191 251 249 64 65 171 169
323 5 2 7 1 131 133 134 132 249 251 252 250
324 5 2 7 1 249 251 252 250 169 171 172 170
325 5 2 7 1 132 134 46 45 250 252 210 209
326 5 2 7 1 250 252 210 209 170 172 84 83
327 5 2 7 1 27 2 87 133 191 94 213 251
328 5 2 7 1 191 94 213 251 65 6 91 171
329 5 2 7 1 133 87 88 134 251 213 214 252
330 5 2 7 1 251 213 214 252 171 91 92 172
331 5 2 7 1 134 88 3 46 252 214 96 210
332 5 2 7 1 252 214 96 210 172 92 7 84
$EndElements
